<svg xmlns="http://www.w3.org/2000/svg" width="32" height="32" version="1.1">
 <rect style="opacity:0.2;fill-opacity:0.97536945" width="24.448" height="24.448" x="5.55" y="3" rx="1.223" ry="1.223"/>
 <rect style="fill:#696969" width="24.448" height="24.448" x="5.55" y="2" rx="1.223" ry="1.223"/>
 <path style="opacity:0.2;fill-opacity:0.97536945" d="m 14.260242,6.493145 -9.946297,8.309089 1.162111,0.827149 H 4.631817 v 9.823249 H 2.885233 c 0,0 -0.868958,-0.0014 -0.871583,0.871583 L 2,31 h 12.222666 l 0.01365,-4.675785 c 0,0 -0.0021,-0.871583 -0.875,-0.871583 h -1.74658 v -5.455081 l 0.324707,0.232421 5.971197,-10.6777423 z"/>
 <path style="fill:#212529" d="m 14.260242,5.493165 -9.946297,8.309089 1.162111,0.827149 H 4.631817 v 9.823249 H 2.885233 c 0,0 -0.868958,-0.0014 -0.871583,0.871583 L 2,30.00002 h 12.222666 l 0.01365,-4.675785 c 0,0 -0.0021,-0.871583 -0.875,-0.871583 h -1.74658 v -5.455081 l 0.324707,0.232421 5.971197,-10.6777423 z"/>
 <path style="fill:#373a3e" d="m 4.631817,23.581069 c 0,0 -0.871583,-0.0014 -0.871583,0.871583 H 2.885233 c 0,0 -0.871583,-0.0014 -0.871583,0.871583 v 0.440918 c 0,-0.872942 0.871583,-0.875 0.871583,-0.875 h 10.476083 c 0.872946,0 0.875,0.875 0.875,0.875 v -0.440918 c 0,0 -0.0021,-0.871583 -0.875,-0.871583 h -0.871583 c 0,0 -0.0021,-0.871583 -0.875001,-0.871583 z"/>
 <path style="fill:#16a085" d="M 25.606298,19.247144 24.90222,18.247102 c -0.405143,0.06914 -0.819062,0.06916 -1.224224,1.54e-4 l -0.698863,1.010925 -2.010048,-1.152149 0.516719,-1.11295 c -0.132283,-0.158095 -0.250833,-0.327164 -0.35447,-0.505349 -0.103757,-0.178551 -0.192174,-0.365612 -0.264226,-0.559152 l -1.218707,-0.09485 -0.0063,-2.316829 1.152731,-0.09763 1.418029,2.439794 c 0.663317,1.141274 2.126231,1.528733 3.267496,0.865412 1.141302,-0.66332 1.528754,-2.126227 0.865435,-3.267499 l -1.419708,-2.442825 0.657184,-0.950246 2.010039,1.152145 -0.523362,1.115454 c 0.132982,0.155243 0.252558,0.321448 0.357583,0.4968 0.105035,0.180066 0.194451,0.368809 0.267165,0.564193 l 1.219295,0.09585 0.0063,2.316832 -1.224315,0.106872 C 27.553995,16.299921 27.347,16.660796 27.083896,16.97923 l 0.526479,1.103257 z"/>
 <path style="opacity:0.2;fill-opacity:0.98029554" d="M 15.548817,4.7465614 A 3.9285748,3.9285748 0 0 0 11.621569,8.6738112 3.9285748,3.9285748 0 0 0 15.548817,12.604477 3.9285748,3.9285748 0 0 0 19.479485,8.6738112 3.9285748,3.9285748 0 0 0 15.548817,4.7465614 Z M 8.124984,11.719223 a 6.1114907,6.1114907 0 0 0 -6.111334,6.111334 6.1114907,6.1114907 0 0 0 6.111334,6.111332 6.1114907,6.1114907 0 0 0 6.111332,-6.111332 6.1114907,6.1114907 0 0 0 -6.111332,-6.111334 z m 16.156752,0.01365 a 3.9285748,3.9285748 0 0 0 -3.930668,3.92725 3.9285748,3.9285748 0 0 0 3.930668,3.930668 3.9285748,3.9285748 0 0 0 3.927248,-3.930668 3.9285748,3.9285748 0 0 0 -3.927248,-3.92725 z"/>
 <path style="fill:#16a085" d="M 15.548817,3.7465814 A 3.9285748,3.9285748 0 0 0 11.621569,7.6738312 3.9285748,3.9285748 0 0 0 15.548817,11.604497 3.9285748,3.9285748 0 0 0 19.479485,7.6738312 3.9285748,3.9285748 0 0 0 15.548817,3.7465814 Z M 8.124984,10.719243 a 6.1114907,6.1114907 0 0 0 -6.111334,6.111334 6.1114907,6.1114907 0 0 0 6.111334,6.111332 6.1114907,6.1114907 0 0 0 6.111332,-6.111332 6.1114907,6.1114907 0 0 0 -6.111332,-6.111334 z m 16.156752,0.01365 a 3.9285748,3.9285748 0 0 0 -3.930668,3.92725 3.9285748,3.9285748 0 0 0 3.930668,3.930668 3.9285748,3.9285748 0 0 0 3.927248,-3.930668 3.9285748,3.9285748 0 0 0 -3.927248,-3.92725 z"/>
 <circle style="opacity:0.2;fill-opacity:0.98029554" cx="-8.124" cy="17.831" r="3.493" transform="scale(-1,1)"/>
 <circle style="fill:#212529" cx="-8.124" cy="16.831" r="3.493" transform="scale(-1,1)"/>
 <circle style="fill-opacity:0.2" cx="-8.124" cy="16.831" r="2.571" transform="scale(-1,1)"/>
 <path style="fill:#16a085" d="m 14.558818,2.8590031 -0.09081,1.0419117 C 14.138762,4.0238897 13.832711,4.2017162 13.56283,4.426855 l -0.951095,-0.4471021 -0.991008,1.715554 0.86027,0.6007984 c -0.02987,0.1737258 -0.04485,0.3496704 -0.04492,0.5259413 0,0.1766026 0.01497,0.3528888 0.04492,0.5269422 l -0.86027,0.5938076 0.991008,1.7155541 0.894205,-0.4231482 V 6.8220466 c 0,-1.1288131 0.91508,-2.0438969 2.043896,-2.0438969 1.128811,0 2.043892,0.9150838 2.043892,2.0438969 v 2.41615 L 18.487931,9.6583505 19.478941,7.9427964 18.61268,7.3430001 C 18.6443,7.1710871 18.66127,6.99682 18.66357,6.8220466 18.663856,6.6437781 18.64894,6.4658157 18.61865,6.2901178 L 19.478929,5.6953069 18.487923,3.9797529 17.536829,4.426855 C 17.265135,4.2011318 16.95702,4.0232782 16.625662,3.9009148 l -0.08483,-1.0419117 z"/>
 <path style="opacity:0.2;fill-opacity:0.98522168" d="m 17.2528,20.476674 v 0.873134 h -1.309704 v 0.873131 H 17.2528 v 2.619408 h -1.309704 v 0.873132 H 17.2528 v 0.873138 h 0.873136 v -0.873138 h 1.74627 v 0.873138 h 0.873136 v -0.873138 h 1.309702 v -0.873132 h -1.309702 v -2.619408 h 1.309702 v -0.873131 h -1.309702 v -0.873134 h -0.873136 v 0.873134 h -1.74627 v -0.873134 z m 0.873136,1.746265 h 1.74627 v 2.619408 h -1.74627 z m 5.238811,3.49254 v 0.873138 h 1.746271 v -0.873138 z"/>
 <path style="fill:#ffffff" d="m 17.2528,19.476694 v 0.873134 h -1.309704 v 0.873131 H 17.2528 v 2.619408 h -1.309704 v 0.873132 H 17.2528 v 0.873138 h 0.873136 v -0.873138 h 1.74627 v 0.873138 h 0.873136 v -0.873138 h 1.309702 v -0.873132 h -1.309702 v -2.619408 h 1.309702 v -0.873131 h -1.309702 v -0.873134 h -0.873136 v 0.873134 h -1.74627 v -0.873134 z m 0.873136,1.746265 h 1.74627 v 2.619408 h -1.74627 z m 5.238811,3.49254 v 0.873138 h 1.746271 v -0.873138 z"/>
 <path style="opacity:0.2" d="m 8.123698,14.259766 a 2.5714004,2.5714004 0 0 0 -2.572265,2.570312 2.5714004,2.5714004 0 0 0 0.05273,0.50586 2.5714004,2.5714004 0 0 1 2.519531,-2.076172 2.5714004,2.5714004 0 0 1 2.519532,2.066406 2.5714004,2.5714004 0 0 0 0.05273,-0.496094 2.5714004,2.5714004 0 0 0 -2.572266,-2.570312 z"/>
 <path style="opacity:0.2;fill:#ffffff" d="m 15.54948,3.7460938 a 3.9285748,3.9285748 0 0 0 -3.927735,3.9277343 3.9285748,3.9285748 0 0 0 0.03711,0.5039063 3.9285748,3.9285748 0 0 1 3.890625,-3.4316406 3.9285748,3.9285748 0 0 1 3.894531,3.4257812 3.9285748,3.9285748 0 0 0 0.03516,-0.4980469 3.9285748,3.9285748 0 0 0 -3.929687,-3.9277343 z M 8.125652,10.71875 a 6.1114907,6.1114907 0 0 0 -6.111329,6.111328 6.1114907,6.1114907 0 0 0 0.02344,0.488281 6.1114907,6.1114907 0 0 1 6.087891,-5.599609 6.1114907,6.1114907 0 0 1 6.085937,5.621094 6.1114907,6.1114907 0 0 0 0.02539,-0.509766 6.1114907,6.1114907 0 0 0 -6.111328,-6.111328 z m 16.156249,0.01367 a 3.9285748,3.9285748 0 0 0 -3.93164,3.927734 3.9285748,3.9285748 0 0 0 0.03711,0.509766 3.9285748,3.9285748 0 0 1 3.894531,-3.4375 3.9285748,3.9285748 0 0 1 3.890625,3.427734 3.9285748,3.9285748 0 0 0 0.03711,-0.5 3.9285748,3.9285748 0 0 0 -3.927735,-3.927734 z"/>
 <path style="opacity:0.2;stroke:#212529;stroke-width:4.36567688;stroke-linecap:round" d="m 15.54982,8.6759392 8.731354,6.9850868"/>
 <path style="fill:#212529;stroke:#212529;stroke-width:4.36567688;stroke-linecap:round" d="m 15.54982,7.6759592 8.731354,6.9850868"/>
</svg>
