<svg xmlns="http://www.w3.org/2000/svg" width="32" height="32" version="1.1">
 <g transform="translate(31.578125)">
  <path style="fill:#4f4f4f" d="M -15.577794,2.9770048 -27.841465,8.6745521 V 19.832819 l 1.311523,0.603418 v 1.625148 l 1.749023,0.803954 v -1.624241 l 1.530274,0.70414 1.530275,0.703233 v -1.624242 l 1.748045,0.803954 v 1.625148 1.62515 l 2e-6,0.895177 1.311525,0.608862 -2e-6,-0.901527 7e-6,-0.932116 1.749023,0.803954 -8e-6,0.933022 1.311524,0.60342 v 0.747696 l 0.450194,-0.206887 1.311526,-0.603418 v 1.186873 l 1.74902,-0.812119 v -1.178709 l 1.31055,-0.603418 v -1.62515 l 1.7490204,-0.803954 v 1.624241 l 1.7490253,-0.803954 8.8e-6,-1.184704 1.3115248,-0.60342 -8.7e-6,1.184704 1.4e-5,0.742505 1.3115213,-0.609771 -1.4e-5,-0.736152 1.3437512,-0.618846 V 8.6745521 Z"/>
  <path style="opacity:0.2" d="m -15.616856,3.0006452 c -0.15043,0.00507 -0.29796,0.040005 -0.432616,0.1025326 l -12.262697,5.6966427 c -0.356648,0.1656202 -0.581977,0.5042578 -0.582033,0.8747297 V 24.32448 c 5.6e-5,0.370471 0.225385,0.709113 0.582033,0.874732 l 12.262697,5.697547 c 0.296317,0.137655 0.645087,0.137655 0.941408,0 l 12.263668,-5.697547 c 0.3566504,-0.16562 0.5819754,-0.504261 0.5820296,-0.874732 V 9.6745502 C -2.2624206,9.3040783 -2.4877456,8.9654372 -2.844396,8.7998205 L -15.108064,3.1031778 c -0.157675,-0.07322 -0.33263,-0.1084825 -0.508792,-0.1025326 z m 0.03908,0.9763594 12.2636746,5.6975473 V 23.18479 l -1.3437512,0.618846 v 0.736151 l -1.3115213,0.609772 V 24.407054 23.22235 l -1.3115301,0.60342 v 1.184704 l -1.7490201,0.803954 v -1.624241 l -1.7490249,0.803954 v 1.62515 l -1.310545,0.603418 v 1.178709 l -1.749026,0.812119 v -1.186873 l -1.311526,0.603418 -0.450193,0.206887 v -0.747696 l -1.311525,-0.60342 v -0.933022 l -1.749029,-0.803954 v 0.932116 0.901527 l -1.311527,-0.608862 v -0.895177 -1.62515 -1.625148 l -1.748048,-0.803954 v 1.624242 l -1.530272,-0.703232 -1.530275,-0.704141 v 1.624241 l -1.749025,-0.803954 v -1.625148 l -1.311523,-0.603418 V 9.6745519 Z"/>
  <path style="fill:#848484" d="m -15.577985,6.7419079 8.3892866,3.8975571 -8.3892866,3.5078 -8.389284,-3.5078 z"/>
  <path style="opacity:0.2" d="M -15.577796,4.233742 -27.32343,9.6906187 v 9.1445473 l 1.256123,0.577929 v 1.556501 l 1.675142,0.769994 v -1.555631 l 1.465632,0.674396 1.465634,0.673529 v -1.555633 l 1.674207,0.769994 v 1.556499 1.5565 0.814838 l 1.256122,0.583142 V 24.436306 23.5728 l 1.67514,0.769994 v 0.864373 l 1.256123,0.57793 v 0.716113 l 0.431183,-0.198148 1.25612,-0.577929 v 1.13674 l 1.67514,-0.777815 v -1.128921 l 1.255189,-0.577929 v -1.392242 l 1.6751419,-0.769995 v 1.391375 l 1.6751437,-0.769995 v -0.951798 l 1.2561198,-0.57793 v 0.9518 0.693864 l 1.2561233,-0.584015 v -0.687778 l 1.2869916,-0.592705 V 9.6906187 Z m 0,3.5084264 8.3897416,3.8968986 v 8.59182 l -8.3897416,3.897768 v -8.981163 l -8.389738,-3.508425 z"/>
  <path style="fill:#16a085" d="m -15.616856,2.0006455 c -0.15043,0.00507 -0.29796,0.040005 -0.432616,0.1025326 l -12.262697,5.6966426 c -0.356648,0.1656202 -0.581977,0.5042578 -0.582033,0.8747297 V 23.32448 c 5.6e-5,0.370471 0.225385,0.709113 0.582033,0.874732 l 12.262697,5.697547 c 0.296317,0.137655 0.645087,0.137655 0.941408,0 l 12.263668,-5.697547 c 0.3566504,-0.16562 0.5819754,-0.504261 0.5820296,-0.874732 V 8.6745504 C -2.2624206,8.3040785 -2.4877456,7.9654374 -2.844396,7.7998207 L -15.108064,2.1031781 c -0.157675,-0.07322 -0.33263,-0.1084826 -0.508792,-0.1025326 z m 0.03908,0.9763593 12.2636746,5.6975473 V 22.18479 l -1.3437512,0.618846 v 0.736151 l -1.3115213,0.609772 V 23.407054 22.22235 l -1.3115301,0.60342 v 1.184704 l -1.7490201,0.803954 v -1.624241 l -1.7490249,0.803954 v 1.62515 l -1.310545,0.603418 v 1.178709 l -1.749026,0.812119 v -1.186873 l -1.311526,0.603418 -0.450193,0.206887 v -0.747696 l -1.311525,-0.60342 v -0.933022 l -1.749029,-0.803954 v 0.932116 0.901527 l -1.311527,-0.608862 v -0.895177 -1.62515 -1.625148 l -1.748048,-0.803954 v 1.624242 l -1.530272,-0.703232 -1.530275,-0.704141 v 1.624241 l -1.749025,-0.803954 v -1.625148 l -1.311523,-0.603418 V 8.6745521 Z"/>
  <path style="fill:#4f4f4f" d="m -7.1886984,10.639465 1.89e-4,8.591632 -8.3892866,3.897558 -1.89e-4,-8.98139 z"/>
  <path style="fill:#fabd7f" d="M -15.577796,3.2337423 -27.32343,8.6906189 v 9.1445471 l 1.256123,0.577929 v 1.556501 l 1.675142,0.769994 v -1.555631 l 1.465632,0.674396 1.465634,0.673529 v -1.555633 l 1.674207,0.769994 v 1.556499 1.5565 0.814838 l 1.256122,0.583142 V 23.436306 22.5728 l 1.67514,0.769994 v 0.864373 l 1.256123,0.57793 v 0.716113 l 0.431183,-0.198148 1.25612,-0.577929 v 1.13674 l 1.67514,-0.777815 v -1.128921 l 1.255189,-0.577929 v -1.392242 l 1.6751419,-0.769995 v 1.391375 l 1.6751437,-0.769995 v -0.951798 l 1.2561198,-0.57793 v 0.9518 0.693864 l 1.2561233,-0.584015 v -0.687778 l 1.2869916,-0.592705 V 8.6906189 Z m 0,3.5084264 8.3897416,3.8968983 v 8.59182 l -8.3897416,3.897768 v -8.981163 l -8.389738,-3.508425 z"/>
  <path style="opacity:0.2;fill:#ffffff" d="m -15.617188,2 c -0.15043,0.00507 -0.296984,0.040988 -0.43164,0.1035156 L -28.3125,7.8007812 c -0.356648,0.1656203 -0.581975,0.502575 -0.582031,0.8730469 v 1 c 5.6e-5,-0.3704719 0.225383,-0.7074267 0.582031,-0.8730469 l 12.263672,-5.6972656 c 0.127327,-0.059125 0.266286,-0.089795 0.408203,-0.097656 l 0.0625,-0.029297 0.07031,0.033203 c 0.138375,0.00881 0.275681,0.035839 0.40039,0.09375 L -2.84375,8.8007812 c 0.3566504,0.1656168 0.5819771,0.502575 0.5820312,0.8730469 v -1 C -2.2617729,8.3033562 -2.4870996,7.9663979 -2.84375,7.8007812 L -15.107422,2.1035156 C -15.265097,2.0302956 -15.441026,1.99405 -15.617188,2 Z m -12.224609,17.832031 v 1 l 1.3125,0.603516 v -1 z m 6.121094,1.191407 v 1 l 1.748047,0.804687 v -1 z m -3.060547,0.216796 v 1 l 1.53125,0.705078 1.529297,0.703126 v -1 L -23.25,21.945312 Z m -1.748047,0.820313 v 1 l 1.748047,0.804687 v -1 z m 23.2148439,0.125 -1.34375,0.617187 v 0.736328 L -5.96875,24.150391 v 0.255859 0.744141 l 1.3105469,-0.611329 v -0.736328 l 1.34375,-0.617187 z m -2.6542969,0.03711 -1.3125,0.603516 v 1 l 1.3125,-0.603516 z m -3.0605469,0.966797 -1.7500001,0.804688 v 1 l 1.7500001,-0.804688 z m 1.7480469,0.820313 -1.7480469,0.804687 v 1 L -7.28125,25.009766 Z m -11.378906,0.738281 v 0.933594 0.06641 l 1.748047,0.804687 v 0.933594 l 1.3125,0.603516 v 0.748047 l 0.449218,-0.207032 1.3125,-0.603515 v -1 l -1.3125,0.603515 -0.449218,0.207032 v -0.748047 l -1.3125,-0.603516 v -0.933594 z m 7.880859,0.871094 -1.310547,0.603515 v 1 l 1.310547,-0.603515 z m -9.193359,0.355468 v 0.103516 0.896484 l 1.3125,0.607422 v -0.90039 -0.09961 z m 7.882812,1.427735 -1.748047,0.810547 v 1 l 1.748047,-0.810547 z"/>
  <path style="opacity:0.2;fill:#ffffff" d="m -15.578125,3.234375 -11.746094,5.4570312 v 1 L -15.578125,4.234375 -3.8320312,9.6914062 v -1 z m -7.255859,7.878906 -1.132813,0.525391 8.388672,3.509766 v -1 z m 15.646484,8.117188 -8.390625,3.898437 v 1 l 4.595703,-2.134765 v -0.0098 L -9.3066406,21.214844 -7.1875,20.230469 Z"/>
  <path style="opacity:0.2" d="m -10.557825,13.010103 -0.658459,0.294616 v 1.020284 0.816922 0.816926 l -0.879195,0.391949 v -0.816925 l -0.768825,0.343282 -0.194544,0.0869 v 1.223867 h -1.478274 l 3.150519,3.344985 3.149769,-3.344985 h -1.4782808 v -2.716055 l -0.8427102,0.376305 V 14.03125 Z"/>
  <path style="fill:#848484" d="m -10.557825,12.010103 -0.658459,0.294616 v 1.020284 0.816922 0.816926 l -0.879195,0.391949 v -0.816925 l -0.768825,0.343282 -0.194544,0.0869 v 1.223867 h -1.478274 l 3.150519,3.344985 3.149769,-3.344985 h -1.4782808 v -2.716055 l -0.8427102,0.376305 V 13.03125 Z"/>
 </g>
</svg>
