<?xml version="1.0" encoding="UTF-8" standalone="no"?>
<svg
   xmlns:dc="http://purl.org/dc/elements/1.1/"
   xmlns:cc="http://creativecommons.org/ns#"
   xmlns:rdf="http://www.w3.org/1999/02/22-rdf-syntax-ns#"
   xmlns:svg="http://www.w3.org/2000/svg"
   xmlns="http://www.w3.org/2000/svg"
   xmlns:xlink="http://www.w3.org/1999/xlink"
   xmlns:sodipodi="http://sodipodi.sourceforge.net/DTD/sodipodi-0.dtd"
   xmlns:inkscape="http://www.inkscape.org/namespaces/inkscape"
   width="16"
   height="16"
   version="1.1"
   id="svg4"
   sodipodi:docname="package-refresh-symbolic.svg"
   inkscape:version="0.92.4 5da689c313, 2019-01-14">
  <metadata
     id="metadata10">
    <rdf:RDF>
      <cc:Work
         rdf:about="">
        <dc:format>image/svg+xml</dc:format>
        <dc:type
           rdf:resource="http://purl.org/dc/dcmitype/StillImage" />
        <dc:title></dc:title>
      </cc:Work>
    </rdf:RDF>
  </metadata>
  <defs
     id="defs8">
    <linearGradient
       inkscape:collect="always"
       id="linearGradient2450">
      <stop
         style="stop-color:#35bf5c;stop-opacity:0.89887643"
         offset="0"
         id="stop2446" />
      <stop
         style="stop-color:#35bf5c;stop-opacity:0"
         offset="1"
         id="stop2448" />
    </linearGradient>
    <radialGradient
       inkscape:collect="always"
       xlink:href="#linearGradient2450"
       id="radialGradient3438"
       gradientUnits="userSpaceOnUse"
       gradientTransform="matrix(2.827672,-2.8518669,3.1382469,3.1116204,-4651.8885,-3868.6472)"
       cx="-174.61034"
       cy="1608.2534"
       fx="-174.61034"
       fy="1608.2534"
       r="57.831055" />
    <radialGradient
       inkscape:collect="always"
       xlink:href="#linearGradient2450"
       id="radialGradient3438-7"
       gradientUnits="userSpaceOnUse"
       gradientTransform="matrix(2.827672,-2.8518669,3.1382469,3.1116204,-4651.8885,-3868.6472)"
       cx="-174.61034"
       cy="1608.2534"
       fx="-174.61034"
       fy="1608.2534"
       r="57.831055" />
    <radialGradient
       inkscape:collect="always"
       xlink:href="#linearGradient2450"
       id="radialGradient3438-75"
       gradientUnits="userSpaceOnUse"
       gradientTransform="matrix(2.827672,-2.8518669,3.1382469,3.1116204,-4651.8885,-3868.6472)"
       cx="-174.61034"
       cy="1608.2534"
       fx="-174.61034"
       fy="1608.2534"
       r="57.831055" />
    <radialGradient
       inkscape:collect="always"
       xlink:href="#linearGradient2450"
       id="radialGradient3438-7-3"
       gradientUnits="userSpaceOnUse"
       gradientTransform="matrix(2.827672,-2.8518669,3.1382469,3.1116204,-4651.8885,-3868.6472)"
       cx="-174.61034"
       cy="1608.2534"
       fx="-174.61034"
       fy="1608.2534"
       r="57.831055" />
    <radialGradient
       r="57.831055"
       fy="1608.2534"
       fx="-174.61034"
       cy="1608.2534"
       cx="-174.61034"
       gradientTransform="matrix(2.827672,-2.8518669,3.1382469,3.1116204,-4651.8885,-3868.6472)"
       gradientUnits="userSpaceOnUse"
       id="radialGradient3438-56"
       xlink:href="#linearGradient2450"
       inkscape:collect="always" />
    <radialGradient
       r="57.831055"
       fy="1608.2534"
       fx="-174.61034"
       cy="1608.2534"
       cx="-174.61034"
       gradientTransform="matrix(2.827672,-2.8518669,3.1382469,3.1116204,-4651.8885,-3868.6472)"
       gradientUnits="userSpaceOnUse"
       id="radialGradient3438-7-2"
       xlink:href="#linearGradient2450"
       inkscape:collect="always" />
    <radialGradient
       r="57.831055"
       fy="1608.2534"
       fx="-174.61034"
       cy="1608.2534"
       cx="-174.61034"
       gradientTransform="matrix(2.827672,-2.8518669,3.1382469,3.1116204,-4651.8885,-3868.6472)"
       gradientUnits="userSpaceOnUse"
       id="radialGradient3438-75-9"
       xlink:href="#linearGradient2450"
       inkscape:collect="always" />
    <radialGradient
       r="57.831055"
       fy="1608.2534"
       fx="-174.61034"
       cy="1608.2534"
       cx="-174.61034"
       gradientTransform="matrix(2.827672,-2.8518669,3.1382469,3.1116204,-4651.8885,-3868.6472)"
       gradientUnits="userSpaceOnUse"
       id="radialGradient3438-7-3-1"
       xlink:href="#linearGradient2450"
       inkscape:collect="always" />
    <radialGradient
       inkscape:collect="always"
       xlink:href="#linearGradient2450"
       id="radialGradient3438-5"
       gradientUnits="userSpaceOnUse"
       gradientTransform="matrix(2.827672,-2.8518669,3.1382469,3.1116204,-4651.8885,-3868.6472)"
       cx="-174.61034"
       cy="1608.2534"
       fx="-174.61034"
       fy="1608.2534"
       r="57.831055" />
    <radialGradient
       inkscape:collect="always"
       xlink:href="#linearGradient2450"
       id="radialGradient3438-7-6"
       gradientUnits="userSpaceOnUse"
       gradientTransform="matrix(2.827672,-2.8518669,3.1382469,3.1116204,-4651.8885,-3868.6472)"
       cx="-174.61034"
       cy="1608.2534"
       fx="-174.61034"
       fy="1608.2534"
       r="57.831055" />
    <radialGradient
       inkscape:collect="always"
       xlink:href="#linearGradient2450"
       id="radialGradient3438-75-2"
       gradientUnits="userSpaceOnUse"
       gradientTransform="matrix(2.827672,-2.8518669,3.1382469,3.1116204,-4651.8885,-3868.6472)"
       cx="-174.61034"
       cy="1608.2534"
       fx="-174.61034"
       fy="1608.2534"
       r="57.831055" />
    <radialGradient
       inkscape:collect="always"
       xlink:href="#linearGradient2450"
       id="radialGradient3438-7-3-9"
       gradientUnits="userSpaceOnUse"
       gradientTransform="matrix(2.827672,-2.8518669,3.1382469,3.1116204,-4651.8885,-3868.6472)"
       cx="-174.61034"
       cy="1608.2534"
       fx="-174.61034"
       fy="1608.2534"
       r="57.831055" />
  </defs>
  <sodipodi:namedview
     pagecolor="#ffffff"
     bordercolor="#666666"
     borderopacity="1"
     objecttolerance="10"
     gridtolerance="10"
     guidetolerance="10"
     inkscape:pageopacity="0"
     inkscape:pageshadow="2"
     inkscape:window-width="1920"
     inkscape:window-height="1053"
     id="namedview6"
     showgrid="false"
     inkscape:zoom="16"
     inkscape:cx="-0.972023"
     inkscape:cy="7.9793446"
     inkscape:window-x="0"
     inkscape:window-y="0"
     inkscape:window-maximized="1"
     inkscape:current-layer="svg4"
     showguides="true"
     inkscape:guide-bbox="true" />
  <path
     style="opacity:0.3;fill:#444444;fill-opacity:1"
     d="M 8,0 1,3.5 v 4.6035176 l 0.7480469,0.36914 V 9.470705 L 2.7460938,9.964846 V 8.966799 l 0.875,0.433594 0.8730468,0.43164 V 8.8339866 L 5.4921875,9.328127 v 0.998047 0.998047 1.169922 l 0.7480469,0.373047 v -1.171875 -0.998047 l 0.9980468,0.49414 v 0.998047 l 0.7480469,0.371094 v 0.002 L 8,12.556643 V 11.498049 7 l -5,-2.25 5,-2.5 5,2.5 v 3.2890625 c 0.715747,0.080256 1.401699,0.3314587 2,0.7324219 V 3.5 Z"
     id="path2"
     inkscape:connector-curvature="0"
     sodipodi:nodetypes="ccccccccccccccccccccccccccccccc" />
  <path
     style="fill:#16a085;fill-opacity:1;stroke-width:1.0372535"
     d="m 0.11483682,11.678259 c 3.315e-5,0.236071 0.13344617,0.451859 0.3446136,0.557395 l 7.26058928,3.630584 c 0.087723,0.04386 0.1832101,0.06579 0.2723368,0.06608 L 7.986016,14.077252 7.2094794,13.692741 V 12.65717 L 6.1739046,12.144876 v 1.034996 1.215978 L 5.3973682,14.00787 V 12.79594 11.760366 10.724791 L 4.3623714,10.212496 v 1.034997 L 3.4563154,10.79938 2.5502595,10.350689 v 1.034997 L 1.5146846,10.873392 V 9.8378156 L 0.11483682,9.1446666 Z"
     id="path1683"
     inkscape:connector-curvature="0"
     sodipodi:nodetypes="ccccccccccccccccccccccc" />
  <path
     inkscape:connector-curvature="0"
     style="fill:#444444;fill-opacity:1;stroke-width:0.54174548"
     d="M 10.549296,9.8999372 A 3.250473,3.250473 0 0 0 9.3073983,11.908387 l 1.0462897,0.305007 a 2.166982,2.166982 0 0 1 0.845844,-1.44677 2.166982,2.166982 0 0 1 3.033844,0.432907 l -0.866688,0.650234 2.600501,0.758025 -4.39e-4,-2.7087284 -0.866686,0.6502344 A 3.250473,3.250473 0 0 0 10.549296,9.8999372 Z m -1.5164847,2.4922728 4.373e-4,2.708728 0.8666876,-0.650234 a 3.250473,3.250473 0 0 0 4.5507678,0.649359 3.250473,3.250473 0 0 0 1.242006,-2.008667 l -1.047027,-0.304184 a 2.166982,2.166982 0 0 1 -0.845214,1.446164 2.166982,2.166982 0 0 1 -3.033845,-0.432907 l 0.866687,-0.650234 z"
     id="path2-6" />
</svg>
