<svg xmlns="http://www.w3.org/2000/svg" width="22" height="22" version="1.1">
 <rect style="opacity:0.2;fill-opacity:0.92118227" width="17.463" height="17.463" x="3.54" y="1.5" rx=".873" ry=".873"/>
 <rect style="fill:#696969" width="17.463" height="17.463" x="3.54" y="1" rx=".873" ry=".873"/>
 <path style="opacity:0.2;fill-opacity:0.94581282" d="M 9.7576631,3.9941406 2.654147,9.9296875 3.486179,10.521484 H 2.88071 v 7.015625 H 1.632663 c 0,0 -0.621147,0.0015 -0.623047,0.625 L 0.999851,21.5 h 8.7304684 l 0.00977,-3.337891 c 0,0 -0.00147,-0.625 -0.625,-0.625 H 7.868995 v -3.894531 l 0.230469,0.164063 4.263672,-7.6269535 z"/>
 <path style="fill:#212529" d="M 9.7576631,3.4941406 2.654147,9.4296875 3.486179,10.021484 H 2.88071 v 7.015625 H 1.632663 c 0,0 -0.621147,0.0015 -0.623047,0.625 L 0.999851,21 h 8.7304684 l 0.00977,-3.337891 c 0,0 -0.00147,-0.625 -0.625,-0.625 H 7.868995 v -3.894531 l 0.230469,0.164063 4.263672,-7.6269535 z"/>
 <path style="fill:#373a3e" d="m 2.88071,16.414062 c 0,10e-7 -0.623047,-4.8e-4 -0.623047,0.623047 h -0.625 c 0,0 -0.623047,0.0015 -0.623047,0.625 v 0.3125 c 0,-0.62353 0.623047,-0.623047 0.623047,-0.623047 h 7.482422 c 0.6235325,0 0.625,0.623047 0.625,0.623047 v -0.3125 c 0,0 -0.00147,-0.625 -0.625,-0.625 H 8.492038 c 0,0 4.8e-4,-0.623047 -0.623047,-0.623047 z"/>
 <path style="fill:#16a085" d="m 17.86179,13.319379 -0.502912,-0.714315 c -0.289388,0.04939 -0.585044,0.0494 -0.874444,1.1e-4 l -0.499189,0.72209 -1.435747,-0.822963 0.369086,-0.794964 c -0.09448,-0.112923 -0.179167,-0.233688 -0.253193,-0.360963 -0.07412,-0.127537 -0.137268,-0.261152 -0.188733,-0.399394 l -0.870504,-0.06775 -0.0045,-1.654877 0.823378,-0.069741 1.012878,1.742709 c 0.473797,0.815196 1.518734,1.091952 2.333923,0.618152 0.815216,-0.4738 1.091966,-1.5187334 0.618167,-2.333927 l -1.014074,-1.7448757 0.469417,-0.6787465 1.435741,0.8229604 -0.373829,0.7967516 c 0.09498,0.1108875 0.180398,0.2296058 0.255416,0.3548565 0.07503,0.1286194 0.138893,0.2634351 0.190832,0.4029955 l 0.870924,0.068466 0.0046,1.6548782 -0.874511,0.07634 c -0.101469,0.277048 -0.249328,0.534816 -0.437259,0.762269 l 0.376055,0.788039 z"/>
 <path style="opacity:0.2;fill-opacity:0.95073891" d="M 10.679538,2.7480469 A 2.8061225,2.8061225 0 0 0 7.872897,5.5546875 2.8061225,2.8061225 0 0 0 10.679538,8.359375 2.8061225,2.8061225 0 0 0 13.484226,5.5546875 2.8061225,2.8061225 0 0 0 10.679538,2.7480469 Z M 5.374851,7.7285156 A 4.3653469,4.3653469 0 0 0 1.009616,12.09375 4.3653469,4.3653469 0 0 0 5.374851,16.458984 4.3653469,4.3653469 0 0 0 9.740085,12.09375 4.3653469,4.3653469 0 0 0 5.374851,7.7285156 Z m 11.539062,0.00977 a 2.8061225,2.8061225 0 0 0 -2.804687,2.8046874 2.8061225,2.8061225 0 0 0 2.804687,2.80664 2.8061225,2.8061225 0 0 0 2.806641,-2.80664 2.8061225,2.8061225 0 0 0 -2.806641,-2.8046874 z"/>
 <path style="fill:#16a085" d="M 10.679538,2.2480469 A 2.8061225,2.8061225 0 0 0 7.872897,5.0546875 2.8061225,2.8061225 0 0 0 10.679538,7.859375 2.8061225,2.8061225 0 0 0 13.484226,5.0546875 2.8061225,2.8061225 0 0 0 10.679538,2.2480469 Z M 5.374851,7.2285156 A 4.3653469,4.3653469 0 0 0 1.009616,11.59375 4.3653469,4.3653469 0 0 0 5.374851,15.958984 4.3653469,4.3653469 0 0 0 9.740085,11.59375 4.3653469,4.3653469 0 0 0 5.374851,7.2285156 Z m 11.539062,0.00977 a 2.8061225,2.8061225 0 0 0 -2.804687,2.8046874 2.8061225,2.8061225 0 0 0 2.804687,2.80664 2.8061225,2.8061225 0 0 0 2.806641,-2.80664 2.8061225,2.8061225 0 0 0 -2.806641,-2.8046874 z"/>
 <circle style="opacity:0.2" cx="-5.374" cy="12.093" r="2.495" transform="scale(-1,1)"/>
 <circle style="fill:#212529" cx="-5.374" cy="11.593" r="2.495" transform="scale(-1,1)"/>
 <circle style="fill-opacity:0.2" cx="-5.374" cy="11.593" r="1.837" transform="scale(-1,1)"/>
 <path style="fill:#16a085" d="m 9.9707396,1.6135743 -0.064868,0.744222 C 9.6706955,2.4456353 9.4520882,2.5726543 9.2593162,2.7334676 L 8.579963,2.4141092 7.872101,3.639504 8.486579,4.0686453 c -0.02133,0.1240898 -0.03204,0.2497644 -0.03209,0.3756721 0,0.1261446 0.01069,0.2520633 0.03209,0.376387 L 7.872101,5.2448524 8.579963,6.4702472 9.2186803,6.1679987 V 4.4443174 c 0,-0.8062944 0.6536284,-1.4599252 1.4599247,-1.4599252 0.806293,0 1.459922,0.6536308 1.459922,1.4599252 v 1.7258201 l 0.638716,0.3001097 0.707863,-1.2253948 -0.618757,-0.4284257 c 0.02258,-0.1227949 0.0347,-0.2472713 0.03635,-0.3721093 2.04e-4,-0.1273345 -0.01045,-0.2544504 -0.03209,-0.3799489 L 13.485098,3.639504 12.777237,2.4141092 12.097885,2.7334676 C 11.903818,2.5722369 11.683736,2.4451987 11.447052,2.3577963 l -0.06059,-0.744222 z"/>
 <path style="opacity:0.2;fill-opacity:0.98522168" d="M 5.374851,9.7558594 A 1.8367131,1.8367131 0 0 0 3.53696,11.59375 a 1.8367131,1.8367131 0 0 0 0.01953,0.25 1.8367131,1.8367131 0 0 1 1.81836,-1.587891 1.8367131,1.8367131 0 0 1 1.816406,1.589844 1.8367131,1.8367131 0 0 0 0.01953,-0.251953 1.8367131,1.8367131 0 0 0 -1.835937,-1.8378906 z"/>
 <path style="opacity:0.2;fill-opacity:0.92592594" d="m 11.895011,13.983344 v 0.623667 h -0.935502 v 0.623664 h 0.935502 v 1.871004 h -0.935502 v 0.623666 h 0.935502 v 0.623669 h 0.623668 v -0.623669 h 1.247335 v 0.623669 h 0.623668 v -0.623669 h 0.9355 v -0.623666 h -0.9355 v -1.871004 h 0.9355 v -0.623664 h -0.9355 v -0.623667 h -0.623668 v 0.623667 h -1.247335 v -0.623667 z m 0.623668,1.247331 h 1.247335 v 1.871004 h -1.247335 z m 3.742005,2.49467 v 0.623669 h 1.247335 v -0.623669 z"/>
 <path style="fill:#ffffff" d="m 11.895011,13.483344 v 0.623667 h -0.935502 v 0.623664 h 0.935502 v 1.871004 h -0.935502 v 0.623666 h 0.935502 v 0.623669 h 0.623668 v -0.623669 h 1.247335 v 0.623669 h 0.623668 v -0.623669 h 0.9355 v -0.623666 h -0.9355 v -1.871004 h 0.9355 v -0.623664 h -0.9355 v -0.623667 h -0.623668 v 0.623667 h -1.247335 v -0.623667 z m 0.623668,1.247331 h 1.247335 v 1.871004 h -1.247335 z m 3.742005,2.49467 v 0.623669 h 1.247335 v -0.623669 z"/>
 <path style="opacity:0.2;fill:#ffffff" d="M 10.679688,2.2480469 A 2.8061225,2.8061225 0 0 0 7.8730469,5.0546875 2.8061225,2.8061225 0 0 0 7.8867188,5.3144531 2.8061225,2.8061225 0 0 1 10.679688,2.7480469 2.8061225,2.8061225 0 0 1 13.470703,5.2929688 2.8061225,2.8061225 0 0 0 13.484375,5.0546875 2.8061225,2.8061225 0 0 0 10.679688,2.2480469 Z M 5.375,7.2285156 A 4.3653469,4.3653469 0 0 0 1.0097656,11.59375 4.3653469,4.3653469 0 0 0 1.0195312,11.810547 4.3653469,4.3653469 0 0 1 5.375,7.7285156 4.3653469,4.3653469 0 0 1 9.7304688,11.876953 4.3653469,4.3653469 0 0 0 9.7402344,11.59375 4.3653469,4.3653469 0 0 0 5.375,7.2285156 Z m 11.539062,0.00977 a 2.8061225,2.8061225 0 0 0 -2.804687,2.8046874 2.8061225,2.8061225 0 0 0 0.01172,0.251953 2.8061225,2.8061225 0 0 1 2.792968,-2.5566404 2.8061225,2.8061225 0 0 1 2.792969,2.5449214 2.8061225,2.8061225 0 0 0 0.01367,-0.240234 2.8061225,2.8061225 0 0 0 -2.80664,-2.8046874 z"/>
 <path style="opacity:0.2;stroke:#212529;stroke-width:3.11833787;stroke-linecap:round" d="m 10.678599,5.5542551 6.236675,4.9893439"/>
 <path style="fill:#212529;stroke:#212529;stroke-width:3.11833787;stroke-linecap:round" d="m 10.678599,5.0542551 6.236675,4.9893439"/>
</svg>
