<svg xmlns="http://www.w3.org/2000/svg" width="22" height="22" version="1.1">
 <path style="fill:#4f4f4f" d="M 11.027547,1.6973954 2.267781,5.7670717 v 7.9701903 l 0.936802,0.431013 v 1.16082 l 1.249304,0.574253 v -1.160173 l 1.093051,0.502957 1.093053,0.502309 v -1.160172 l 1.248604,0.574253 v 1.16082 1.160821 l 3e-6,0.639412 0.936803,0.434901 -2e-6,-0.643948 6e-6,-0.665797 1.249301,0.574253 -5e-6,0.666445 0.936802,0.431014 v 0.534068 l 0.321568,-0.147776 0.936803,-0.431013 v 0.847767 l 1.2493,-0.580086 v -0.841934 l 0.936109,-0.431013 v -1.160821 l 1.2493,-0.574253 v 1.160172 l 1.249303,-0.574253 6e-6,-0.846217 0.936804,-0.431014 -7e-6,0.846217 1e-5,0.53036 0.936801,-0.43555 -10e-6,-0.525823 0.959822,-0.442033 V 5.7670717 Z"/>
 <path style="fill:#848484" d="M 11.027411,4.3866117 17.019757,7.1705806 11.027411,9.6761521 5.035065,7.1705806 Z"/>
 <path style="opacity:0.2" d="M 11.027546,2.4148494 2.637808,6.312617 v 6.531819 l 0.897229,0.412808 v 1.111784 l 1.19653,0.549996 V 13.80786 l 1.04688,0.481711 1.046881,0.481091 v -1.111164 l 1.195862,0.549994 v 1.111785 1.111786 0.582027 l 0.89723,0.41653 V 16.845249 16.22846 l 1.19653,0.549996 v 0.617409 l 0.897231,0.412807 v 0.511509 l 0.307986,-0.141534 0.897229,-0.412807 v 0.811957 l 1.196528,-0.555581 v -0.806372 l 0.896565,-0.412807 v -0.994459 l 1.19653,-0.549996 v 0.993839 l 1.196531,-0.549996 v -0.679856 l 0.897228,-0.412807 v 0.679857 0.495617 l 0.897231,-0.417153 v -0.49127 l 0.919279,-0.423361 V 6.312617 Z m 0,2.5060175 5.992671,2.7834989 V 13.84138 l -5.992671,2.784119 V 10.210384 L 5.034875,7.7043658 Z"/>
 <path style="opacity:0.2" d="m 10.999646,1.5004574 c -0.107451,0.0036 -0.212831,0.028575 -0.309013,0.07324 L 1.931564,5.6427263 C 1.676815,5.7610264 1.515868,6.0029116 1.515828,6.2675331 V 16.731768 c 4e-5,0.264621 0.160987,0.506509 0.415736,0.624808 l 8.759069,4.069676 c 0.211655,0.09833 0.460778,0.09833 0.672434,0 l 8.759763,-4.069676 c 0.25475,-0.1183 0.415697,-0.360187 0.415736,-0.624808 V 6.2675332 C 20.538527,6.0029117 20.37758,5.7610252 20.12283,5.6427264 L 11.363067,1.5736975 c -0.112625,-0.052304 -0.237593,-0.077488 -0.363421,-0.07324 z m 0.02791,0.6973995 8.759767,4.0696763 v 9.6501688 l -0.959822,0.442033 v 0.525822 L 17.8907,17.321108 v -0.53036 -0.846217 l -0.936807,0.431014 v 0.846217 l -1.2493,0.574253 v -1.160172 l -1.249304,0.574253 v 1.160821 l -0.936104,0.431013 v 0.841934 l -1.249303,0.580086 v -0.847767 l -0.936806,0.431013 -0.321565,0.147776 V 19.420904 L 10.074706,18.98989 V 18.323445 L 8.825402,17.749192 v 0.665797 0.643948 L 7.888599,18.624036 V 17.984624 16.823803 15.662984 L 6.639993,15.08873 v 1.160172 L 5.546941,15.746594 4.453887,15.243636 v 1.160173 L 3.204584,15.829556 v -1.16082 L 2.267781,14.237723 V 6.2675332 Z"/>
 <path style="fill:#16a085" d="m 10.999646,0.99999587 c -0.107451,0.0036 -0.212831,0.028575 -0.309013,0.0732401 L 1.931564,5.1422649 C 1.676815,5.260565 1.515868,5.5024502 1.515828,5.7670717 V 16.231307 c 4e-5,0.264621 0.160987,0.506509 0.415736,0.624808 l 8.759069,4.069676 c 0.211655,0.09833 0.460778,0.09833 0.672434,0 l 8.759763,-4.069676 c 0.25475,-0.1183 0.415697,-0.360187 0.415736,-0.624808 V 5.7670717 C 20.538527,5.5024502 20.37758,5.2605637 20.12283,5.1422649 L 11.363067,1.073236 C 11.250442,1.020932 11.125474,0.99574837 10.999646,0.99999587 Z m 0.02791,0.69739953 8.759767,4.0696763 v 9.6501693 l -0.959822,0.442033 v 0.525822 L 17.8907,16.820647 v -0.53036 -0.846217 l -0.936807,0.431014 v 0.846217 l -1.2493,0.574253 v -1.160172 l -1.249304,0.574253 v 1.160821 l -0.936104,0.431013 v 0.841934 l -1.249303,0.580086 v -0.847767 l -0.936806,0.431013 -0.321565,0.147776 V 18.920443 L 10.074706,18.489429 V 17.822984 L 8.825402,17.248731 v 0.665797 0.643948 L 7.888599,18.123575 v -0.639412 -1.160821 -1.16082 L 6.639993,14.588269 v 1.160172 L 5.546941,15.246133 4.453887,14.743175 v 1.160173 L 3.204584,15.329095 v -1.16082 L 2.267781,13.737262 V 5.7670717 Z"/>
 <path style="fill:#4f4f4f" d="m 17.019757,7.1705806 1.35e-4,6.1368804 -5.992346,2.783969 -1.35e-4,-6.4152779 z"/>
 <path style="fill:#fabd7f" d="M 11.027546,1.8807804 2.637808,5.778548 v 6.531819 l 0.897229,0.412808 v 1.111784 l 1.19653,0.549996 v -1.111164 l 1.04688,0.481711 1.046881,0.481091 v -1.111164 l 1.195862,0.549994 v 1.111785 1.111786 0.582027 l 0.89723,0.41653 V 16.31118 15.694391 l 1.19653,0.549996 v 0.617409 l 0.897231,0.412807 v 0.511509 l 0.307986,-0.141534 0.897229,-0.412807 v 0.811957 l 1.196528,-0.555581 v -0.806372 l 0.896565,-0.412807 v -0.994459 l 1.19653,-0.549996 v 0.993839 L 16.70355,15.168356 V 14.4885 l 0.897228,-0.412807 v 0.679857 0.495617 l 0.897231,-0.417153 v -0.49127 l 0.919279,-0.423361 V 5.778548 Z m 0,2.5060175 5.992671,2.7834989 V 13.307311 L 11.027546,16.09143 V 9.6763159 L 5.034875,7.1702968 Z"/>
 <path style="opacity:0.2" d="M 14.613239,8.6836768 14.142911,8.894117 v 0.7287757 0.5835153 0.583518 l -0.627998,0.279963 v -0.583517 l -0.549159,0.245202 -0.138962,0.06208 v 0.874192 h -1.055909 l 2.250372,2.389273 2.249834,-2.389273 H 15.215175 V 9.7278003 L 14.613239,9.9965905 V 9.4130737 Z"/>
 <path style="fill:#848484" d="M 14.613239,8.1496078 14.142911,8.360048 V 9.0888237 9.6723396 10.255857 L 13.514913,10.53582 V 9.9523036 l -0.549159,0.2452014 -0.138962,0.06208 v 0.874192 h -1.055909 l 2.250372,2.389273 2.249834,-2.389273 H 15.215175 V 9.1937313 L 14.613239,9.4625215 V 8.8790047 Z"/>
 <path style="opacity:0.2;fill:#ffffff" d="m 11.000213,1.0000055 c -0.107451,0.0036 -0.214364,0.0276 -0.310546,0.072266 L 1.931854,5.142584 c -0.254749,0.1183001 -0.415976,0.3603785 -0.416016,0.625 v 0.5332031 c 4e-5,-0.2646215 0.161267,-0.5066999 0.416016,-0.625 l 8.757813,-4.0683593 c 0.09618,-0.044665 0.203095,-0.070619 0.310546,-0.074219 0.125828,-0.00425 0.250657,0.021915 0.363282,0.074219 l 8.759765,4.0683593 c 0.254751,0.1182988 0.415977,0.3603786 0.416016,0.625 V 5.7675836 c -3.9e-5,-0.2646215 -0.161265,-0.5067012 -0.416016,-0.625 L 11.363495,1.0722711 C 11.25087,1.0199671 11.126041,0.99575797 11.000213,1.0000055 Z M 2.267791,13.736333 v 0.535156 l 0.9375,0.431641 v -0.535156 z m 4.373047,0.851563 v 0.535156 l 1.248047,0.574219 v -0.535157 z m -2.1875,0.15625 v 0.533203 l 1.09375,0.501953 1.09375,0.503906 V 15.748052 L 5.547088,15.246099 Z M 3.205291,15.32813 v 0.535156 l 1.248047,0.574219 v -0.533203 z m 16.582032,0.08984 -0.958985,0.441406 v 0.525391 l -0.9375,0.435546 v 0.0039 0.53125 l 0.9375,-0.435547 v -0.527344 l 0.958985,-0.441406 z m -1.896485,0.02539 -0.9375,0.431641 v 0.533203 l 0.9375,-0.429687 z m -2.185546,0.691407 -1.25,0.574218 v 0.535157 l 1.25,-0.574219 z m 1.248046,0.585937 -1.248046,0.574219 v 0.535156 l 1.248046,-0.574219 z m -8.128906,0.527344 v 0.535156 l 1.25,0.574219 v -0.535156 z m 5.63086,0.623047 -0.935547,0.429687 v 0.535157 l 0.935547,-0.431641 z m -6.566407,0.251953 v 0.535156 l 0.935547,0.433594 v -0.533203 z m 2.185547,0.367187 v 0.533204 l 0.9375,0.43164 v -0.535156 z m 0.9375,0.964844 v 0.533203 l 0.320313,-0.148437 0.9375,-0.429688 v -0.535152 l -0.9375,0.431641 z m 2.507813,-0.3125 -1.25,0.580078 v 0.535156 l 1.25,-0.580078 z"/>
 <path style="opacity:0.2;fill:#ffffff" d="M 11.027557,1.8808649 2.636932,5.7793024 V 6.3125055 L 11.027557,2.414068 19.418182,6.3125055 V 5.7793024 Z M 5.640838,7.4238336 5.03537,7.7050836 11.027557,10.210943 V 9.6757867 Z m 11.378907,5.8828124 -5.992188,2.785156 v 0.533203 l 5.992188,-2.783203 z"/>
</svg>
