<?xml version="1.0" encoding="UTF-8" standalone="no"?>
<svg
   xmlns:dc="http://purl.org/dc/elements/1.1/"
   xmlns:cc="http://creativecommons.org/ns#"
   xmlns:rdf="http://www.w3.org/1999/02/22-rdf-syntax-ns#"
   xmlns:svg="http://www.w3.org/2000/svg"
   xmlns="http://www.w3.org/2000/svg"
   xmlns:sodipodi="http://sodipodi.sourceforge.net/DTD/sodipodi-0.dtd"
   xmlns:inkscape="http://www.inkscape.org/namespaces/inkscape"
   width="16"
   height="16"
   version="1.1"
   id="svg4"
   sodipodi:docname="package-refresh-color-symbolic.svg"
   inkscape:version="0.92.4 5da689c313, 2019-01-14">
  <metadata
     id="metadata10">
    <rdf:RDF>
      <cc:Work
         rdf:about="">
        <dc:format>image/svg+xml</dc:format>
        <dc:type
           rdf:resource="http://purl.org/dc/dcmitype/StillImage" />
        <dc:title />
      </cc:Work>
    </rdf:RDF>
  </metadata>
  <defs
     id="defs8" />
  <sodipodi:namedview
     pagecolor="#ffffff"
     bordercolor="#666666"
     borderopacity="1"
     objecttolerance="10"
     gridtolerance="10"
     guidetolerance="10"
     inkscape:pageopacity="0"
     inkscape:pageshadow="2"
     inkscape:window-width="1920"
     inkscape:window-height="1053"
     id="namedview6"
     showgrid="false"
     inkscape:zoom="10.429825"
     inkscape:cx="10.932774"
     inkscape:cy="14.895458"
     inkscape:window-x="1920"
     inkscape:window-y="0"
     inkscape:window-maximized="1"
     inkscape:current-layer="svg4" />
  <path
     style="fill:#dfdfdf;fill-opacity:1"
     d="M 8,0 1,3.5 v 9 L 8,16 V 13.75 7 l -5,-2.25 5,-2.5 5,2.5 v 3.2890625 c 0.715747,0.080256 1.401699,0.3314587 2,0.7324219 V 3.5 Z"
     id="path2"
     inkscape:connector-curvature="0"
     sodipodi:nodetypes="ccccccccccccc" />
  <path
     inkscape:connector-curvature="0"
     style="fill:#4285f4;stroke-width:0.51412427;fill-opacity:1"
     d="m 10.648754,10.032503 a 3.0847457,3.0847457 0 0 0 -1.1785792,1.906048 l 0.9929442,0.289456 a 2.0564971,2.0564971 0 0 1 0.802718,-1.373006 2.0564971,2.0564971 0 0 1 2.879162,0.410835 l -0.8225,0.617082 2.467913,0.719376 -4.16e-4,-2.570622 -0.822498,0.617082 a 3.0847457,3.0847457 0 0 0 -4.318744,-0.616251 z m -1.4391657,2.365203 4.149e-4,2.570622 0.8224988,-0.617082 a 3.0847457,3.0847457 0 0 0 4.318744,0.616251 3.0847457,3.0847457 0 0 0 1.178682,-1.906254 l -0.993644,-0.288675 a 2.0564971,2.0564971 0 0 1 -0.80212,1.372431 2.0564971,2.0564971 0 0 1 -2.879163,-0.410835 L 11.6775,13.117082 Z"
     id="path2-6" />
</svg>
