<?xml version="1.0" encoding="UTF-8" standalone="no"?>
<svg
   xmlns:dc="http://purl.org/dc/elements/1.1/"
   xmlns:cc="http://creativecommons.org/ns#"
   xmlns:rdf="http://www.w3.org/1999/02/22-rdf-syntax-ns#"
   xmlns:svg="http://www.w3.org/2000/svg"
   xmlns="http://www.w3.org/2000/svg"
   xmlns:sodipodi="http://sodipodi.sourceforge.net/DTD/sodipodi-0.dtd"
   xmlns:inkscape="http://www.inkscape.org/namespaces/inkscape"
   width="16"
   height="16"
   version="1.1"
   id="svg4"
   sodipodi:docname="package-error-color-symbolic.svg"
   inkscape:version="0.92.4 5da689c313, 2019-01-14">
  <metadata
     id="metadata10">
    <rdf:RDF>
      <cc:Work
         rdf:about="">
        <dc:format>image/svg+xml</dc:format>
        <dc:type
           rdf:resource="http://purl.org/dc/dcmitype/StillImage" />
        <dc:title></dc:title>
      </cc:Work>
    </rdf:RDF>
  </metadata>
  <defs
     id="defs8" />
  <sodipodi:namedview
     pagecolor="#ffffff"
     bordercolor="#666666"
     borderopacity="1"
     objecttolerance="10"
     gridtolerance="10"
     guidetolerance="10"
     inkscape:pageopacity="0"
     inkscape:pageshadow="2"
     inkscape:window-width="1920"
     inkscape:window-height="1053"
     id="namedview6"
     showgrid="false"
     inkscape:zoom="14.75"
     inkscape:cx="8.5466698"
     inkscape:cy="9.2257814"
     inkscape:window-x="1920"
     inkscape:window-y="0"
     inkscape:window-maximized="1"
     inkscape:current-layer="svg4" />
  <path
     style="fill:#dfdfdf;fill-opacity:1"
     d="M 8,0 1,3.5 v 9 L 8,16 V 13.75 7 L 3,4.75 8,2.25 13,4.75 V 8.5136388 C 13.577987,7.9356513 14.409848,7.9579251 15,7.9579251 V 3.5 Z"
     id="path2"
     inkscape:connector-curvature="0"
     sodipodi:nodetypes="ccccccccccccc" />
  <path
     inkscape:connector-curvature="0"
     style="fill:#4285f4;stroke-width:1.39999998;fill-opacity:1"
     d="m 9.0000001,9 v 1.4 c 0,0.392 0.14,0.756 0.392,1.008 L 10.484,12.5 9.3920001,13.592 c -0.252,0.252 -0.392,0.616 -0.392,1.008 V 16 H 10.4 c 0.392,0 0.756,-0.14 1.008,-0.392 l 1.092,-1.092 1.092,1.092 C 13.844,15.86 14.208,16 14.6,16 H 16 v -1.4 c 0,-0.392 -0.14,-0.756 -0.392,-1.008 L 14.516,12.5 15.608,11.408 C 15.86,11.156 16,10.792 16,10.4 V 9 H 14.6 C 14.208,9 13.844,9.14 13.592,9.392 L 12.5,10.484 11.408,9.392 C 11.156,9.14 10.792,9 10.4,9 Z"
     id="path1082" />
</svg>
