<?xml version="1.0" encoding="UTF-8" standalone="no"?>
<svg
   xmlns:dc="http://purl.org/dc/elements/1.1/"
   xmlns:cc="http://creativecommons.org/ns#"
   xmlns:rdf="http://www.w3.org/1999/02/22-rdf-syntax-ns#"
   xmlns:svg="http://www.w3.org/2000/svg"
   xmlns="http://www.w3.org/2000/svg"
   xmlns:sodipodi="http://sodipodi.sourceforge.net/DTD/sodipodi-0.dtd"
   xmlns:inkscape="http://www.inkscape.org/namespaces/inkscape"
   width="16"
   height="16"
   version="1.1"
   id="svg4"
   sodipodi:docname="package-settings-symbolic.svg"
   inkscape:version="0.92.4 5da689c313, 2019-01-14">
  <metadata
     id="metadata10">
    <rdf:RDF>
      <cc:Work
         rdf:about="">
        <dc:format>image/svg+xml</dc:format>
        <dc:type
           rdf:resource="http://purl.org/dc/dcmitype/StillImage" />
        <dc:title />
      </cc:Work>
    </rdf:RDF>
  </metadata>
  <defs
     id="defs8" />
  <sodipodi:namedview
     pagecolor="#ffffff"
     bordercolor="#666666"
     borderopacity="1"
     objecttolerance="10"
     gridtolerance="10"
     guidetolerance="10"
     inkscape:pageopacity="0"
     inkscape:pageshadow="2"
     inkscape:window-width="1920"
     inkscape:window-height="1053"
     id="namedview6"
     showgrid="false"
     inkscape:zoom="10.429825"
     inkscape:cx="15.200486"
     inkscape:cy="13.042685"
     inkscape:window-x="1920"
     inkscape:window-y="0"
     inkscape:window-maximized="1"
     inkscape:current-layer="svg4" />
  <path
     style="fill:#dddddd;fill-opacity:0.29803923"
     d="M 8,0 1,3.5 v 9 L 8,16 V 13.75 7 l -5,-2.25 5,-2.5 5,2.5 v 3.2890625 c 0.715747,0.080256 1.401699,0.3314587 2,0.7324219 V 3.5 Z"
     id="path2"
     inkscape:connector-curvature="0"
     sodipodi:nodetypes="ccccccccccccc" />
  <path
     id="path853"
     d="m 11.625,9 -0.08,0.92 a 2.7499998,2.7499998 0 0 0 -0.799999,0.465 L 9.9050012,9.99 l -0.875,1.515 0.76,0.53 a 2.7499998,2.7499998 0 0 0 -0.04,0.465 2.7499998,2.7499998 0 0 0 0.04,0.465 l -0.76,0.525 0.875,1.515 L 10.74,14.61 a 2.7499998,2.7499998 0 0 0 0.805,0.464999 L 11.625,16 h 1.749999 l 0.075,-0.925001 A 2.7499998,2.7499998 0 0 0 14.255,14.61 l 0.839999,0.395 0.875,-1.515 -0.765,-0.53 a 2.7499998,2.7499998 0 0 0 0.045,-0.46 2.7499998,2.7499998 0 0 0 -0.04001,-0.47 l 0.759999,-0.525 -0.875,-1.515 -0.839999,0.395 A 2.7499998,2.7499998 0 0 0 13.449988,9.92 L 13.374988,9 Z m 0.875,2.5 a 0.99999991,0.99999991 0 0 1 0.999999,1 0.99999991,0.99999991 0 0 1 -0.999999,1 0.99999991,0.99999991 0 0 1 -1,-1 0.99999991,0.99999991 0 0 1 1,-1 z"
     style="fill:#dfdfdf;stroke-width:0.49999994"
     inkscape:connector-curvature="0" />
</svg>
