<svg xmlns="http://www.w3.org/2000/svg" width="48" height="48" version="1.1">
 <rect style="opacity:0.2;fill-opacity:0.98522168" width="34.925" height="34.925" x="9.07" y="5" rx="1.747" ry="1.747"/>
 <rect style="fill:#696969" width="34.925" height="34.925" x="9.07" y="4" rx="1.747" ry="1.747"/>
 <path style="opacity:0.2;fill-opacity:0.97044337" d="M 21.514631,9.9902044 7.305635,21.860331 8.965794,23.041975 H 7.759738 v 14.033214 h -2.49512 c 0,0 -1.241371,-0.0019 -1.245118,1.245118 L 4,45 h 17.460951 l 0.0195,-6.679693 c 0,0 -0.003,-1.245118 -1.250001,-1.245118 h -2.495112 v -7.792977 l 0.463868,0.332033 8.530279,-15.25392 z"/>
 <path style="fill:#212529" d="M 21.514631,8.9902354 7.305635,20.860362 8.965794,22.042006 H 7.759738 V 36.07522 h -2.49512 c 0,0 -1.241371,-0.0019 -1.245118,1.245118 L 4,44.000031 h 17.460951 l 0.0195,-6.679693 c 0,0 -0.003,-1.245118 -1.250001,-1.245118 h -2.495112 v -7.792977 l 0.463868,0.332033 8.530279,-15.25392 z"/>
 <path style="fill:#373a3e" d="m 7.759738,34.830101 c 0,0 -1.245119,-0.0019 -1.245119,1.245119 H 5.264618 c 0,0 -1.245118,-0.0019 -1.245118,1.245118 v 0.629883 c 0,-1.247061 1.245118,-1.250001 1.245118,-1.250001 H 20.23045 c 1.247066,0 1.250001,1.250001 1.250001,1.250001 v -0.629883 c 0,0 -0.003,-1.245118 -1.250001,-1.245118 h -1.245118 c 0,0 -0.003,-1.245119 -1.250001,-1.245119 z"/>
 <path style="fill:#16a085" d="m 37.723279,28.638776 -1.005825,-1.428631 c -0.578776,0.09877 -1.170089,0.0988 -1.748892,2.2e-4 l -0.998376,1.444181 -2.871497,-1.645926 0.738171,-1.589931 c -0.188976,-0.225851 -0.358333,-0.467376 -0.506386,-0.721926 -0.148225,-0.255075 -0.274535,-0.522305 -0.377465,-0.798788 l -1.741012,-0.1355 -0.009,-3.309758 1.646759,-0.139475 2.025757,3.48542 c 0.947596,1.630394 3.037472,2.183907 4.667851,1.236304 1.630431,-0.947598 2.183934,-3.037468 1.236336,-4.667856 l -2.028154,-3.489748 0.938833,-1.357496 2.871485,1.645923 -0.74766,1.593504 c 0.189975,0.221775 0.360797,0.459213 0.510832,0.709713 0.150051,0.257241 0.277788,0.526871 0.381666,0.805993 l 1.741849,0.136926 0.009,3.309757 -1.749022,0.152675 c -0.202825,0.554098 -0.498533,1.069634 -0.874396,1.524539 l 0.752114,1.576081 z"/>
 <path style="opacity:0.2;fill-opacity:0.92610836" d="m 23.355453,7.4950874 a 5.6122497,5.6122497 0 0 0 -5.610357,5.6103546 5.6122497,5.6122497 0 0 0 5.610357,5.615239 5.6122497,5.6122497 0 0 0 5.615239,-5.615239 5.6122497,5.6122497 0 0 0 -5.615239,-5.6103546 z M 12.749974,17.456033 a 8.730701,8.730701 0 0 0 -8.730474,8.730474 8.730701,8.730701 0 0 0 8.730474,8.730477 8.730701,8.730701 0 0 0 8.730477,-8.730477 8.730701,8.730701 0 0 0 -8.730477,-8.730474 z m 23.081074,0.0195 a 5.6122497,5.6122497 0 0 0 -5.61524,5.610354 5.6122497,5.6122497 0 0 0 5.61524,5.61524 5.6122497,5.6122497 0 0 0 5.610354,-5.61524 5.6122497,5.6122497 0 0 0 -5.610354,-5.610354 z"/>
 <path style="fill:#16a085" d="m 23.355453,6.4951184 a 5.6122497,5.6122497 0 0 0 -5.610357,5.6103546 5.6122497,5.6122497 0 0 0 5.610357,5.615239 5.6122497,5.6122497 0 0 0 5.615239,-5.615239 5.6122497,5.6122497 0 0 0 -5.615239,-5.6103546 z M 12.749974,16.456064 a 8.730701,8.730701 0 0 0 -8.730474,8.730474 8.730701,8.730701 0 0 0 8.730474,8.730477 8.730701,8.730701 0 0 0 8.730477,-8.730477 8.730701,8.730701 0 0 0 -8.730477,-8.730474 z m 23.081074,0.0195 a 5.6122497,5.6122497 0 0 0 -5.61524,5.610354 5.6122497,5.6122497 0 0 0 5.61524,5.61524 5.6122497,5.6122497 0 0 0 5.610354,-5.61524 5.6122497,5.6122497 0 0 0 -5.610354,-5.610354 z"/>
 <circle style="opacity:0.2" cx="-12.748" cy="26.187" r="4.99" transform="scale(-1,1)"/>
 <circle style="fill:#212529" cx="-12.748" cy="25.187" r="4.99" transform="scale(-1,1)"/>
 <circle style="fill-opacity:0.2" cx="-12.748" cy="25.187" r="3.673" transform="scale(-1,1)"/>
 <path style="fill:#16a085" d="M 21.941165,5.2271471 21.81143,6.7155924 C 21.341077,6.8912707 20.903862,7.1453086 20.518318,7.4669355 L 19.15961,6.8282182 17.743884,9.2790097 18.972842,10.137293 c -0.04267,0.24818 -0.06407,0.499529 -0.06417,0.751345 0,0.252289 0.02138,0.504127 0.06417,0.752774 l -1.228958,0.848297 1.415726,2.450792 1.277436,-0.604498 v -3.447365 c 0,-1.6125904 1.307258,-2.919853 2.919852,-2.919853 1.612588,0 2.919845,1.3072626 2.919845,2.919853 v 3.451643 l 1.277434,0.60022 1.415728,-2.450792 -1.237515,-0.856852 c 0.04517,-0.24559 0.06941,-0.494543 0.0727,-0.744219 4.09e-4,-0.254669 -0.0209,-0.508901 -0.06417,-0.759899 L 28.96989,9.2790097 27.554167,6.8282182 26.195462,7.4669355 C 25.807327,7.1444738 25.367162,6.8903972 24.893794,6.7155924 L 24.772612,5.2271471 Z"/>
 <path style="opacity:0.2" d="m 25.78971,29.966674 v 1.247335 h -1.871005 v 1.24733 h 1.871005 v 3.742011 h -1.871005 v 1.247332 h 1.871005 v 1.247339 h 1.247337 v -1.247339 h 2.494672 v 1.247339 h 1.247337 v -1.247339 h 1.871003 V 36.20335 h -1.871003 v -3.742011 h 1.871003 v -1.24733 h -1.871003 v -1.247335 h -1.247337 v 1.247335 h -2.494672 v -1.247335 z m 1.247337,2.494665 h 2.494672 v 3.742011 h -2.494672 z m 7.484017,4.989343 v 1.247339 h 2.494672 v -1.247339 z"/>
 <path style="fill:#ffffff" d="m 25.78971,28.966705 v 1.247335 h -1.871005 v 1.24733 h 1.871005 v 3.742011 h -1.871005 v 1.247332 h 1.871005 v 1.247339 h 1.247337 v -1.247339 h 2.494672 v 1.247339 h 1.247337 v -1.247339 h 1.871003 V 35.203381 H 30.779056 V 31.46137 h 1.871003 v -1.24733 h -1.871003 v -1.247335 h -1.247337 v 1.247335 h -2.494672 v -1.247335 z m 1.247337,2.494665 h 2.494672 v 3.742011 h -2.494672 z m 7.484017,4.989343 v 1.247339 h 2.494672 v -1.247339 z"/>
 <path style="fill-opacity:0.98029554;opacity:0.2" d="m 12.747917,21.513672 a 3.6734293,3.6734293 0 0 0 -3.673828,3.673828 3.6734293,3.6734293 0 0 0 0.03906,0.498047 3.6734293,3.6734293 0 0 1 3.634766,-3.171875 3.6734293,3.6734293 0 0 1 3.634766,3.173828 3.6734293,3.6734293 0 0 0 0.03906,-0.5 3.6734293,3.6734293 0 0 0 -3.673828,-3.673828 z"/>
 <path style="opacity:0.2;fill:#ffffff" d="m 23.355339,6.4960938 a 5.6122497,5.6122497 0 0 0 -5.609375,5.6093752 5.6122497,5.6122497 0 0 0 0.02539,0.511719 5.6122497,5.6122497 0 0 1 5.583985,-5.1230474 5.6122497,5.6122497 0 0 1 5.589844,5.1035154 5.6122497,5.6122497 0 0 0 0.02539,-0.492187 5.6122497,5.6122497 0 0 0 -5.615234,-5.6093752 z M 12.74987,16.457031 a 8.730701,8.730701 0 0 0 -8.730469,8.730469 8.730701,8.730701 0 0 0 0.01953,0.414062 8.730701,8.730701 0 0 1 8.710937,-8.146484 8.730701,8.730701 0 0 1 8.710937,8.316406 8.730701,8.730701 0 0 0 0.01953,-0.583984 8.730701,8.730701 0 0 0 -8.730469,-8.730469 z m 23.082031,0.01758 a 5.6122497,5.6122497 0 0 0 -5.615234,5.611329 5.6122497,5.6122497 0 0 0 0.02539,0.509765 5.6122497,5.6122497 0 0 1 5.589844,-5.121094 5.6122497,5.6122497 0 0 1 5.583985,5.101563 5.6122497,5.6122497 0 0 0 0.02539,-0.490234 5.6122497,5.6122497 0 0 0 -5.609376,-5.611329 z"/>
 <path style="fill:#212529;stroke:#212529;stroke-width:6.23668098;stroke-linecap:round" d="m 23.356885,12.108515 12.47336,9.978696"/>
 <path style="opacity:0.2;fill-opacity:0.92610836;stroke:#212529;stroke-width:6.23668098;stroke-linecap:round" d="m 23.356885,13.108484 12.47336,9.978696"/>
</svg>
