<svg xmlns="http://www.w3.org/2000/svg" xmlns:xlink="http://www.w3.org/1999/xlink" width="48" height="48" version="1.1">
 <defs>
  <linearGradient id="linearGradient2450">
   <stop style="stop-color:#35bf5c;stop-opacity:0.89887643" offset="0"/>
   <stop style="stop-color:#35bf5c;stop-opacity:0" offset="1"/>
  </linearGradient>
  <radialGradient id="radialGradient3438" cx="-174.61" cy="1608.253" r="57.831" fx="-174.61" fy="1608.253" gradientTransform="matrix(2.827672,-2.8518669,3.1382469,3.1116204,-4651.8885,-3868.6472)" gradientUnits="userSpaceOnUse" xlink:href="#linearGradient2450"/>
  <radialGradient id="radialGradient3438-7" cx="-174.61" cy="1608.253" r="57.831" fx="-174.61" fy="1608.253" gradientTransform="matrix(2.827672,-2.8518669,3.1382469,3.1116204,-4651.8885,-3868.6472)" gradientUnits="userSpaceOnUse" xlink:href="#linearGradient2450"/>
 </defs>
 <g transform="translate(54.082531)">
  <path style="fill:#4f4f4f" d="m -30.081635,5.3957211 -17.519531,8.1393539 v 15.940382 l 1.873604,0.862026 v 2.32164 l 2.498605,1.148506 v -2.320345 l 2.186105,1.005914 2.186107,1.004618 v -2.320345 l 2.497208,1.148507 v 2.32164 2.321642 l 5e-6,1.278824 1.873605,0.869804 -3e-6,-1.287897 1.3e-5,-1.331594 2.498602,1.148506 -1.2e-5,1.332889 1.873607,0.862029 v 1.068136 l 0.643133,-0.295553 1.87361,-0.862026 v 1.695535 l 2.4986,-1.160172 v -1.683869 l 1.872217,-0.862026 v -2.321642 l 2.4986,-1.148507 v 2.320345 l 2.498608,-1.148506 1.2e-5,-1.692434 1.873607,-0.862029 -1.2e-5,1.692435 2e-5,1.060721 1.873602,-0.871101 -2e-5,-1.051646 1.919644,-0.884066 V 13.535075 Z"/>
  <path style="fill:#848484" d="M -30.081905,10.774154 -18.09721,16.342093 -30.081905,21.353236 -42.0666,16.342093 Z"/>
  <path style="opacity:0.2" d="m -30.081635,6.762491 -16.779478,7.795535 v 13.06364 l 1.794459,0.825613 v 2.223573 l 2.39306,1.099992 v -2.222329 l 2.09376,0.963421 2.093762,0.962185 v -2.222333 l 2.391725,1.099992 v 2.223569 2.223573 1.164054 l 1.79446,0.83306 v -1.172741 -1.233579 l 2.39306,1.099992 v 1.234818 l 1.794462,0.825614 v 1.023018 l 0.615973,-0.283067 1.794457,-0.825614 v 1.623914 l 2.393058,-1.111163 v -1.612745 l 1.793129,-0.825613 v -1.988917 l 2.39306,-1.099994 v 1.98768 l 2.393063,-1.099994 v -1.359711 l 1.794457,-0.825614 v 1.359714 0.991234 l 1.794462,-0.834306 V 31.68642 l 1.838559,-0.84672 V 14.558026 Z m 0,5.012035 11.985345,5.566998 v 12.274031 l -11.985345,5.568239 V 22.353563 l -11.985343,-5.012038 z"/>
  <path style="opacity:0.2" d="m -30.137435,5.0009216 c -0.2149,0.00725 -0.425661,0.05715 -0.618026,0.1464752 L -48.2736,13.285455 c -0.509498,0.2366 -0.831393,0.720372 -0.831473,1.249614 v 20.928474 c 8e-5,0.529243 0.321975,1.013018 0.831473,1.249616 l 17.518139,8.139354 c 0.423311,0.19665 0.921556,0.19665 1.344869,0 l 17.519529,-8.139354 c 0.509501,-0.2366 0.831394,-0.720373 0.831471,-1.249616 V 14.535069 c -7.7e-5,-0.529242 -0.32197,-1.013019 -0.831471,-1.249614 L -29.410592,5.1473968 c -0.22525,-0.1046001 -0.475185,-0.1549752 -0.726843,-0.1464752 z m 0.05582,1.394799 17.519536,8.1393534 v 19.300341 l -1.919644,0.884066 v 1.051643 l -1.873602,0.871104 v -1.060721 -1.692435 l -1.873615,0.862029 v 1.692434 l -2.4986,1.148506 v -2.320345 l -2.498608,1.148507 v 2.321642 l -1.872209,0.862026 v 1.683869 l -2.498608,1.160172 v -1.695535 l -1.873609,0.862026 -0.643131,0.295553 V 40.84182 l -1.87361,-0.862029 v -1.332889 l -2.498612,-1.148506 v 1.331594 1.287897 l -1.873605,-0.869804 v -1.278824 -2.321642 -2.32164 l -2.49721,-1.148507 v 2.320345 l -2.186105,-1.004616 -2.186107,-1.005916 v 2.320345 l -2.498608,-1.148506 v -2.32164 l -1.873604,-0.862026 V 14.535075 Z"/>
  <path style="fill:#4f4f4f" d="m -18.09721,16.342093 2.7e-4,12.273761 -11.984695,5.567941 -2.7e-4,-12.830559 z"/>
  <path style="opacity:0.2" d="m -22.910247,19.300148 -0.940656,0.42088 v 1.457549 1.167034 1.167036 l -1.255997,0.559926 v -1.167034 l -1.098318,0.4904 -0.277923,0.124151 v 1.748382 h -2.11182 l 4.500745,4.77855 4.49967,-4.77855 h -2.11183 v -3.88008 l -1.203871,0.537581 v -1.167034 z"/>
  <path style="fill:#848484" d="m -22.910247,18.300148 -0.940656,0.42088 v 1.457549 1.167034 1.167036 l -1.255997,0.559926 v -1.167034 l -1.098318,0.4904 -0.277923,0.124151 v 1.748382 h -2.11182 l 4.500745,4.77855 4.49967,-4.77855 h -2.11183 v -3.88008 l -1.203871,0.537581 v -1.167034 z"/>
  <path style="fill:#fabd7f" d="m -30.081635,5.7624915 -16.779478,7.7955355 v 13.06364 l 1.794459,0.825613 v 2.223572 l 2.39306,1.099992 v -2.222328 l 2.09376,0.963421 2.093762,0.962184 v -2.222333 l 2.391725,1.099992 v 2.223569 2.223573 1.164054 l 1.79446,0.83306 v -1.172741 -1.233579 l 2.39306,1.099992 v 1.234818 l 1.794462,0.825614 v 1.023018 l 0.615973,-0.283067 1.794457,-0.825614 v 1.623914 l 2.393058,-1.111163 v -1.612745 l 1.793129,-0.825613 v -1.988917 l 2.39306,-1.099994 v 1.98768 l 2.393063,-1.099994 v -1.359711 l 1.794457,-0.825614 v 1.359714 0.991234 l 1.794462,-0.834306 V 30.686421 L -13.302147,29.8397 V 13.558027 Z m 0,5.0120355 11.985345,5.566998 v 12.274031 l -11.985345,5.568239 V 21.353563 l -11.985343,-5.012038 z"/>
  <path style="fill:#16a085" d="m -30.137435,4.0009221 c -0.2149,0.00725 -0.425661,0.05715 -0.618026,0.1464752 L -48.2736,12.285456 c -0.509498,0.2366 -0.831393,0.720371 -0.831473,1.249614 v 20.928473 c 8e-5,0.529243 0.321975,1.013018 0.831473,1.249616 l 17.518139,8.139354 c 0.423311,0.19665 0.921556,0.19665 1.344869,0 l 17.519529,-8.139354 c 0.509501,-0.2366 0.831394,-0.720373 0.831471,-1.249616 V 13.53507 c -7.7e-5,-0.529243 -0.32197,-1.013019 -0.831471,-1.249614 L -29.410592,4.1473973 c -0.22525,-0.1046001 -0.475185,-0.1549752 -0.726843,-0.1464752 z m 0.05582,1.394799 17.519536,8.1393539 v 19.300341 l -1.919644,0.884066 v 1.051643 l -1.873602,0.871104 v -1.060721 -1.692435 l -1.873615,0.862029 v 1.692434 l -2.4986,1.148506 v -2.320345 l -2.498608,1.148507 v 2.321642 l -1.872209,0.862026 v 1.683869 l -2.498608,1.160172 v -1.695535 l -1.873609,0.862026 -0.643131,0.295553 v -1.068136 l -1.87361,-0.862029 v -1.332889 l -2.498612,-1.148506 v 1.331594 1.287897 l -1.873605,-0.869804 v -1.278824 -2.321642 -2.32164 l -2.49721,-1.148507 v 2.320345 l -2.186105,-1.004616 -2.186107,-1.005916 v 2.320345 l -2.498608,-1.148506 v -2.32164 l -1.873604,-0.862026 V 13.535075 Z"/>
  <path style="opacity:0.2;fill:#ffffff" d="m -30.082031,5.7617188 -16.779297,7.7968752 v 1 l 16.779297,-7.7968752 16.779297,7.7968752 v -1 z m -10.851563,11.0546872 -1.132812,0.525391 11.984375,5.011719 v -1 z m 22.837891,11.798828 -11.986328,5.56836 v 1 l 11.986328,-5.56836 z"/>
  <path style="opacity:0.2;fill:#ffffff" d="m -30.136719,4 c -0.2149,0.00725 -0.426775,0.057159 -0.61914,0.1464844 l -17.517579,8.1386716 c -0.509498,0.2366 -0.831951,0.720757 -0.832031,1.25 v 1 c 8e-5,-0.529242 0.322533,-1.0134 0.832031,-1.25 L -30.755859,5.1464844 C -30.563494,5.0571592 -30.351619,5.00725 -30.136719,5 c 0.251658,-0.0085 0.501313,0.041884 0.726563,0.1464844 l 17.519531,8.1386716 c 0.509501,0.236595 0.830001,0.720758 0.830078,1.25 v -1 c -7.7e-5,-0.529243 -0.320577,-1.013405 -0.830078,-1.25 L -29.410156,4.1464844 C -29.635406,4.0418843 -29.885061,3.9915 -30.136719,4 Z m -17.464843,25.474609 v 1 l 1.873046,0.863282 v -1 z m 8.74414,1.703125 v 1 l 2.498047,1.148438 v -1 z m -4.371094,0.308594 v 1 l 2.185547,1.007813 2.185547,1.003906 v -1 l -2.185547,-1.003906 z m -2.5,1.171875 v 1 l 2.5,1.150391 v -1 z m 33.166016,0.177735 -1.919922,0.882812 v 1 l 1.919922,-0.882812 z m -3.792969,0.05273 -1.873047,0.863281 v 1 l 1.873047,-0.863281 z m -4.373047,1.382812 -2.498046,1.148438 v 1 l 2.498046,-1.148438 z m 6.246094,0.5 -1.873047,0.871094 v 1 l 1.873047,-0.871094 z m -3.746094,0.671875 -2.5,1.148438 v 1 l 2.5,-1.148438 z m -16.257812,1.054688 v 1 l 2.498047,1.148437 v -1 z m 11.259766,1.244141 -1.871094,0.861328 v 1 l 1.871094,-0.861328 z m -13.132813,0.505859 v 1 l 1.873047,0.869141 v -1 z m 4.371094,0.732422 v 1 l 1.875,0.861328 v -1 z m 4.390625,0.771484 -1.873047,0.863281 -0.642578,0.294922 v 1 l 0.642578,-0.294922 1.873047,-0.863281 z m 2.5,0.535156 -2.5,1.160157 v 1 l 2.5,-1.160157 z"/>
 </g>
</svg>
