<?xml version="1.0" encoding="UTF-8" standalone="no"?>
<svg
   xmlns:dc="http://purl.org/dc/elements/1.1/"
   xmlns:cc="http://creativecommons.org/ns#"
   xmlns:rdf="http://www.w3.org/1999/02/22-rdf-syntax-ns#"
   xmlns:svg="http://www.w3.org/2000/svg"
   xmlns="http://www.w3.org/2000/svg"
   xmlns:sodipodi="http://sodipodi.sourceforge.net/DTD/sodipodi-0.dtd"
   xmlns:inkscape="http://www.inkscape.org/namespaces/inkscape"
   viewBox="0 0 24 24"
   version="1.1"
   id="svg6"
   sodipodi:docname="media-playback-paused.svg"
   inkscape:version="0.92.4 5da689c313, 2019-01-14">
  <metadata
     id="metadata10">
    <rdf:RDF>
      <cc:Work
         rdf:about="">
        <dc:format>image/svg+xml</dc:format>
        <dc:type
           rdf:resource="http://purl.org/dc/dcmitype/StillImage" />
      </cc:Work>
    </rdf:RDF>
  </metadata>
  <sodipodi:namedview
     pagecolor="#ffffff"
     bordercolor="#666666"
     borderopacity="1"
     objecttolerance="10"
     gridtolerance="10"
     guidetolerance="10"
     inkscape:pageopacity="0"
     inkscape:pageshadow="2"
     inkscape:window-width="922"
     inkscape:window-height="931"
     id="namedview8"
     showgrid="false"
     inkscape:zoom="9.8333333"
     inkscape:cx="23.580673"
     inkscape:cy="3.8188126"
     inkscape:window-x="967"
     inkscape:window-y="0"
     inkscape:window-maximized="0"
     inkscape:current-layer="svg6" />
  <defs
     id="defs3051">
    <style
       type="text/css"
       id="current-color-scheme">
      .ColorScheme-Text {
        color:#4d4d4d;
      }
      </style>
  </defs>
  <path
     inkscape:connector-curvature="0"
     class="ColorScheme-Text"
     d="M 13.249999,8.249957 H 15.75 v 7.500086 h -2.500001 z m -4.999999,0 h 2.500001 v 7.500086 H 8.25 Z M 11.999999,2.000073 C 6.46,2.000073 2,6.459963 2,12 2,17.540037 6.46,21.999927 11.999999,21.999927 17.540001,21.999927 22,17.540037 22,12 22,6.459963 17.540001,2.000073 11.999999,2.000073 Z m 0,1.250015 c 4.8475,0 8.750001,3.902287 8.750001,8.749912 0,4.847625 -3.902501,8.749912 -8.750001,8.749912 C 7.152499,20.749912 3.25,16.847625 3.25,12 3.25,7.152375 7.152499,3.250088 11.999999,3.250088 Z"
     style="color:#31363b;fill:#4d4d4d;fill-opacity:1;stroke:none;stroke-width:1.87492764"
     id="path3804" />
</svg>
