<?xml version="1.0" encoding="UTF-8" standalone="no"?>
<svg
   xmlns:dc="http://purl.org/dc/elements/1.1/"
   xmlns:cc="http://creativecommons.org/ns#"
   xmlns:rdf="http://www.w3.org/1999/02/22-rdf-syntax-ns#"
   xmlns:svg="http://www.w3.org/2000/svg"
   xmlns="http://www.w3.org/2000/svg"
   xmlns:sodipodi="http://sodipodi.sourceforge.net/DTD/sodipodi-0.dtd"
   xmlns:inkscape="http://www.inkscape.org/namespaces/inkscape"
   viewBox="0 0 24 24"
   version="1.1"
   id="svg6"
   sodipodi:docname="update-none.svg"
   width="24"
   height="24"
   inkscape:version="0.92.4 5da689c313, 2019-01-14">
  <metadata
     id="metadata10">
    <rdf:RDF>
      <cc:Work
         rdf:about="">
        <dc:format>image/svg+xml</dc:format>
        <dc:type
           rdf:resource="http://purl.org/dc/dcmitype/StillImage" />
        <dc:title></dc:title>
      </cc:Work>
    </rdf:RDF>
  </metadata>
  <sodipodi:namedview
     pagecolor="#ffffff"
     bordercolor="#666666"
     borderopacity="1"
     objecttolerance="10"
     gridtolerance="10"
     guidetolerance="10"
     inkscape:pageopacity="0"
     inkscape:pageshadow="2"
     inkscape:window-width="1914"
     inkscape:window-height="1047"
     id="namedview8"
     showgrid="false"
     inkscape:zoom="10.727273"
     inkscape:cx="22.512712"
     inkscape:cy="10.720339"
     inkscape:window-x="3"
     inkscape:window-y="3"
     inkscape:window-maximized="0"
     inkscape:current-layer="svg6" />
  <defs
     id="defs3051">
    <style
       type="text/css"
       id="current-color-scheme">
      .ColorScheme-Text {
        color:#4d4d4d;
      }
      </style>
  </defs>
  <path
     style="color:#4d4d4d;opacity:1;fill:currentColor;fill-opacity:1;stroke:none;stroke-width:1.25004339"
     d="M 12.159918,2.0014367 C 9.857618,1.9639822 7.5429951,2.7184031 5.6533443,4.2695818 1.8741076,7.3720643 0.89403863,12.764994 3.3388108,16.999516 l -1.0815805,0.625022 2.8736348,1.22807 0.3735482,-3.103135 -1.0815805,0.625021 C 2.2796336,12.662365 3.1361637,7.9561314 6.4492704,5.2364123 9.762377,2.5166931 14.544639,2.5941762 17.768022,5.419524 L 18.590804,4.47955 C 16.752318,2.8680567 14.462217,2.0388911 12.159918,2.0014367 Z m 6.709217,3.1470818 -0.373549,3.1006936 1.084023,-0.6250217 C 21.722808,11.336319 20.863837,16.044995 17.55073,18.764713 14.237622,21.484433 9.455361,21.40695 6.2319776,18.581602 l -0.8227824,0.939974 c 3.6769728,3.222987 9.1581588,3.312326 12.9374608,0.209969 3.779237,-3.102358 4.759305,-8.497854 2.314533,-12.7323763 L 21.74277,6.374147 Z M 12.001221,5.7491253 7.0010473,10.749299 H 9.501134 v 6.250217 h 5.000174 v -6.250217 h 2.500086 z"
     class="ColorScheme-Text"
     id="path4"
     inkscape:connector-curvature="0" />
</svg>
