<?xml version="1.0" encoding="UTF-8" standalone="no"?>
<svg
   xmlns:dc="http://purl.org/dc/elements/1.1/"
   xmlns:cc="http://creativecommons.org/ns#"
   xmlns:rdf="http://www.w3.org/1999/02/22-rdf-syntax-ns#"
   xmlns:svg="http://www.w3.org/2000/svg"
   xmlns="http://www.w3.org/2000/svg"
   xmlns:sodipodi="http://sodipodi.sourceforge.net/DTD/sodipodi-0.dtd"
   xmlns:inkscape="http://www.inkscape.org/namespaces/inkscape"
   width="16"
   height="16"
   version="1.1"
   id="svg4"
   sodipodi:docname="manjaro-settings-manager.svg"
   inkscape:version="0.92.4 5da689c313, 2019-01-14">
  <metadata
     id="metadata10">
    <rdf:RDF>
      <cc:Work
         rdf:about="">
        <dc:format>image/svg+xml</dc:format>
        <dc:type
           rdf:resource="http://purl.org/dc/dcmitype/StillImage" />
        <dc:title></dc:title>
      </cc:Work>
    </rdf:RDF>
  </metadata>
  <defs
     id="defs8" />
  <sodipodi:namedview
     pagecolor="#ffffff"
     bordercolor="#666666"
     borderopacity="1"
     objecttolerance="10"
     gridtolerance="10"
     guidetolerance="10"
     inkscape:pageopacity="0"
     inkscape:pageshadow="2"
     inkscape:window-width="1920"
     inkscape:window-height="1053"
     id="namedview6"
     showgrid="false"
     showguides="true"
     inkscape:guide-bbox="true"
     inkscape:zoom="32"
     inkscape:cx="15.841766"
     inkscape:cy="4.5495342"
     inkscape:window-x="0"
     inkscape:window-y="0"
     inkscape:window-maximized="1"
     inkscape:current-layer="svg4" />
  <path
     style="fill:#444444;fill-opacity:1;stroke-width:1.02709424;opacity:0.3"
     d="M 9.3064549,1.2174856 8.2271295,2.7777358 A 5.6490187,5.6490187 0 0 0 6.312611,2.7924202 L 5.2296151,1.222993 2.1164585,3.0200329 2.9277881,4.7344719 A 5.6490187,5.6490187 0 0 0 1.9732825,6.3883368 l -1.89983274,0.1596952 0.0036711,3.60326 1.89249084,0.154188 a 5.6490187,5.6490187 0 0 0 0.4056643,0.868233 5.6490187,5.6490187 0 0 0 0.5488413,0.785632 l -0.8131659,1.714439 3.1186639,1.806218 1.079325,-1.56025 a 5.6490187,5.6490187 0 0 0 1.912682,-0.01468 L 9.3064549,15.47449 10.475724,14.798993 9.8920075,14.43004 A 0.88197968,0.88197968 0 0 1 9.4808358,13.684792 V 11.988714 H 8.7741343 l -0.4992798,0.49928 c -0.5583626,0.558362 -1.4571123,0.558362 -2.0154749,0 L 5.7600998,11.988714 H 5.0533987 c -0.789645,0 -1.424416,-0.636606 -1.424416,-1.426251 V 9.8575969 L 3.1278674,9.3564817 c -0.5583635,-0.5583635 -0.5583635,-1.4571123 0,-2.0154759 L 3.6289827,6.8398905 V 6.1350249 c 0,-0.7896449 0.634771,-1.4262514 1.424416,-1.4262514 H 5.7600998 L 6.2593796,4.2094937 c 0.2791813,-0.2791814 0.6433901,-0.4185135 1.007738,-0.4185135 0.3643468,0 0.7285557,0.1393321 1.0077369,0.4185135 L 8.7741343,4.7087735 H 9.4808358 V 3.0365531 A 0.88197968,0.88197968 0 0 1 9.9434041,2.2619349 L 10.501423,1.9095021 Z m 1.4978401,1.0572986 a 0.88197968,0.88197968 0 0 1 0.0202,0.011013 c -0.111557,-0.06865 -0.1222,-0.072226 -0.01652,-0.011013 z"
     id="path904"
     inkscape:connector-curvature="0" />
  <path
     style="fill:#444444;stroke-width:0.27356961;fill-opacity:1;opacity:1"
     d="m 12.683936,1.615808 c -0.03469,-0.00462 -0.07143,0.00217 -0.102793,0.022028 l -2.215554,1.4005529 c -0.0012,-7.076e-4 -0.0024,-0.00113 -0.0037,-0.00184 v 1.9824345 c 0.33006,0.2608501 0.545169,0.6607486 0.545169,1.1160373 v 0.7067011 l 0.49928,0.4992798 c 0.558363,0.5583635 0.558363,1.4571123 0,2.0154759 l -0.49928,0.4992797 v 0.7067038 c 0,0.455289 -0.215109,0.855188 -0.545169,1.116038 v 2.006297 l 2.18802,1.380361 c 0.06051,0.03838 0.138929,0.02818 0.190901,-0.02203 l 1.228009,-1.187625 c 0.05333,-0.05154 0.06333,-0.132212 0.02386,-0.194573 L 12.57559,11.416003 c 0.245189,-0.436855 0.432685,-0.895687 0.56169,-1.369348 l 2.659766,-0.6039088 c 0.0704,-0.01594 0.119822,-0.076732 0.12115,-0.1486833 l 0.02937,-1.7089318 c 7.39e-4,-0.037039 -0.01144,-0.07165 -0.03304,-0.099122 -0.02158,-0.027481 -0.05191,-0.048699 -0.08811,-0.056903 L 15.78608,7.421774 13.155681,6.8270432 C 13.030761,6.3078317 12.838147,5.8003923 12.573802,5.3218619 l 1.411566,-2.2375818 c 0.03877,-0.061313 0.02974,-0.1410747 -0.02019,-0.1927367 L 12.777555,1.6635359 c -0.02561,-0.026498 -0.05892,-0.043098 -0.09361,-0.047726 z"
     id="path902"
     inkscape:connector-curvature="0" />
  <g
     style="fill:#16a085;fill-opacity:1"
     inkscape:label="Ebene 1"
     id="g918"
     transform="matrix(0.02783986,0,0,0.02783986,10.675633,-1.0306147)">
    <g
       id="g916"
       style="fill:#16a085;fill-opacity:1">
      <g
         id="g912"
         transform="matrix(1.2196132,0,0,1.0000088,-467.56616,-225.96506)"
         style="fill:#16a085;fill-opacity:1">
        <path
           style="opacity:1;fill:#16a085;fill-opacity:1;fill-rule:evenodd;stroke:none;stroke-width:7.07399988;stroke-linecap:round;stroke-linejoin:miter;stroke-miterlimit:4;stroke-dasharray:21.222, 21.222;stroke-dashoffset:0;stroke-opacity:1"
           d="m 326.78555,462.86115 h 38.21089 v 199.99824 h -38.21089 z"
           id="path908"
           inkscape:connector-curvature="0"
           sodipodi:nodetypes="ccccc" />
        <path
           inkscape:connector-curvature="0"
           style="opacity:1;fill:#16a085;fill-opacity:1;fill-rule:evenodd;stroke:none;stroke-width:7.07399988;stroke-linecap:round;stroke-linejoin:miter;stroke-miterlimit:4;stroke-dasharray:21.222, 21.222;stroke-dashoffset:0;stroke-opacity:1"
           d="m 259.00415,533.59174 h 47.99468 v 129.26767 h -47.99468 z"
           id="path910" />
      </g>
      <path
         inkscape:connector-curvature="0"
         id="path914"
         d="m -222.41168,236.90016 h 129.26633 v 44.87847 h -83.32411 l 0.46166,155.12155 h -46.40388 z"
         style="fill:#16a085;fill-opacity:1;fill-rule:evenodd;stroke:none;stroke-width:0.93749994px;stroke-linecap:butt;stroke-linejoin:miter;stroke-opacity:1"
         sodipodi:nodetypes="ccccccc" />
    </g>
  </g>
</svg>
