<svg id="svg8" width="800" height="800" version="1.1" viewBox="0 0 800 800" xmlns="http://www.w3.org/2000/svg">
 <g id="layer1">
  <g id="g114291" transform="translate(19.234 194.96)" fill-rule="evenodd" stroke-linecap="round" stroke-linejoin="round">
   <path id="path107332" d="m380.77-32.928-71.091 35.546 15.131 15.131 55.96-27.98 55.959 27.98 15.131-15.131zm-71.091 71.09-71.09 35.546 15.131 15.131 55.959-27.98 71.091 12.849zm71.091 35.546 71.09-12.849 55.959 27.98 15.131-15.131-71.09-35.546zm142.18 0 12.46 12.46 58.135-47.757zm-284.36 0-70.594-35.297 58.134 47.757zm-142.18 35.546-71.09 35.544 15.131 15.131 55.959-27.979 71.09 12.848zm71.09 35.544 71.09-12.848 71.09 12.848-71.09-35.544zm142.18 0 71.091-12.848 71.09 12.848-71.09-35.544zm142.18 0 71.09-12.848 71.09 12.848-71.09-35.544zm142.18 0 71.091-12.848 55.959 27.979 15.131-15.131-71.09-35.544zm-613.27-11.137 36.885 55.089 9.102-9.102zm800 0-45.986 45.987 9.102 9.102zm-613.27 46.682-71.09 35.546 71.09-12.849 71.09 12.849zm71.09 35.546 71.09-12.849 71.091 12.849-71.091-35.546zm142.18 0 71.09-12.849 71.09 12.849-71.09-35.546zm142.18 0 71.09-12.849 71.091 12.849-71.091-35.546zm-542.18 9.7458 45.987 41.252-45.987 41.251 183.95 82.503 216.05 193.8 216.05-193.8 183.95-82.503-45.987-41.252 45.987-41.251-183.95 91.975-216.05 216.05-216.05-216.05zm257.82 25.799-71.09 35.546 71.09-12.849 71.09 12.849zm71.09 35.546 71.091-12.849 71.09 12.849-71.09-35.546zm142.18 0 71.09-12.849 71.09 12.849-71.09-35.546zm-142.18 35.545-71.09 35.546 71.09-12.849 71.091 12.849zm71.091 35.546 71.09-12.849 71.09 12.849-71.09-35.546zm0 35.545-71.091 35.546 71.091-12.849 71.09 12.849z" fill="#1c241c" stroke-width="5.7142" style="paint-order:stroke markers fill"/>
   <path id="path107338" d="m380.77-174.36-212.77 212.77 70.594 35.297 71.09-35.546 71.091 35.546-71.091-71.09 71.091-35.546 71.09 35.546-71.09 71.09 71.09-35.546 71.09 35.546 70.595-35.297zm142.18 248.07-71.09 71.09 71.09-35.544 71.09 35.544zm71.09 71.09 71.091-35.544 71.09 35.544-71.09 71.091-284.36 284.36-71.091-71.09-213.27-213.27-71.09-71.091 71.09-35.544 71.09 35.544-69.667-69.667-117.06 58.53 45.987 45.987-45.987 45.986 183.95 91.975 216.05 216.05 216.05-216.05 183.95-91.975-45.986-45.986 45.986-45.987-117.06-58.53zm0 0-71.09 71.091 71.09-35.546 71.091 35.546zm-71.09 71.091-71.09 71.09 71.09-35.546 71.09 35.546zm0 0-71.09-71.091-71.09 71.091 71.09-35.546zm-142.18 0-71.091 71.09 71.091-35.546 71.09 35.546zm0 0-71.091-71.091-71.09 71.091 71.09-35.546zm-142.18 0-71.09 71.09 71.09-35.546 71.09 35.546zm0 0-71.09-71.091-71.09 71.091 71.09-35.546zm-71.09-71.091 71.09-35.544 71.09 35.544-71.09-71.09zm142.18 0 71.091-35.544 71.09 35.544-71.09-71.09zm0 142.18-71.09 71.09 71.09-35.546 71.091 35.546zm71.091 71.09 71.09-35.546 71.09 35.546-71.09-71.09zm0 0-71.091 71.09 71.091-35.546 71.09 35.546z" fill="#71c837" stroke-width="6.0334" style="paint-order:stroke markers fill"/>
  </g>
 </g>
</svg>
