<?xml version="1.0" encoding="UTF-8" standalone="no"?>
<svg
   xmlns:dc="http://purl.org/dc/elements/1.1/"
   xmlns:cc="http://creativecommons.org/ns#"
   xmlns:rdf="http://www.w3.org/1999/02/22-rdf-syntax-ns#"
   xmlns:svg="http://www.w3.org/2000/svg"
   xmlns="http://www.w3.org/2000/svg"
   xmlns:sodipodi="http://sodipodi.sourceforge.net/DTD/sodipodi-0.dtd"
   xmlns:inkscape="http://www.inkscape.org/namespaces/inkscape"
   width="64"
   height="64"
   version="1"
   id="svg32"
   sodipodi:docname="octopi.svg"
   inkscape:version="0.92.4 5da689c313, 2019-01-14">
  <metadata
     id="metadata38">
    <rdf:RDF>
      <cc:Work
         rdf:about="">
        <dc:format>image/svg+xml</dc:format>
        <dc:type
           rdf:resource="http://purl.org/dc/dcmitype/StillImage" />
        <dc:title></dc:title>
      </cc:Work>
    </rdf:RDF>
  </metadata>
  <defs
     id="defs36" />
  <sodipodi:namedview
     pagecolor="#ffffff"
     bordercolor="#666666"
     borderopacity="1"
     objecttolerance="10"
     gridtolerance="10"
     guidetolerance="10"
     inkscape:pageopacity="0"
     inkscape:pageshadow="2"
     inkscape:window-width="1920"
     inkscape:window-height="1053"
     id="namedview34"
     showgrid="false"
     inkscape:zoom="7.375"
     inkscape:cx="65.572439"
     inkscape:cy="4.8797299"
     inkscape:window-x="0"
     inkscape:window-y="0"
     inkscape:window-maximized="1"
     inkscape:current-layer="svg32"
     showguides="true"
     inkscape:guide-bbox="true" />
  <path
     sodipodi:nodetypes="cccccccccccccccccccccccccccccccccccccccccccc"
     style="opacity:0.2;fill:#000000;fill-opacity:1;fill-rule:nonzero;stroke:none;stroke-width:5.68804598;stroke-linecap:square;stroke-linejoin:round;stroke-miterlimit:4;stroke-dasharray:none;stroke-opacity:1;paint-order:stroke markers fill"
     d="M 63.377438,23.223161 49.310808,6.3279541 27.416896,4.3339263 27.409396,4.3361663 16.605941,3.366033 c -2.020954,-0.181506 -3.793519,1.2989884 -3.974983,3.319972 -0.181625,2.0209799 1.291741,3.795748 3.312745,3.977238 l 3.493971,0.319635 -5.720395,4.761522 -3.106019,-2.189295 c -1.6583416,-1.169257 -3.9308576,-0.778512 -5.1001516,0.879828 -1.169254,1.658329 -0.77626,3.9381 0.882082,5.107374 l 3.7806336,2.67096 -0.7076276,7.764459 -2.248287,-2.702708 c -1.299189,-1.558625 -3.601058,-1.76022 -5.159682,-0.461016 -1.55862496,1.299198 -1.76747496,3.603331 -0.468286,5.161967 l 6.935194,8.311198 0.0023,0.007 0.03152,0.02955 1.399654,1.687192 17.9038396,-14.913221 1.619884,-17.8343948 17.838915,1.6343558 11.45255,13.757834 -0.21827,2.389234 -9.91687,-11.914519 -15.440181,-1.411076 -1.401585,15.445161 -11.91948,9.926402 9.92912,11.902729 15.430686,1.406087 -1.84833,1.545135 C 33.572675,59.209764 24.856376,51.067705 16.1125,51.457459 c 0,0 -0.340798,-0.160114 -0.437833,-0.205618 -0.878462,-0.323852 -1.882679,-0.315421 -2.803922,0.109491 l -9.8792366,4.553473 c -1.842527,0.849952 -2.63509696,3.021795 -1.785164,4.864311 0.849934,1.842531 3.016824,2.644567 4.859312,1.794655 L 15.942852,58.0131 c 0.628908,-0.290128 1.0879,-0.762006 1.449572,-1.293828 8.591291,-0.116182 13.341311,7.26796 27.094384,2.464338 l 16.89295,-14.07387 z"
     id="path878"
     inkscape:connector-curvature="0" />
  <path
     inkscape:connector-curvature="0"
     id="path814"
     d="M 63.377438,22.375703 49.310808,5.4804965 27.416896,3.4864687 l -0.0075,0.00224 -10.803455,-0.9701333 c -2.020954,-0.181506 -3.793519,1.2989884 -3.974983,3.319972 -0.181625,2.0209799 1.291741,3.7957472 3.312745,3.9772372 L 19.437674,10.13542 13.717279,14.896942 10.61126,12.707647 C 8.9529184,11.53839 6.6804024,11.929135 5.5111084,13.587475 c -1.169254,1.658329 -0.77626,3.9381 0.882082,5.107374 l 3.7806336,2.67096 -0.7076276,7.764459 -2.248287,-2.702708 c -1.299189,-1.558625 -3.601058,-1.76022 -5.159682,-0.461016 -1.55862496,1.299198 -1.76747496,3.603331 -0.468286,5.161967 l 6.935194,8.311198 0.0023,0.007 0.03152,0.02955 1.399654,1.687192 17.9038396,-14.913221 1.619884,-17.8343944 17.838915,1.6343554 11.45255,13.757834 -0.21827,2.389234 -9.91687,-11.914519 -15.440181,-1.411076 -1.401585,15.445161 -11.91948,9.926402 9.92912,11.902729 15.430686,1.406087 -1.84833,1.545135 C 33.572675,58.362306 24.856376,50.220247 16.1125,50.610001 c 0,0 -0.340798,-0.160114 -0.437833,-0.205618 -0.878462,-0.323852 -1.882679,-0.315421 -2.803922,0.109491 l -9.8792366,4.553473 c -1.842527,0.849952 -2.63509696,3.021795 -1.785164,4.864311 0.849934,1.842531 3.016824,2.644567 4.859312,1.794655 l 9.8771956,-4.560671 c 0.628908,-0.290128 1.0879,-0.762006 1.449572,-1.293828 8.591291,-0.116182 13.341311,7.26796 27.094384,2.464338 l 16.89295,-14.07387 z"
     style="opacity:1;fill:#3fc778;fill-opacity:1;fill-rule:nonzero;stroke:none;stroke-width:5.68804598;stroke-linecap:square;stroke-linejoin:round;stroke-miterlimit:4;stroke-dasharray:none;stroke-opacity:1;paint-order:stroke markers fill"
     sodipodi:nodetypes="cccccccccccccccccccccccccccccccccccccccccccc" />
  <rect
     id="rect14"
     ry="2.8390133"
     y="35.738182"
     x="36.98315"
     height="5.6780267"
     width="4.3898911"
     style="fill:#494949;stroke-width:2.49629331" />
  <path
     inkscape:connector-curvature="0"
     id="path880"
     d="m 34.716238,32.583253 c -3.644395,0.06583 -6.507011,3.766469 -6.425268,8.291754 0.08155,4.525285 3.075883,8.108755 6.720228,8.042941 3.64442,-0.0658 6.51641,-3.755226 6.4347,-8.28051 -0.003,-0.307816 -0.0579,-0.600925 -0.0898,-0.899193 -0.15878,1.280664 -0.98814,2.275574 -2.07065,2.295125 -1.21475,0.02207 -2.21574,-1.164906 -2.24301,-2.67333 -0.0276,-1.508428 0.92983,-2.753433 2.14463,-2.775369 0.72977,-0.01301 1.34544,0.450169 1.75581,1.119963 -1.00322,-3.044155 -3.41955,-5.172073 -6.22673,-5.121381 z"
     style="opacity:0.2;fill:#000000;fill-opacity:1;stroke-width:2.4438498" />
  <path
     style="fill:#ecf0f1;fill-opacity:1;stroke-width:2.4438498"
     d="m 34.716238,31.735795 c -3.644395,0.06583 -6.507011,3.766469 -6.425268,8.291754 0.08155,4.525285 3.075883,8.108755 6.720228,8.042941 3.64442,-0.0658 6.51641,-3.755226 6.4347,-8.28051 -0.003,-0.307816 -0.0579,-0.600925 -0.0898,-0.899193 -0.15878,1.280664 -0.98814,2.275574 -2.07065,2.295125 -1.21475,0.02207 -2.21574,-1.164906 -2.24301,-2.67333 -0.0276,-1.508428 0.92983,-2.753433 2.14463,-2.775369 0.72977,-0.01301 1.34544,0.450169 1.75581,1.119963 -1.00322,-3.044155 -3.41955,-5.172073 -6.22673,-5.121381 z"
     id="path858"
     inkscape:connector-curvature="0" />
  <rect
     style="fill:#494949;stroke-width:2.49629331"
     width="4.3898911"
     height="5.6780267"
     x="54.961231"
     y="32.397991"
     ry="2.8390133"
     id="rect903" />
  <path
     inkscape:connector-curvature="0"
     id="path882"
     d="m 53.641718,30.857255 c -2.80026,0.351311 -4.69877,3.436425 -4.26256,6.913516 0.43621,3.477092 3.03692,5.988866 5.83713,5.637561 2.80022,-0.351312 4.70692,-3.428544 4.27071,-6.905633 -0.0276,-0.236506 -0.0941,-0.457873 -0.14342,-0.684852 -0.0158,0.999039 -0.58004,1.834269 -1.41182,1.938619 -0.93341,0.117089 -1.80191,-0.71403 -1.94732,-1.873057 -0.14539,-1.15903 0.48868,-2.196456 1.42211,-2.313558 0.56072,-0.07033 1.07292,0.235561 1.44409,0.717375 -1.02344,-2.260811 -3.05216,-3.700565 -5.20913,-3.429967 z"
     style="opacity:0.2;fill:#000000;fill-opacity:1;stroke-width:1.89219046" />
  <path
     style="fill:#ecf0f1;fill-opacity:1;stroke-width:1.89219046"
     d="m 53.641718,30.009797 c -2.80026,0.351311 -4.69877,3.436425 -4.26256,6.913516 0.43621,3.477092 3.03692,5.988866 5.83713,5.637561 2.80022,-0.351312 4.70692,-3.428544 4.27071,-6.905633 -0.0276,-0.236506 -0.0941,-0.457873 -0.14342,-0.684852 -0.0158,0.999039 -0.58004,1.834269 -1.41182,1.938619 -0.93341,0.117089 -1.80191,-0.71403 -1.94732,-1.873057 -0.14539,-1.15903 0.48868,-2.196456 1.42211,-2.313558 0.56072,-0.07033 1.07292,0.235561 1.44409,0.717375 -1.02344,-2.260811 -3.05216,-3.700565 -5.20913,-3.429967 z"
     id="path884"
     inkscape:connector-curvature="0" />
  <path
     style="opacity:0.2;fill:#ffffff;fill-opacity:1;fill-rule:nonzero;stroke:none;stroke-width:5.68804598;stroke-linecap:square;stroke-linejoin:round;stroke-miterlimit:4;stroke-dasharray:none;stroke-opacity:1;paint-order:stroke markers fill"
     d="m 16.605899,2.5195312 c -2.020954,-0.181506 -3.793146,1.2973758 -3.97461,3.3183594 -0.02364,0.263097 -0.01634,0.521658 0.01367,0.7734375 C 12.86375,4.6296846 14.61057,3.18603 16.605897,3.3652344 l 10.802734,0.9707031 0.0078,-0.00195 21.894532,1.9941406 13.99609,16.8105469 0.0703,-0.763672 -14.06641,-16.8945311 -21.894532,-1.9941407 -0.0078,0.00195 z"
     id="path899"
     inkscape:connector-curvature="0" />
  <path
     style="opacity:0.2;fill:#ffffff;fill-opacity:1;fill-rule:nonzero;stroke:none;stroke-width:5.68804598;stroke-linecap:square;stroke-linejoin:round;stroke-miterlimit:4;stroke-dasharray:none;stroke-opacity:1;paint-order:stroke markers fill"
     d="m 18.519961,10.898438 -4.802734,3.998046 -3.105469,-2.189453 c -1.6583416,-1.169257 -3.9322676,-0.77748 -5.1015616,0.88086 -0.546765,0.775465 -0.738913,1.68454 -0.632813,2.554687 0.06637,-0.594779 0.262546,-1.181889 0.632813,-1.707031 1.169294,-1.65834 3.44322,-2.050116 5.1015616,-0.880859 l 3.105469,2.189453 5.720703,-4.761719 z"
     id="path897"
     inkscape:connector-curvature="0" />
  <path
     style="opacity:0.2;fill:#ffffff;fill-opacity:1;fill-rule:nonzero;stroke:none;stroke-width:5.68804598;stroke-linecap:square;stroke-linejoin:round;stroke-miterlimit:4;stroke-dasharray:none;stroke-opacity:1;paint-order:stroke markers fill"
     d="m 10.101992,22.162109 -0.6367176,6.96875 -2.248047,-2.703125 c -1.299189,-1.558625 -3.599579,-1.760141 -5.158203,-0.460937 -0.991087,0.826124 -1.43213896,2.057355 -1.29101596,3.246094 0.103129,-0.902751 0.53541896,-1.768608 1.29101596,-2.398438 1.558624,-1.299204 3.859014,-1.097687 5.158203,0.460938 l 2.248047,2.703125 0.7089836,-7.765625 z"
     id="path893"
     inkscape:connector-curvature="0" />
  <path
     style="opacity:0.2;fill:#ffffff;fill-opacity:1;fill-rule:nonzero;stroke:none;stroke-width:5.68804598;stroke-linecap:square;stroke-linejoin:round;stroke-miterlimit:4;stroke-dasharray:none;stroke-opacity:1;paint-order:stroke markers fill"
     d="m 14.289492,50.177734 c -0.476017,0.01474 -0.957347,0.123482 -1.417968,0.335938 L 2.9906644,55.066406 C 1.5206494,55.74452 0.73717644,57.264709 0.90472744,58.787109 1.0549214,57.574458 1.7958344,56.465234 2.9906644,55.914062 l 9.8808596,-4.552734 c 0.921243,-0.424912 1.924272,-0.433227 2.802734,-0.109375 0.09704,0.0455 0.4375,0.205078 0.4375,0.205078 8.743876,-0.389754 17.461131,7.753409 27.27734,2.488281 l 1.84766,-1.544921 -0.91406,-0.08398 -0.9336,0.78125 c -9.816209,5.265128 -18.533464,-2.878035 -27.27734,-2.488281 0,0 -0.340465,-0.159574 -0.4375,-0.205078 -0.439231,-0.161926 -0.908748,-0.241303 -1.384766,-0.226563 z"
     id="path888"
     inkscape:connector-curvature="0" />
</svg>
