<?xml version="1.0" encoding="UTF-8" standalone="no"?>
<svg
   xmlns:dc="http://purl.org/dc/elements/1.1/"
   xmlns:cc="http://creativecommons.org/ns#"
   xmlns:rdf="http://www.w3.org/1999/02/22-rdf-syntax-ns#"
   xmlns:svg="http://www.w3.org/2000/svg"
   xmlns="http://www.w3.org/2000/svg"
   xmlns:xlink="http://www.w3.org/1999/xlink"
   xmlns:sodipodi="http://sodipodi.sourceforge.net/DTD/sodipodi-0.dtd"
   xmlns:inkscape="http://www.inkscape.org/namespaces/inkscape"
   width="64"
   height="64"
   version="1"
   id="svg20"
   sodipodi:docname="pamac.svg"
   inkscape:version="0.92.4 5da689c313, 2019-01-14">
  <metadata
     id="metadata26">
    <rdf:RDF>
      <cc:Work
         rdf:about="">
        <dc:format>image/svg+xml</dc:format>
        <dc:type
           rdf:resource="http://purl.org/dc/dcmitype/StillImage" />
        <dc:title />
      </cc:Work>
    </rdf:RDF>
  </metadata>
  <defs
     id="defs24">
    <linearGradient
       id="linearGradient2450"
       inkscape:collect="always">
      <stop
         id="stop2446"
         offset="0"
         style="stop-color:#35bf5c;stop-opacity:0.89887643" />
      <stop
         id="stop2448"
         offset="1"
         style="stop-color:#35bf5c;stop-opacity:0" />
    </linearGradient>
    <radialGradient
       r="57.831055"
       fy="1608.2534"
       fx="-174.61034"
       cy="1608.2534"
       cx="-174.61034"
       gradientTransform="matrix(2.827672,-2.8518669,3.1382469,3.1116204,-4651.8885,-3868.6472)"
       gradientUnits="userSpaceOnUse"
       id="radialGradient3438"
       xlink:href="#linearGradient2450"
       inkscape:collect="always" />
    <radialGradient
       r="57.831055"
       fy="1608.2534"
       fx="-174.61034"
       cy="1608.2534"
       cx="-174.61034"
       gradientTransform="matrix(2.827672,-2.8518669,3.1382469,3.1116204,-4651.8885,-3868.6472)"
       gradientUnits="userSpaceOnUse"
       id="radialGradient3438-7"
       xlink:href="#linearGradient2450"
       inkscape:collect="always" />
  </defs>
  <sodipodi:namedview
     pagecolor="#ffffff"
     bordercolor="#666666"
     borderopacity="1"
     objecttolerance="10"
     gridtolerance="10"
     guidetolerance="10"
     inkscape:pageopacity="0"
     inkscape:pageshadow="2"
     inkscape:window-width="1920"
     inkscape:window-height="1053"
     id="namedview22"
     showgrid="false"
     inkscape:zoom="4"
     inkscape:cx="31.596806"
     inkscape:cy="74.320557"
     inkscape:window-x="0"
     inkscape:window-y="0"
     inkscape:window-maximized="1"
     inkscape:current-layer="svg20" />
  <path
     style="fill:#4f4f4f;fill-opacity:1;stroke-width:3.50378561"
     d="M 31.999998,3.464844 7.472656,15.728516 v 24.017578 l 2.623047,1.298828 v 3.498047 l 3.498047,1.730469 v -3.496094 l 3.060547,1.515625 3.060547,1.513672 v -3.496094 l 3.496093,1.730469 v 3.498046 3.498047 4.09375 l 2.623047,1.310547 v -4.107422 -3.496093 l 3.498044,1.730468 v 3.498047 l 2.62305,1.298828 v 1.609375 l 0.90039,-0.445312 2.62305,-1.298828 v 2.554687 l 3.49804,-1.748047 V 53.5 l 2.6211,-1.298828 v -3.498047 l 3.49804,-1.730469 v 3.496094 l 3.49805,-1.730469 v -3.498047 l 2.62305,-1.298828 v 3.498047 2.478516 l 2.62305,-1.3125 v -2.464844 l 2.6875,-1.332031 V 15.728516 Z m 0,7.884765 17.51953,8.757813 v 22.77539 l -17.51953,8.759766 V 27.992188 L 14.480469,20.107422 Z"
     id="path920"
     inkscape:connector-curvature="0" />
  <path
     sodipodi:nodetypes="cccccccccccccccccccccccccccccccccccccccccccccccccccccc"
     inkscape:connector-curvature="0"
     id="path952"
     d="M 31.921875,2.3627995 C 31.621,2.3736506 31.325952,2.4489111 31.056641,2.5835027 L 6.53125,14.845221 c -0.7132981,0.356485 -1.1639515,1.085395 -1.1640625,1.882813 v 31.533203 c 1.114e-4,0.797418 0.4507647,1.526327 1.1640625,1.882812 l 24.525391,12.263672 c 0.592634,0.296293 1.290178,0.296293 1.882812,0 L 57.466797,50.144049 c 0.713298,-0.356485 1.163951,-1.085394 1.164062,-1.882812 V 16.728034 c -1.11e-4,-0.797418 -0.450764,-1.526328 -1.164062,-1.882813 L 32.939453,2.5835027 C 32.624092,2.4258888 32.274197,2.3499999 31.921875,2.3627995 Z M 32,4.4643621 56.527344,16.728034 v 29.080078 l -2.6875,1.332031 v 2.464844 l -2.623047,1.3125 v -2.478516 -3.498047 l -2.623047,1.298828 v 3.498047 l -3.498047,1.730469 v -3.496094 l -3.498047,1.730469 v 3.498047 l -2.621094,1.298828 v 2.537109 l -3.498046,1.748047 v -2.554687 l -2.623047,1.298828 -0.900391,0.445312 v -1.609375 l -2.623047,-1.298828 v -3.498047 l -3.498047,-1.730468 v 3.496093 4.107422 l -2.623046,-1.310547 v -4.09375 -3.498047 -3.498046 l -3.496094,-1.730469 v 3.496094 L 16.654297,45.292487 13.59375,43.776862 v 3.496094 L 10.095703,45.542487 V 42.04444 L 7.4726562,40.745612 V 16.728034 Z"
     style="fill:#000000;fill-opacity:1;stroke-width:3.50371695;opacity:0.2" />
  <path
     sodipodi:nodetypes="ccccccccccccccccccccccccccccccccccccccccccccccc"
     style="opacity:0.2;fill:#000000;fill-opacity:1;stroke-width:3.35578012"
     d="M 32.000001,5.0169791 8.508731,16.762614 v 23.003038 l 2.51224,1.243964 V 44.3599 l 3.35029,1.657371 v -3.348413 l 2.93126,1.451603 2.93127,1.449732 v -3.348415 l 3.34841,1.657372 v 3.350283 3.350284 3.920824 l 2.51225,1.255187 v -3.933917 -3.348414 l 3.35028,1.657371 v 3.350284 l 2.51224,1.243963 v 1.541393 l 0.86236,-0.426501 2.51225,-1.243964 v 2.446773 l 3.35028,-1.674206 v -2.429938 l 2.51038,-1.243963 v -2.996731 l 3.35027,-1.657372 v 2.99486 l 3.35029,-1.657371 v -2.996731 l 2.51225,-1.243963 v 2.996731 2.37382 l 2.51225,-1.257058 v -2.360726 l 2.57397,-1.275764 v -27.85169 z m 0,7.5516999 16.77947,8.38787 V 42.76987 l -16.77947,8.38974 V 28.50825 l -16.77948,-7.551701 z"
     id="path961"
     inkscape:connector-curvature="0" />
  <path
     inkscape:connector-curvature="0"
     id="path1464"
     d="m 31.999616,11.568601 16.778569,8.389285 V 41.770029 L 31.999616,50.159314 V 27.508241 L 15.221049,19.957886 Z"
     style="fill:#848484;fill-opacity:1;stroke-width:3.35571456" />
  <path
     inkscape:connector-curvature="0"
     id="path922"
     d="M 31.999997,4.0174607 8.5087286,15.763096 v 23.003038 l 2.5122454,1.243964 v 3.350284 l 3.350284,1.657371 V 41.66934 l 2.931264,1.451603 2.931265,1.449732 V 41.22226 l 3.348414,1.657372 v 3.350283 3.350284 3.920824 l 2.512244,1.255187 v -3.933917 -3.348414 l 3.350281,1.657371 v 3.350284 l 2.512249,1.243963 v 1.541393 l 0.862356,-0.426501 2.512249,-1.243964 v 2.446773 l 3.350277,-1.674206 v -2.429938 l 2.510381,-1.243963 V 47.69836 l 3.350277,-1.657372 v 2.99486 l 3.350287,-1.657371 v -2.996731 l 2.512248,-1.243963 v 2.996731 2.37382 l 2.512249,-1.257058 V 44.89055 l 2.573975,-1.275764 v -27.85169 z m 0,7.5517003 16.779478,8.38787 v 21.813321 l -16.779478,8.38974 V 27.508732 L 15.22052,19.957031 Z"
     style="fill:#fabd7f;fill-opacity:1;stroke-width:3.35578012"
     sodipodi:nodetypes="ccccccccccccccccccccccccccccccccccccccccccccccc" />
  <path
     id="path1466"
     d="m 32.000267,11.569397 -16.779477,8.387866 0.991423,0.447082 15.788054,-7.894027 16.777611,8.389743 v -0.942798 z"
     style="opacity:0.2;fill:#000000;fill-opacity:1;stroke-width:3.35568619"
     inkscape:connector-curvature="0" />
  <path
     inkscape:connector-curvature="0"
     style="opacity:0.2;fill:#ffffff;fill-opacity:1;stroke-width:3.35571456"
     d="M 31.999032,4.0178821 8.5096327,15.763517 v 0.957759 L 31.999032,4.9756406 55.490309,16.721276 v -0.957759 z"
     id="path1490" />
  <path
     sodipodi:nodetypes="ccccc"
     style="fill:#4f4f4f;fill-opacity:1;stroke-width:3.35571456"
     d="M 48.778185,19.957886 V 41.770029 L 31.999616,50.159314 V 27.508241 Z"
     id="path1468"
     inkscape:connector-curvature="0" />
  <path
     sodipodi:nodetypes="cccccccccccccccccc"
     inkscape:connector-curvature="0"
     id="path1478"
     d="m 42.039933,23.865873 -1.316918,0.634141 v 2.19611 1.758385 1.758385 l -1.758388,0.843651 V 29.29816 l -1.537652,0.738895 -0.389089,0.187063 v 5.954189 H 32.5802 l 7.80236,8.915385 7.800492,-8.915385 H 43.725358 V 27.01226 l -1.685425,0.809979 v -1.758385 z"
     style="opacity:0.2;fill:#000000;fill-opacity:1;stroke-width:0.55726236" />
  <path
     style="fill:#848484;fill-opacity:1;stroke-width:0.55726236"
     d="m 42.039933,22.908114 -1.316918,0.634142 v 2.19611 1.758385 1.758385 l -1.758388,0.84365 v -1.758385 l -1.537652,0.738896 -0.389089,0.187062 v 5.95419 H 32.5802 l 7.80236,8.915384 7.800492,-8.915384 h -4.457694 v -9.166047 l -1.685425,0.809979 v -1.758385 z"
     id="path1470"
     inkscape:connector-curvature="0"
     sodipodi:nodetypes="cccccccccccccccccc" />
  <path
     inkscape:connector-curvature="0"
     style="opacity:0.2;fill:#ffffff;fill-opacity:1;stroke-width:3.35571456"
     d="m 48.77851,41.770774 -16.779478,8.387869 v 0.957759 L 48.77851,42.728533 Z"
     id="path1482" />
  <path
     style="fill:#16a085;fill-opacity:1;stroke-width:3.50371695"
     d="M 31.921875,1.3632812 C 31.621,1.3741323 31.325952,1.4493928 31.056641,1.5839844 L 6.53125,13.845703 c -0.7132981,0.356485 -1.1639515,1.085395 -1.1640625,1.882813 v 31.533203 c 1.114e-4,0.797418 0.4507647,1.526327 1.1640625,1.882812 l 24.525391,12.263672 c 0.592634,0.296293 1.290178,0.296293 1.882812,0 L 57.466797,49.144531 c 0.713298,-0.356485 1.163951,-1.085394 1.164062,-1.882812 V 15.728516 c -1.11e-4,-0.797418 -0.450764,-1.526328 -1.164062,-1.882813 L 32.939453,1.5839844 C 32.624092,1.4263705 32.274197,1.3504816 31.921875,1.3632812 Z M 32,3.4648438 56.527344,15.728516 v 29.080078 l -2.6875,1.332031 v 2.464844 l -2.623047,1.3125 v -2.478516 -3.498047 l -2.623047,1.298828 v 3.498047 l -3.498047,1.730469 v -3.496094 l -3.498047,1.730469 v 3.498047 L 38.976562,53.5 v 2.537109 l -3.498046,1.748047 v -2.554687 l -2.623047,1.298828 -0.900391,0.445312 v -1.609375 l -2.623047,-1.298828 v -3.498047 l -3.498047,-1.730468 v 3.496093 4.107422 l -2.623046,-1.310547 v -4.09375 -3.498047 -3.498046 l -3.496094,-1.730469 v 3.496094 L 16.654297,44.292969 13.59375,42.777344 v 3.496094 L 10.095703,44.542969 V 41.044922 L 7.4726562,39.746094 V 15.728516 Z"
     id="path1683"
     inkscape:connector-curvature="0"
     sodipodi:nodetypes="cccccccccccccccccccccccccccccccccccccccccccccccccccccc" />
  <path
     style="fill:#ffffff;fill-opacity:1;stroke-width:3.50371695;opacity:0.2"
     d="M 31.921875 1.3632812 C 31.621 1.3741324 31.325952 1.4493928 31.056641 1.5839844 L 6.53125 13.845703 C 5.8179519 14.202188 5.3672985 14.931098 5.3671875 15.728516 L 5.3671875 16.728516 C 5.3672985 15.931098 5.8179519 15.202188 6.53125 14.845703 L 31.056641 2.5839844 C 31.325952 2.4493928 31.621 2.3741324 31.921875 2.3632812 C 32.274197 2.3504816 32.624092 2.4263705 32.939453 2.5839844 L 57.466797 14.845703 C 58.180095 15.202188 58.630748 15.931098 58.630859 16.728516 L 58.630859 15.728516 C 58.630748 14.931098 58.180095 14.202188 57.466797 13.845703 L 32.939453 1.5839844 C 32.624092 1.4263705 32.274197 1.3504816 31.921875 1.3632812 z M 7.4726562 39.746094 L 7.4726562 40.746094 L 10.095703 42.044922 L 10.095703 41.044922 L 7.4726562 39.746094 z M 19.714844 42.310547 L 19.714844 43.310547 L 23.210938 45.041016 L 23.210938 44.041016 L 19.714844 42.310547 z M 13.59375 42.777344 L 13.59375 43.777344 L 16.654297 45.292969 L 19.714844 46.806641 L 19.714844 45.806641 L 16.654297 44.292969 L 13.59375 42.777344 z M 51.216797 43.941406 L 48.59375 45.240234 L 48.59375 46.240234 L 51.216797 44.941406 L 51.216797 43.941406 z M 10.095703 44.542969 L 10.095703 45.542969 L 13.59375 47.273438 L 13.59375 46.273438 L 10.095703 44.542969 z M 56.527344 44.808594 L 53.839844 46.140625 L 53.839844 47.140625 L 56.527344 45.808594 L 56.527344 44.808594 z M 45.095703 46.972656 L 41.597656 48.703125 L 41.597656 49.703125 L 45.095703 47.972656 L 45.095703 46.972656 z M 53.839844 48.605469 L 51.216797 49.917969 L 51.216797 50.917969 L 53.839844 49.605469 L 53.839844 48.605469 z M 48.59375 48.738281 L 45.095703 50.46875 L 45.095703 51.46875 L 48.59375 49.738281 L 48.59375 48.738281 z M 25.833984 48.837891 L 25.833984 49.837891 L 29.332031 51.568359 L 29.332031 50.568359 L 25.833984 48.837891 z M 41.597656 52.201172 L 38.976562 53.5 L 38.976562 54.5 L 41.597656 53.201172 L 41.597656 52.201172 z M 29.332031 54.066406 L 29.332031 55.066406 L 31.955078 56.365234 L 31.955078 55.365234 L 29.332031 54.066406 z M 23.210938 55.130859 L 23.210938 56.130859 L 25.833984 57.441406 L 25.833984 56.441406 L 23.210938 55.130859 z M 35.478516 55.230469 L 32.855469 56.529297 L 31.955078 56.974609 L 31.955078 57.974609 L 32.855469 57.529297 L 35.478516 56.230469 L 35.478516 55.230469 z M 38.976562 56.037109 L 35.478516 57.785156 L 35.478516 58.785156 L 38.976562 57.037109 L 38.976562 56.037109 z "
     id="path956" />
</svg>
