<?xml version="1.0" encoding="UTF-8" standalone="no"?>
<svg
   xmlns:dc="http://purl.org/dc/elements/1.1/"
   xmlns:cc="http://creativecommons.org/ns#"
   xmlns:rdf="http://www.w3.org/1999/02/22-rdf-syntax-ns#"
   xmlns:svg="http://www.w3.org/2000/svg"
   xmlns="http://www.w3.org/2000/svg"
   xmlns:xlink="http://www.w3.org/1999/xlink"
   xmlns:sodipodi="http://sodipodi.sourceforge.net/DTD/sodipodi-0.dtd"
   xmlns:inkscape="http://www.inkscape.org/namespaces/inkscape"
   width="64"
   height="64"
   version="1.1"
   id="svg12"
   sodipodi:docname="MSM.svg"
   inkscape:version="0.92.4 5da689c313, 2019-01-14">
  <metadata
     id="metadata18">
    <rdf:RDF>
      <cc:Work
         rdf:about="">
        <dc:format>image/svg+xml</dc:format>
        <dc:type
           rdf:resource="http://purl.org/dc/dcmitype/StillImage" />
        <dc:title></dc:title>
      </cc:Work>
    </rdf:RDF>
  </metadata>
  <defs
     id="defs16">
    <linearGradient
       inkscape:collect="always"
       id="linearGradient2450">
      <stop
         style="stop-color:#35bf5c;stop-opacity:0.89887643"
         offset="0"
         id="stop2446" />
      <stop
         style="stop-color:#35bf5c;stop-opacity:0"
         offset="1"
         id="stop2448" />
    </linearGradient>
    <radialGradient
       inkscape:collect="always"
       xlink:href="#linearGradient2450"
       id="radialGradient3438"
       gradientUnits="userSpaceOnUse"
       gradientTransform="matrix(2.827672,-2.8518669,3.1382469,3.1116204,-4651.8885,-3868.6472)"
       cx="-174.61034"
       cy="1608.2534"
       fx="-174.61034"
       fy="1608.2534"
       r="57.831055" />
    <radialGradient
       inkscape:collect="always"
       xlink:href="#linearGradient2450"
       id="radialGradient3438-7"
       gradientUnits="userSpaceOnUse"
       gradientTransform="matrix(2.827672,-2.8518669,3.1382469,3.1116204,-4651.8885,-3868.6472)"
       cx="-174.61034"
       cy="1608.2534"
       fx="-174.61034"
       fy="1608.2534"
       r="57.831055" />
  </defs>
  <sodipodi:namedview
     pagecolor="#ffffff"
     bordercolor="#666666"
     borderopacity="1"
     objecttolerance="10"
     gridtolerance="10"
     guidetolerance="10"
     inkscape:pageopacity="0"
     inkscape:pageshadow="2"
     inkscape:window-width="1920"
     inkscape:window-height="1053"
     id="namedview14"
     showgrid="false"
     inkscape:zoom="5.2149125"
     inkscape:cx="60.193197"
     inkscape:cy="26.376986"
     inkscape:window-x="0"
     inkscape:window-y="0"
     inkscape:window-maximized="1"
     inkscape:current-layer="svg12" />
  <path
     inkscape:connector-curvature="0"
     id="path1030"
     d="M 37.457119,6.2955956 33.251178,12.37559 c -2.47198,-0.405547 -4.995047,-0.386186 -7.460513,0.05725 L 21.570456,6.3170767 9.4390698,13.319797 12.600667,20.000636 c -1.596585,1.921628 -2.854399,4.101023 -3.7195423,6.444794 l -7.4032725,0.622301 0.01559,14.041213 7.3746708,0.60084 c 0.4301541,1.170521 0.9589959,2.302372 1.580818,3.383338 0.624902,1.079225 1.340384,2.103395 2.138724,3.061457 l -3.1687679,6.68084 12.1528589,7.038484 4.205901,-6.079994 c 2.469639,0.404739 4.990213,0.385392 7.453348,-0.05721 l 4.227405,6.115716 4.556422,-2.632277 -2.274644,-1.437739 c -0.996747,-0.629223 -1.601504,-1.72535 -1.602249,-2.904089 v -6.609289 h -2.753876 l -1.945596,1.945598 c -2.175865,2.175829 -5.678118,2.175829 -7.853941,0 L 23.638919,48.269025 H 20.88505 c -3.077075,0 -5.550691,-2.480732 -5.550691,-5.557827 V 39.96447 l -1.95273,-1.952748 c -2.175822,-2.175834 -2.175822,-5.678086 0,-7.853923 l 1.95273,-1.952749 v -2.746747 c 0,-3.077095 2.473616,-5.557827 5.550691,-5.557827 h 2.753869 l 1.945597,-1.945598 c 1.087911,-1.087915 2.507166,-1.630865 3.926975,-1.630865 1.419799,0 2.839013,0.54295 3.926966,1.630865 l 1.945596,1.945598 h 2.753876 v -6.516323 c 0.0018,-1.260613 0.693586,-2.419077 1.802546,-3.018538 l 2.17446,-1.3733637 z"
     style="opacity:0.2;fill:#000000;fill-opacity:1;stroke-width:4.00238895" />
  <path
     inkscape:connector-curvature="0"
     id="path1032"
     d="m 50.618515,7.8477799 c -0.135219,-0.017927 -0.278238,0.00861 -0.400593,0.085844 L 41.58435,13.391311 c -0.0041,-0.0028 -0.0082,-0.0043 -0.01558,-0.007 v 7.725168 c 1.286179,1.016483 2.124419,2.574808 2.124419,4.348982 v 2.753878 l 1.945596,1.945598 c 2.175823,2.175833 2.175823,5.678086 0,7.853924 l -1.945596,1.945598 v 2.753886 c 0,1.774173 -0.83824,3.332503 -2.124419,4.348985 v 7.818154 l 8.526294,5.379002 c 0.235752,0.149559 0.541378,0.109813 0.743899,-0.08584 L 55.624279,55.5437 c 0.207708,-0.200842 0.246668,-0.515205 0.09317,-0.758214 L 50.19533,46.037467 c 0.955461,-1.702341 1.686106,-3.490321 2.1888,-5.336086 l 10.364613,-2.353314 c 0.274333,-0.06212 0.466912,-0.299002 0.472098,-0.579393 l 0.114565,-6.65938 c 0.0031,-0.144338 -0.04438,-0.279206 -0.128597,-0.386251 -0.08415,-0.107084 -0.202244,-0.189775 -0.343306,-0.221728 l -0.157041,-0.02844 -10.250161,-2.317549 c -0.486796,-2.023269 -1.237358,-4.000661 -2.267479,-5.865405 l 5.500617,-8.719427 c 0.151199,-0.238914 0.115734,-0.549739 -0.07872,-0.751055 L 50.982792,8.0341231 C 50.883059,7.9308567 50.753272,7.8661706 50.618054,7.8481284 Z"
     style="opacity:0.2;fill:#000000;fill-opacity:1;stroke-width:1.06604826" />
  <path
     id="path1034"
     d="m 19.745367,23.23567 c -0.59917,0 -1.081534,0.482364 -1.081534,1.081534 v 19.467618 c 0,0.59917 0.482364,1.081535 1.081534,1.081535 h 5.484924 V 29.802128 h 7.338983 V 23.23567 Z m 13.982694,0 v 21.630687 h 5.484924 c 0.59917,0 1.081535,-0.482365 1.081535,-1.081535 V 24.317204 c 0,-0.59917 -0.482365,-1.081534 -1.081535,-1.081534 z m -7.338983,7.725245 v 13.905442 h 6.180196 V 30.960915 Z"
     style="fill:#000000;stroke-width:0.38626227;opacity:0.2"
     inkscape:connector-curvature="0" />
  <path
     style="opacity:1;fill:#545454;fill-opacity:1;stroke-width:4.00238895"
     d="M 37.457119,5.2955956 33.251178,11.37559 c -2.47198,-0.405547 -4.995047,-0.386186 -7.460513,0.05725 L 21.570456,5.3170767 9.4390698,12.319797 12.600667,19.000636 c -1.596585,1.921628 -2.854399,4.101023 -3.7195423,6.444794 l -7.4032725,0.622301 0.01559,14.041213 7.3746708,0.60084 c 0.4301541,1.170521 0.9589959,2.302372 1.580818,3.383338 0.624902,1.079225 1.340384,2.103395 2.138724,3.061457 l -3.1687679,6.68084 12.1528589,7.038484 4.205901,-6.079994 c 2.469639,0.404739 4.990213,0.385392 7.453348,-0.05721 l 4.227405,6.115716 4.556422,-2.632277 -2.274644,-1.437739 c -0.996747,-0.629223 -1.601504,-1.72535 -1.602249,-2.904089 v -6.609289 h -2.753876 l -1.945596,1.945598 c -2.175865,2.175829 -5.678118,2.175829 -7.853941,0 L 23.638919,47.269025 H 20.88505 c -3.077075,0 -5.550691,-2.480732 -5.550691,-5.557827 V 38.96447 l -1.95273,-1.952748 c -2.175822,-2.175834 -2.175822,-5.678086 0,-7.853923 l 1.95273,-1.952749 v -2.746747 c 0,-3.077095 2.473616,-5.557827 5.550691,-5.557827 h 2.753869 l 1.945597,-1.945598 c 1.087911,-1.087915 2.507166,-1.630865 3.926975,-1.630865 1.419799,0 2.839013,0.54295 3.926966,1.630865 l 1.945596,1.945598 h 2.753876 v -6.516323 c 0.0018,-1.260613 0.693586,-2.4190767 1.802546,-3.018538 l 2.17446,-1.3733637 z"
     id="path904"
     inkscape:connector-curvature="0" />
  <path
     style="opacity:1;fill:#008374;fill-opacity:1;stroke-width:1.06604826"
     d="m 50.618515,6.8477799 c -0.135219,-0.017927 -0.278238,0.00861 -0.400593,0.085844 L 41.58435,12.391311 c -0.0041,-0.0028 -0.0082,-0.0043 -0.01558,-0.007 v 7.725168 c 1.286179,1.016483 2.124419,2.574808 2.124419,4.348982 v 2.753878 l 1.945596,1.945598 c 2.175823,2.175833 2.175823,5.678086 0,7.853924 l -1.945596,1.945598 v 2.753886 c 0,1.774173 -0.83824,3.332503 -2.124419,4.348985 v 7.818154 l 8.526294,5.379002 c 0.235752,0.149559 0.541378,0.109813 0.743899,-0.08584 L 55.624279,54.5437 c 0.207708,-0.200842 0.246668,-0.515205 0.09317,-0.758214 L 50.19533,45.037467 c 0.955461,-1.702341 1.686106,-3.490321 2.1888,-5.336086 l 10.364613,-2.353314 c 0.274333,-0.06212 0.466912,-0.299002 0.472098,-0.579393 l 0.114565,-6.65938 c 0.0031,-0.144338 -0.04438,-0.279206 -0.128597,-0.386251 -0.08415,-0.107084 -0.202244,-0.189775 -0.343306,-0.221728 l -0.157041,-0.02844 -10.250161,-2.317549 c -0.486796,-2.023269 -1.237358,-4.000661 -2.267479,-5.865405 l 5.500617,-8.719427 c 0.151199,-0.238914 0.115734,-0.549739 -0.07872,-0.751055 L 50.982792,7.0341231 C 50.883059,6.9308567 50.753272,6.8661706 50.618054,6.8481284 Z"
     id="path902"
     inkscape:connector-curvature="0" />
  <path
     inkscape:connector-curvature="0"
     style="fill:#16a085;stroke-width:0.38626227"
     d="m 19.745367,22.23567 c -0.59917,0 -1.081534,0.482364 -1.081534,1.081534 v 19.467618 c 0,0.59917 0.482364,1.081535 1.081534,1.081535 h 5.484924 V 28.802128 h 7.338983 V 22.23567 Z m 13.982694,0 v 21.630687 h 5.484924 c 0.59917,0 1.081535,-0.482365 1.081535,-1.081535 V 23.317204 c 0,-0.59917 -0.482365,-1.081534 -1.081535,-1.081534 z m -7.338983,7.725245 v 13.905442 h 6.180196 V 29.960915 Z"
     id="path942" />
  <path
     style="fill:#ffffff;stroke-width:0.38626227;opacity:0.2"
     d="m 19.746094,22.236328 c -0.59917,0 -1.082032,0.480908 -1.082032,1.080078 v 1 c 0,-0.59917 0.482862,-1.080078 1.082032,-1.080078 h 12.822265 v -1 z"
     id="path1073" />
  <path
     style="fill:#ffffff;stroke-width:0.38626227;opacity:0.2"
     d="m 33.728516,22.236328 v 1 h 5.484375 c 0.59917,0 1.082031,0.480908 1.082031,1.080078 v -1 c 0,-0.59917 -0.482861,-1.080078 -1.082031,-1.080078 z"
     id="path1071" />
  <path
     style="fill:#ffffff;stroke-width:0.38626227;opacity:0.2"
     d="m 26.388672,29.960938 v 1 h 6.179687 v -1 z"
     id="path1067" />
  <path
     style="opacity:0.2;fill:#ffffff;fill-opacity:1;stroke-width:1.06604826"
     d="m 50.617188,6.8476562 c -0.13465,-0.017421 -0.276665,0.00907 -0.398438,0.085938 l -8.634766,5.4570312 c -0.0041,-0.0028 -0.0082,-0.0032 -0.01563,-0.0059 v 1 c 0.0074,0.0027 0.01152,0.0031 0.01563,0.0059 L 50.21875,7.9335938 c 0.121773,-0.076867 0.263788,-0.1033583 0.398438,-0.085938 h 0.002 c 0.134556,0.018381 0.263999,0.082748 0.363281,0.1855469 l 4.580078,4.7363279 0.126953,-0.199219 c 0.151199,-0.238913 0.116329,-0.548683 -0.07813,-0.75 L 50.982422,7.0332031 C 50.88314,6.9304039 50.753697,6.8660368 50.619141,6.8476562 Z"
     id="path1113" />
  <path
     style="opacity:0.2;fill:#ffffff;fill-opacity:1;stroke-width:1.06604826"
     d="m 50.470703,21.84375 -0.28125,0.445312 c 1.030121,1.864744 1.780782,3.843919 2.267578,5.867188 l 10.25,2.316406 0.15625,0.0293 c 0.141062,0.03195 0.2596,0.113619 0.34375,0.220703 0.06316,0.08028 0.09729,0.179361 0.113281,0.283203 l 0.01563,-0.896484 c 0.0031,-0.144338 -0.04469,-0.279674 -0.128907,-0.386719 -0.08415,-0.107084 -0.202688,-0.18875 -0.34375,-0.220703 l -0.15625,-0.0293 -10.25,-2.316406 c -0.439264,-1.825715 -1.105915,-3.610556 -1.986328,-5.3125 z"
     id="path1111" />
  <path
     style="opacity:0.2;fill:#ffffff;fill-opacity:1;stroke-width:4.00238895"
     d="M 37.457031,5.2949219 33.251953,11.375 c -2.47198,-0.405547 -4.995471,-0.384842 -7.460937,0.05859 L 21.570312,5.3164062 9.4394531,12.320312 9.8105469,13.105469 21.570312,6.3164062 25.791016,12.433594 c 2.465466,-0.443436 4.988957,-0.464141 7.460937,-0.05859 l 4.205078,-6.0800781 3.832031,2.21875 0.826172,-0.5214844 z"
     id="path1103" />
  <path
     style="opacity:0.2;fill:#ffffff;fill-opacity:1;stroke-width:4.00238895"
     d="m 12.308594,19.382812 c -1.452749,1.828587 -2.6183001,3.869651 -3.4277346,6.0625 l -7.4023438,0.623047 0.00195,1 7.4003906,-0.623047 C 9.7460027,24.101541 11.004978,21.921628 12.601562,20 Z"
     id="path1101" />
</svg>
