<?xml version="1.0" encoding="UTF-8" standalone="no"?>
<svg
   xmlns:dc="http://purl.org/dc/elements/1.1/"
   xmlns:cc="http://creativecommons.org/ns#"
   xmlns:rdf="http://www.w3.org/1999/02/22-rdf-syntax-ns#"
   xmlns:svg="http://www.w3.org/2000/svg"
   xmlns="http://www.w3.org/2000/svg"
   xmlns:xlink="http://www.w3.org/1999/xlink"
   xmlns:sodipodi="http://sodipodi.sourceforge.net/DTD/sodipodi-0.dtd"
   xmlns:inkscape="http://www.inkscape.org/namespaces/inkscape"
   width="16"
   height="16"
   version="1.1"
   id="svg4"
   sodipodi:docname="package-atoupdated-symbolic.svg"
   inkscape:version="0.92.4 5da689c313, 2019-01-14">
  <metadata
     id="metadata10">
    <rdf:RDF>
      <cc:Work
         rdf:about="">
        <dc:format>image/svg+xml</dc:format>
        <dc:type
           rdf:resource="http://purl.org/dc/dcmitype/StillImage" />
        <dc:title />
      </cc:Work>
    </rdf:RDF>
  </metadata>
  <defs
     id="defs8">
    <linearGradient
       inkscape:collect="always"
       id="linearGradient2450">
      <stop
         style="stop-color:#35bf5c;stop-opacity:0.89887643"
         offset="0"
         id="stop2446" />
      <stop
         style="stop-color:#35bf5c;stop-opacity:0"
         offset="1"
         id="stop2448" />
    </linearGradient>
    <radialGradient
       inkscape:collect="always"
       xlink:href="#linearGradient2450"
       id="radialGradient3438"
       gradientUnits="userSpaceOnUse"
       gradientTransform="matrix(2.827672,-2.8518669,3.1382469,3.1116204,-4651.8885,-3868.6472)"
       cx="-174.61034"
       cy="1608.2534"
       fx="-174.61034"
       fy="1608.2534"
       r="57.831055" />
    <radialGradient
       inkscape:collect="always"
       xlink:href="#linearGradient2450"
       id="radialGradient3438-7"
       gradientUnits="userSpaceOnUse"
       gradientTransform="matrix(2.827672,-2.8518669,3.1382469,3.1116204,-4651.8885,-3868.6472)"
       cx="-174.61034"
       cy="1608.2534"
       fx="-174.61034"
       fy="1608.2534"
       r="57.831055" />
    <radialGradient
       inkscape:collect="always"
       xlink:href="#linearGradient2450"
       id="radialGradient3438-75"
       gradientUnits="userSpaceOnUse"
       gradientTransform="matrix(2.827672,-2.8518669,3.1382469,3.1116204,-4651.8885,-3868.6472)"
       cx="-174.61034"
       cy="1608.2534"
       fx="-174.61034"
       fy="1608.2534"
       r="57.831055" />
    <radialGradient
       inkscape:collect="always"
       xlink:href="#linearGradient2450"
       id="radialGradient3438-7-3"
       gradientUnits="userSpaceOnUse"
       gradientTransform="matrix(2.827672,-2.8518669,3.1382469,3.1116204,-4651.8885,-3868.6472)"
       cx="-174.61034"
       cy="1608.2534"
       fx="-174.61034"
       fy="1608.2534"
       r="57.831055" />
  </defs>
  <sodipodi:namedview
     pagecolor="#ffffff"
     bordercolor="#666666"
     borderopacity="1"
     objecttolerance="10"
     gridtolerance="10"
     guidetolerance="10"
     inkscape:pageopacity="0"
     inkscape:pageshadow="2"
     inkscape:window-width="1920"
     inkscape:window-height="1053"
     id="namedview6"
     showgrid="false"
     inkscape:zoom="32"
     inkscape:cx="9.32303"
     inkscape:cy="8.551788"
     inkscape:window-x="1920"
     inkscape:window-y="0"
     inkscape:window-maximized="1"
     inkscape:current-layer="svg4"
     showguides="true"
     inkscape:guide-bbox="true" />
  <path
     id="path898"
     d="M 12.5,9 A 3.4999999,3.4999999 0 0 0 9,12.5 3.4999999,3.4999999 0 0 0 12.5,16 3.4999999,3.4999999 0 0 0 16,12.5 3.4999999,3.4999999 0 0 0 15.7235,11.1455 L 12.13965,15.25 10.25,13.375 c -0.19,-0.19 -0.19,-0.52975 0,-0.71975 0.19,-0.19 0.52975,-0.19 0.71975,0 l 1.125,1.12525 3.08275,-3.52855 A 3.4999999,3.4999999 0 0 0 12.5,9 Z"
     style="fill:#dfdfdf;stroke-width:0.5;fill-opacity:1"
     inkscape:connector-curvature="0" />
  <path
     style="opacity:0.3;fill:#dfdfdf;fill-opacity:1"
     d="M 8,0 1,3.5 v 4.603518 l 0.748047,0.36914 V 9.470705 L 2.746094,9.964846 V 8.966799 l 0.875,0.433594 0.873046,0.43164 V 8.833987 l 0.998047,0.49414 v 0.998047 0.998047 1.169922 l 0.748047,0.373047 v -1.171875 -0.998047 l 0.998047,0.49414 v 0.998047 l 0.748047,0.371094 v 0.002 l 0.01367,-0.0059 V 11.498055 7.000006 l -5,-2.25 5,-2.5 5,2.5 v 3.289063 c 0.715747,0.08026 1.401699,0.331458 2,0.732421 V 3.500006 Z"
     id="path2-3"
     inkscape:connector-curvature="0"
     sodipodi:nodetypes="ccccccccccccccccccccccccccccccc" />
  <path
     style="fill:#16a085;fill-opacity:1;stroke-width:1.0372535"
     d="m 0.11483682,11.678259 c 3.315e-5,0.236071 0.13344617,0.451859 0.3446136,0.557395 l 7.26058928,3.630584 c 0.087723,0.04386 0.1832101,0.06579 0.2723368,0.06608 L 7.986016,14.077252 7.2094794,13.692741 V 12.65717 L 6.1739046,12.144876 v 1.034996 1.215978 L 5.3973682,14.00787 V 12.79594 11.760366 10.724791 L 4.3623714,10.212496 v 1.034997 L 3.4563154,10.79938 2.5502595,10.350689 v 1.034997 L 1.5146846,10.873392 V 9.8378156 L 0.11483682,9.1446666 Z"
     id="path1683"
     inkscape:connector-curvature="0"
     sodipodi:nodetypes="ccccccccccccccccccccccc" />
</svg>
