<?xml version="1.0" encoding="UTF-8" standalone="no"?>
<svg
   xmlns:dc="http://purl.org/dc/elements/1.1/"
   xmlns:cc="http://creativecommons.org/ns#"
   xmlns:rdf="http://www.w3.org/1999/02/22-rdf-syntax-ns#"
   xmlns:svg="http://www.w3.org/2000/svg"
   xmlns="http://www.w3.org/2000/svg"
   xmlns:xlink="http://www.w3.org/1999/xlink"
   xmlns:sodipodi="http://sodipodi.sourceforge.net/DTD/sodipodi-0.dtd"
   xmlns:inkscape="http://www.inkscape.org/namespaces/inkscape"
   width="64"
   height="64"
   version="1"
   id="svg20"
   sodipodi:docname="manjaro-hello2.svg"
   inkscape:version="0.92.4 5da689c313, 2019-01-14">
  <metadata
     id="metadata26">
    <rdf:RDF>
      <cc:Work
         rdf:about="">
        <dc:format>image/svg+xml</dc:format>
        <dc:type
           rdf:resource="http://purl.org/dc/dcmitype/StillImage" />
        <dc:title></dc:title>
      </cc:Work>
    </rdf:RDF>
  </metadata>
  <defs
     id="defs24">
    <linearGradient
       id="linearGradient2450"
       inkscape:collect="always">
      <stop
         id="stop2446"
         offset="0"
         style="stop-color:#35bf5c;stop-opacity:0.89887643" />
      <stop
         id="stop2448"
         offset="1"
         style="stop-color:#35bf5c;stop-opacity:0" />
    </linearGradient>
    <radialGradient
       r="57.831055"
       fy="1608.2534"
       fx="-174.61034"
       cy="1608.2534"
       cx="-174.61034"
       gradientTransform="matrix(2.827672,-2.8518669,3.1382469,3.1116204,-4651.8885,-3868.6472)"
       gradientUnits="userSpaceOnUse"
       id="radialGradient3438"
       xlink:href="#linearGradient2450"
       inkscape:collect="always" />
    <radialGradient
       r="57.831055"
       fy="1608.2534"
       fx="-174.61034"
       cy="1608.2534"
       cx="-174.61034"
       gradientTransform="matrix(2.827672,-2.8518669,3.1382469,3.1116204,-4651.8885,-3868.6472)"
       gradientUnits="userSpaceOnUse"
       id="radialGradient3438-7"
       xlink:href="#linearGradient2450"
       inkscape:collect="always" />
  </defs>
  <sodipodi:namedview
     pagecolor="#ffffff"
     bordercolor="#666666"
     borderopacity="1"
     objecttolerance="10"
     gridtolerance="10"
     guidetolerance="10"
     inkscape:pageopacity="0"
     inkscape:pageshadow="2"
     inkscape:window-width="1920"
     inkscape:window-height="1053"
     id="namedview22"
     showgrid="false"
     inkscape:zoom="1.84375"
     inkscape:cx="1.987474"
     inkscape:cy="30.899368"
     inkscape:window-x="0"
     inkscape:window-y="0"
     inkscape:window-maximized="1"
     inkscape:current-layer="svg20" />
  <path
     sodipodi:nodetypes="ssssssccccccssccsccccssccccccccsssssccccc"
     inkscape:connector-curvature="0"
     id="path1453"
     d="m 26.772393,9.3542016 c -3.440457,0 -6.229207,2.7873514 -6.229207,6.2265744 0,3.439222 2.78875,6.229208 6.229207,6.229208 3.440484,0 6.226577,-2.789986 6.226577,-6.229208 0,-3.439223 -2.786093,-6.2265744 -6.226577,-6.2265744 z m 31.549028,1.1194134 c -0.182905,0.0096 -0.374091,0.03468 -0.574191,0.07638 -1.640664,0.341926 -2.266289,1.53599 -1.962269,2.994762 1.168868,5.608661 -1.574503,11.114968 -6.369997,13.704364 -1.415332,0.816619 -2.519185,1.005663 -3.984953,1.18252 H 38.70666 v 32.568351 h 8.257315 c 0.902136,0 1.630401,-0.728256 1.630401,-1.630393 V 33.059432 C 57.253358,30.40975 62.623152,21.551319 60.739356,12.512265 60.44955,11.121664 59.601748,10.40697 58.321421,10.473615 Z M 6.4991575,11.498208 c -0.2376844,-0.01173 -0.4904862,-4.04e-4 -0.7559376,0.03161 -2.0720959,0.249872 -3.0689815,1.53555 -2.8209266,3.59266 0.9797454,8.124396 6.1651096,14.69802 13.1037287,17.860573 V 59.369608 C 16.026022,60.271745 16.751644,61 17.653779,61 h 8.257326 V 38.316726 H 36.963007 V 28.431645 H 24.437381 C 23.047402,28.383852 21.824956,28.142507 20.748923,27.878472 14.780272,26.093355 10.132055,20.931153 9.3385055,14.350737 9.1392687,12.698559 8.1628542,11.579979 6.4991575,11.498208 Z m 38.3445245,3.21601 c -2.966976,0 -5.370552,2.404639 -5.370552,5.370552 0,2.965912 2.403576,5.370551 5.370552,5.370551 2.967003,0 5.370549,-2.404639 5.370549,-5.370551 0,-2.965913 -2.403546,-5.370552 -5.370549,-5.370552 z M 27.657388,40.063011 v 20.936985 h 9.305619 V 40.063011 Z"
     style="fill:#000000;fill-opacity:1;stroke-width:0.88974535;opacity:0.2" />
  <path
     style="fill:#16a085;fill-opacity:1;stroke-width:0.88974535"
     d="m 26.772393,8.2869826 c -3.440457,0 -6.229207,2.7873514 -6.229207,6.2265744 0,3.439222 2.78875,6.229208 6.229207,6.229208 3.440484,0 6.226577,-2.789986 6.226577,-6.229208 0,-3.439223 -2.786093,-6.2265744 -6.226577,-6.2265744 z m 31.549028,1.1194135 c -0.182905,0.00957 -0.374091,0.034685 -0.574191,0.076383 -1.640664,0.3419257 -2.266289,1.5359899 -1.962269,2.9947619 1.168868,5.608661 -1.574503,11.114968 -6.369997,13.704364 -1.415332,0.816619 -2.519185,1.005663 -3.984953,1.18252 H 38.70666 v 32.568351 h 8.257315 c 0.902136,0 1.630401,-0.728256 1.630401,-1.630393 V 31.992213 C 57.253358,29.342531 62.623152,20.4841 60.739356,11.445046 60.44955,10.054445 59.601748,9.3397514 58.321421,9.4063961 Z M 6.4991575,10.430989 C 6.2614731,10.419257 6.0086713,10.430585 5.7432199,10.4626 3.671124,10.712472 2.6742384,11.99815 2.9222933,14.05526 3.9020387,22.179656 9.0874029,28.75328 16.026022,31.915833 v 26.386556 c 0,0.902137 0.725622,1.630392 1.627757,1.630392 h 8.257326 V 37.249507 H 36.963007 V 27.364426 H 24.437381 C 23.047402,27.316633 21.824956,27.075288 20.748923,26.811253 14.780272,25.026136 10.132055,19.863934 9.3385055,13.283518 9.1392687,11.63134 8.1628542,10.51276 6.4991575,10.430989 Z m 38.3445245,3.21601 c -2.966976,0 -5.370552,2.404639 -5.370552,5.370552 0,2.965912 2.403576,5.370551 5.370552,5.370551 2.967003,0 5.370549,-2.404639 5.370549,-5.370551 0,-2.965913 -2.403546,-5.370552 -5.370549,-5.370552 z M 27.657388,38.995792 v 20.936985 h 9.305619 V 38.995792 Z"
     id="path1253"
     inkscape:connector-curvature="0"
     sodipodi:nodetypes="ssssssccccccssccsccccssccccccccsssssccccc" />
  <path
     style="fill:#ffffff;fill-opacity:1;stroke-width:0.88974535;opacity:0.2"
     d="M 26.771484 8.2871094 C 23.331027 8.2871094 20.542969 11.074449 20.542969 14.513672 C 20.542969 14.693669 20.555341 14.870741 20.570312 15.046875 C 20.841395 11.857855 23.511089 9.3535156 26.771484 9.3535156 C 30.03191 9.3535156 32.70183 11.857848 32.972656 15.046875 C 32.987613 14.870746 32.998047 14.693664 32.998047 14.513672 C 32.998047 11.074449 30.211968 8.2871094 26.771484 8.2871094 z M 58.322266 9.40625 C 58.139361 9.41582 57.948147 9.4407239 57.748047 9.4824219 C 56.155246 9.8143726 55.52711 10.95278 55.769531 12.353516 C 55.944093 11.466073 56.586858 10.792781 57.748047 10.550781 C 57.948147 10.509081 58.139361 10.482256 58.322266 10.472656 C 59.602593 10.406011 60.450428 11.121118 60.740234 12.511719 C 60.950486 13.520571 61.054795 14.525513 61.089844 15.521484 C 61.124043 14.179775 61.025971 12.81637 60.740234 11.445312 C 60.450428 10.054711 59.602593 9.3396053 58.322266 9.40625 z M 6.5 10.431641 C 6.2623156 10.419909 6.009592 10.430876 5.7441406 10.462891 C 3.6720447 10.712763 2.6738201 11.997578 2.921875 14.054688 C 2.9226747 14.061319 2.924976 14.06759 2.9257812 14.074219 C 3.093518 12.636316 4.0544753 11.733052 5.7441406 11.529297 C 6.009592 11.497283 6.2623156 11.486317 6.5 11.498047 C 8.1636967 11.579818 9.1386538 12.699384 9.3378906 14.351562 C 10.13144 20.931978 14.779396 26.093789 20.748047 27.878906 C 21.82408 28.142941 23.047521 28.383848 24.4375 28.431641 L 36.962891 28.431641 L 36.962891 27.365234 L 24.4375 27.365234 C 23.047521 27.317441 21.82408 27.074582 20.748047 26.810547 C 14.779396 25.02543 10.13144 19.863619 9.3378906 13.283203 C 9.1386538 11.631025 8.1636967 10.513412 6.5 10.431641 z M 44.84375 13.646484 C 41.876774 13.646484 39.472656 16.051665 39.472656 19.017578 C 39.472656 19.197683 39.482686 19.375228 39.5 19.550781 C 39.767814 16.835385 42.056944 14.714844 44.84375 14.714844 C 47.63058 14.714844 49.917733 16.835388 50.185547 19.550781 C 50.202862 19.375226 50.214844 19.197685 50.214844 19.017578 C 50.214844 16.051665 47.810753 13.646484 44.84375 13.646484 z M 56.041016 15.621094 C 55.84584 20.059519 53.305212 24.080558 49.414062 26.181641 C 47.998731 26.99826 46.895456 27.188377 45.429688 27.365234 L 38.707031 27.365234 L 38.707031 28.431641 L 45.429688 28.431641 C 46.895456 28.254784 47.998731 28.066619 49.414062 27.25 C 53.615174 24.981549 56.240433 20.474476 56.041016 15.621094 z M 27.658203 38.996094 L 27.658203 40.0625 L 36.962891 40.0625 L 36.962891 38.996094 L 27.658203 38.996094 z "
     id="path1457" />
</svg>
