<svg xmlns="http://www.w3.org/2000/svg" width="16" height="16" version="1.1">
 <rect style="fill:#696969" width="13.97" height="13.97" x="2.03" y="0" rx=".699" ry=".699"/>
 <path style="fill:#212529" d="M 7.0058594 1.9960938 L 1.3222656 6.7441406 L 1.9863281 7.2167969 L 1.5039062 7.2167969 L 1.5039062 12.830078 L 0.50585938 12.830078 C 0.50585938 12.830078 0.00931185 12.829304 0.0078125 13.328125 L 0 16 L 6.984375 16 L 6.9921875 13.328125 C 6.9921875 13.328125 6.9910115 12.830078 6.4921875 12.830078 L 5.4941406 12.830078 L 5.4941406 9.7128906 L 5.6796875 9.8457031 L 9.0917969 3.7441406 L 7.0058594 1.9960938 z"/>
 <path style="fill:#373a3e" d="M 1.5039062 12.332031 C 1.5039062 12.332031 1.0058594 12.331256 1.0058594 12.830078 L 0.50585938 12.830078 C 0.50585938 12.830078 0.0078125 12.829301 0.0078125 13.328125 L 0.0078125 13.580078 C 0.0078125 13.081254 0.50585938 13.080078 0.50585938 13.080078 L 6.4921875 13.080078 C 6.9910135 13.080078 6.9921875 13.580078 6.9921875 13.580078 L 6.9921875 13.328125 C 6.9921875 13.328125 6.9910135 12.830078 6.4921875 12.830078 L 5.9941406 12.830078 C 5.9941406 12.830078 5.9929625 12.332031 5.4941406 12.332031 L 1.5039062 12.332031 z"/>
 <path style="fill:#16a085" d="m 13.489314,9.8555038 -0.40233,-0.5714521 c -0.23151,0.039513 -0.468035,0.039523 -0.699556,8.79e-5 L 11.988078,9.861811 10.83948,9.2034411 11.134748,8.5674696 C 11.059162,8.4771312 10.991415,8.380519 10.932194,8.2786991 10.8729,8.1766695 10.82238,8.0697777 10.781208,7.959184 l -0.696404,-0.054202 -0.0036,-1.3239017 0.658703,-0.055792 0.810302,1.3941671 c 0.379038,0.6521567 1.214988,0.8735617 1.867139,0.4945213 0.652172,-0.3790395 0.873573,-1.2149863 0.494534,-1.8671412 L 13.100621,5.150937 13.476154,4.6079398 14.624747,5.2663082 14.325683,5.9037094 c 0.07599,0.08871 0.144319,0.1836847 0.204333,0.2838853 0.06002,0.1028955 0.111115,0.210748 0.152666,0.3223963 l 0.696739,0.054773 0.0036,1.3239023 -0.699608,0.06107 C 14.602287,8.1713749 14.484,8.377589 14.333655,8.559551 L 14.6345,9.189983 Z"/>
 <path style="fill:#16a085" d="M 7.7421875 0.99804688 A 2.2448981 2.2448981 0 0 0 5.4980469 3.2421875 A 2.2448981 2.2448981 0 0 0 7.7421875 5.4882812 A 2.2448981 2.2448981 0 0 0 9.9882812 3.2421875 A 2.2448981 2.2448981 0 0 0 7.7421875 0.99804688 z M 3.5 4.9824219 A 3.4922776 3.4922776 0 0 0 0.0078125 8.4746094 A 3.4922776 3.4922776 0 0 0 3.5 11.966797 A 3.4922776 3.4922776 0 0 0 6.9921875 8.4746094 A 3.4922776 3.4922776 0 0 0 3.5 4.9824219 z M 12.732422 4.9902344 A 2.2448981 2.2448981 0 0 0 10.486328 7.234375 A 2.2448981 2.2448981 0 0 0 12.732422 9.4804688 A 2.2448981 2.2448981 0 0 0 14.976562 7.234375 A 2.2448981 2.2448981 0 0 0 12.732422 4.9902344 z"/>
 <circle style="fill:#212529" cx="-3.499" cy="8.475" r="1.996" transform="scale(-1,1)"/>
 <circle style="fill-opacity:0.2" cx="-3.499" cy="8.475" r="1.469" transform="scale(-1,1)"/>
 <g transform="matrix(0.96100095,0,0,0.96100095,22.158927,-0.41748247)">
  <path style="fill:#16a085" d="m -15.590467,0.94520392 -0.054,0.61953908 c -0.195776,0.073123 -0.377759,0.1788618 -0.538235,0.3127333 l -0.565538,-0.2658548 -0.589271,1.0200987 0.511532,0.3572453 c -0.01776,0.1033004 -0.02667,0.2079202 -0.02671,0.312734 0,0.105011 0.0089,0.2098339 0.02671,0.3133291 l -0.511532,0.3530885 0.589271,1.0200987 0.53171,-0.2516114 V 3.3016995 c 0,-0.6712122 0.544123,-1.2153372 1.215337,-1.2153372 0.671211,0 1.215334,0.544125 1.215334,1.2153372 v 1.4366854 l 0.531709,0.2498309 0.589272,-1.0200987 -0.515094,-0.3566495 c 0.0188,-0.1022225 0.02889,-0.2058448 0.03026,-0.3097681 1.7e-4,-0.1060016 -0.0087,-0.2118212 -0.02671,-0.3162943 l 0.511537,-0.353685 -0.58927,-1.0200987 -0.565537,0.2658548 c -0.161554,-0.134219 -0.344765,-0.2399739 -0.541796,-0.3127333 l -0.05044,-0.61953908 z"/>
  <path style="fill:#ffffff" d="m -13.988578,10.826376 v 0.519181 h -0.778773 v 0.519179 h 0.778773 v 1.557546 h -0.778773 v 0.51918 h 0.778773 v 0.519183 h 0.519182 v -0.519183 h 1.038363 v 0.519183 h 0.519182 v -0.519183 h 0.778772 v -0.51918 h -0.778772 v -1.557546 h 0.778772 v -0.519179 h -0.778772 v -0.519181 h -0.519182 v 0.519181 h -1.038363 v -0.519181 z m 0.519182,1.03836 h 1.038363 v 1.557546 h -1.038363 z m 3.11509,2.076726 v 0.519183 h 1.038363 v -0.519183 z"/>
 </g>
 <path style="fill:#212529;stroke:#212529;stroke-width:2.49467039;stroke-linecap:round" d="m 7.7427607,3.2434041 4.9893403,3.991475"/>
</svg>
