<svg xmlns="http://www.w3.org/2000/svg" width="16" height="16" version="1.1">
 <path style="fill:#4f4f4f" d="M 8.0004463,0.55829956 0.99264102,3.8140378 v 6.3761462 l 0.74944088,0.34481 v 0.928655 l 0.9994414,0.459402 v -0.928137 l 0.8744408,0.402365 0.8744416,0.401847 v -0.928137 l 0.9988822,0.459402 v 0.928655 0.928656 l 1.6e-6,0.511529 0.7494417,0.347921 -1.6e-6,-0.515158 4.8e-6,-0.532637 0.9994406,0.459402 -4.8e-6,0.533155 0.7494417,0.344811 v 0.427254 l 0.2572533,-0.118221 0.7494425,-0.34481 v 0.678213 l 0.9994391,-0.464068 v -0.673547 l 0.7488852,-0.34481 V 12.56808 l 0.999439,-0.459402 v 0.928137 l 0.999442,-0.459402 5e-6,-0.676973 0.749442,-0.344811 -5e-6,0.676973 8e-6,0.424288 0.74944,-0.34844 -8e-6,-0.420658 0.767857,-0.353626 V 3.8140378 Z"/>
 <path style="fill:#848484" d="M 8.0003375,2.7096709 12.79421,4.9368439 8.0003375,6.9412988 3.2064653,4.9368439 Z"/>
 <path style="fill:#4f4f4f" d="m 12.79421,4.9368439 1.08e-4,4.9094991 -4.7938725,2.227174 -1.08e-4,-5.1322182 z"/>
 <path style="fill:#fabd7f" d="M 8.0004455,0.70500734 1.2886615,3.8232186 v 5.2254501 l 0.7177833,0.3302454 v 0.8894279 l 0.9572231,0.439996 V 9.8194074 l 0.8375032,0.3853686 0.837504,0.384873 V 9.7007171 l 0.9566887,0.4399959 v 0.889427 0.889428 0.465621 l 0.7177833,0.333224 v -0.469096 -0.493431 l 0.9572223,0.439996 v 0.493927 l 0.7177841,0.330245 v 0.409207 l 0.2463893,-0.113227 0.7177818,-0.330245 v 0.649565 l 0.9572222,-0.444465 v -0.645097 l 0.7172502,-0.330245 v -0.795566 l 0.957223,-0.439997 v 0.795071 l 0.957224,-0.439997 v -0.543884 l 0.717782,-0.330245 v 0.543885 0.396493 l 0.717784,-0.333722 v -0.393016 l 0.735423,-0.338688 V 3.8232186 Z m 0,2.00481236 4.7941325,2.226797 V 9.8462234 L 8.0004455,12.073517 V 6.9414292 L 3.2063141,4.9366167 Z"/>
 <path style="fill:#16a085" d="M 7.9781255,3.805156e-4 C 7.8921616,0.00326051 7.8078617,0.02324049 7.7309161,0.05897246 L 0.72366768,3.3141927 C 0.51986867,3.408831 0.3911104,3.6023404 0.3910784,3.8140378 v 8.3713802 c 3.2e-5,0.211697 0.12879027,0.405207 0.33258928,0.499846 l 7.00724842,3.255738 c 0.1693239,0.07866 0.3686213,0.07866 0.5379467,0 l 7.0078032,-3.255738 c 0.2038,-0.09464 0.332557,-0.288149 0.332588,-0.499846 V 3.8140378 C 15.609223,3.6023404 15.480466,3.408831 15.276666,3.3141927 L 8.2688628,0.05897244 C 8.1787589,0.01712928 8.0787886,-0.0030179 7.9781255,3.805156e-4 Z M 8.0004535,0.55829956 15.00826,3.8140378 v 7.7201282 l -0.767857,0.353626 v 0.420657 l -0.74944,0.348441 v -0.424288 -0.676973 l -0.749445,0.344811 v 0.676973 l -0.999439,0.459402 v -0.928137 l -0.999442,0.459402 v 0.928656 l -0.7488822,0.34481 v 0.673547 L 8.9943133,14.979161 V 14.300948 L 8.24487,14.645758 7.9876175,14.763979 V 14.336725 L 7.238175,13.991914 V 13.458759 L 6.2387312,12.999357 v 0.532637 0.515158 L 5.4892903,13.699231 V 13.187702 12.259046 11.330391 L 4.4904065,10.870989 v 0.928137 L 3.6159657,11.39728 2.7415241,10.994914 v 0.928137 L 1.7420819,11.463649 V 10.534994 L 0.99264102,10.190184 V 3.8140378 Z"/>
 <path style="fill:#848484" d="M 10.868997,5.7200648 10.492735,5.8884166 V 6.471436 6.9382484 7.4050623 L 9.990338,7.6290325 V 7.1622194 L 9.5510104,7.35838 9.4398417,7.4080439 V 8.107396 l -0.8447267,0 1.800295,1.911418 1.799866,-1.911418 -0.844731,0 V 6.5553656 L 10.868997,6.7703974 V 6.3035842 Z"/>
</svg>
