<?xml version="1.0" encoding="UTF-8" standalone="no"?>
<!-- Created with Inkscape (http://www.inkscape.org/) -->

<svg
   xmlns:dc="http://purl.org/dc/elements/1.1/"
   xmlns:cc="http://creativecommons.org/ns#"
   xmlns:rdf="http://www.w3.org/1999/02/22-rdf-syntax-ns#"
   xmlns:svg="http://www.w3.org/2000/svg"
   xmlns="http://www.w3.org/2000/svg"
   xmlns:xlink="http://www.w3.org/1999/xlink"
   xmlns:sodipodi="http://sodipodi.sourceforge.net/DTD/sodipodi-0.dtd"
   xmlns:inkscape="http://www.inkscape.org/namespaces/inkscape"
   width="32"
   version="1.1"
   height="32"
   viewBox="0 0 32 32"
   id="svg2"
   inkscape:version="0.92.0 r"
   sodipodi:docname="folder-tar.svg">
  <sodipodi:namedview
     pagecolor="#ffffff"
     bordercolor="#666666"
     borderopacity="1"
     objecttolerance="10"
     gridtolerance="10"
     guidetolerance="10"
     inkscape:pageopacity="0"
     inkscape:pageshadow="2"
     inkscape:window-width="1920"
     inkscape:window-height="1011"
     id="namedview19"
     showgrid="false"
     inkscape:zoom="7.375"
     inkscape:cx="-27.38983"
     inkscape:cy="16"
     inkscape:window-x="0"
     inkscape:window-y="0"
     inkscape:window-maximized="1"
     inkscape:current-layer="layer1" />
  <defs
     id="defs5455">
    <linearGradient
       inkscape:collect="always"
       xlink:href="#linearGradient4501"
       id="linearGradient4503"
       x1="402.57144"
       y1="525.79797"
       x2="402.57144"
       y2="517.79797"
       gradientUnits="userSpaceOnUse" />
    <linearGradient
       inkscape:collect="always"
       id="linearGradient4501">
      <stop
         style="stop-color:#179577;stop-opacity:1"
         offset="0"
         id="stop4497" />
      <stop
         style="stop-color:#1ec29a;stop-opacity:1"
         offset="1"
         id="stop4499" />
    </linearGradient>
    <linearGradient
       inkscape:collect="always"
       xlink:href="#linearGradient4176"
       id="linearGradient4208"
       gradientUnits="userSpaceOnUse"
       x1="430.10477"
       y1="541.79797"
       x2="430.10477"
       y2="495.798"
       gradientTransform="matrix(0.51724134,0,0,0.5,185.10346,274.899)" />
    <linearGradient
       inkscape:collect="always"
       id="linearGradient4176">
      <stop
         style="stop-color:#1cb893;stop-opacity:1"
         offset="0"
         id="stop4178" />
      <stop
         style="stop-color:#42e2bc;stop-opacity:1"
         offset="1"
         id="stop4180" />
    </linearGradient>
  </defs>
  <metadata
     id="metadata5458">
    <rdf:RDF>
      <cc:Work
         rdf:about="">
        <dc:format>image/svg+xml</dc:format>
        <dc:type
           rdf:resource="http://purl.org/dc/dcmitype/StillImage" />
      </cc:Work>
    </rdf:RDF>
  </metadata>
  <g
     inkscape:label="Capa 1"
     inkscape:groupmode="layer"
     id="layer1"
     transform="matrix(1 0 0 1 -384.57143 -515.798)">
    <g
       id="g4206">
      <path
         style="fill:url(#linearGradient4503);fill-opacity:1;fill-rule:evenodd;stroke:none;stroke-width:1px;stroke-linecap:butt;stroke-linejoin:miter;stroke-opacity:1"
         d="m 385.57143,517.798 h 12 l 3,4 h 15 v 22 h -30 z"
         id="path4182"
         inkscape:connector-curvature="0"
         sodipodi:nodetypes="ccccccc" />
      <path
         style="fill:url(#linearGradient4208);fill-opacity:1;fill-rule:evenodd;stroke:none;stroke-width:1px;stroke-linecap:butt;stroke-linejoin:miter;stroke-opacity:1"
         d="m 385.57143,526.798 h 12 l 3,-4 h 15 l -1e-5,23 h -29.99999 z"
         id="path4186"
         inkscape:connector-curvature="0"
         sodipodi:nodetypes="ccccccc" />
      <path
         inkscape:connector-curvature="0"
         style="fill-opacity:0.235294"
         id="path4192"
         d="m 385.57143,544.798 v 1 h 0.51725 28.96551 0.51724 v -1 h -0.51724 -28.96551 z" />
      <path
         sodipodi:nodetypes="cccccc"
         d="m 385.57143,526.798 v 1 h 13 l 2,-5 -3,4 z"
         id="path4224"
         style="opacity:1;fill:#ffffff;fill-opacity:0.23529412;fill-rule:evenodd"
         inkscape:connector-curvature="0" />
      <rect
         y="520.79797"
         x="387.57144"
         height="2.9999995"
         width="8.9999886"
         id="rect4194"
         style="fill:#000000;fill-opacity:0.23529412;stroke:none" />
      <rect
         style="fill:#ffffff;fill-opacity:1;stroke:none"
         id="rect4196"
         width="6.9999881"
         height="1"
         x="388.57144"
         y="521.79797" />
      <path
         sodipodi:nodetypes="ccccc"
         inkscape:connector-curvature="0"
         id="path4198"
         d="m 388.57142,521.798 h 3.00001 v 1 h -3.00001 z"
         style="fill:#17c4fc;fill-opacity:1;stroke:none" />
      <path
         sodipodi:nodetypes="ccccccc"
         d="m 400.57143,522.798 -4,3 h -11 v 1 h 6.99999 5.00001 z"
         id="path4306-3"
         style="fill-opacity:0.235294;fill-rule:evenodd"
         inkscape:connector-curvature="0" />
      <path
         sodipodi:nodetypes="cccccc"
         inkscape:connector-curvature="0"
         style="fill:#ffffff;fill-opacity:0.23529412;fill-rule:evenodd"
         id="path4204"
         d="m 397.57143,517.798 3,5 h 15 v -1 h -15 z" />
    </g>
    <path
       style="fill:#000000;fill-opacity:0.23529412"
       id="rect4184"
       d="m 395.57143,529.798 0,10 10,0 0,-10 -10,0 z m 1,1 3,0 0,1 1,0 0,-1 4,0 0,8 -8,0 0,-8 z m 4,1 0,1 1,0 0,-1 -1,0 z m 0,1 -1,0 0,1 1,0 0,-1 z m 0,1 0,1 -1,0 0,1 1,0 1,0 0,-1 0,-1 -1,0 z"
       inkscape:connector-curvature="0" />
  </g>
</svg>
