<?xml version="1.0" encoding="UTF-8" standalone="no"?>
<!-- Created with Inkscape (http://www.inkscape.org/) -->

<svg
   xmlns:dc="http://purl.org/dc/elements/1.1/"
   xmlns:cc="http://creativecommons.org/ns#"
   xmlns:rdf="http://www.w3.org/1999/02/22-rdf-syntax-ns#"
   xmlns:svg="http://www.w3.org/2000/svg"
   xmlns="http://www.w3.org/2000/svg"
   xmlns:xlink="http://www.w3.org/1999/xlink"
   xmlns:sodipodi="http://sodipodi.sourceforge.net/DTD/sodipodi-0.dtd"
   xmlns:inkscape="http://www.inkscape.org/namespaces/inkscape"
   width="32"
   version="1.1"
   height="32"
   viewBox="0 0 32 32"
   id="svg2"
   inkscape:version="0.92.0 r"
   sodipodi:docname="folder-remote.svg">
  <sodipodi:namedview
     pagecolor="#ffffff"
     bordercolor="#666666"
     borderopacity="1"
     objecttolerance="10"
     gridtolerance="10"
     guidetolerance="10"
     inkscape:pageopacity="0"
     inkscape:pageshadow="2"
     inkscape:window-width="1920"
     inkscape:window-height="1011"
     id="namedview19"
     showgrid="false"
     inkscape:zoom="7.375"
     inkscape:cx="-27.38983"
     inkscape:cy="16"
     inkscape:window-x="0"
     inkscape:window-y="0"
     inkscape:window-maximized="1"
     inkscape:current-layer="layer1" />
  <defs
     id="defs5455">
    <linearGradient
       inkscape:collect="always"
       xlink:href="#linearGradient4501"
       id="linearGradient4503"
       x1="402.57144"
       y1="525.79797"
       x2="402.57144"
       y2="517.79797"
       gradientUnits="userSpaceOnUse" />
    <linearGradient
       inkscape:collect="always"
       id="linearGradient4501">
      <stop
         style="stop-color:#179577;stop-opacity:1"
         offset="0"
         id="stop4497" />
      <stop
         style="stop-color:#1ec29a;stop-opacity:1"
         offset="1"
         id="stop4499" />
    </linearGradient>
    <linearGradient
       inkscape:collect="always"
       xlink:href="#linearGradient4176"
       id="linearGradient4208"
       gradientUnits="userSpaceOnUse"
       x1="430.10477"
       y1="541.79797"
       x2="430.10477"
       y2="495.798"
       gradientTransform="matrix(0.51724134,0,0,0.5,185.10346,274.899)" />
    <linearGradient
       inkscape:collect="always"
       id="linearGradient4176">
      <stop
         style="stop-color:#1cb893;stop-opacity:1"
         offset="0"
         id="stop4178" />
      <stop
         style="stop-color:#42e2bc;stop-opacity:1"
         offset="1"
         id="stop4180" />
    </linearGradient>
  </defs>
  <metadata
     id="metadata5458">
    <rdf:RDF>
      <cc:Work
         rdf:about="">
        <dc:format>image/svg+xml</dc:format>
        <dc:type
           rdf:resource="http://purl.org/dc/dcmitype/StillImage" />
      </cc:Work>
    </rdf:RDF>
  </metadata>
  <g
     inkscape:label="Capa 1"
     inkscape:groupmode="layer"
     id="layer1"
     transform="matrix(1 0 0 1 -384.57143 -515.798)">
    <g
       id="g4206">
      <path
         style="fill:url(#linearGradient4503);fill-opacity:1;fill-rule:evenodd;stroke:none;stroke-width:1px;stroke-linecap:butt;stroke-linejoin:miter;stroke-opacity:1"
         d="m 385.57143,517.798 h 12 l 3,4 h 15 v 22 h -30 z"
         id="path4182"
         inkscape:connector-curvature="0"
         sodipodi:nodetypes="ccccccc" />
      <path
         style="fill:url(#linearGradient4208);fill-opacity:1;fill-rule:evenodd;stroke:none;stroke-width:1px;stroke-linecap:butt;stroke-linejoin:miter;stroke-opacity:1"
         d="m 385.57143,526.798 h 12 l 3,-4 h 15 l -1e-5,23 h -29.99999 z"
         id="path4186"
         inkscape:connector-curvature="0"
         sodipodi:nodetypes="ccccccc" />
      <path
         inkscape:connector-curvature="0"
         style="fill-opacity:0.235294"
         id="path4192"
         d="m 385.57143,544.798 v 1 h 0.51725 28.96551 0.51724 v -1 h -0.51724 -28.96551 z" />
      <path
         sodipodi:nodetypes="cccccc"
         d="m 385.57143,526.798 v 1 h 13 l 2,-5 -3,4 z"
         id="path4224"
         style="opacity:1;fill:#ffffff;fill-opacity:0.23529412;fill-rule:evenodd"
         inkscape:connector-curvature="0" />
      <rect
         y="520.79797"
         x="387.57144"
         height="2.9999995"
         width="8.9999886"
         id="rect4194"
         style="fill:#000000;fill-opacity:0.23529412;stroke:none" />
      <rect
         style="fill:#ffffff;fill-opacity:1;stroke:none"
         id="rect4196"
         width="6.9999881"
         height="1"
         x="388.57144"
         y="521.79797" />
      <path
         sodipodi:nodetypes="ccccc"
         inkscape:connector-curvature="0"
         id="path4198"
         d="m 388.57142,521.798 h 3.00001 v 1 h -3.00001 z"
         style="fill:#17c4fc;fill-opacity:1;stroke:none" />
      <path
         sodipodi:nodetypes="ccccccc"
         d="m 400.57143,522.798 -4,3 h -11 v 1 h 6.99999 5.00001 z"
         id="path4306-3"
         style="fill-opacity:0.235294;fill-rule:evenodd"
         inkscape:connector-curvature="0" />
      <path
         sodipodi:nodetypes="cccccc"
         inkscape:connector-curvature="0"
         style="fill:#ffffff;fill-opacity:0.23529412;fill-rule:evenodd"
         id="path4204"
         d="m 397.57143,517.798 3,5 h 15 v -1 h -15 z" />
    </g>
    <path
       style="fill:#000000;fill-opacity:0.23529412"
       id="path4183"
       d="m 400.57143,529.798 a 5.0000062,4.9999866 0 0 0 -0.96094,0.0937 5.0000062,4.9999866 0 0 0 -0.0332,0.006 c -0.16614,0.0309 -0.32853,0.0691 -0.49023,0.11914 -0.15855,0.0491 -0.31143,0.11161 -0.4629,0.17578 -0.12379,0.0525 -0.2428,0.11187 -0.36132,0.17383 a 5.0000062,4.9999866 0 0 0 -0.13477,0.0723 c -0.1061,0.0597 -0.20937,0.12241 -0.31055,0.18946 a 5.0000062,4.9999866 0 0 0 -0.14843,0.10351 c -0.0973,0.0697 -0.19319,0.14052 -0.28516,0.2168 a 5.0000062,4.9999866 0 0 0 -0.11719,0.10352 c -0.0962,0.0849 -0.19185,0.16973 -0.28125,0.26171 -0.21326,0.21944 -0.40179,0.46154 -0.57226,0.7168 a 5.0000062,4.9999866 0 0 0 -0.0566,0.0801 c -0.0761,0.11894 -0.14494,0.24174 -0.21094,0.36719 a 5.0000062,4.9999866 0 0 0 -0.043,0.082 c -0.0625,0.12437 -0.11977,0.2509 -0.17187,0.38086 a 5.0000062,4.9999866 0 0 0 -0.043,0.11523 c -0.0321,0.0862 -0.0703,0.16954 -0.0977,0.25781 -0.0138,0.0445 -0.021,0.09 -0.0332,0.13477 a 5.0000062,4.9999866 0 0 0 -0.0137,0.0527 c -0.0313,0.12113 -0.0606,0.24307 -0.082,0.36719 a 5.0000062,4.9999866 0 0 0 -0.0566,0.40235 c -4.1e-4,0.004 -0.002,0.008 -0.002,0.0117 -1.3e-4,0.001 1.3e-4,0.003 0,0.004 a 5.0000062,4.9999866 0 0 0 -0.0312,0.51172 5.0000062,4.9999866 0 0 0 0.0937,0.96094 5.0000062,4.9999866 0 0 0 0.006,0.0332 c 0.0309,0.16614 0.0691,0.32854 0.11914,0.49023 0.0491,0.15855 0.11161,0.31143 0.17578,0.4629 0.0525,0.12379 0.11187,0.2428 0.17383,0.36132 a 5.0000062,4.9999866 0 0 0 0.0723,0.13477 c 0.0597,0.1061 0.1224,0.20937 0.18945,0.31055 a 5.0000062,4.9999866 0 0 0 0.10351,0.14843 c 0.0697,0.0973 0.14051,0.19319 0.2168,0.28516 a 5.0000062,4.9999866 0 0 0 0.10352,0.11719 c 0.0849,0.0962 0.16973,0.19185 0.26172,0.28125 0.21943,0.21326 0.46153,0.40179 0.71679,0.57226 a 5.0000062,4.9999866 0 0 0 0.0801,0.0566 c 0.11894,0.0761 0.24174,0.14494 0.36719,0.21094 a 5.0000062,4.9999866 0 0 0 0.082,0.043 c 0.12437,0.0625 0.2509,0.11977 0.38086,0.17187 a 5.0000062,4.9999866 0 0 0 0.11523,0.043 c 0.0861,0.0321 0.16954,0.0703 0.25782,0.0977 0.0445,0.0138 0.09,0.021 0.13476,0.0332 a 5.0000062,4.9999866 0 0 0 0.0527,0.0137 c 0.12112,0.0313 0.24306,0.0606 0.36718,0.082 a 5.0000062,4.9999866 0 0 0 0.40235,0.0566 c 0.004,4.1e-4 0.008,0.002 0.0117,0.002 a 5.0000062,4.9999866 0 0 0 0.004,0 5.0000062,4.9999866 0 0 0 0.51172,0.0312 5.0000062,4.9999866 0 0 0 0.96094,-0.0937 5.0000062,4.9999866 0 0 0 0.0332,-0.006 c 0.16614,-0.0309 0.32854,-0.0691 0.49024,-0.11914 0.27697,-0.0861 0.5489,-0.20698 0.80468,-0.33984 0.0334,-0.0173 0.0688,-0.033 0.10157,-0.0508 a 5.0000062,4.9999866 0 0 0 0.75,-0.50585 c 0.0211,-0.017 0.0437,-0.0315 0.0644,-0.0488 a 5.0000062,4.9999866 0 0 0 0.57422,-0.57422 c 0.0401,-0.0462 0.0827,-0.089 0.12109,-0.13672 a 5.0000062,4.9999866 0 0 0 0.42188,-0.625 c 0.0385,-0.0663 0.0777,-0.13097 0.11328,-0.19922 a 5.0000062,4.9999866 0 0 0 0.29101,-0.68555 c 0.0154,-0.0451 0.0405,-0.0852 0.0547,-0.13086 0.0138,-0.0445 0.021,-0.09 0.0332,-0.13476 0.001,-0.004 0.003,-0.008 0.004,-0.0117 a 5.0000062,4.9999866 0 0 0 0.01,-0.041 c 0.0313,-0.12112 0.0606,-0.24306 0.082,-0.36718 a 5.0000062,4.9999866 0 0 0 0.0566,-0.40235 5.0000062,4.9999866 0 0 0 0.002,-0.0117 c 1.3e-4,-0.001 -1.3e-4,-0.003 0,-0.004 a 5.0000062,4.9999866 0 0 0 0.0312,-0.51172 5.0000062,4.9999866 0 0 0 -0.0937,-0.96094 5.0000062,4.9999866 0 0 0 -0.006,-0.0332 c -0.0309,-0.16614 -0.0691,-0.32854 -0.11914,-0.49024 -0.0118,-0.0381 -0.0342,-0.0716 -0.0469,-0.10937 a 5.0000062,4.9999866 0 0 0 -0.28516,-0.67773 c -0.0363,-0.0708 -0.0719,-0.14014 -0.11133,-0.20899 a 5.0000062,4.9999866 0 0 0 -0.39844,-0.58984 c -0.0289,-0.0372 -0.0502,-0.081 -0.0801,-0.11719 -0.0527,-0.0639 -0.11275,-0.11949 -0.16993,-0.17773 a 5.0000062,4.9999866 0 0 0 -0.84179,-0.73633 c -0.0386,-0.0274 -0.0759,-0.0558 -0.11524,-0.082 a 5.0000062,4.9999866 0 0 0 -0.0898,-0.0566 c -0.21912,-0.13943 -0.44668,-0.2668 -0.68945,-0.36915 -0.0448,-0.019 -0.094,-0.0326 -0.14063,-0.0508 -0.10905,-0.0424 -0.21845,-0.087 -0.32812,-0.12109 -0.0445,-0.0138 -0.09,-0.021 -0.13477,-0.0332 -0.004,-0.001 -0.008,-0.003 -0.0117,-0.004 a 5.0000062,4.9999866 0 0 0 -0.041,-0.01 c -0.12113,-0.0313 -0.24307,-0.0606 -0.36719,-0.082 a 5.0000062,4.9999866 0 0 0 -0.40235,-0.0566 5.0000062,4.9999866 0 0 0 -0.0117,-0.002 c -0.001,-1.3e-4 -0.003,1.3e-4 -0.004,0 a 5.0000062,4.9999866 0 0 0 -0.51172,-0.0312 z m 0,1 a 4.0000062,3.9999905 0 0 1 2.11719,0.61328 c -0.002,0.005 -0.006,0.005 -0.008,0.0117 0.0182,0.0371 0.0644,0.0406 0.10742,0.0488 a 4.0000062,3.9999905 0 0 1 0.0664,0.0449 c 0.025,0.0344 0.055,0.0854 0.0606,0.10937 0.007,0.0254 0.0109,0.11337 0,0.14063 -0.0282,0.0727 -0.10388,0.0643 -0.1875,0.0625 -0.0228,0 -0.0416,0.002 -0.0625,0 -0.1409,-0.009 -0.28012,-0.0539 -0.34375,0.0469 0.004,0.0773 0.0173,0.12026 0,0.1875 -0.0127,0.0491 -0.0652,0.0823 -0.0625,0.125 10e-4,0.0218 0.0415,0.0639 0.0469,0.0937 0.004,0.0164 -0.007,0.048 0,0.0625 0.0237,0.0446 0.0832,-0.007 0.125,0 0.04,0.006 0.0781,0.0649 0.0781,0.10938 0,0.0318 -0.0113,0.0941 -0.0312,0.125 -0.04,0.06 -0.11462,0.0454 -0.17187,0.0781 -0.0472,0.0273 -0.0657,0.0934 -0.0937,0.14063 -0.03,0.0509 -0.0588,0.0679 -0.0469,0.14062 -0.0409,0.0809 -0.0874,0.1328 -0.17187,0.17188 -0.0245,0.0109 -0.0554,0.0306 -0.0781,0.0469 -0.0182,0.0127 -0.037,0.0334 -0.0625,0.0625 -0.0318,0.0354 -0.0765,0.0508 -0.0937,0.0781 -0.0128,0.0209 -0.002,0.0657 -0.0156,0.0937 -0.02,0.0382 -0.0527,0.0712 -0.0781,0.10937 -0.0118,0.0182 -0.0343,0.0389 -0.0469,0.0625 -0.0291,0.0527 -0.068,0.0943 -0.0625,0.14063 0.004,0.0445 0.0598,0.0548 0.0625,0.0937 0.002,0.0218 -0.0166,0.0389 -0.0156,0.0625 10e-4,0.0345 0.0129,0.0509 0.0156,0.0781 0.006,0.0672 -0.0342,0.0943 -0.0469,0.14063 -0.006,0.0218 0.005,0.0453 0,0.0625 -0.0109,0.0336 -0.0616,0.0539 -0.0625,0.0937 -0.001,0.0282 0.0442,0.0539 0.0469,0.0937 0.002,0.0272 -0.0211,0.0527 -0.0156,0.0781 0.01,0.0491 0.10244,0.11808 0.14063,0.15625 0.0518,0.0518 0.10228,0.0861 0.125,0.14063 0.0191,0.0463 0.027,0.12171 0.0625,0.15625 0.0263,0.0254 0.0757,0.0362 0.10937,0.0625 0.0318,0.0245 0.0757,0.0362 0.10938,0.0625 0.0555,0.0436 0.13056,0.13137 0.21875,0.125 0.0464,-0.004 0.0888,-0.0222 0.14062,-0.0312 0.0536,-0.009 0.11733,-0.0367 0.17188,-0.0312 0.0418,0.005 0.0814,0.034 0.125,0.0312 0.0455,-0.003 0.10444,-0.0242 0.15625,-0.0469 0.09,-0.0391 0.22847,-0.11288 0.35937,-0.0937 0.1,0.0146 0.10188,0.12736 0.17188,0.17188 0.08,0.007 0.13949,-0.0154 0.20312,0 0.0482,0.0118 0.10483,0.10247 0.10938,0.14062 0.005,0.0391 -0.0258,0.0693 -0.0312,0.0937 -0.0127,0.0527 -0.0222,0.12263 -0.0312,0.15625 -0.007,0.0264 -0.0165,0.0518 -0.0156,0.0781 0,0.0237 0.038,0.0785 0.0625,0.10937 0.03,0.0382 0.073,0.0676 0.10938,0.10938 0.0664,0.0763 0.0943,0.18037 0.14062,0.28125 0.0118,0.0255 -0.0109,0.0307 0,0.0625 -0.02,0.15268 -0.0719,0.25284 -0.17187,0.42187 -0.0473,0.0545 -0.0948,0.11936 -0.0937,0.1875 -0.004,0.16359 0.0854,0.24812 0.0781,0.40625 -2.7e-4,0.003 2.5e-4,0.002 0,0.006 a 4.0000062,3.9999905 0 0 1 -3.21875,1.63477 4.0000062,3.9999905 0 0 1 -1.17773,-0.17578 c 2.1e-4,-0.005 0.006,-0.006 0.006,-0.0117 -0.002,-0.0264 -0.026,-0.0389 -0.0469,-0.0625 -0.0172,-0.02 -0.004,-0.0443 -0.0156,-0.0625 -0.0218,-0.0318 -0.0534,-0.0475 -0.0625,-0.0937 0.0654,-0.0127 0.15546,0.0733 0.25,0.0469 0.0446,-0.0127 0.11972,-0.0988 0.14062,-0.14062 0.006,-0.0127 -0.007,-0.0626 0,-0.0781 0.008,-0.0172 0.0285,-0.0222 0.0312,-0.0312 0.006,-0.0245 -0.005,-0.0316 0,-0.0469 0.0163,-0.0464 0.0666,-0.0758 0.0937,-0.10938 0.0209,-0.0255 0.0434,-0.0518 0.0625,-0.0781 0.0218,-0.0282 0.0324,-0.0379 0.0469,-0.0625 0.0137,-0.0827 -0.0514,-0.14606 -0.0312,-0.21875 0.0218,-0.0818 0.13967,-0.13462 0.21875,-0.17188 0.0273,-0.0128 0.0554,-0.0387 0.0781,-0.0469 0.0545,-0.0191 0.12097,-0.0131 0.17188,-0.0312 0.0854,-0.0309 0.11444,-0.12497 0.15625,-0.20313 0.02,-0.0363 0.0432,-0.0675 0.0469,-0.0937 0.003,-0.0236 -0.005,-0.0508 0,-0.0781 0.005,-0.0272 0.008,-0.0481 0.0156,-0.0781 0.01,-0.0391 0.0156,-0.11262 0.0156,-0.15625 0,-0.0363 -0.0147,-0.0454 -0.0156,-0.0781 -0.006,-0.11814 0.0345,-0.12298 0.0781,-0.1875 0.0218,-0.0318 0.0315,-0.0867 0.0469,-0.10938 0.0736,-0.10905 0.19659,-0.16273 0.1875,-0.32812 -0.004,-0.0545 -0.0225,-0.17023 -0.0625,-0.1875 -0.0228,-0.01 -0.0757,-0.003 -0.10938,-0.0156 -0.10727,-0.04 -0.18507,-0.16278 -0.29687,-0.17187 -0.0237,-10e-4 -0.0362,10e-4 -0.0625,0 -0.0437,-10e-4 -0.0915,-0.0415 -0.14063,-0.0469 -0.0309,-0.004 -0.0912,0.009 -0.10937,0 -0.0282,-0.0136 -0.0242,-0.0627 -0.0469,-0.0781 -0.0182,-0.0127 -0.05,-0.0213 -0.0781,-0.0312 -0.0446,-0.0172 -0.0732,-0.0276 -0.125,-0.0312 -0.0163,-10e-4 -0.06,0.003 -0.0781,0 -0.0282,-0.005 -0.0518,-0.0306 -0.0781,-0.0469 -0.0327,-0.02 -0.0489,-0.0343 -0.0625,-0.0625 0.03,-0.0982 -0.0738,-0.11463 -0.0937,-0.17187 -0.009,-0.0264 0.009,-0.0702 0,-0.0937 -0.0118,-0.0337 -0.0409,-0.05 -0.0781,-0.0781 -0.0654,-0.0509 -0.12512,-0.0976 -0.21875,-0.10937 -0.0418,-0.005 -0.0906,0.003 -0.14062,0 -0.0527,-0.004 -0.11627,-0.0327 -0.15625,-0.0781 -0.0382,-0.0446 -0.0445,-0.0885 -0.0781,-0.10937 -0.0318,-0.02 -0.0876,-0.0261 -0.10937,-0.0469 -0.01,-0.009 -0.007,-0.0261 -0.0156,-0.0469 -0.0163,-0.0328 -0.0513,-0.0381 -0.0312,-0.0781 -0.0364,-0.0182 -0.0234,0.0229 -0.0625,0.0156 -0.0355,-0.05 -0.0606,-0.0779 -0.14062,-0.0625 -0.0364,0.007 -0.0667,0.0616 -0.10938,0.0625 -0.0355,10e-4 -0.063,-0.0561 -0.10937,-0.0625 -0.0355,-0.005 -0.0848,0.0367 -0.10938,0.0312 -0.0391,-0.007 -0.0427,-0.0545 -0.0781,-0.0781 -0.0264,-0.0173 -0.0793,-0.0634 -0.0937,-0.0625 -0.0455,10e-4 -0.0779,0.0961 -0.14063,0.0625 -0.0309,-0.0391 0.052,-0.0418 0.0156,-0.0781 -0.0273,-0.0272 -0.0407,0.001 -0.0625,0.0156 -0.0255,0.0172 -0.05,0.037 -0.0781,0.0469 -0.0627,0.0236 -0.10717,0.0215 -0.15625,0.0469 -0.0455,0.0236 -0.0518,0.063 -0.0781,0.10938 -0.0209,0.0382 -0.062,0.0919 -0.0937,0.0937 -0.0382,0.002 -0.0748,-0.0479 -0.10938,-0.0625 -0.10453,-0.0455 -0.16365,0.0303 -0.25,0.0312 -0.08,10e-4 -0.19113,-0.1277 -0.1875,-0.20313 0.002,-0.0464 0.0258,-0.11462 0.0312,-0.17187 0.005,-0.0455 0.046,-0.0832 0.0469,-0.125 9.9e-4,-0.0554 -0.0886,-0.10302 -0.125,-0.10938 -0.0514,-0.009 -0.11161,1.9e-4 -0.17383,0.006 a 4.0000062,3.9999905 0 0 1 0.38086,-1.15234 c 0.003,9.2e-4 0.009,0.006 0.0117,0.006 0.0291,10e-4 0.0352,-0.0358 0.0625,-0.0312 0.0273,0.005 0.0736,0.0611 0.0781,0.0937 0.004,0.0409 -0.0275,0.0796 -0.0156,0.125 0.0427,0.0437 0.12659,0.0684 0.1875,0.0937 0.04,-0.0327 0.006,-0.10899 0,-0.15625 -0.001,-0.0209 0.002,-0.0434 0,-0.0625 -0.005,-0.0327 -0.0156,-0.0657 -0.0156,-0.0937 0,-0.12996 0.10023,-0.18348 0.1875,-0.23438 0.0372,-0.0218 0.0766,-0.0618 0.10938,-0.0781 0.0463,-0.0227 0.0712,-0.0252 0.10937,-0.0469 0.0691,-0.0391 0.13386,-0.0805 0.1875,-0.125 0.0245,-0.0591 -0.002,-0.12933 0,-0.1875 0.0245,-0.0154 0.0361,0.002 0.0625,0 0.0418,-0.009 0.0545,-0.0702 0.0781,-0.0937 0.0136,-0.0136 0.0617,-0.0177 0.0781,-0.0312 0.0418,-0.0328 0.0417,-0.0793 0.0781,-0.0937 0.0127,-0.005 0.0424,-0.0102 0.0625,-0.0156 0.0273,-0.007 0.0657,-0.0316 0.10937,-0.0469 0.0282,-0.01 0.0985,-0.005 0.10938,-0.0156 0.0136,-0.0136 -0.004,-0.0729 0,-0.0937 0.0218,-0.10269 0.17381,-0.10609 0.26562,-0.14063 0.0636,-0.0245 0.13221,-0.0761 0.20313,-0.0625 -0.0137,0.0491 -0.0743,0.0348 -0.0625,0.0937 0.0154,0.0827 0.11153,-0.0195 0.14062,-0.0312 0.0555,-0.0236 0.16166,-0.0362 0.23438,-0.0625 0.0636,-0.0227 0.16935,-0.067 0.10937,-0.14062 -0.05,-0.003 -0.0658,0.0443 -0.10937,0.0625 -0.03,0.005 -0.0371,-0.0138 -0.0625,-0.0156 -0.0246,-9.9e-4 -0.038,0.0201 -0.0625,0.0156 -0.0246,-0.005 -0.0589,-0.049 -0.0625,-0.0781 -0.01,-0.0763 0.0785,-0.0999 0.10937,-0.15625 -0.0209,-0.0691 -0.11369,-0.004 -0.17187,-0.0312 0.006,-0.0409 0.0299,-0.0856 0.0781,-0.0937 0.0391,-0.006 0.13261,0.0124 0.15625,0.0312 0.0136,0.0118 -0.005,0.0434 0.0156,0.0625 0.0236,0.0209 0.0628,0.005 0.0937,0 0.0109,-0.0518 -0.0716,-0.0289 -0.0625,-0.0625 0.0618,-0.04 0.17455,-0.0213 0.25,-0.0312 0.0436,-0.006 0.0859,-0.0416 0.125,-0.0625 0.0363,-0.0209 0.0712,-0.0502 0.10937,-0.0156 0.0109,0.0372 -0.0261,0.059 -0.0469,0.0781 -0.07,0.0618 -0.13297,0.13134 -0.1875,0.20313 0.0336,0.0327 0.0843,0.009 0.14062,0.0156 0.0218,0.003 0.0554,0.012 0.0781,0.0156 0.0273,0.005 0.0563,-0.005 0.0781,0 0.0382,0.009 0.0399,0.0625 0.0781,0.0625 0.0618,0 0.0668,-0.052 0.0312,-0.0937 0.0109,-0.0428 0.0311,-0.0794 0.0156,-0.10938 -0.0282,-0.0564 -0.13517,0.009 -0.14062,-0.0625 -0.004,-0.0454 0.0461,-0.0593 0.0625,-0.0937 -0.007,-0.0872 0.0716,-0.0928 0.0625,-0.17187 -0.005,-0.0328 -0.0398,-0.0317 -0.0625,-0.0625 -0.0118,-0.0163 -0.0178,-0.0507 -0.0312,-0.0625 -0.0117,-0.01 -0.0281,-0.0134 -0.043,-0.0195 a 4.0000062,3.9999905 0 0 1 0.74609,-0.0742 z m -2.63867,1 c 0.0121,-0.001 0.0309,0.002 0.0449,0 0.0209,-10e-4 0.0397,0 0.0625,0 0.0227,0 0.0534,-0.009 0.0625,0 -0.0137,0.0564 -0.1352,0.038 -0.18945,0.0176 a 4.0000062,3.9999905 0 0 1 0.0195,-0.0176 z m 5.34375,0.0606 a 4.0000062,3.9999905 0 0 1 0.45117,0.48632 c -0.0328,0 -0.0657,0.0156 -0.0937,0.0156 -0.04,10e-4 -0.12187,-0.0202 -0.17187,-0.0156 -0.03,0.002 -0.05,0.0138 -0.0781,0.0156 -0.0791,0.006 -0.12569,-0.005 -0.1875,0 -0.0446,0.003 -0.13006,0.0279 -0.17187,0.0469 -0.0209,0.01 -0.0352,0.0333 -0.0625,0.0469 -0.0127,0.006 -0.0305,0.008 -0.0469,0.0156 -0.0254,0.0118 -0.0693,0.0406 -0.0937,0.0469 -0.0354,0.009 -0.0761,-0.003 -0.14062,0 -0.0464,0.002 -0.1241,-0.007 -0.125,-0.0625 -0.001,-0.0845 0.15438,-0.048 0.23437,-0.0625 0.03,-0.006 0.0417,-0.0416 0.0781,-0.0625 0.0173,-0.01 0.0305,-0.0204 0.0469,-0.0312 0.0272,-0.0191 0.0736,-0.0563 0.0781,-0.0781 0.003,-0.02 -0.0184,-0.048 -0.0156,-0.0625 0.004,-0.0191 0.038,-0.038 0.0625,-0.0625 0.0382,-0.0382 0.0621,-0.0848 0.10938,-0.10937 0.0318,-0.0172 0.0948,-0.0215 0.10937,-0.0469 0.004,-0.0291 -9.9e-4,-0.0362 0,-0.0625 0.0112,-0.0102 0.0139,-0.0124 0.0176,-0.0176 z m 0.5293,0.5957 a 4.0000062,3.9999905 0 0 1 0.16992,0.25 c -0.005,-1.1e-4 -0.008,8.7e-4 -0.0137,0 -0.0309,-0.003 -0.0839,-1.9e-4 -0.10938,-0.0156 -0.0246,-0.0154 -0.0875,-0.0416 -0.0937,-0.0625 -0.01,-0.0336 0.0763,-0.0812 0.0781,-0.10937 0.002,-0.0218 -0.0267,-0.0298 -0.0312,-0.0625 z m -7.21875,2.00781 c 0.0242,0.0353 0.0505,0.0699 0.0781,0.0859 0.002,0.0291 -0.009,0.0563 0,0.0781 0.0236,0.0318 0.0712,0.0416 0.10938,0.0625 0.0463,0.0254 0.0657,0.0894 0.10937,0.10938 0.0154,0.006 0.0389,-0.007 0.0625,0 0.06,0.0182 0.0732,0.10925 0.125,0.0937 0.0336,-0.01 0.0414,-0.0611 0.0469,-0.0937 0.0227,-0.0245 0.0426,-0.0625 0.0781,-0.0625 0.0564,-10e-4 0.0728,0.0696 0.0937,0.125 0.0118,0.0309 0.0387,0.0611 0.0469,0.0937 0.0136,0.0563 0.0118,0.21638 0,0.25 -0.0146,0.0418 -0.0748,0.0639 -0.10938,0.10937 -0.0163,0.0218 -0.0342,0.048 -0.0469,0.0625 -0.0218,0.0272 -0.0461,0.038 -0.0625,0.0625 -0.009,0.0136 -0.007,0.0434 -0.0156,0.0625 -0.0273,0.0581 -0.0696,0.1019 -0.0469,0.17188 0.009,0.0282 0.0469,0.0602 0.0469,0.0937 0,0.04 -0.0875,0.0502 -0.0937,0.0937 -0.005,0.0318 0.0369,0.0979 0.0469,0.14062 0.007,0.0318 0.059,0.0572 0.0781,0.0781 0.0318,0.0354 0.0648,0.0796 0.0937,0.125 0.0573,0.0882 0.0843,0.19491 0.14063,0.28125 0.03,0.0445 0.0894,0.0777 0.10937,0.125 0.01,0.0236 -0.009,0.072 0,0.0937 0.0327,0.0736 0.19198,0.15115 0.26563,0.1875 0.0345,0.0173 0.0619,0.0288 0.0937,0.0469 0.0482,0.0273 0.14733,0.0823 0.17187,0.125 0.0218,0.0382 0.0359,0.12662 0.0469,0.1875 0.0136,0.08 -0.004,0.14804 0,0.23438 0.002,0.0473 0.0156,0.0777 0.0156,0.125 0,0.0163 10e-4,0.0461 0,0.0625 -0.001,0.0563 0.005,0.11463 0,0.17187 -0.002,0.0232 -7.5e-4,0.0475 0,0.0703 a 4.0000062,3.9999905 0 0 1 -1.5,-3.11719 4.0000062,3.9999905 0 0 1 0.0156,-0.33594 z m 1.25,0.19531 c 0.0437,-0.02 0.0354,0.057 0,0.0625 -0.0337,0.005 -0.0327,-0.047 0,-0.0625 z"
       inkscape:connector-curvature="0" />
  </g>
</svg>
