<?xml version="1.0" encoding="UTF-8" standalone="no"?>
<svg
   xmlns:dc="http://purl.org/dc/elements/1.1/"
   xmlns:cc="http://creativecommons.org/ns#"
   xmlns:rdf="http://www.w3.org/1999/02/22-rdf-syntax-ns#"
   xmlns:svg="http://www.w3.org/2000/svg"
   xmlns="http://www.w3.org/2000/svg"
   xmlns:sodipodi="http://sodipodi.sourceforge.net/DTD/sodipodi-0.dtd"
   xmlns:inkscape="http://www.inkscape.org/namespaces/inkscape"
   width="16"
   height="16"
   version="1.1"
   id="svg6"
   sodipodi:docname="m64.svg"
   inkscape:version="0.92.4 5da689c313, 2019-01-14">
  <metadata
     id="metadata12">
    <rdf:RDF>
      <cc:Work
         rdf:about="">
        <dc:format>image/svg+xml</dc:format>
        <dc:type
           rdf:resource="http://purl.org/dc/dcmitype/StillImage" />
        <dc:title></dc:title>
      </cc:Work>
    </rdf:RDF>
  </metadata>
  <defs
     id="defs10" />
  <sodipodi:namedview
     pagecolor="#ffffff"
     bordercolor="#666666"
     borderopacity="1"
     objecttolerance="10"
     gridtolerance="10"
     guidetolerance="10"
     inkscape:pageopacity="0"
     inkscape:pageshadow="2"
     inkscape:window-width="1920"
     inkscape:window-height="1053"
     id="namedview8"
     showgrid="false"
     inkscape:zoom="20.85965"
     inkscape:cx="6.9778674"
     inkscape:cy="9.1117672"
     inkscape:window-x="1920"
     inkscape:window-y="0"
     inkscape:window-maximized="1"
     inkscape:current-layer="svg6" />
  <path
     style="opacity:0.3;fill:#dfdfdf"
     d="M 8.015625 3 L 8.015625 8.9980469 L 3.5195312 8.9980469 C 3.512856 8.9980766 3.5066817 9 3.5 9 C 3.4913398 9 3.4832556 8.9980971 3.4746094 8.9980469 L 1 8.9980469 L 1 12 C 1 12.55 1.45 13 2 13 L 9 13 L 11 15 L 13 13 L 14 13 C 14.55 13 15 12.55 15 12 L 15 4 C 15 3.45 14.55 3 14 3 L 8.015625 3 z "
     id="path2" />
  <path
     inkscape:connector-curvature="0"
     id="path1002"
     d="m 0.1400835,1.140082 v 6.719833 h 1.960085 V 3.10681 h 2.383164 V 1.140082 Z m 4.753108,0 v 6.719833 h 1.966725 V 1.140082 Z m -2.376584,2.376524 v 4.343312 h 1.966725 V 3.516606 Z"
     style="display:inline;opacity:1;fill:#dfdfdf;fill-opacity:1;fill-rule:evenodd;stroke:none;stroke-width:0.35414532;stroke-linecap:round;stroke-linejoin:miter;stroke-miterlimit:4;stroke-dasharray:none;stroke-dashoffset:0;stroke-opacity:1" />
</svg>
