<svg xmlns="http://www.w3.org/2000/svg" width="24" height="24" version="1.1">
 <rect style="opacity:0.2;fill-opacity:0.93103451" width="17.463" height="17.463" x="4.54" y="2.5" rx=".873" ry=".873"/>
 <rect style="fill:#696969" width="17.463" height="17.463" x="4.54" y="2" rx=".873" ry=".873"/>
 <path style="opacity:0.2;fill-opacity:0.93596059" d="M 10.757812,4.9941406 3.654296,10.929688 4.486328,11.521484 H 3.880859 v 7.015625 H 2.632812 c 0,0 -0.621147,0.0015 -0.623047,0.625 L 2,22.5 h 8.730468 l 0.0098,-3.337891 c 0,0 -0.0015,-0.625 -0.625,-0.625 H 8.869144 v -3.894531 l 0.230469,0.164063 4.263672,-7.6269535 z"/>
 <path style="fill:#212529" d="M 10.757812,4.4941406 3.654296,10.429688 4.486328,11.021484 H 3.880859 v 7.015625 H 2.632812 c 0,0 -0.621147,0.0015 -0.623047,0.625 L 2,22 h 8.730468 l 0.0098,-3.337891 c 0,0 -0.0015,-0.625 -0.625,-0.625 H 8.869144 v -3.894531 l 0.230469,0.164063 4.263672,-7.6269535 z"/>
 <path style="fill:#373a3e" d="m 3.880859,17.414062 c 0,10e-7 -0.623047,-4.8e-4 -0.623047,0.623047 h -0.625 c 0,0 -0.623047,0.0015 -0.623047,0.625 v 0.3125 c 0,-0.62353 0.623047,-0.623047 0.623047,-0.623047 h 7.482422 c 0.623533,0 0.625,0.623047 0.625,0.623047 v -0.3125 c 0,0 -0.0015,-0.625 -0.625,-0.625 H 9.492187 c 0,0 4.8e-4,-0.623047 -0.623047,-0.623047 z"/>
 <path style="fill:#16a085" d="m 18.861939,14.319379 -0.502912,-0.714315 c -0.289388,0.04939 -0.585044,0.0494 -0.874444,1.1e-4 l -0.499189,0.72209 -1.435747,-0.822963 0.369086,-0.794964 C 15.824253,12.596414 15.739566,12.475649 15.66554,12.348374 15.59142,12.220837 15.528272,12.087222 15.476807,11.94898 l -0.870504,-0.06775 -0.0045,-1.654877 0.823378,-0.06974 1.012878,1.742709 c 0.473797,0.815196 1.518734,1.091952 2.333923,0.618152 0.815216,-0.4738 1.091966,-1.518733 0.618167,-2.333927 l -1.014074,-1.7448757 0.469417,-0.6787465 1.435741,0.8229604 -0.373829,0.7967516 c 0.09498,0.1108875 0.180398,0.2296058 0.255416,0.3548565 0.07503,0.1286194 0.138893,0.2634351 0.190832,0.4029957 l 0.870924,0.06847 0.0046,1.654878 -0.874511,0.07634 c -0.101469,0.277048 -0.249328,0.534816 -0.437259,0.762269 l 0.376055,0.788039 z"/>
 <path style="opacity:0.2;fill-opacity:0.92592594" d="M 11.679687,3.7480469 A 2.8061225,2.8061225 0 0 0 8.873046,6.5546875 2.8061225,2.8061225 0 0 0 11.679687,9.359375 2.8061225,2.8061225 0 0 0 14.484375,6.5546875 2.8061225,2.8061225 0 0 0 11.679687,3.7480469 Z M 6.375,8.7285156 A 4.3653469,4.3653469 0 0 0 2.009765,13.09375 4.3653469,4.3653469 0 0 0 6.375,17.458984 4.3653469,4.3653469 0 0 0 10.740234,13.09375 4.3653469,4.3653469 0 0 0 6.375,8.7285156 Z m 11.539062,0.00977 a 2.8061225,2.8061225 0 0 0 -2.804687,2.8046874 2.8061225,2.8061225 0 0 0 2.804687,2.80664 2.8061225,2.8061225 0 0 0 2.806641,-2.80664 2.8061225,2.8061225 0 0 0 -2.806641,-2.8046874 z"/>
 <path style="fill:#16a085" d="M 11.679687,3.2480469 A 2.8061225,2.8061225 0 0 0 8.873046,6.0546875 2.8061225,2.8061225 0 0 0 11.679687,8.859375 2.8061225,2.8061225 0 0 0 14.484375,6.0546875 2.8061225,2.8061225 0 0 0 11.679687,3.2480469 Z M 6.375,8.2285156 A 4.3653469,4.3653469 0 0 0 2.009765,12.59375 4.3653469,4.3653469 0 0 0 6.375,16.958984 4.3653469,4.3653469 0 0 0 10.740234,12.59375 4.3653469,4.3653469 0 0 0 6.375,8.2285156 Z m 11.539062,0.00977 a 2.8061225,2.8061225 0 0 0 -2.804687,2.8046874 2.8061225,2.8061225 0 0 0 2.804687,2.80664 2.8061225,2.8061225 0 0 0 2.806641,-2.80664 2.8061225,2.8061225 0 0 0 -2.806641,-2.8046874 z"/>
 <circle style="opacity:0.2" cx="-6.374" cy="13.093" r="2.495" transform="scale(-1,1)"/>
 <circle style="fill:#212529" cx="-6.374" cy="12.593" r="2.495" transform="scale(-1,1)"/>
 <circle style="fill-opacity:0.2" cx="-6.374" cy="12.593" r="1.837" transform="scale(-1,1)"/>
 <path style="fill:#16a085" d="m 10.970889,2.6135743 -0.06487,0.744222 c -0.235176,0.087839 -0.453784,0.214858 -0.646556,0.3756713 L 9.580112,3.4141092 8.87225,4.639504 9.486728,5.0686453 c -0.02133,0.1240898 -0.03204,0.2497644 -0.03209,0.3756721 0,0.1261446 0.01069,0.2520633 0.03209,0.376387 L 8.87225,6.2448524 9.580112,7.4702472 10.218829,7.1679987 V 5.4443174 c 0,-0.8062944 0.653629,-1.4599252 1.459925,-1.4599252 0.806293,0 1.459922,0.6536308 1.459922,1.4599252 v 1.7258201 l 0.638716,0.3001097 0.707863,-1.2253948 -0.618757,-0.4284257 c 0.02258,-0.1227949 0.0347,-0.2472713 0.03635,-0.3721093 2.04e-4,-0.1273345 -0.01045,-0.2544504 -0.03209,-0.3799489 L 14.485247,4.639504 13.777386,3.4141092 13.098034,3.7334676 C 12.903967,3.5722369 12.683885,3.4451987 12.447201,3.3577963 l -0.06059,-0.744222 z"/>
 <path style="opacity:0.2" d="m 6.375,10.755859 a 1.8367131,1.8367131 0 0 0 -1.837891,1.837891 1.8367131,1.8367131 0 0 0 0.01953,0.25 1.8367131,1.8367131 0 0 1 1.81836,-1.587891 1.8367131,1.8367131 0 0 1 1.816406,1.589844 1.8367131,1.8367131 0 0 0 0.01953,-0.251953 1.8367131,1.8367131 0 0 0 -1.835937,-1.837891 z"/>
 <path style="opacity:0.2" d="m 12.89516,14.983344 v 0.623667 h -0.935502 v 0.623664 h 0.935502 v 1.871004 h -0.935502 v 0.623666 h 0.935502 v 0.623669 h 0.623668 v -0.623669 h 1.247335 v 0.623669 h 0.623668 v -0.623669 h 0.9355 v -0.623666 h -0.9355 v -1.871004 h 0.9355 v -0.623664 h -0.9355 v -0.623667 h -0.623668 v 0.623667 h -1.247335 v -0.623667 z m 0.623668,1.247331 h 1.247335 v 1.871004 h -1.247335 z m 3.742005,2.49467 v 0.623669 h 1.247335 v -0.623669 z"/>
 <path style="fill:#ffffff" d="m 12.89516,14.483344 v 0.623667 h -0.935502 v 0.623664 h 0.935502 v 1.871004 h -0.935502 v 0.623666 h 0.935502 v 0.623669 h 0.623668 v -0.623669 h 1.247335 v 0.623669 h 0.623668 v -0.623669 h 0.9355 v -0.623666 h -0.9355 v -1.871004 h 0.9355 v -0.623664 h -0.9355 v -0.623667 h -0.623668 v 0.623667 h -1.247335 v -0.623667 z m 0.623668,1.247331 h 1.247335 v 1.871004 h -1.247335 z m 3.742005,2.49467 v 0.623669 h 1.247335 v -0.623669 z"/>
 <path style="opacity:0.2;fill:#ffffff" d="M 11.679837,3.2480469 A 2.8061225,2.8061225 0 0 0 8.8731959,6.0546875 2.8061225,2.8061225 0 0 0 8.8868678,6.3144531 2.8061225,2.8061225 0 0 1 11.679837,3.7480469 2.8061225,2.8061225 0 0 1 14.470852,6.2929688 2.8061225,2.8061225 0 0 0 14.484524,6.0546875 2.8061225,2.8061225 0 0 0 11.679837,3.2480469 Z M 6.375149,8.2285156 a 4.3653469,4.3653469 0 0 0 -4.3652344,4.3652344 4.3653469,4.3653469 0 0 0 0.00977,0.216797 4.3653469,4.3653469 0 0 1 4.3554688,-4.0820314 4.3653469,4.3653469 0 0 1 4.355469,4.1484374 4.3653469,4.3653469 0 0 0 0.0098,-0.283203 4.3653469,4.3653469 0 0 0 -4.365234,-4.3652344 z m 11.539062,0.00977 a 2.8061225,2.8061225 0 0 0 -2.804687,2.8046874 2.8061225,2.8061225 0 0 0 0.01172,0.251953 2.8061225,2.8061225 0 0 1 2.792968,-2.5566404 2.8061225,2.8061225 0 0 1 2.792969,2.5449214 2.8061225,2.8061225 0 0 0 0.01367,-0.240234 2.8061225,2.8061225 0 0 0 -2.80664,-2.8046874 z"/>
 <path style="opacity:0.2;stroke:#212529;stroke-width:3.11833787;stroke-linecap:round" d="m 11.678748,6.5542551 6.236675,4.9893439"/>
 <path style="fill:#212529;stroke:#212529;stroke-width:3.11833787;stroke-linecap:round" d="m 11.678748,6.0542551 6.236675,4.9893439"/>
</svg>
