<svg xmlns="http://www.w3.org/2000/svg" width="24" height="24" version="1.1">
 <g transform="translate(-26.947216,-6.5727661)">
  <path style="fill:#4f4f4f" d="m 38.974762,9.270171 -8.759766,4.069676 v 7.97019 l 0.936802,0.431013 v 1.16082 l 1.249304,0.574253 V 22.31595 l 1.093051,0.502957 1.093053,0.502309 v -1.160172 l 1.248604,0.574253 v 1.16082 1.160821 l 3e-6,0.639412 0.936803,0.434901 -2e-6,-0.643948 6e-6,-0.665797 1.249301,0.574253 -5e-6,0.666445 0.936802,0.431014 v 0.534068 l 0.321568,-0.147776 0.936803,-0.431013 v 0.847767 l 1.2493,-0.580086 v -0.841934 l 0.936109,-0.431013 V 24.28241 l 1.2493,-0.574253 v 1.160172 l 1.249303,-0.574253 6e-6,-0.846217 0.936804,-0.431014 -7e-6,0.846217 10e-6,0.53036 0.936801,-0.43555 -1e-5,-0.525823 0.959822,-0.442033 v -9.650169 z"/>
  <path style="fill:#848484" d="m 38.974626,11.959387 5.992346,2.783969 -5.992346,2.505572 -5.992346,-2.505572 z"/>
  <path style="opacity:0.2" d="m 38.974761,9.987625 -8.389738,3.897768 v 6.531818 l 0.897229,0.412808 v 1.111784 l 1.19653,0.549996 v -1.111164 l 1.04688,0.481711 1.046881,0.481091 v -1.111164 l 1.195862,0.549994 v 1.111785 1.111786 0.582027 l 0.89723,0.41653 v -0.586371 -0.616789 l 1.19653,0.549996 v 0.617409 l 0.897231,0.412807 v 0.511509 l 0.307986,-0.141534 0.897229,-0.412807 v 0.811957 l 1.196528,-0.555581 v -0.806372 l 0.896565,-0.412807 v -0.994459 l 1.19653,-0.549996 v 0.993839 L 44.650765,23.2752 v -0.679856 l 0.897228,-0.412807 v 0.679857 0.495617 l 0.897231,-0.417153 v -0.49127 l 0.919279,-0.423361 v -8.140834 z m 0,2.506018 5.992671,2.783498 v 6.137014 l -5.992671,2.784119 V 17.78316 L 32.98209,15.277141 Z"/>
  <path style="opacity:0.2" d="m 38.946861,9.073233 c -0.107451,0.0036 -0.212831,0.028575 -0.309013,0.07324 l -8.759069,4.069029 c -0.254749,0.1183 -0.415696,0.360185 -0.415736,0.624807 v 10.464234 c 4e-5,0.264621 0.160987,0.506509 0.415736,0.624808 l 8.759069,4.069676 c 0.211655,0.09833 0.460778,0.09833 0.672434,0 l 8.759763,-4.069676 c 0.25475,-0.1183 0.415697,-0.360187 0.415736,-0.624808 V 13.840309 c -3.9e-5,-0.264622 -0.160986,-0.506508 -0.415736,-0.624807 L 39.310282,9.1464731 c -0.112625,-0.052304 -0.237593,-0.077488 -0.363421,-0.07324 z m 0.02791,0.6973995 8.759767,4.0696765 v 9.650168 l -0.959822,0.442033 v 0.525822 l -0.936801,0.435551 v -0.53036 -0.846217 l -0.936807,0.431014 v 0.846217 l -1.2493,0.574253 v -1.160172 l -1.249304,0.574253 v 1.160821 L 41.4664,26.374705 v 0.841934 l -1.249303,0.580086 v -0.847767 l -0.936806,0.431013 -0.321565,0.147776 V 26.993679 L 38.021921,26.562665 V 25.89622 l -1.249304,-0.574253 v 0.665797 0.643948 l -0.936803,-0.434901 v -0.639412 -1.160821 -1.160819 l -1.248606,-0.574254 v 1.160172 l -1.093052,-0.502308 -1.093054,-0.502958 v 1.160173 l -1.249303,-0.574253 v -1.16082 l -0.936803,-0.431013 v -7.970189 z"/>
  <path style="fill:#16a085" d="m 38.946861,8.5727714 c -0.107451,0.0036 -0.212831,0.028575 -0.309013,0.07324 l -8.759069,4.0690296 c -0.254749,0.1183 -0.415696,0.360185 -0.415736,0.624806 v 10.464235 c 4e-5,0.264621 0.160987,0.506509 0.415736,0.624808 l 8.759069,4.069676 c 0.211655,0.09833 0.460778,0.09833 0.672434,0 l 8.759763,-4.069676 c 0.25475,-0.1183 0.415697,-0.360187 0.415736,-0.624808 V 13.339847 c -3.9e-5,-0.264621 -0.160986,-0.506508 -0.415736,-0.624806 L 39.310282,8.6460116 c -0.112625,-0.052304 -0.237593,-0.077488 -0.363421,-0.07324 z m 0.02791,0.6973996 8.759767,4.069676 v 9.650169 l -0.959822,0.442033 v 0.525822 l -0.936801,0.435551 v -0.53036 -0.846217 l -0.936807,0.431014 v 0.846217 l -1.2493,0.574253 v -1.160172 l -1.249304,0.574253 v 1.160821 L 41.4664,25.874244 v 0.841934 l -1.249303,0.580086 v -0.847767 l -0.936806,0.431013 -0.321565,0.147776 v -0.534068 l -0.936805,-0.431014 v -0.666445 l -1.249304,-0.574253 v 0.665797 0.643948 L 35.835814,25.69635 v -0.639412 -1.160821 -1.16082 l -1.248606,-0.574253 v 1.160172 L 33.494156,22.818908 32.401102,22.31595 v 1.160173 L 31.151799,22.90187 v -1.16082 l -0.936803,-0.431013 v -7.97019 z"/>
  <path style="fill:#4f4f4f" d="m 44.966972,14.743356 1.35e-4,6.13688 -5.992346,2.783969 -1.35e-4,-6.415277 z"/>
  <path style="fill:#fabd7f" d="m 38.974761,9.453556 -8.389738,3.897768 v 6.531818 l 0.897229,0.412808 v 1.111784 l 1.19653,0.549996 v -1.111164 l 1.04688,0.481711 1.046881,0.481091 v -1.111164 l 1.195862,0.549994 v 1.111785 1.111786 0.582027 l 0.89723,0.41653 v -0.586371 -0.616789 l 1.19653,0.549996 v 0.617409 l 0.897231,0.412807 v 0.511509 l 0.307986,-0.141534 0.897229,-0.412807 v 0.811957 l 1.196528,-0.555581 V 24.25455 l 0.896565,-0.412807 v -0.994459 l 1.19653,-0.549996 v 0.993839 l 1.196531,-0.549996 v -0.679856 l 0.897228,-0.412807 v 0.679857 0.495617 l 0.897231,-0.417153 v -0.49127 l 0.919279,-0.423361 v -8.140834 z m 0,2.506018 5.992671,2.783498 v 6.137014 l -5.992671,2.784119 v -6.415113 l -5.992671,-2.50602 z"/>
  <path style="opacity:0.2" d="m 42.560454,16.256452 -0.470328,0.210441 v 0.728775 0.583516 0.583518 l -0.627998,0.279962 v -0.583516 l -0.549159,0.245202 -0.138962,0.06208 v 0.874191 h -1.055909 l 2.250372,2.389273 2.249834,-2.389273 H 43.16239 v -1.940045 l -0.601936,0.26879 v -0.583517 z"/>
  <path style="fill:#848484" d="m 42.560454,15.722383 -0.470328,0.210441 v 0.728775 0.583516 0.583518 l -0.627998,0.279963 v -0.583517 l -0.549159,0.245202 -0.138962,0.06208 v 0.874191 h -1.055909 l 2.250372,2.389273 2.249834,-2.389273 H 43.16239 v -1.940045 l -0.601936,0.26879 V 16.45178 Z"/>
  <path style="opacity:0.2;fill:#ffffff" d="m 38.947428,8.5727811 c -0.107451,0.0036 -0.214364,0.0276 -0.310546,0.072266 L 29.879069,12.71536 c -0.254749,0.1183 -0.415976,0.360378 -0.416016,0.625 v 0.533203 c 4e-5,-0.264622 0.161267,-0.5067 0.416016,-0.625 l 8.757813,-4.0683596 c 0.09618,-0.044665 0.203095,-0.070619 0.310546,-0.074219 0.125828,-0.00425 0.250657,0.021915 0.363282,0.074219 l 8.759765,4.0683596 c 0.254751,0.118299 0.415977,0.360378 0.416016,0.625 v -0.533204 c -3.9e-5,-0.264621 -0.161265,-0.506701 -0.416016,-0.625 L 39.31071,8.6450467 C 39.198085,8.5927427 39.073256,8.5685335 38.947428,8.5727811 Z M 30.215006,21.309108 v 0.535156 l 0.9375,0.431641 v -0.535156 z m 4.373047,0.851563 v 0.535156 l 1.248047,0.574219 v -0.535157 z m -2.1875,0.15625 v 0.533203 l 1.09375,0.501953 1.09375,0.503906 v -0.535156 l -1.09375,-0.501953 z m -1.248047,0.583984 v 0.535156 l 1.248047,0.574219 v -0.533203 z m 16.582032,0.08984 -0.958985,0.441406 v 0.525391 l -0.9375,0.435546 v 0.0039 0.53125 l 0.9375,-0.435547 v -0.527344 l 0.958985,-0.441406 z m -1.896485,0.02539 -0.9375,0.431641 v 0.533203 l 0.9375,-0.429687 z m -2.185546,0.691407 -1.25,0.574218 v 0.535157 l 1.25,-0.574219 z m 1.248046,0.585937 -1.248046,0.574219 v 0.535156 l 1.248046,-0.574219 z m -8.128906,0.527344 v 0.535156 l 1.25,0.574219 v -0.535156 z m 5.63086,0.623047 -0.935547,0.429687 v 0.535157 l 0.935547,-0.431641 z M 35.8361,25.695823 v 0.535156 l 0.935547,0.433594 V 26.13137 Z m 2.185547,0.367187 v 0.533204 l 0.9375,0.43164 v -0.535156 z m 0.9375,0.964844 v 0.533203 l 0.320313,-0.148437 0.9375,-0.429688 V 26.44778 l -0.9375,0.431641 z m 2.507813,-0.3125 -1.25,0.580078 v 0.535156 l 1.25,-0.580078 z"/>
  <path style="opacity:0.2;fill:#ffffff" d="m 38.974772,9.4536405 -8.390625,3.8984375 v 0.533203 l 8.390625,-3.8984374 8.390625,3.8984374 v -0.533203 z m -5.386719,5.5429685 -0.605468,0.28125 5.992187,2.50586 v -0.535157 z m 11.378907,5.882812 -5.992188,2.785156 v 0.533203 l 5.992188,-2.783203 z"/>
 </g>
</svg>
