<?xml version="1.0" encoding="UTF-8" standalone="no"?>
<!-- Created with Inkscape (http://www.inkscape.org/) -->

<svg
   xmlns:dc="http://purl.org/dc/elements/1.1/"
   xmlns:cc="http://creativecommons.org/ns#"
   xmlns:rdf="http://www.w3.org/1999/02/22-rdf-syntax-ns#"
   xmlns:svg="http://www.w3.org/2000/svg"
   xmlns="http://www.w3.org/2000/svg"
   xmlns:xlink="http://www.w3.org/1999/xlink"
   xmlns:sodipodi="http://sodipodi.sourceforge.net/DTD/sodipodi-0.dtd"
   xmlns:inkscape="http://www.inkscape.org/namespaces/inkscape"
   width="32"
   version="1.1"
   height="32"
   id="svg2"
   inkscape:version="0.91 r13725"
   sodipodi:docname="krunner.svg">
  <sodipodi:namedview
     pagecolor="#ffffff"
     bordercolor="#666666"
     borderopacity="1"
     objecttolerance="10"
     gridtolerance="10"
     guidetolerance="10"
     inkscape:pageopacity="0"
     inkscape:pageshadow="2"
     inkscape:window-width="1920"
     inkscape:window-height="1011"
     id="namedview39"
     showgrid="false"
     inkscape:zoom="7.375"
     inkscape:cx="16"
     inkscape:cy="16"
     inkscape:window-x="0"
     inkscape:window-y="0"
     inkscape:window-maximized="1"
     inkscape:current-layer="layer1" />
  <defs
     id="defs5455">
    <linearGradient
       inkscape:collect="always"
       xlink:href="#linearGradient17649"
       id="linearGradient17623"
       x1="617.85614"
       y1="1271.7074"
       x2="2337.4136"
       y2="-433.87378"
       gradientUnits="userSpaceOnUse"
       gradientTransform="matrix(0.03020833,0,0,0.04814815,387.57141,489.79798)" />
    <linearGradient
       id="linearGradient17649"
       inkscape:collect="always">
      <stop
         id="stop17651"
         offset="0"
         style="stop-color:#08977f;stop-opacity:1" />
      <stop
         id="stop17653"
         offset="1"
         style="stop-color:#00d7cb;stop-opacity:1" />
    </linearGradient>
    <linearGradient
       gradientTransform="matrix(0.01942125,0,0,0.01942125,408.9213,512.30118)"
       inkscape:collect="always"
       xlink:href="#linearGradient25263"
       id="linearGradient25269"
       x1="-439.2088"
       y1="1588.8325"
       x2="840.95941"
       y2="938.87457"
       gradientUnits="userSpaceOnUse" />
    <linearGradient
       inkscape:collect="always"
       id="linearGradient25263">
      <stop
         style="stop-color:#2568a2;stop-opacity:1"
         offset="0"
         id="stop25265" />
      <stop
         style="stop-color:#52b3d9;stop-opacity:1"
         offset="1"
         id="stop25267" />
    </linearGradient>
    <linearGradient
       gradientTransform="matrix(0.03851846,0,0,0.03851846,407.16085,483.29643)"
       inkscape:collect="always"
       xlink:href="#linearGradient25271"
       id="linearGradient25261"
       x1="-585.14001"
       y1="96.50795"
       x2="308.34354"
       y2="842.29987"
       gradientUnits="userSpaceOnUse" />
    <linearGradient
       inkscape:collect="always"
       id="linearGradient25271">
      <stop
         style="stop-color:#01775c;stop-opacity:1"
         offset="0"
         id="stop25273" />
      <stop
         style="stop-color:#2ecca9;stop-opacity:1"
         offset="1"
         id="stop25275" />
    </linearGradient>
  </defs>
  <metadata
     id="metadata5458">
    <rdf:RDF>
      <cc:Work
         rdf:about="">
        <dc:format>image/svg+xml</dc:format>
        <dc:type
           rdf:resource="http://purl.org/dc/dcmitype/StillImage" />
      </cc:Work>
    </rdf:RDF>
  </metadata>
  <g
     inkscape:label="Capa 1"
     inkscape:groupmode="layer"
     id="layer1"
     transform="matrix(1 0 0 1 -384.57143 -515.798)">
    <g
       transform="translate(-1.3563632e-6,-7.884288e-6)"
       id="g4154">
      <g
         id="g4177"
         transform="matrix(0.55172403,0,0,0.53845595,170.73896,254.06336)">
        <rect
           style="fill:url(#linearGradient17623);fill-opacity:1"
           id="rect17256"
           width="58"
           height="52"
           x="387.57144"
           y="489.79803" />
        <path
           style="fill:url(#linearGradient25269);fill-opacity:1;fill-rule:evenodd;stroke:none;stroke-width:0.99595213px;stroke-linecap:butt;stroke-linejoin:miter;stroke-opacity:1"
           d="m 432.57143,541.798 -18,-20 -15.52722,20 z"
           id="path4152"
           inkscape:connector-curvature="0"
           sodipodi:nodetypes="cccc" />
        <path
           sodipodi:nodetypes="cccc"
           inkscape:connector-curvature="0"
           id="rect3349"
           d="m 387.57145,489.79799 39.99998,10e-6 -39.99998,52.00053 z"
           style="fill:url(#linearGradient25261);fill-opacity:1;fill-rule:evenodd;stroke:none;stroke-width:0.99595213px;stroke-linecap:butt;stroke-linejoin:miter;stroke-opacity:1" />
        <path
           sodipodi:nodetypes="ccccc"
           inkscape:connector-curvature="0"
           id="rect4158"
           d="m 439.04421,489.798 -11.47278,0 -40,52 11.47278,0 z"
           style="fill:#292e32;fill-opacity:1;stroke:none" />
      </g>
      <g
         transform="translate(0,-5e-5)"
         id="g4783">
        <rect
           id="rect4267-7"
           style="fill:#292f34;fill-opacity:0.92156863"
           height="3.9999681"
           y="541.7981"
           x="384.57144"
           width="31.999952" />
        <circle
           id="path4166"
           r="1"
           style="fill:#ffffff"
           cy="543.79797"
           cx="414.57144" />
        <path
           transform="translate(384.57143,515.798)"
           d="m 2,27 0,1 1,0 0,-1 z m 1,1 0,1 1,0 0,-1 z"
           id="rect4183"
           style="fill:#ffffff"
           inkscape:connector-curvature="0" />
      </g>
    </g>
    <path
       style="fill:#ffffff;opacity:0.75;stroke-linecap:round"
       id="path4430"
       d="M 14.5 7 A 5.5 5.5 0 0 0 9 12.5 A 5.5 5.5 0 0 0 14.5 18 A 5.5 5.5 0 0 0 18.019531 16.724609 L 22.298828 21.003906 L 23.003906 20.296875 L 18.722656 16.015625 A 5.5 5.5 0 0 0 20 12.5 A 5.5 5.5 0 0 0 14.5 7 z M 14.5 8 A 4.5 4.5 0 0 1 19 12.5 A 4.5 4.5 0 0 1 14.5 17 A 4.5 4.5 0 0 1 10 12.5 A 4.5 4.5 0 0 1 14.5 8 z "
       transform="matrix(1 0 0 1 384.57143 515.798)" />
  </g>
</svg>
