<?xml version="1.0" encoding="UTF-8" standalone="no"?>
<svg
   xmlns:dc="http://purl.org/dc/elements/1.1/"
   xmlns:cc="http://creativecommons.org/ns#"
   xmlns:rdf="http://www.w3.org/1999/02/22-rdf-syntax-ns#"
   xmlns:svg="http://www.w3.org/2000/svg"
   xmlns="http://www.w3.org/2000/svg"
   xmlns:xlink="http://www.w3.org/1999/xlink"
   xmlns:sodipodi="http://sodipodi.sourceforge.net/DTD/sodipodi-0.dtd"
   xmlns:inkscape="http://www.inkscape.org/namespaces/inkscape"
   inkscape:version="1.0 (4035a4fb49, 2020-05-01)"
   sodipodi:docname="manjaro-hello3.svg"
   id="svg8"
   version="1"
   height="64"
   width="64">
  <metadata
     id="metadata14">
    <rdf:RDF>
      <cc:Work
         rdf:about="">
        <dc:format>image/svg+xml</dc:format>
        <dc:type
           rdf:resource="http://purl.org/dc/dcmitype/StillImage" />
        <dc:title></dc:title>
      </cc:Work>
    </rdf:RDF>
  </metadata>
  <defs
     id="defs12" />
  <sodipodi:namedview
     inkscape:document-rotation="0"
     inkscape:current-layer="svg8"
     inkscape:window-maximized="0"
     inkscape:window-y="3"
     inkscape:window-x="3"
     inkscape:cy="28.328645"
     inkscape:cx="159.77445"
     inkscape:zoom="5.2149126"
     showgrid="false"
     id="namedview10"
     inkscape:window-height="1047"
     inkscape:window-width="1914"
     inkscape:pageshadow="2"
     inkscape:pageopacity="0"
     guidetolerance="10"
     gridtolerance="10"
     objecttolerance="10"
     borderopacity="1"
     bordercolor="#666666"
     pagecolor="#ffffff" />
  <path
     id="path2"
     d="M 6.8,5 C 5.2488,5 4,6.2488 4,7.8 V 58.2 C 4,59.7512 5.2488,61 6.8,61 H 21 V 22 H 40 V 5 Z M 43,5 V 61 H 57.2 C 58.7512,61 60,59.7512 60,58.2 V 7.8 C 60,6.2488 58.7512,5 57.2,5 Z M 24,25 V 61 H 40 V 25 Z"
     style="opacity:0.2" />
  <path
     id="path4"
     d="M 6.8,4 C 5.2488,4 4,5.2488 4,6.8 V 57.2 C 4,58.7512 5.2488,60 6.8,60 H 21 V 21 H 40 V 4 Z M 43,4 V 60 H 57.2 C 58.7512,60 60,58.7512 60,57.2 V 6.8 C 60,5.2488 58.7512,4 57.2,4 Z M 24,24 V 60 H 40 V 24 Z"
     style="fill:#16a085" />
  <path
     id="path6"
     d="M 6.8007812 4 C 5.2495813 4 4 5.2495813 4 6.8007812 L 4 7.8007812 C 4 6.2495812 5.2495813 5 6.8007812 5 L 40 5 L 40 4 L 6.8007812 4 z M 43 4 L 43 5 L 57.199219 5 C 58.750419 5 60 6.2495813 60 7.8007812 L 60 6.8007812 C 60 5.2495813 58.750419 4 57.199219 4 L 43 4 z M 24 24 L 24 25 L 40 25 L 40 24 L 24 24 z"
     style="opacity:0.2;fill:#ffffff" />
  <path
     d="m 18.654297,6.3417969 c -0.832984,-0.013739 -1.535365,0.1963386 -2.201172,0.5039062 a 2.1623003,2.1623003 0 0 0 -0.197266,0.1035157 c -0.639169,0.3792788 -1.165091,0.8871447 -1.53125,1.5 -1.050144,-0.4484471 -2.187753,-0.604137 -3.183593,-0.1875 -1.347081,0.5635882 -2.4188597,1.9799092 -2.4570316,3.6152342 -0.00505,0.215692 0.036697,0.707589 0.1523437,1.105469 -1.7774251,0.399254 -3.2180475,1.938853 -3.3203125,3.785156 -0.022112,0.399517 0.08377,0.958934 0.2304688,1.347656 0.1466987,0.388723 0.330925,0.763276 0.6230468,1.326172 0.5842437,1.125792 1.6121212,2.978938 3.5097658,6.384766 l 1.652344,2.966797 c -0.01,-0.0036 -0.02742,-0.0062 -0.03711,-0.0098 a 2.1623003,2.1623003 0 0 0 -0.136719,-0.04687 C 10.275903,28.303154 8.6881402,28.617649 7.5625,29.53125 c -1.1256402,0.913601 -1.7643864,2.449502 -1.5703125,3.996094 0.1471046,1.169711 0.9446007,2.449983 1.8945313,3.140625 a 2.1623003,2.1623003 0 0 0 0.00195,0.002 c 0.4847795,0.351753 0.6362859,0.378177 1.0214843,0.564453 0.3851985,0.186276 0.863742,0.407442 1.4160158,0.65625 1.104547,0.497616 2.49732,1.104475 3.902344,1.707031 2.810046,1.205113 5.459333,2.31757 6.324218,2.634766 2.91678,1.073179 6.236719,0.783914 9.41211,-0.572266 1.786608,-0.762216 3.850478,-2.127823 5.203125,-3.480468 a 2.1623003,2.1623003 0 0 0 0,-0.002 c 2.658748,-2.661139 3.7455,-6.259988 3.019531,-9.96875 v -0.002 C 37.312882,23.732221 34.136,20.550294 32.933594,17.761719 a 2.1623003,2.1623003 0 0 0 -0.09766,-0.197266 L 27.964844,8.8320312 A 2.1623003,2.1623003 0 0 0 27.832031,8.6230469 C 27.057089,7.5454935 25.653163,6.9521246 24.388672,7.078125 23.358141,7.1808124 22.474475,7.7207572 21.712891,8.4316406 L 21.382812,7.8457031 A 2.1623003,2.1623003 0 0 0 21.314453,7.7324219 C 20.652452,6.7110147 19.487697,6.3555425 18.654297,6.3417969 Z"
     inkscape:href="#path5"
     id="path898"
     xlink:href="#path5"
     inkscape:original="M 18.457031 8.5839844 C 18.073962 8.5776663 17.627508 8.6899228 17.197266 8.8886719 C 16.575415 9.2576744 16.163188 9.9380896 16.173828 10.580078 C 16.179065 10.887339 16.861653 12.193121 19.0625 16.105469 C 20.781251 19.160758 21.947325 21.353936 21.953125 21.541016 C 21.966417 21.964713 21.710097 22.259404 21.316406 22.271484 C 21.003265 22.281956 20.876349 22.075526 17.802734 16.623047 C 15.729762 12.945906 14.490765 10.864472 14.265625 10.675781 C 12.994536 9.6101153 11.121644 10.394421 11.083984 12.007812 C 11.070693 12.575896 11.190235 12.814086 14.296875 18.326172 C 17.196097 23.469939 17.518489 24.090068 17.449219 24.419922 C 17.353767 24.87283 17.211494 24.964575 16.751953 24.863281 C 16.417869 24.78978 16.218748 24.473981 13.832031 20.240234 C 10.994833 15.207224 10.844252 15.01397 9.8222656 15.0625 C 8.7610093 15.112844 7.9691612 15.901514 7.9101562 16.966797 C 7.8852459 17.416875 8.2125248 18.047321 12.005859 24.855469 L 16.126953 32.253906 C 16.126953 32.253906 12.633187 31.496708 10.986328 30.892578 C 9.284693 30.395176 7.7588741 31.634242 7.9726562 33.337891 C 8.064081 34.064861 8.3515472 34.532806 8.9941406 35 C 9.7573582 35.553786 19.97973 39.860311 21.132812 40.283203 C 23.428911 41.128985 26.172111 40.942029 28.953125 39.753906 C 30.284226 39.186022 32.513981 37.693049 33.476562 36.730469 C 35.715872 34.489145 36.516544 31.838157 35.902344 28.703125 C 35.205581 25.135332 32.223047 22.036497 30.783203 18.697266 L 25.912109 9.9648438 C 25.210915 8.9898373 23.768554 9.0585818 22.666016 10.363281 C 22.176268 11.281862 22.418364 11.712094 24.882812 16.083984 C 26.508729 18.968505 27.081466 20.086479 27.035156 20.269531 C 26.934468 20.651953 26.419497 20.884647 26.109375 20.6875 C 25.930352 20.57352 24.680718 18.469429 22.583984 14.75 L 19.335938 8.9882812 C 19.159028 8.7153253 18.8401 8.5903024 18.457031 8.5839844 z "
     inkscape:radius="2.1620841"
     sodipodi:type="inkscape:offset"
     style="color:#dfdfdf;fill:#16a085;stroke-width:2.01377;fill-opacity:1" />
  <path
     style="color:#dfdfdf;fill:#ffffff;stroke-width:2.01377"
     class="ColorScheme-Text"
     d="m 28.952771,39.753184 c -2.781014,1.188123 -5.523967,1.375403 -7.820065,0.529621 C 19.979623,39.859913 9.7575335,35.554477 8.9943159,35.000691 8.3517225,34.533497 8.064156,34.064289 7.9727312,33.337319 7.758949,31.63367 9.2849029,30.395203 10.986538,30.892605 c 1.646859,0.60413 5.141148,1.361307 5.141148,1.361307 L 12.005302,24.854726 C 8.2119674,18.046578 7.8851925,17.417075 7.9101028,16.966997 c 0.059005,-1.065283 0.8508172,-1.854076 1.9120735,-1.90442 1.0219867,-0.04853 1.1722147,0.145394 4.0094127,5.178404 2.386717,4.233747 2.585476,4.548499 2.91956,4.622 0.459541,0.101294 0.602117,0.01008 0.697569,-0.442828 0.06927,-0.329854 -0.25172,-0.9509 -3.150942,-6.094667 -3.10664,-5.512086 -3.227466,-5.74971 -3.214175,-6.317794 0.03766,-1.613392 1.91167,-2.397976 3.182759,-1.33231 0.22514,0.188691 1.463205,2.271329 3.536177,5.94847 3.073615,5.452479 3.201489,5.658084 3.51463,5.647612 0.393691,-0.01208 0.649239,-0.306294 0.635947,-0.729991 -0.0058,-0.18708 -1.172616,-2.380677 -2.891367,-5.435966 -2.200847,-3.912348 -2.883112,-5.217471 -2.888349,-5.524732 -0.01064,-0.6419885 0.401345,-1.323388 1.023196,-1.6923905 0.860484,-0.3974981 1.785609,-0.4464329 2.139428,0.099479 l 3.248007,5.7617725 c 2.096734,3.719429 3.346278,5.824019 3.525301,5.937999 0.310122,0.197147 0.825646,-0.03604 0.926334,-0.418462 0.04631,-0.183052 -0.527607,-1.299888 -2.153524,-4.184409 -2.464448,-4.37189 -2.705094,-4.802433 -2.215346,-5.721014 1.102538,-1.3046995 2.544396,-1.3739127 3.24559,-0.3989063 l 4.870902,8.7327843 c 1.439844,3.339231 4.422235,6.438621 5.118998,10.006414 0.6142,3.135032 -0.18728,5.785151 -2.42659,8.026475 -0.962581,0.96258 -3.191822,2.454783 -4.522923,3.022667 z"
     id="path5" />
  <path
     d="M 8.9667969 12.517578 C 8.9466751 12.662707 8.9253594 12.807758 8.921875 12.957031 C 8.9211025 12.990023 8.9302136 13.060827 8.9316406 13.105469 C 8.9792464 13.093005 9.0241463 13.073309 9.0722656 13.0625 C 9.0213255 12.887617 8.9909116 12.697001 8.9667969 12.517578 z M 5.8027344 17.501953 C 5.7855139 17.617281 5.758492 17.729603 5.7519531 17.847656 C 5.7297501 18.248815 5.8375201 18.806688 5.984375 19.195312 C 6.1312304 19.583938 6.3151039 19.960403 6.6074219 20.523438 C 7.1920579 21.649507 8.2195767 23.502436 10.117188 26.908203 L 11.121094 28.708984 C 11.279531 28.738248 11.43701 28.77059 11.59375 28.816406 A 2.1623003 2.1623003 0 0 1 11.730469 28.863281 C 11.740629 28.867081 11.759071 28.869247 11.769531 28.873047 L 10.117188 25.908203 C 8.2195767 22.502436 7.1920579 20.649507 6.6074219 19.523438 C 6.3151039 18.960403 6.1312304 18.583938 5.984375 18.195312 C 5.9084072 17.994278 5.8452027 17.748447 5.8027344 17.501953 z M 38.21875 31.164062 C 38.0666 33.816913 36.968622 36.293285 35.005859 38.257812 A 2.1623003 2.1623003 0 0 0 35.005859 38.259766 C 33.653213 39.612411 31.588335 40.979568 29.800781 41.742188 C 26.624604 43.098702 23.304441 43.385309 20.388672 42.3125 C 19.523788 41.995305 16.8745 40.882847 14.064453 39.677734 C 12.65943 39.075178 11.266657 38.468319 10.162109 37.970703 C 9.6098361 37.721895 9.1312922 37.500729 8.7460938 37.314453 C 8.3608952 37.128177 8.209389 37.101753 7.7246094 36.75 A 2.1623003 2.1623003 0 0 0 7.7226562 36.748047 C 6.772727 36.057406 5.9752296 34.777134 5.828125 33.607422 C 5.8265686 33.595019 5.8276213 33.582714 5.8261719 33.570312 C 5.7891523 33.911116 5.7843415 34.258507 5.828125 34.607422 C 5.9752296 35.777134 6.772727 37.057406 7.7226562 37.748047 A 2.1623003 2.1623003 0 0 0 7.7246094 37.75 C 8.209389 38.101753 8.3608952 38.128177 8.7460938 38.314453 C 9.1312922 38.500729 9.6098361 38.721895 10.162109 38.970703 C 11.266657 39.468319 12.65943 40.075178 14.064453 40.677734 C 16.8745 41.882847 19.523788 42.995305 20.388672 43.3125 C 23.304441 44.385309 26.624604 44.098702 29.800781 42.742188 C 31.588335 41.979568 33.653213 40.612411 35.005859 39.259766 A 2.1623003 2.1623003 0 0 0 35.005859 39.257812 C 37.212817 37.04887 38.315826 34.19082 38.21875 31.164062 z "
     style="color:#dfdfdf;fill:#000000;fill-opacity:0.2;stroke-width:2.01377"
     id="path900" />
  <path
     d="M 18.492188 6.421875 C 17.659203 6.4081363 16.956821 6.6182143 16.291016 6.9257812 A 2.1623003 2.1623003 0 0 0 16.09375 7.0292969 C 15.454034 7.4089001 14.928689 7.9176862 14.5625 8.53125 C 13.511914 8.0817986 12.37348 7.9265035 11.376953 8.34375 C 10.029966 8.9077345 8.9600266 10.322578 8.921875 11.957031 C 8.9190454 12.077877 8.9359257 12.287885 8.9667969 12.517578 C 9.1663813 11.072792 10.152444 9.8544997 11.376953 9.3417969 C 12.37348 8.9245504 13.511914 9.0798455 14.5625 9.5292969 C 14.928689 8.9157331 15.454034 8.406947 16.09375 8.0273438 A 2.1623003 2.1623003 0 0 1 16.291016 7.9238281 C 16.956821 7.6162611 17.659203 7.4061832 18.492188 7.4199219 C 19.325709 7.4336693 20.492337 7.7952309 21.150391 8.8105469 A 2.1623003 2.1623003 0 0 1 21.21875 8.9238281 L 21.548828 9.5097656 C 22.310413 8.7988822 23.194079 8.2589374 24.224609 8.15625 C 25.4891 8.0302496 26.893026 8.6236188 27.667969 9.7011719 A 2.1623003 2.1623003 0 0 1 27.800781 9.9101562 L 32.671875 18.642578 A 2.1623003 2.1623003 0 0 1 32.769531 18.839844 C 33.971938 21.628419 37.148818 24.810346 38.023438 29.285156 L 38.023438 29.287109 C 38.147001 29.918357 38.198945 30.543204 38.21875 31.164062 C 38.272736 30.222775 38.213522 29.260147 38.023438 28.289062 L 38.023438 28.287109 C 37.148818 23.812299 33.971938 20.630372 32.769531 17.841797 A 2.1623003 2.1623003 0 0 0 32.671875 17.644531 L 27.800781 8.9121094 A 2.1623003 2.1623003 0 0 0 27.667969 8.703125 C 26.893026 7.6255719 25.4891 7.0322027 24.224609 7.1582031 C 23.194079 7.2608905 22.310413 7.8008353 21.548828 8.5117188 L 21.21875 7.9257812 A 2.1623003 2.1623003 0 0 0 21.150391 7.8125 C 20.492337 6.797184 19.325709 6.4356224 18.492188 6.421875 z M 8.9316406 13.105469 C 7.2207915 13.553393 5.8514496 15.051337 5.7519531 16.847656 C 5.7412675 17.040722 5.7633427 17.270674 5.8027344 17.5 C 6.0548344 15.811655 7.4084898 14.434273 9.0722656 14.060547 C 8.9741496 13.723704 8.9396728 13.352237 8.9316406 13.105469 z M 10.470703 28.628906 C 9.3461997 28.577438 8.2426673 28.926127 7.3984375 29.611328 C 6.281825 30.517602 5.6468832 32.036333 5.8261719 33.570312 C 5.9528162 32.399735 6.5262653 31.317255 7.3984375 30.609375 C 8.5240773 29.695774 10.11184 29.381279 11.59375 29.814453 A 2.1623003 2.1623003 0 0 1 11.730469 29.861328 C 11.740629 29.865128 11.759071 29.867294 11.769531 29.871094 L 11.121094 28.708984 C 10.905044 28.669079 10.686954 28.638804 10.470703 28.628906 z "
     style="color:#dfdfdf;fill:#ffffff;stroke-width:2.01377;fill-opacity:0.2"
     id="path914" />
  <path
     style="opacity:0.2"
     d="m 76.999499,5 c -1.5512,0 -2.8,1.2488 -2.8,2.8 v 50.4 c 0,1.5512 1.2488,2.8 2.8,2.8 h 14.2 V 22 H 110.1995 V 5 Z M 113.1995,5 v 56 h 14.2 c 1.5512,0 2.8,-1.2488 2.8,-2.8 V 7.8 c 0,-1.5512 -1.2488,-2.8 -2.8,-2.8 z M 94.199499,25 V 61 H 110.1995 V 25 Z"
     id="path931" />
  <path
     style="fill:#16a085"
     d="m 76.999499,4 c -1.5512,0 -2.8,1.2488 -2.8,2.8 v 50.4 c 0,1.5512 1.2488,2.8 2.8,2.8 h 14.2 V 21 H 110.1995 V 4 Z M 113.1995,4 v 56 h 14.2 c 1.5512,0 2.8,-1.2488 2.8,-2.8 V 6.8 c 0,-1.5512 -1.2488,-2.8 -2.8,-2.8 z M 94.199499,24 V 60 H 110.1995 V 24 Z"
     id="path933" />
  <path
     style="opacity:0.2;fill:#ffffff"
     d="m 77.00028,4 c -1.5512,0 -2.800781,1.2495813 -2.800781,2.8007812 v 1 C 74.199499,6.2495812 75.44908,5 77.00028,5 H 110.1995 V 4 Z m 36.19922,0 v 1 h 14.19922 c 1.5512,0 2.80078,1.2495813 2.80078,2.8007812 v -1 C 130.1995,5.2495813 128.94992,4 127.39872,4 Z M 94.199499,24 v 1 H 110.1995 v -1 z"
     id="path935" />
  <path
     transform="matrix(-0.65609158,0.65609157,0.65609157,0.65609158,88.73578,-6.3811625)"
     style="color:#dfdfdf;fill:#ffffff;fill-opacity:1;stroke-width:2.01377"
     sodipodi:type="inkscape:offset"
     inkscape:radius="2.1620841"
     inkscape:original="M 18.457031 8.5839844 C 18.073962 8.5776663 17.627508 8.6899228 17.197266 8.8886719 C 16.575415 9.2576744 16.163188 9.9380896 16.173828 10.580078 C 16.179065 10.887339 16.861653 12.193121 19.0625 16.105469 C 20.781251 19.160758 21.947325 21.353936 21.953125 21.541016 C 21.966417 21.964713 21.710097 22.259404 21.316406 22.271484 C 21.003265 22.281956 20.876349 22.075526 17.802734 16.623047 C 15.729762 12.945906 14.490765 10.864472 14.265625 10.675781 C 12.994536 9.6101153 11.121644 10.394421 11.083984 12.007812 C 11.070693 12.575896 11.190235 12.814086 14.296875 18.326172 C 17.196097 23.469939 17.518489 24.090068 17.449219 24.419922 C 17.353767 24.87283 17.211494 24.964575 16.751953 24.863281 C 16.417869 24.78978 16.218748 24.473981 13.832031 20.240234 C 10.994833 15.207224 10.844252 15.01397 9.8222656 15.0625 C 8.7610093 15.112844 7.9691612 15.901514 7.9101562 16.966797 C 7.8852459 17.416875 8.2125248 18.047321 12.005859 24.855469 L 16.126953 32.253906 C 16.126953 32.253906 12.633187 31.496708 10.986328 30.892578 C 9.284693 30.395176 7.7588741 31.634242 7.9726562 33.337891 C 8.064081 34.064861 8.3515472 34.532806 8.9941406 35 C 9.7573582 35.553786 19.97973 39.860311 21.132812 40.283203 C 23.428911 41.128985 26.172111 40.942029 28.953125 39.753906 C 30.284226 39.186022 32.513981 37.693049 33.476562 36.730469 C 35.715872 34.489145 36.516544 31.838157 35.902344 28.703125 C 35.205581 25.135332 32.223047 22.036497 30.783203 18.697266 L 25.912109 9.9648438 C 25.210915 8.9898373 23.768554 9.0585818 22.666016 10.363281 C 22.176268 11.281862 22.418364 11.712094 24.882812 16.083984 C 26.508729 18.968505 27.081466 20.086479 27.035156 20.269531 C 26.934468 20.651953 26.419497 20.884647 26.109375 20.6875 C 25.930352 20.57352 24.680718 18.469429 22.583984 14.75 L 19.335938 8.9882812 C 19.159028 8.7153253 18.8401 8.5903024 18.457031 8.5839844 z "
     xlink:href="#path5"
     id="path937"
     inkscape:href="#path5"
     d="M 18.492188,6.421875 C 17.659203,6.4081363 16.956821,6.6182142 16.291016,6.9257812 A 2.1623003,2.1623003 0 0 0 16.09375,7.0292969 C 15.454034,7.4089001 14.928689,7.9176862 14.5625,8.53125 13.511914,8.0817986 12.37348,7.9265035 11.376953,8.34375 c -1.346987,0.5639845 -2.4169264,1.978828 -2.455078,3.613281 -0.00504,0.215243 0.034238,0.706704 0.1503906,1.105469 -1.7774251,0.399255 -3.2180475,1.938853 -3.3203125,3.785156 -0.022203,0.401159 0.085567,0.959032 0.2324219,1.347656 0.1468554,0.388625 0.3307289,0.765091 0.6230469,1.328126 0.584636,1.126069 1.6121553,2.978998 3.5097661,6.384765 l 1.652343,2.964844 c -0.01046,-0.0038 -0.0289,-0.006 -0.03906,-0.0098 A 2.1623003,2.1623003 0 0 0 11.59375,28.816406 C 10.11184,28.383232 8.5240773,28.697727 7.3984375,29.611328 6.2727977,30.524929 5.6340512,32.06083 5.828125,33.607422 c 0.1471046,1.169712 0.944602,2.449984 1.8945312,3.140625 a 2.1623003,2.1623003 0 0 0 0.00195,0.002 c 0.4847796,0.351753 0.6362859,0.378177 1.0214844,0.564453 0.3851984,0.186276 0.8637419,0.407442 1.4160152,0.65625 1.104548,0.497616 2.497321,1.104475 3.902344,1.707031 2.810047,1.205113 5.459335,2.317571 6.324219,2.634766 2.915769,1.072809 6.235932,0.786202 9.412109,-0.570312 1.787554,-0.76262 3.852432,-2.129777 5.205078,-3.482422 a 2.1623003,2.1623003 0 0 0 0,-0.002 c 2.659192,-2.661583 3.743382,-6.260836 3.017579,-9.96875 v -0.002 c -0.874619,-4.47481 -4.0515,-7.656737 -5.253907,-10.445312 a 2.1623003,2.1623003 0 0 0 -0.09766,-0.197266 L 27.800781,8.9121094 A 2.1623003,2.1623003 0 0 0 27.667969,8.703125 C 26.893026,7.6255719 25.4891,7.0322027 24.224609,7.1582031 23.194079,7.2608905 22.310413,7.8008354 21.548828,8.5117188 L 21.21875,7.9257812 A 2.1623003,2.1623003 0 0 0 21.150391,7.8125 C 20.492337,6.797184 19.325709,6.4356224 18.492188,6.421875 Z" />
  <path
     id="path939"
     d="m 95.821839,38.696236 c 2.604118,-1.045083 4.526621,-2.721838 5.478161,-4.783199 0.47907,-1.033984 4.36094,-10.565371 4.49834,-11.429446 0.11508,-0.728122 -0.004,-1.224636 -0.42107,-1.761578 -0.97749,-1.25801 -2.7912,-1.069392 -3.58129,0.373378 -0.68412,1.476854 -2.479919,4.266205 -2.479919,4.266205 l -2.149883,-7.559205 c -1.977993,-6.955543 -2.17661,-7.582949 -2.488246,-7.8618977 -0.737633,-0.6602138 -1.774658,-0.6582298 -2.503969,0.00502 -0.702358,0.6386767 -0.673689,0.8644717 0.766965,6.0280497 1.21182,4.34363 1.287923,4.680541 1.116956,4.947954 -0.235043,0.367959 -0.38843,0.401657 -0.748205,0.167133 C 93.047817,20.917684 92.850953,20.299622 91.378326,15.022685 89.800133,9.3680114 89.723503,9.1328353 89.342068,8.7688403 88.258827,7.7350158 86.514546,8.449779 86.379769,9.9829043 c -0.02391,0.2715107 0.530204,2.4501967 1.582685,6.2227967 1.560753,5.593899 1.611752,5.812692 1.399432,6.01127 -0.266223,0.250372 -0.626917,0.225003 -0.896181,-0.0617 -0.118936,-0.126547 -0.792598,-2.331286 -1.66949,-5.463493 -1.122901,-4.010816 -1.531553,-5.314725 -1.729708,-5.519752 -0.414223,-0.428184 -1.131583,-0.604945 -1.781674,-0.439053 -0.825351,0.303761 -1.464423,0.878622 -1.338393,1.468928 l 1.64926,5.911241 c 1.064637,3.815935 1.625625,6.016554 1.582951,6.208791 -0.07412,0.332815 -0.565345,0.518054 -0.882309,0.33321 -0.150483,-0.08972 -0.506687,-1.199004 -1.332447,-4.158264 -1.251456,-4.485264 -1.376046,-4.925625 -2.300039,-5.206979 -1.579368,-0.132636 -2.570769,0.767944 -2.391123,1.867685 l 2.533751,8.925261 c 1.246168,3.135515 1.322931,7.125719 3.206592,9.923657 1.653896,2.459839 3.918461,3.672716 6.858167,3.674037 1.263082,0 3.704689,-0.483564 4.950596,-0.984303 z"
     class="ColorScheme-Text"
     style="color:#dfdfdf;fill:#35bf5c;stroke-width:1.86848;fill-opacity:1" />
  <path
     d="M 88.267578 6.296875 C 87.739484 6.2771201 87.216258 6.3639951 86.746094 6.5566406 C 85.818529 6.9367017 85.173696 7.7853694 84.779297 8.7695312 C 84.136489 8.6072307 83.457829 8.6184047 82.789062 8.7890625 A 2.0062981 2.0062981 0 0 0 82.591797 8.8515625 C 81.953176 9.0865994 81.353907 9.4093155 80.816406 9.9648438 C 80.284364 10.514731 79.764796 11.501975 79.980469 12.585938 C 80.104779 11.915774 80.455063 11.338307 80.816406 10.964844 C 81.353907 10.409315 81.953176 10.086599 82.591797 9.8515625 A 2.0062981 2.0062981 0 0 1 82.789062 9.7890625 C 83.457829 9.6184047 84.136489 9.6072307 84.779297 9.7695312 C 85.173696 8.7853694 85.818529 7.9367017 86.746094 7.5566406 C 87.999866 7.0429193 89.629181 7.2690863 90.726562 8.3164062 C 90.871088 8.4543187 91.168096 8.8027919 91.353516 9.140625 C 92.781617 8.2364192 94.737186 8.3010639 96.015625 9.4453125 C 96.293389 9.6939423 96.589424 10.131099 96.748047 10.482422 C 96.90667 10.833746 97.031369 11.202482 97.208984 11.763672 C 97.564214 12.886051 98.106215 14.774405 99.095703 18.253906 L 99.957031 21.283203 C 99.961401 21.273847 99.97239 21.261112 99.976562 21.251953 A 2.0062981 2.0062981 0 0 1 100.03516 21.130859 C 100.72322 19.874389 101.97067 19.039507 103.30859 18.900391 C 104.64652 18.761274 106.07356 19.350151 106.96094 20.492188 C 107.4196 21.082813 107.69798 21.906764 107.7832 22.712891 C 107.92629 21.649474 107.61563 20.335236 106.96094 19.492188 C 106.07356 18.350151 104.64652 17.761274 103.30859 17.900391 C 101.97067 18.039507 100.72322 18.874389 100.03516 20.130859 A 2.0062981 2.0062981 0 0 0 99.976562 20.251953 C 99.97239 20.261112 99.961401 20.273847 99.957031 20.283203 L 99.095703 17.253906 C 98.106215 13.774405 97.564214 11.886051 97.208984 10.763672 C 97.031369 10.202482 96.90667 9.8337461 96.748047 9.4824219 C 96.589424 9.1310987 96.293389 8.6939423 96.015625 8.4453125 C 94.737186 7.3010639 92.781617 7.2364192 91.353516 8.140625 C 91.168096 7.8027919 90.871088 7.4543187 90.726562 7.3164062 C 90.040699 6.6618313 89.147735 6.3297999 88.267578 6.296875 z M 107.7832 22.712891 C 107.77966 22.739258 107.78341 22.768879 107.7793 22.794922 A 2.0062981 2.0062981 0 0 1 107.7793 22.798828 C 107.69202 23.34767 107.60903 23.462951 107.47852 23.837891 C 107.348 24.21283 107.17957 24.673636 106.98047 25.199219 C 106.58227 26.250385 106.06751 27.561751 105.54102 28.878906 C 104.48803 31.513219 103.47847 33.980307 103.11914 34.755859 C 101.90999 37.372732 99.544173 39.362775 96.570312 40.556641 C 94.897165 41.229091 92.646012 41.687499 90.871094 41.6875 A 2.0062981 2.0062981 0 0 1 90.869141 41.685547 C 87.378225 41.683978 84.306147 40.033924 82.349609 37.125 L 82.347656 37.125 C 79.985601 33.615285 79.982078 29.442668 78.941406 26.824219 A 2.0062981 2.0062981 0 0 1 78.876953 26.630859 L 76.34375 17.705078 A 2.0062981 2.0062981 0 0 1 76.292969 17.482422 C 76.292445 17.479215 76.293482 17.475864 76.292969 17.472656 C 76.244468 17.80737 76.238404 18.148391 76.292969 18.482422 A 2.0062981 2.0062981 0 0 0 76.34375 18.705078 L 78.876953 27.630859 A 2.0062981 2.0062981 0 0 0 78.941406 27.824219 C 79.982078 30.442668 79.985601 34.615285 82.347656 38.125 L 82.349609 38.125 C 84.306147 41.033924 87.378225 42.683978 90.869141 42.685547 A 2.0062981 2.0062981 0 0 1 90.871094 42.6875 C 92.646012 42.687499 94.897165 42.229091 96.570312 41.556641 C 99.544173 40.362775 101.90999 38.372732 103.11914 35.755859 C 103.47847 34.980307 104.48803 32.513219 105.54102 29.878906 C 106.06751 28.561751 106.58227 27.250385 106.98047 26.199219 C 107.17957 25.673636 107.348 25.21283 107.47852 24.837891 C 107.60903 24.462951 107.69202 24.34767 107.7793 23.798828 A 2.0062981 2.0062981 0 0 0 107.7793 23.794922 C 107.83312 23.454395 107.82264 23.085945 107.7832 22.712891 z M 76.292969 17.472656 C 76.420942 16.589478 76.877498 15.750653 77.539062 15.208984 C 78.282557 14.600235 79.215567 14.375062 80.181641 14.341797 L 80.013672 13.740234 A 2.0062981 2.0062981 0 0 1 79.984375 13.621094 C 79.965783 13.534013 79.960544 13.448988 79.951172 13.363281 C 79.068685 13.423506 78.222614 13.649314 77.539062 14.208984 C 76.62918 14.953968 76.098794 16.259961 76.292969 17.472656 z M 79.951172 13.363281 C 80.02856 13.358 80.103753 13.344479 80.181641 13.341797 L 80.013672 12.740234 A 2.0062981 2.0062981 0 0 1 79.984375 12.621094 C 79.981846 12.609246 79.982822 12.597763 79.980469 12.585938 C 79.934424 12.834168 79.921768 13.094384 79.951172 13.363281 z "
     style="color:#dfdfdf;fill:#000000;fill-opacity:0.2;stroke-width:1.86848"
     id="path955" />
  <g
     transform="translate(143.50743)"
     id="g1003">
    <path
       style="opacity:0.2"
       d="M 6.8,5 C 5.2488,5 4,6.2488 4,7.8 V 58.2 C 4,59.7512 5.2488,61 6.8,61 H 21 V 22 H 40 V 5 Z M 43,5 v 36.057192 h 14.2 c 1.5512,0 2.8,-1.2488 2.8,-2.8 V 7.8 C 60,6.2488 58.7512,5 57.2,5 Z M 24,25 V 61 H 40 V 25 Z"
       id="path2-3"
       inkscape:connector-curvature="0"
       sodipodi:nodetypes="ssssccccsccsssscccccc" />
    <path
       style="fill:#16a085"
       d="M 6.8,4 C 5.2488,4 4,5.2488 4,6.8 V 57.2 C 4,58.7512 5.2488,60 6.8,60 H 21 V 21 H 40 V 4 Z"
       id="path871" />
    <path
       style="fill:#35bf5c;fill-opacity:1"
       d="m 43,4 v 36.057192 h 14.2 c 1.5512,0 2.8,-1.2488 2.8,-2.8 V 6.8 C 60,5.2488 58.7512,4 57.2,4 Z"
       id="path869" />
    <path
       style="fill:#16a085"
       d="M 24,24 V 60 H 40 V 24 Z"
       id="path4-6" />
    <path
       style="opacity:0.2;fill:#ffffff"
       d="M 6.8007812,4 C 5.2495813,4 4,5.2495813 4,6.8007812 v 1 C 4,6.2495812 5.2495813,5 6.8007812,5 H 40 V 4 Z M 43,4 V 5 H 57.199219 C 58.750419,5 60,6.2495813 60,7.8007812 v -1 C 60,5.2495813 58.750419,4 57.199219,4 Z M 24,24 v 1 h 16 v -1 z"
       id="path6-2" />
    <path
       style="opacity:0.2;stroke-width:1.39788"
       d="m 51.434381,44.225477 c -4.632155,0 -8.38727,3.755106 -8.38727,8.387254 0,4.632155 3.755115,8.387269 8.38727,8.387269 4.632156,0 8.387254,-3.755114 8.387254,-8.387269 0,-4.632148 -3.755098,-8.387254 -8.387254,-8.387254 z"
       id="path907"
       inkscape:connector-curvature="0" />
    <path
       style="fill:#35bf5c;fill-opacity:1;stroke-width:1.39788"
       d="m 51.434381,43.225478 c -4.632155,0 -8.38727,3.755105 -8.38727,8.387259 0,4.632149 3.755115,8.387263 8.38727,8.387263 4.632156,0 8.387254,-3.755114 8.387254,-8.387263 0,-4.632154 -3.755098,-8.387259 -8.387254,-8.387259 z"
       id="path888"
       inkscape:connector-curvature="0" />
    <path
       style="opacity:0.2;fill:#ffffff;fill-opacity:1;stroke-width:1.39788"
       d="m 51.433594,43.224609 c -4.632155,0 -8.386719,3.756518 -8.386719,8.388672 0,0.168831 0.01555,0.333639 0.02539,0.5 0.260069,-4.398031 3.898004,-7.888672 8.361328,-7.888672 4.463324,0 8.103212,3.490641 8.363281,7.888672 0.0098,-0.166361 0.02539,-0.331169 0.02539,-0.5 0,-4.632154 -3.756516,-8.388672 -8.388672,-8.388672 z"
       id="path828" />
  </g>
  <path
     d="M 18.492188,6.421875 C 17.659203,6.4081363 16.956821,6.6182142 16.291016,6.9257812 A 2.1623003,2.1623003 0 0 0 16.09375,7.0292969 C 15.454034,7.4089001 14.928689,7.9176862 14.5625,8.53125 13.511914,8.0817986 12.37348,7.9265035 11.376953,8.34375 c -1.346987,0.5639845 -2.4169264,1.978828 -2.455078,3.613281 -0.00504,0.215243 0.034238,0.706704 0.1503906,1.105469 -1.7774251,0.399255 -3.2180475,1.938853 -3.3203125,3.785156 -0.022203,0.401159 0.085567,0.959032 0.2324219,1.347656 0.1468554,0.388625 0.3307289,0.765091 0.6230469,1.328126 0.584636,1.126069 1.6121553,2.978998 3.5097661,6.384765 l 1.652343,2.964844 c -0.01046,-0.0038 -0.0289,-0.006 -0.03906,-0.0098 A 2.1623003,2.1623003 0 0 0 11.59375,28.816406 C 10.11184,28.383232 8.5240773,28.697727 7.3984375,29.611328 6.2727977,30.524929 5.6340512,32.06083 5.828125,33.607422 c 0.1471046,1.169712 0.944602,2.449984 1.8945312,3.140625 a 2.1623003,2.1623003 0 0 0 0.00195,0.002 c 0.4847796,0.351753 0.6362859,0.378177 1.0214844,0.564453 0.3851984,0.186276 0.8637419,0.407442 1.4160152,0.65625 1.104548,0.497616 2.497321,1.104475 3.902344,1.707031 2.810047,1.205113 5.459335,2.317571 6.324219,2.634766 2.915769,1.072809 6.235932,0.786202 9.412109,-0.570312 1.787554,-0.76262 3.852432,-2.129777 5.205078,-3.482422 a 2.1623003,2.1623003 0 0 0 0,-0.002 c 2.659192,-2.661583 3.743382,-6.260836 3.017579,-9.96875 v -0.002 c -0.874619,-4.47481 -4.0515,-7.656737 -5.253907,-10.445312 a 2.1623003,2.1623003 0 0 0 -0.09766,-0.197266 L 27.800781,8.9121094 A 2.1623003,2.1623003 0 0 0 27.667969,8.703125 C 26.893026,7.6255719 25.4891,7.0322027 24.224609,7.1582031 23.194079,7.2608905 22.310413,7.8008354 21.548828,8.5117188 L 21.21875,7.9257812 A 2.1623003,2.1623003 0 0 0 21.150391,7.8125 C 20.492337,6.797184 19.325709,6.4356224 18.492188,6.421875 Z"
     inkscape:href="#path5"
     id="path1011"
     xlink:href="#path5"
     inkscape:original="M 18.457031 8.5839844 C 18.073962 8.5776663 17.627508 8.6899228 17.197266 8.8886719 C 16.575415 9.2576744 16.163188 9.9380896 16.173828 10.580078 C 16.179065 10.887339 16.861653 12.193121 19.0625 16.105469 C 20.781251 19.160758 21.947325 21.353936 21.953125 21.541016 C 21.966417 21.964713 21.710097 22.259404 21.316406 22.271484 C 21.003265 22.281956 20.876349 22.075526 17.802734 16.623047 C 15.729762 12.945906 14.490765 10.864472 14.265625 10.675781 C 12.994536 9.6101153 11.121644 10.394421 11.083984 12.007812 C 11.070693 12.575896 11.190235 12.814086 14.296875 18.326172 C 17.196097 23.469939 17.518489 24.090068 17.449219 24.419922 C 17.353767 24.87283 17.211494 24.964575 16.751953 24.863281 C 16.417869 24.78978 16.218748 24.473981 13.832031 20.240234 C 10.994833 15.207224 10.844252 15.01397 9.8222656 15.0625 C 8.7610093 15.112844 7.9691612 15.901514 7.9101562 16.966797 C 7.8852459 17.416875 8.2125248 18.047321 12.005859 24.855469 L 16.126953 32.253906 C 16.126953 32.253906 12.633187 31.496708 10.986328 30.892578 C 9.284693 30.395176 7.7588741 31.634242 7.9726562 33.337891 C 8.064081 34.064861 8.3515472 34.532806 8.9941406 35 C 9.7573582 35.553786 19.97973 39.860311 21.132812 40.283203 C 23.428911 41.128985 26.172111 40.942029 28.953125 39.753906 C 30.284226 39.186022 32.513981 37.693049 33.476562 36.730469 C 35.715872 34.489145 36.516544 31.838157 35.902344 28.703125 C 35.205581 25.135332 32.223047 22.036497 30.783203 18.697266 L 25.912109 9.9648438 C 25.210915 8.9898373 23.768554 9.0585818 22.666016 10.363281 C 22.176268 11.281862 22.418364 11.712094 24.882812 16.083984 C 26.508729 18.968505 27.081466 20.086479 27.035156 20.269531 C 26.934468 20.651953 26.419497 20.884647 26.109375 20.6875 C 25.930352 20.57352 24.680718 18.469429 22.583984 14.75 L 19.335938 8.9882812 C 19.159028 8.7153253 18.8401 8.5903024 18.457031 8.5839844 z "
     inkscape:radius="2.1620841"
     sodipodi:type="inkscape:offset"
     style="color:#dfdfdf;fill:#ffffff;fill-opacity:1;stroke-width:2.01377"
     transform="matrix(-0.65609158,0.65609157,0.65609157,0.65609158,161.86763,-6.3811625)" />
  <path
     style="color:#dfdfdf;fill:#35bf5c;fill-opacity:1;stroke-width:1.86848"
     class="ColorScheme-Text"
     d="m 168.95369,38.696236 c 2.60412,-1.045083 4.52662,-2.721838 5.47816,-4.783199 0.47907,-1.033984 4.36094,-10.565371 4.49834,-11.429446 0.11508,-0.728122 -0.004,-1.224636 -0.42107,-1.761578 -0.97749,-1.25801 -2.7912,-1.069392 -3.58129,0.373378 -0.68412,1.476854 -2.47992,4.266205 -2.47992,4.266205 l -2.14988,-7.559205 c -1.97799,-6.955543 -2.17661,-7.582949 -2.48825,-7.8618977 -0.73763,-0.6602138 -1.77465,-0.6582298 -2.50397,0.00502 -0.70235,0.6386767 -0.67368,0.8644717 0.76697,6.0280497 1.21182,4.34363 1.28792,4.680541 1.11696,4.947954 -0.23505,0.367959 -0.38843,0.401657 -0.74821,0.167133 -0.26186,-0.170966 -0.45873,-0.789028 -1.93135,-6.065965 -1.5782,-5.6546736 -1.65483,-5.8898497 -2.03626,-6.2538447 -1.08324,-1.0338245 -2.82752,-0.3190613 -2.9623,1.214064 -0.0239,0.2715107 0.5302,2.4501967 1.58269,6.2227967 1.56075,5.593899 1.61175,5.812692 1.39943,6.01127 -0.26623,0.250372 -0.62692,0.225003 -0.89618,-0.0617 -0.11894,-0.126547 -0.7926,-2.331286 -1.66949,-5.463493 -1.1229,-4.010816 -1.53156,-5.314725 -1.72971,-5.519752 -0.41422,-0.428184 -1.13158,-0.604945 -1.78168,-0.439053 -0.82535,0.303761 -1.46442,0.878622 -1.33839,1.468928 l 1.64926,5.911241 c 1.06464,3.815935 1.62563,6.016554 1.58295,6.208791 -0.0741,0.332815 -0.56534,0.518054 -0.88231,0.33321 -0.15048,-0.08972 -0.50668,-1.199004 -1.33244,-4.158264 -1.25146,-4.485264 -1.37605,-4.925625 -2.30004,-5.206979 -1.57937,-0.132636 -2.57077,0.767944 -2.39113,1.867685 l 2.53376,8.925261 c 1.24616,3.135515 1.32293,7.125719 3.20659,9.923657 1.65389,2.459839 3.91846,3.672716 6.85816,3.674037 1.26309,0 3.70469,-0.483564 4.9506,-0.984303 z"
     id="path1013" />
  <path
     id="path1015"
     style="color:#dfdfdf;fill:#000000;fill-opacity:0.2;stroke-width:1.86848"
     d="m 161.39943,6.296875 c -0.52809,-0.019755 -1.05132,0.06712 -1.52148,0.2597656 -0.92757,0.3800611 -1.5724,1.2287288 -1.9668,2.2128906 -0.64281,-0.1623005 -1.32147,-0.1511265 -1.99024,0.019531 a 2.0062981,2.0062981 0 0 0 -0.19726,0.0625 c -0.63862,0.2350369 -1.23789,0.557753 -1.77539,1.1132813 -0.53204,0.5498872 -1.05161,1.5371312 -0.83594,2.6210942 0.12431,-0.670164 0.47459,-1.247631 0.83594,-1.621094 0.5375,-0.555529 1.13677,-0.878245 1.77539,-1.1132815 a 2.0062981,2.0062981 0 0 1 0.19726,-0.0625 c 0.66877,-0.1706578 1.34743,-0.1818318 1.99024,-0.019531 0.3944,-0.9841618 1.03923,-1.8328295 1.9668,-2.2128906 1.25377,-0.5137213 2.88308,-0.2875543 3.98046,0.7597656 0.14453,0.1379125 0.44154,0.4863857 0.62696,0.8242188 1.4281,-0.9042058 3.38367,-0.8395611 4.66211,0.3046875 0.27776,0.2486298 0.5738,0.6857865 0.73242,1.0371095 0.15862,0.351324 0.28332,0.72006 0.46094,1.28125 0.35523,1.122379 0.89723,3.010733 1.88671,6.490234 l 0.86133,3.029297 c 0.004,-0.0094 0.0154,-0.02209 0.0195,-0.03125 a 2.0062981,2.0062981 0 0 1 0.0586,-0.121094 c 0.68806,-1.25647 1.93551,-2.091352 3.27343,-2.230468 1.33793,-0.139117 2.76497,0.44976 3.65235,1.591797 0.45866,0.590625 0.73704,1.414576 0.82226,2.220703 0.14309,-1.063417 -0.16757,-2.377655 -0.82226,-3.220703 -0.88738,-1.142037 -2.31442,-1.730914 -3.65235,-1.591797 -1.33792,0.139116 -2.58537,0.973998 -3.27343,2.230468 a 2.0062981,2.0062981 0 0 0 -0.0586,0.121094 c -0.004,0.0092 -0.0152,0.02189 -0.0195,0.03125 l -0.86133,-3.029297 c -0.98948,-3.479501 -1.53148,-5.367855 -1.88671,-6.490234 -0.17762,-0.56119 -0.30232,-0.9299259 -0.46094,-1.2812501 -0.15862,-0.3513232 -0.45466,-0.7884796 -0.73242,-1.0371094 -1.27844,-1.1442486 -3.23401,-1.2088933 -4.66211,-0.3046875 -0.18542,-0.3378331 -0.48243,-0.6863063 -0.62696,-0.8242188 -0.68586,-0.6545749 -1.57882,-0.9866063 -2.45898,-1.0195312 z m 19.51562,16.416016 c -0.004,0.02637 2.1e-4,0.05599 -0.004,0.08203 a 2.0062981,2.0062981 0 0 1 0,0.0039 c -0.0873,0.548842 -0.17027,0.664123 -0.30078,1.039063 -0.13052,0.374939 -0.29895,0.835745 -0.49805,1.361328 -0.3982,1.051166 -0.91296,2.362532 -1.43945,3.679687 -1.05299,2.634313 -2.06255,5.101401 -2.42188,5.876953 -1.20915,2.616873 -3.57497,4.606916 -6.54883,5.800782 -1.67314,0.67245 -3.9243,1.130858 -5.69921,1.130859 a 2.0062981,2.0062981 0 0 1 -0.002,-0.002 c -3.49091,-0.0016 -6.56299,-1.651623 -8.51953,-4.560547 h -0.002 c -2.36206,-3.509715 -2.36558,-7.682332 -3.40625,-10.300781 a 2.0062981,2.0062981 0 0 1 -0.0645,-0.19336 l -2.5332,-8.925781 a 2.0062981,2.0062981 0 0 1 -0.0508,-0.222656 c -5.2e-4,-0.0032 5.1e-4,-0.0066 0,-0.0098 -0.0485,0.334714 -0.0546,0.675735 0,1.009766 a 2.0062981,2.0062981 0 0 0 0.0508,0.222656 l 2.5332,8.925781 a 2.0062981,2.0062981 0 0 0 0.0645,0.19336 c 1.04067,2.618449 1.04419,6.791066 3.40625,10.300781 h 0.002 c 1.95654,2.908924 5.02862,4.558978 8.51953,4.560547 a 2.0062981,2.0062981 0 0 1 0.002,0.002 c 1.77491,-10e-7 4.02607,-0.458409 5.69921,-1.130859 2.97386,-1.193866 5.33968,-3.183909 6.54883,-5.800782 0.35933,-0.775552 1.36889,-3.24264 2.42188,-5.876953 0.52649,-1.317155 1.04125,-2.628521 1.43945,-3.679687 0.1991,-0.525583 0.36753,-0.986389 0.49805,-1.361328 0.13051,-0.37494 0.2135,-0.490221 0.30078,-1.039063 a 2.0062981,2.0062981 0 0 0 0,-0.0039 c 0.0538,-0.340527 0.0433,-0.708977 0.004,-1.082031 z m -31.49023,-5.240235 c 0.12797,-0.883178 0.58453,-1.722003 1.24609,-2.263672 0.7435,-0.608749 1.67651,-0.833922 2.64258,-0.867187 l -0.16797,-0.601563 a 2.0062981,2.0062981 0 0 1 -0.0293,-0.11914 c -0.0186,-0.08708 -0.0238,-0.172106 -0.0332,-0.257813 -0.88248,0.06022 -1.72855,0.286033 -2.41211,0.845703 -0.90988,0.744984 -1.44026,2.050977 -1.24609,3.263672 z m 3.6582,-4.109375 c 0.0774,-0.0053 0.15258,-0.0188 0.23047,-0.02148 l -0.16797,-0.601563 a 2.0062981,2.0062981 0 0 1 -0.0293,-0.11914 c -0.003,-0.01185 -0.002,-0.02333 -0.004,-0.03516 -0.046,0.24823 -0.0587,0.508446 -0.0293,0.777343 z" />
</svg>
