<?xml version="1.0" encoding="UTF-8" standalone="no"?>
<svg
   xmlns:dc="http://purl.org/dc/elements/1.1/"
   xmlns:cc="http://creativecommons.org/ns#"
   xmlns:rdf="http://www.w3.org/1999/02/22-rdf-syntax-ns#"
   xmlns:svg="http://www.w3.org/2000/svg"
   xmlns="http://www.w3.org/2000/svg"
   xmlns:xlink="http://www.w3.org/1999/xlink"
   xmlns:sodipodi="http://sodipodi.sourceforge.net/DTD/sodipodi-0.dtd"
   xmlns:inkscape="http://www.inkscape.org/namespaces/inkscape"
   width="64"
   height="64"
   version="1"
   id="svg20"
   sodipodi:docname="manjaro-hello.svg"
   inkscape:version="0.92.4 5da689c313, 2019-01-14">
  <metadata
     id="metadata26">
    <rdf:RDF>
      <cc:Work
         rdf:about="">
        <dc:format>image/svg+xml</dc:format>
        <dc:type
           rdf:resource="http://purl.org/dc/dcmitype/StillImage" />
        <dc:title></dc:title>
      </cc:Work>
    </rdf:RDF>
  </metadata>
  <defs
     id="defs24">
    <linearGradient
       id="linearGradient2450"
       inkscape:collect="always">
      <stop
         id="stop2446"
         offset="0"
         style="stop-color:#35bf5c;stop-opacity:0.89887643" />
      <stop
         id="stop2448"
         offset="1"
         style="stop-color:#35bf5c;stop-opacity:0" />
    </linearGradient>
    <radialGradient
       r="57.831055"
       fy="1608.2534"
       fx="-174.61034"
       cy="1608.2534"
       cx="-174.61034"
       gradientTransform="matrix(2.827672,-2.8518669,3.1382469,3.1116204,-4651.8885,-3868.6472)"
       gradientUnits="userSpaceOnUse"
       id="radialGradient3438"
       xlink:href="#linearGradient2450"
       inkscape:collect="always" />
    <radialGradient
       r="57.831055"
       fy="1608.2534"
       fx="-174.61034"
       cy="1608.2534"
       cx="-174.61034"
       gradientTransform="matrix(2.827672,-2.8518669,3.1382469,3.1116204,-4651.8885,-3868.6472)"
       gradientUnits="userSpaceOnUse"
       id="radialGradient3438-7"
       xlink:href="#linearGradient2450"
       inkscape:collect="always" />
    <radialGradient
       r="57.831055"
       fy="1608.2534"
       fx="-174.61034"
       cy="1608.2534"
       cx="-174.61034"
       gradientTransform="matrix(2.827672,-2.8518669,3.1382469,3.1116204,-4651.8885,-3868.6472)"
       gradientUnits="userSpaceOnUse"
       id="radialGradient3918"
       xlink:href="#linearGradient2450"
       inkscape:collect="always" />
  </defs>
  <sodipodi:namedview
     pagecolor="#ffffff"
     bordercolor="#666666"
     borderopacity="1"
     objecttolerance="10"
     gridtolerance="10"
     guidetolerance="10"
     inkscape:pageopacity="0"
     inkscape:pageshadow="2"
     inkscape:window-width="1920"
     inkscape:window-height="1053"
     id="namedview22"
     showgrid="false"
     inkscape:zoom="7.375"
     inkscape:cx="51.80122"
     inkscape:cy="27.228395"
     inkscape:window-x="0"
     inkscape:window-y="0"
     inkscape:window-maximized="1"
     inkscape:current-layer="svg20" />
  <g
     id="g1439"
     transform="translate(-123.13289,-0.818359)">
    <rect
       rx="7.4429579"
       ry="7.4429579"
       y="4.8306947"
       x="127.13297"
       height="56"
       width="56"
       id="rect3825"
       style="opacity:1;fill:#212529;fill-opacity:1;fill-rule:nonzero;stroke:none;stroke-width:0.09910201;stroke-linecap:square;stroke-linejoin:round;stroke-miterlimit:4;stroke-dasharray:none;stroke-opacity:1;paint-order:stroke markers fill" />
    <path
       id="rect1241"
       d="m 127.13281,53.375 v 1 c 0,4.123399 3.31996,7.443359 7.44336,7.443359 h 41.11328 c 4.1234,0 7.44336,-3.31996 7.44336,-7.443359 v -1 c 0,4.123399 -3.31996,7.443359 -7.44336,7.443359 h -41.11328 c -4.1234,0 -7.44336,-3.31996 -7.44336,-7.443359 z"
       style="opacity:0.2;fill:#000000;fill-opacity:1;fill-rule:nonzero;stroke:none;stroke-width:0.09910201;stroke-linecap:square;stroke-linejoin:round;stroke-miterlimit:4;stroke-dasharray:none;stroke-opacity:1;paint-order:stroke markers fill"
       inkscape:connector-curvature="0" />
    <path
       inkscape:connector-curvature="0"
       id="rect1263"
       d="m 127.13297,13.260382 v -0.986328 c 0,-4.1233993 3.31996,-7.4433593 7.44336,-7.4433593 h 41.11328 c 4.1234,0 7.44336,3.31996 7.44336,7.4433593 v 0.986328 c 0,-4.1233993 -3.31996,-7.4414063 -7.44336,-7.4414063 h -41.11328 c -4.1234,0 -7.44336,3.318007 -7.44336,7.4414063 z"
       style="opacity:0.2;fill:#ffffff;fill-opacity:1;fill-rule:nonzero;stroke:none;stroke-width:0.09910201;stroke-linecap:square;stroke-linejoin:round;stroke-miterlimit:4;stroke-dasharray:none;stroke-opacity:1;paint-order:stroke markers fill" />
    <g
       transform="matrix(0.28404426,0,0,0.28404426,125.33902,2.2822605)"
       inkscape:label="top_gradient"
       id="layer3">
      <path
         transform="matrix(1.5616767,0,0,1.5616767,443.64614,-2207.6025)"
         d="m -263.25977,1424.6465 c -6.45545,0 -11.48828,5.0328 -11.48828,11.4883 v 92.6855 c 0,6.4555 5.03283,11.4883 11.48828,11.4883 h 92.68555 c 6.45547,0 11.48828,-5.0328 11.48828,-11.4883 v -92.6855 c 0,-6.4555 -5.03281,-11.4883 -11.48828,-11.4883 z"
         id="path3888"
         style="opacity:0.30500004;fill:url(#radialGradient3918);fill-opacity:1;fill-rule:nonzero;stroke:none;stroke-width:0.22341138;stroke-linecap:square;stroke-linejoin:round;stroke-miterlimit:4;stroke-dasharray:none;stroke-opacity:1;paint-order:stroke markers fill"
         xlink:href="#rect2439"
         inkscape:original="M -263.25977 1419.3555 C -272.55538 1419.3555 -280.03906 1426.8392 -280.03906 1436.1348 L -280.03906 1528.8203 C -280.03906 1538.1159 -272.55538 1545.5996 -263.25977 1545.5996 L -170.57422 1545.5996 C -161.2786 1545.5996 -153.79492 1538.1159 -153.79492 1528.8203 L -153.79492 1436.1348 C -153.79492 1426.8392 -161.2786 1419.3555 -170.57422 1419.3555 L -263.25977 1419.3555 z "
         inkscape:radius="-5.291698"
         sodipodi:type="inkscape:offset"
         inkscape:href="#rect2439" />
    </g>
    <g
       transform="translate(61.176104)"
       id="g1257">
      <path
         sodipodi:nodetypes="ssssssccccccssccsccccssccccccccsssssccccc"
         inkscape:connector-curvature="0"
         id="path1251"
         d="m 90.080428,16.779802 c -2.5512,0 -4.61914,2.066903 -4.61914,4.617187 0,2.550285 2.06794,4.619142 4.61914,4.619142 2.55122,0 4.61719,-2.068857 4.61719,-4.619142 0,-2.550284 -2.06597,-4.617187 -4.61719,-4.617187 z m 23.394532,0.830078 c -0.13563,0.0071 -0.2774,0.02572 -0.42578,0.05664 -1.2166,0.253548 -1.68052,1.138982 -1.45508,2.220703 0.86675,4.158988 -1.16754,8.242077 -4.72354,10.16219 -1.04951,0.605547 -1.86805,0.745729 -2.95496,0.876873 h -4.985562 v 24.15039 h 6.123042 c 0.66896,0 1.20899,-0.540023 1.20899,-1.208984 V 34.357927 c 6.42089,-1.964817 10.40275,-8.533604 9.00586,-15.236328 -0.2149,-1.031173 -0.84357,-1.561138 -1.79297,-1.511719 z m -38.427732,0.759766 c -0.17625,-0.0087 -0.36371,-3e-4 -0.56055,0.02344 -1.53652,0.185287 -2.27574,1.138655 -2.0918,2.664062 0.72651,6.02448 4.57161,10.899015 9.7168,13.244141 v 19.566407 c 0,0.668961 0.53807,1.208984 1.20703,1.208984 h 6.12305 V 38.256365 h 8.19531 v -7.330078 h -9.28812 c -1.03071,-0.03544 -1.93719,-0.214404 -2.7351,-0.410194 -4.42593,-1.323717 -7.87272,-5.151641 -8.46116,-10.031213 -0.14774,-1.22514 -0.87178,-2.054599 -2.10546,-2.115234 z m 28.433592,2.384765 c -2.2001,0 -3.982422,1.783111 -3.982422,3.982423 0,2.199311 1.782322,3.982421 3.982422,3.982421 2.20012,0 3.98242,-1.78311 3.98242,-3.982421 0,-2.199312 -1.7823,-3.982423 -3.98242,-3.982423 z M 90.736678,39.551287 v 15.52539 h 6.90039 v -15.52539 z"
         style="opacity:0.2;fill:#000000;fill-opacity:1;stroke-width:0.65977234" />
      <path
         style="fill:#16a085;fill-opacity:1;stroke-width:0.65977234"
         d="m 90.080428,15.779802 c -2.5512,0 -4.61914,2.066903 -4.61914,4.617188 0,2.550284 2.06794,4.619141 4.61914,4.619141 2.55122,0 4.61719,-2.068857 4.61719,-4.619141 0,-2.550285 -2.06597,-4.617188 -4.61719,-4.617188 z m 23.394532,0.830078 c -0.13563,0.0071 -0.2774,0.02572 -0.42578,0.05664 -1.2166,0.253548 -1.68052,1.138982 -1.45508,2.220704 0.86675,4.158987 -1.16754,8.242076 -4.72354,10.162189 -1.04951,0.605547 -1.86805,0.745729 -2.95496,0.876873 h -4.985562 v 24.15039 h 6.123042 c 0.66896,0 1.20899,-0.540023 1.20899,-1.208984 V 33.357927 c 6.42089,-1.964817 10.40275,-8.533604 9.00586,-15.236328 -0.2149,-1.031172 -0.84357,-1.561138 -1.79297,-1.511719 z m -38.427732,0.759766 c -0.17625,-0.0087 -0.36371,-3e-4 -0.56055,0.02344 -1.53652,0.185288 -2.27574,1.138656 -2.0918,2.664063 0.72651,6.024479 4.57161,10.899014 9.7168,13.24414 v 19.566407 c 0,0.668961 0.53807,1.208984 1.20703,1.208984 h 6.12305 V 37.256365 h 8.19531 v -7.330078 h -9.28812 c -1.03071,-0.03544 -1.93719,-0.214404 -2.7351,-0.410194 -4.42593,-1.323717 -7.87272,-5.151641 -8.46116,-10.031213 -0.14774,-1.225139 -0.87178,-2.054599 -2.10546,-2.115234 z m 28.433592,2.384766 c -2.2001,0 -3.982422,1.78311 -3.982422,3.982422 0,2.199311 1.782322,3.982421 3.982422,3.982421 2.20012,0 3.98242,-1.78311 3.98242,-3.982421 0,-2.199312 -1.7823,-3.982422 -3.98242,-3.982422 z M 90.736678,38.551287 v 15.52539 h 6.90039 v -15.52539 z"
         id="path1253"
         inkscape:connector-curvature="0"
         sodipodi:nodetypes="ssssssccccccssccsccccssccccccccsssssccccc" />
      <path
         inkscape:connector-curvature="0"
         id="path1255"
         d="m 90.080078,15.779297 c -2.5512,0 -4.619141,2.066902 -4.61914,4.617187 0,0.171105 0.03264,0.33371 0.05078,0.5 0.252686,-2.311521 2.188681,-4.117187 4.568359,-4.117187 2.379697,0 4.31395,1.805666 4.566406,4.117187 0.01812,-0.16629 0.05078,-0.328895 0.05078,-0.5 0,-2.550285 -2.065968,-4.617187 -4.617188,-4.617187 z m 23.394532,0.830078 c -0.13563,0.0071 -0.2774,0.02572 -0.42578,0.05664 -1.2166,0.253548 -1.68052,1.138981 -1.45508,2.220703 0.003,0.01236 0.003,0.02475 0.006,0.03711 0.15184,-0.618479 0.62312,-1.085647 1.44922,-1.257812 0.14838,-0.03092 0.29015,-0.04954 0.42578,-0.05664 0.9494,-0.04942 1.57807,0.480547 1.79297,1.511719 0.15103,0.724717 0.22687,1.446174 0.25586,2.162109 0.0376,-1.039639 -0.0341,-2.097821 -0.25586,-3.162109 -0.2149,-1.031172 -0.84357,-1.561138 -1.79297,-1.511719 z m -38.427735,0.759766 c -0.17625,-0.0087 -0.363707,-3.03e-4 -0.560547,0.02344 -1.53652,0.185288 -2.275737,1.138656 -2.091797,2.664063 0.0044,0.03616 0.01104,0.07135 0.01563,0.107421 0.161426,-0.999522 0.868435,-1.625844 2.076172,-1.771484 0.19684,-0.02374 0.384297,-0.03214 0.560547,-0.02344 1.23368,0.06064 1.957729,0.890095 2.105469,2.115234 0.58844,4.879572 4.035007,8.707533 8.460937,10.03125 0.79791,0.19579 1.705618,0.374716 2.736328,0.410156 h 9.28711 v -1 h -9.28711 c -1.03071,-0.03544 -1.938418,-0.214366 -2.736328,-0.410156 -4.42593,-1.323717 -7.872497,-5.151678 -8.460937,-10.03125 -0.14774,-1.225139 -0.871789,-2.054599 -2.105469,-2.115234 z m 28.433595,2.384765 c -2.2001,0 -3.982423,1.78311 -3.982423,3.982422 0,0.171225 0.02982,0.334466 0.05078,0.5 0.248289,-1.960686 1.902833,-3.482422 3.931643,-3.482422 2.02879,0 3.6833,1.521794 3.93164,3.482422 0.021,-0.165573 0.0508,-0.328733 0.0508,-0.5 0,-2.199312 -1.7823,-3.982422 -3.98242,-3.982422 z m 8.29492,1.566406 c -0.17907,3.25035 -2.04902,6.18677 -4.9043,7.728516 -1.04951,0.605547 -1.86816,0.745809 -2.95507,0.876953 h -4.986332 v 1 h 4.986332 c 1.08691,-0.131144 1.90556,-0.271406 2.95507,-0.876953 3.14574,-1.698586 5.09513,-5.089425 4.9043,-8.728516 z M 90.736328,38.550781 v 1 h 6.900391 v -1 z"
         style="opacity:0.2;fill:#ffffff;fill-opacity:1;stroke-width:0.65977234" />
    </g>
  </g>
</svg>
