<?xml version="1.0" encoding="UTF-8" standalone="no"?>
<!-- Created with Inkscape (http://www.inkscape.org/) -->

<svg
   xmlns:dc="http://purl.org/dc/elements/1.1/"
   xmlns:cc="http://creativecommons.org/ns#"
   xmlns:rdf="http://www.w3.org/1999/02/22-rdf-syntax-ns#"
   xmlns:svg="http://www.w3.org/2000/svg"
   xmlns="http://www.w3.org/2000/svg"
   xmlns:xlink="http://www.w3.org/1999/xlink"
   xmlns:sodipodi="http://sodipodi.sourceforge.net/DTD/sodipodi-0.dtd"
   xmlns:inkscape="http://www.inkscape.org/namespaces/inkscape"
   width="64"
   version="1.1"
   height="64"
   id="svg2"
   inkscape:version="0.91 r13725"
   sodipodi:docname="desktop.svg">
  <metadata
     id="metadata44">
    <rdf:RDF>
      <cc:Work
         rdf:about="">
        <dc:format>image/svg+xml</dc:format>
        <dc:type
           rdf:resource="http://purl.org/dc/dcmitype/StillImage" />
        <dc:title></dc:title>
      </cc:Work>
    </rdf:RDF>
  </metadata>
  <sodipodi:namedview
     pagecolor="#ffffff"
     bordercolor="#666666"
     borderopacity="1"
     objecttolerance="10"
     gridtolerance="10"
     guidetolerance="10"
     inkscape:pageopacity="0"
     inkscape:pageshadow="2"
     inkscape:window-width="1920"
     inkscape:window-height="1015"
     id="namedview42"
     showgrid="true"
     inkscape:object-nodes="true"
     inkscape:zoom="5.2149125"
     inkscape:cx="22.48075"
     inkscape:cy="37.144913"
     inkscape:window-x="0"
     inkscape:window-y="0"
     inkscape:window-maximized="1"
     inkscape:current-layer="layer1">
    <inkscape:grid
       type="xygrid"
       id="grid4172" />
  </sodipodi:namedview>
  <defs
     id="defs5455">
    <linearGradient
       gradientTransform="matrix(0.03851846,0,0,0.03851846,407.16085,483.29643)"
       inkscape:collect="always"
       xlink:href="#linearGradient25271"
       id="linearGradient25261"
       x1="-585.14001"
       y1="96.50795"
       x2="308.34354"
       y2="842.29987"
       gradientUnits="userSpaceOnUse" />
    <linearGradient
       inkscape:collect="always"
       id="linearGradient25271">
      <stop
         style="stop-color:#01775c;stop-opacity:1"
         offset="0"
         id="stop25273" />
      <stop
         style="stop-color:#2ecca9;stop-opacity:1"
         offset="1"
         id="stop25275" />
    </linearGradient>
    <filter
       id="filter4434"
       inkscape:label="Drop Shadow"
       style="color-interpolation-filters:sRGB">
      <feFlood
         id="feFlood4436"
         result="flood"
         flood-color="rgb(0,0,0)"
         flood-opacity="0.20000000000000004" />
      <feComposite
         id="feComposite4438"
         result="composite1"
         operator="in"
         in2="SourceGraphic"
         in="flood" />
      <feGaussianBlur
         id="feGaussianBlur4440"
         result="blur"
         stdDeviation="7"
         in="composite1" />
      <feOffset
         id="feOffset4442"
         result="offset"
         dy="6"
         dx="6" />
      <feComposite
         id="feComposite4444"
         result="composite2"
         operator="over"
         in2="offset"
         in="SourceGraphic" />
    </filter>
    <linearGradient
       gradientTransform="matrix(0.01942125,0,0,0.01942125,408.9213,512.30118)"
       inkscape:collect="always"
       xlink:href="#linearGradient25263"
       id="linearGradient25269"
       x1="-439.2088"
       y1="1588.8325"
       x2="840.95941"
       y2="938.87457"
       gradientUnits="userSpaceOnUse" />
    <linearGradient
       inkscape:collect="always"
       id="linearGradient25263">
      <stop
         style="stop-color:#2568a2;stop-opacity:1"
         offset="0"
         id="stop25265" />
      <stop
         style="stop-color:#52b3d9;stop-opacity:1"
         offset="1"
         id="stop25267" />
    </linearGradient>
    <filter
       id="filter4422"
       inkscape:label="Drop Shadow"
       style="color-interpolation-filters:sRGB">
      <feFlood
         id="feFlood4424"
         result="flood"
         flood-color="rgb(0,0,0)"
         flood-opacity="0.30000000000000004" />
      <feComposite
         id="feComposite4426"
         result="composite1"
         operator="in"
         in2="SourceGraphic"
         in="flood" />
      <feGaussianBlur
         id="feGaussianBlur4428"
         result="blur"
         stdDeviation="12"
         in="composite1" />
      <feOffset
         id="feOffset4430"
         result="offset"
         dy="6"
         dx="6" />
      <feComposite
         id="feComposite4432"
         result="composite2"
         operator="over"
         in2="offset"
         in="SourceGraphic" />
    </filter>
    <filter
       id="filter4326"
       inkscape:label="Drop Shadow"
       style="color-interpolation-filters:sRGB">
      <feFlood
         id="feFlood4328"
         result="flood"
         flood-color="rgb(0,0,0)"
         flood-opacity="0.20000000000000004" />
      <feComposite
         id="feComposite4330"
         result="composite1"
         operator="in"
         in2="SourceGraphic"
         in="flood" />
      <feGaussianBlur
         id="feGaussianBlur4332"
         result="blur"
         stdDeviation="7"
         in="composite1" />
      <feOffset
         id="feOffset4334"
         result="offset"
         dy="6"
         dx="6" />
      <feComposite
         id="feComposite4336"
         result="composite2"
         operator="over"
         in2="offset"
         in="SourceGraphic" />
    </filter>
    <linearGradient
       inkscape:collect="always"
       xlink:href="#linearGradient17649"
       id="linearGradient17623"
       x1="617.85614"
       y1="1271.7074"
       x2="2337.4136"
       y2="-433.87378"
       gradientUnits="userSpaceOnUse"
       gradientTransform="matrix(0.03020833,0,0,0.04814815,387.57141,489.79798)" />
    <linearGradient
       id="linearGradient17649"
       inkscape:collect="always">
      <stop
         id="stop17651"
         offset="0"
         style="stop-color:#08977f;stop-opacity:1" />
      <stop
         id="stop17653"
         offset="1"
         style="stop-color:#00d7cb;stop-opacity:1" />
    </linearGradient>
  </defs>
  <g
     inkscape:label="Capa 1"
     inkscape:groupmode="layer"
     id="layer1"
     transform="matrix(1 0 0 1 -384.57143 -483.798)">
    <rect
       style="fill:url(#linearGradient17623);fill-opacity:1"
       id="rect17256"
       width="58"
       height="52"
       x="387.57144"
       y="489.79803" />
    <path
       style="fill:url(#linearGradient25269);fill-opacity:1;fill-rule:evenodd;stroke:none;stroke-width:0.99595213px;stroke-linecap:butt;stroke-linejoin:miter;stroke-opacity:1"
       d="m 432.57143,541.798 -18,-20 -15.52722,20 z"
       id="path4152"
       inkscape:connector-curvature="0"
       sodipodi:nodetypes="cccc" />
    <path
       sodipodi:nodetypes="cccc"
       inkscape:connector-curvature="0"
       id="rect3349"
       d="m 387.57145,489.79799 39.99998,10e-6 -39.99998,52.00053 z"
       style="fill:url(#linearGradient25261);fill-opacity:1;fill-rule:evenodd;stroke:none;stroke-width:0.99595213px;stroke-linecap:butt;stroke-linejoin:miter;stroke-opacity:1" />
    <path
       sodipodi:nodetypes="ccccc"
       inkscape:connector-curvature="0"
       id="rect4158"
       d="m 439.04421,489.798 -11.47278,0 -40,52 11.47278,0 z"
       style="fill:#292e32;fill-opacity:1;stroke:none" />
    <g
       id="g4255">
      <path
         inkscape:connector-curvature="0"
         style="fill:#292f34;fill-opacity:0.92156863"
         id="rect4128"
         d="m 387.57143,537.798 0,3.2 0,0.8 1,0 56,0 1,0 0,-0.8 0,-3.2 -58,0 z" />
      <g
         id="text4213"
         transform="matrix(0.64829823 0 0 0.64829823 155.63174 190.06072)"
         style="fill:#ffffff">
        <path
           inkscape:connector-curvature="0"
           id="path4218"
           d="m 434.23853,537.83412 c -0.15893,0.11003 -0.36677,0.22414 -0.54201,0.30157 l 0.0734,0.28934 c 0.14264,-0.0448 0.27305,-0.12225 0.43198,-0.22414 l 0,2.60819 0.35455,0 0,-2.97496 -0.31787,0 z"
           style="fill:#ffffff" />
        <path
           inkscape:connector-curvature="0"
           id="path4220"
           d="m 435.20119,538.03381 0.11819,0.29749 c 0.16708,-0.17116 0.41568,-0.24452 0.66427,-0.24452 0.33825,0 0.52571,0.18747 0.52571,0.51757 l 0,0.0204 c -0.004,0.2323 -0.15486,0.46051 -0.38715,0.71726 l -1.02697,1.14108 0.0448,0.32602 1.74016,0 0.0245,-0.30565 -1.38153,0 0.83951,-0.89656 c 0.32603,-0.35048 0.52572,-0.63575 0.52979,-1.01067 l 0,-0.0122 c 0,-0.48904 -0.34232,-0.81098 -0.88434,-0.81098 -0.38715,0 -0.63982,0.10595 -0.80691,0.26082 z"
           style="fill:#ffffff" />
        <path
           inkscape:connector-curvature="0"
           id="path4222"
           d="m 437.42599,540.85799 0.4116,0 0,-0.46459 -0.4116,0 0,0.46459 z m 0,-1.82574 0.4116,0 0,-0.46051 -0.4116,0 0,0.46051 z"
           style="fill:#ffffff" />
        <path
           inkscape:connector-curvature="0"
           id="path4224"
           d="m 439.75394,539.98995 c 0,0.3627 -0.2649,0.56239 -0.65613,0.56239 -0.30157,0 -0.50941,-0.0978 -0.6602,-0.21599 l -0.1141,0.28934 c 0.11003,0.10596 0.39122,0.22822 0.77838,0.22822 0.57869,0 1.00252,-0.3301 1.00252,-0.85989 0,-0.41975 -0.23229,-0.68872 -0.59499,-0.77023 0.32195,-0.0978 0.52164,-0.3301 0.52164,-0.71317 0,-0.47681 -0.41161,-0.73763 -0.85174,-0.73763 -0.41161,0 -0.6765,0.0897 -0.85581,0.22821 l 0.1141,0.28935 c 0.15894,-0.12634 0.39123,-0.21192 0.66428,-0.21192 0.35047,0 0.54609,0.14671 0.54609,0.47681 0,0.46866 -0.43198,0.52164 -0.88842,0.52164 l 0,0.29342 c 0.55424,0 0.99438,0.0856 0.99438,0.61945 z"
           style="fill:#ffffff" />
        <path
           inkscape:connector-curvature="0"
           id="path4226"
           d="m 441.86538,538.2824 0,1.49971 -0.99437,0 0.99437,-1.49971 z m 0.67243,1.78905 0.0285,-0.28934 -0.36678,0 0,-1.94799 -0.37085,0 -1.30817,1.93169 0,0.30564 1.34484,0 0,0.73763 0.33418,0 0,-0.73763 0.33825,0 z"
           style="fill:#ffffff" />
      </g>
      <path
         inkscape:connector-curvature="0"
         style="color:#000000;fill:#ffffff"
         id="path2994"
         d="m 391.07143,538.69839 a 0.16666666,0.16666666 0 0 0 -0.16667,0.16667 0.16666666,0.16666666 0 0 0 0.16667,0.16667 0.16666666,0.16666666 0 0 0 0.16666,-0.16667 0.16666666,0.16666666 0 0 0 -0.16666,-0.16667 z m 0.83333,0 -0.32292,0.26042 0.43229,0.53646 -0.40625,0.40625 0.29688,0.29687 0.66667,-0.66667 -0.66667,-0.83333 z m -1.08333,0.66667 a 0.25,0.25 0 0 0 -0.25,0.25 0.25,0.25 0 0 0 0.25,0.25 0.25,0.25 0 0 0 0.25,-0.25 0.25,0.25 0 0 0 -0.25,-0.25 z m 0.5,0.83333 a 0.25,0.25 0 0 0 -0.25,0.25 0.25,0.25 0 0 0 0.25,0.25 0.25,0.25 0 0 0 0.25,-0.25 0.25,0.25 0 0 0 -0.25,-0.25 z" />
    </g>
  </g>
</svg>
