<?xml version="1.0" encoding="UTF-8" standalone="no"?>
<svg
   xmlns:dc="http://purl.org/dc/elements/1.1/"
   xmlns:cc="http://creativecommons.org/ns#"
   xmlns:rdf="http://www.w3.org/1999/02/22-rdf-syntax-ns#"
   xmlns:svg="http://www.w3.org/2000/svg"
   xmlns="http://www.w3.org/2000/svg"
   xmlns:sodipodi="http://sodipodi.sourceforge.net/DTD/sodipodi-0.dtd"
   xmlns:inkscape="http://www.inkscape.org/namespaces/inkscape"
   width="16"
   height="16"
   version="1.1"
   id="svg4"
   sodipodi:docname="package-refresh-symbolic2.svg"
   inkscape:version="0.92.4 5da689c313, 2019-01-14">
  <metadata
     id="metadata10">
    <rdf:RDF>
      <cc:Work
         rdf:about="">
        <dc:format>image/svg+xml</dc:format>
        <dc:type
           rdf:resource="http://purl.org/dc/dcmitype/StillImage" />
        <dc:title></dc:title>
      </cc:Work>
    </rdf:RDF>
  </metadata>
  <defs
     id="defs8" />
  <sodipodi:namedview
     pagecolor="#ffffff"
     bordercolor="#666666"
     borderopacity="1"
     objecttolerance="10"
     gridtolerance="10"
     guidetolerance="10"
     inkscape:pageopacity="0"
     inkscape:pageshadow="2"
     inkscape:window-width="1920"
     inkscape:window-height="1053"
     id="namedview6"
     showgrid="false"
     inkscape:zoom="45.254834"
     inkscape:cx="4.8879173"
     inkscape:cy="5.1532759"
     inkscape:window-x="0"
     inkscape:window-y="0"
     inkscape:window-maximized="1"
     inkscape:current-layer="svg4" />
  <path
     style="fill:#dfdfdf;fill-opacity:1;opacity:0.3"
     d="M 8,0 1,3.5 v 3.460977 l 7,3.5 V 7 l -5,-2.25 5,-2.5 5,2.5 v 3.2890625 c 0.715747,0.080256 1.401699,0.3314587 2,0.7324219 V 3.5 Z"
     id="path2"
     inkscape:connector-curvature="0"
     sodipodi:nodetypes="cccccccccccc" />
  <path
     style="fill:#dfdfdf;stroke-width:0.63636363;fill-opacity:1;opacity:0.3"
     d="M 1.1933594 10.716797 C 1.0790823 10.707833 1 10.781858 1 10.914062 L 1 12.185547 C 1 12.36182 1.1420864 12.575926 1.3183594 12.664062 L 2.5917969 13.298828 C 2.7680699 13.386964 2.9082031 13.316898 2.9082031 13.140625 L 2.9082031 11.867188 C 2.9082031 11.690915 2.7680699 11.478765 2.5917969 11.390625 L 1.3183594 10.753906 C 1.2742911 10.731872 1.2314517 10.719785 1.1933594 10.716797 z M 3.7402344 11.990234 C 3.6259572 11.98127 3.5449219 12.053342 3.5449219 12.185547 L 3.5449219 13.458984 C 3.5449219 13.635257 3.6870073 13.847407 3.8632812 13.935547 L 5.1367188 14.572266 C 5.3129927 14.660403 5.4550781 14.590336 5.4550781 14.414062 L 5.4550781 13.140625 C 5.4550781 12.964352 5.3129928 12.752202 5.1367188 12.664062 L 3.8632812 12.027344 C 3.8192127 12.005309 3.7783268 11.993222 3.7402344 11.990234 z M 6.2851562 13.261719 C 6.1708792 13.252755 6.0917969 13.32678 6.0917969 13.458984 L 6.0917969 14.732422 C 6.0917969 14.908695 6.2319301 15.120844 6.4082031 15.208984 L 7.6816406 15.845703 C 7.8579136 15.933839 8 15.86182 8 15.685547 L 8 14.414062 C 8 14.237789 7.8579136 14.023683 7.6816406 13.935547 L 6.4082031 13.298828 C 6.3641349 13.276794 6.3232486 13.264707 6.2851562 13.261719 z "
     id="path845" />
  <path
     style="fill:#dfdfdf;stroke-width:0.51784199;fill-opacity:1;opacity:1"
     d="M 2.3789062 8.6464844 C 2.3321063 8.6698844 2.3046875 8.7192944 2.3046875 8.7910156 L 2.3046875 9.8261719 C 2.3046875 9.9696143 2.4190575 10.143124 2.5625 10.214844 L 3.5976562 10.732422 C 3.7410988 10.804143 3.8574219 10.746958 3.8574219 10.603516 L 3.8574219 9.5683594 C 3.8574219 9.4249166 3.7410987 9.2514115 3.5976562 9.1796875 L 2.5625 8.6621094 C 2.4907788 8.6262488 2.4257062 8.6230844 2.3789062 8.6464844 z M 4.4511719 9.6816406 C 4.404372 9.7050407 4.375 9.7544507 4.375 9.8261719 L 4.375 10.863281 C 4.375 11.006723 4.4913224 11.180232 4.6347656 11.251953 L 5.6699219 11.769531 C 5.8133652 11.841253 5.9277344 11.782114 5.9277344 11.638672 L 5.9277344 10.603516 C 5.9277344 10.460074 5.8133652 10.286564 5.6699219 10.214844 L 4.6347656 9.6972656 C 4.563044 9.6614045 4.4979717 9.6582406 4.4511719 9.6816406 z M 6.5214844 10.716797 C 6.4746844 10.740197 6.4472656 10.79156 6.4472656 10.863281 L 6.4472656 11.898438 C 6.4472656 12.04188 6.5616357 12.215389 6.7050781 12.287109 L 7.7402344 12.804688 C 7.883677 12.876408 8 12.819223 8 12.675781 L 8 12.158203 L 8 11.638672 C 8 11.495228 7.883677 11.323675 7.7402344 11.251953 L 6.7050781 10.732422 C 6.6333569 10.696561 6.5682844 10.693397 6.5214844 10.716797 z "
     id="path839" />
  <path
     inkscape:connector-curvature="0"
     style="fill:#dfdfdf;fill-opacity:1;stroke-width:0.51412427"
     d="M 10.648999,10.032503 A 3.0847457,3.0847457 0 0 0 9.47042,11.938551 l 0.992944,0.289456 a 2.0564971,2.0564971 0 0 1 0.802718,-1.373006 2.0564971,2.0564971 0 0 1 2.879162,0.410835 l -0.8225,0.617082 2.467913,0.719376 -4.16e-4,-2.570622 -0.822498,0.617082 a 3.0847457,3.0847457 0 0 0 -4.318744,-0.616251 z m -1.4391655,2.365203 4.149e-4,2.570622 0.8224986,-0.617082 a 3.0847457,3.0847457 0 0 0 4.318744,0.616251 3.0847457,3.0847457 0 0 0 1.178682,-1.906254 l -0.993644,-0.288675 a 2.0564971,2.0564971 0 0 1 -0.80212,1.372431 2.0564971,2.0564971 0 0 1 -2.879163,-0.410835 l 0.822499,-0.617082 z"
     id="path2-6" />
</svg>
