<?xml version="1.0" encoding="UTF-8" standalone="no"?>
<!-- Created with Inkscape (http://www.inkscape.org/) -->

<svg
   xmlns:dc="http://purl.org/dc/elements/1.1/"
   xmlns:cc="http://creativecommons.org/ns#"
   xmlns:rdf="http://www.w3.org/1999/02/22-rdf-syntax-ns#"
   xmlns:svg="http://www.w3.org/2000/svg"
   xmlns="http://www.w3.org/2000/svg"
   xmlns:xlink="http://www.w3.org/1999/xlink"
   xmlns:sodipodi="http://sodipodi.sourceforge.net/DTD/sodipodi-0.dtd"
   xmlns:inkscape="http://www.inkscape.org/namespaces/inkscape"
   width="32"
   version="1.1"
   height="32"
   id="svg2"
   inkscape:version="0.91 r13725"
   sodipodi:docname="preferences-desktop-screensaver.svg">
  <sodipodi:namedview
     pagecolor="#ffffff"
     bordercolor="#666666"
     borderopacity="1"
     objecttolerance="10"
     gridtolerance="10"
     guidetolerance="10"
     inkscape:pageopacity="0"
     inkscape:pageshadow="2"
     inkscape:window-width="1920"
     inkscape:window-height="1011"
     id="namedview61"
     showgrid="false"
     inkscape:zoom="7.375"
     inkscape:cx="16"
     inkscape:cy="16"
     inkscape:window-x="0"
     inkscape:window-y="0"
     inkscape:window-maximized="1"
     inkscape:current-layer="layer1" />
  <defs
     id="defs5455">
    <linearGradient
       inkscape:collect="always"
       xlink:href="#linearGradient4303"
       id="linearGradient4346"
       y1="542.79797"
       y2="538.79797"
       x2="0"
       gradientUnits="userSpaceOnUse"
       gradientTransform="matrix(1 0 0 1 -0.00007 2)" />
    <linearGradient
       inkscape:collect="always"
       id="linearGradient4303">
      <stop
         style="stop-color:#c6cdd1"
         id="stop4305" />
      <stop
         offset="1"
         style="stop-color:#e0e5e7"
         id="stop4307" />
    </linearGradient>
    <linearGradient
       inkscape:collect="always"
       xlink:href="#linearGradient4293"
       id="linearGradient4173"
       y1="519.79797"
       x1="393.57144"
       y2="536.79797"
       x2="410.57144"
       gradientUnits="userSpaceOnUse" />
    <linearGradient
       inkscape:collect="always"
       id="linearGradient4293">
      <stop
         id="stop4295" />
      <stop
         offset="1"
         style="stop-opacity:0"
         id="stop4297" />
    </linearGradient>
    <linearGradient
       inkscape:collect="always"
       xlink:href="#linearGradient4159"
       id="linearGradient4338"
       y1="538.79797"
       y2="519.79797"
       x2="0"
       gradientUnits="userSpaceOnUse"
       gradientTransform="matrix(1 0 0 1.2105271 -3.00004 -111.43158)" />
    <linearGradient
       inkscape:collect="always"
       id="linearGradient4159">
      <stop
         style="stop-color:#2a2c2f"
         id="stop4161" />
      <stop
         offset="1"
         style="stop-color:#424649"
         id="stop4163" />
    </linearGradient>
    <linearGradient
       inkscape:collect="always"
       id="linearGradient4219">
      <stop
         style="stop-color:#c3ced7"
         id="stop4221" />
      <stop
         offset="1"
         style="stop-color:#e2f4f4"
         id="stop4223" />
    </linearGradient>
    <linearGradient
       inkscape:collect="always"
       xlink:href="#linearGradient4219"
       id="linearGradient4479"
       y1="533.79797"
       y2="521.79797"
       x2="0"
       gradientUnits="userSpaceOnUse"
       gradientTransform="matrix(1 0 0 1 -384.57143 -515.798)" />
    <linearGradient
       inkscape:collect="always"
       xlink:href="#linearGradient4293"
       id="linearGradient4279"
       y1="4.999974"
       x1="9"
       y2="19"
       x2="23.00003"
       gradientUnits="userSpaceOnUse" />
    <linearGradient
       inkscape:collect="always"
       xlink:href="#linearGradient17649"
       id="linearGradient17623"
       x1="617.85614"
       y1="1271.7074"
       x2="2337.4136"
       y2="-433.87378"
       gradientUnits="userSpaceOnUse"
       gradientTransform="matrix(0.03020833,0,0,0.04814815,387.57141,489.79798)" />
    <linearGradient
       id="linearGradient17649"
       inkscape:collect="always">
      <stop
         id="stop17651"
         offset="0"
         style="stop-color:#08977f;stop-opacity:1" />
      <stop
         id="stop17653"
         offset="1"
         style="stop-color:#00d7cb;stop-opacity:1" />
    </linearGradient>
    <linearGradient
       gradientTransform="matrix(0.01942125,0,0,0.01942125,408.9213,512.30118)"
       inkscape:collect="always"
       xlink:href="#linearGradient25263"
       id="linearGradient25269"
       x1="-439.2088"
       y1="1588.8325"
       x2="840.95941"
       y2="938.87457"
       gradientUnits="userSpaceOnUse" />
    <linearGradient
       inkscape:collect="always"
       id="linearGradient25263">
      <stop
         style="stop-color:#2568a2;stop-opacity:1"
         offset="0"
         id="stop25265" />
      <stop
         style="stop-color:#52b3d9;stop-opacity:1"
         offset="1"
         id="stop25267" />
    </linearGradient>
    <linearGradient
       gradientTransform="matrix(0.03851846,0,0,0.03851846,407.16085,483.29643)"
       inkscape:collect="always"
       xlink:href="#linearGradient25271"
       id="linearGradient25261"
       x1="-585.14001"
       y1="96.50795"
       x2="308.34354"
       y2="842.29987"
       gradientUnits="userSpaceOnUse" />
    <linearGradient
       inkscape:collect="always"
       id="linearGradient25271">
      <stop
         style="stop-color:#01775c;stop-opacity:1"
         offset="0"
         id="stop25273" />
      <stop
         style="stop-color:#2ecca9;stop-opacity:1"
         offset="1"
         id="stop25275" />
    </linearGradient>
  </defs>
  <metadata
     id="metadata5458">
    <rdf:RDF>
      <cc:Work
         rdf:about="">
        <dc:format>image/svg+xml</dc:format>
        <dc:type
           rdf:resource="http://purl.org/dc/dcmitype/StillImage" />
      </cc:Work>
    </rdf:RDF>
  </metadata>
  <g
     inkscape:label="Capa 1"
     inkscape:groupmode="layer"
     id="layer1"
     transform="matrix(1 0 0 1 -384.57143 -515.798)">
    <g
       transform="matrix(0.51724128,0,0,0.34615025,185.10349,349.2543)"
       id="g4177">
      <rect
         y="489.79803"
         x="387.57144"
         height="52"
         width="58"
         id="rect17256"
         style="fill:url(#linearGradient17623);fill-opacity:1" />
      <path
         sodipodi:nodetypes="cccc"
         inkscape:connector-curvature="0"
         id="path4152"
         d="m 432.57143,541.798 -18,-20 -15.52722,20 z"
         style="fill:url(#linearGradient25269);fill-opacity:1;fill-rule:evenodd;stroke:none;stroke-width:0.99595213px;stroke-linecap:butt;stroke-linejoin:miter;stroke-opacity:1" />
      <path
         style="fill:url(#linearGradient25261);fill-opacity:1;fill-rule:evenodd;stroke:none;stroke-width:0.99595213px;stroke-linecap:butt;stroke-linejoin:miter;stroke-opacity:1"
         d="m 387.57145,489.79799 39.99998,10e-6 -39.99998,52.00053 z"
         id="rect3349"
         inkscape:connector-curvature="0"
         sodipodi:nodetypes="cccc" />
      <path
         style="fill:#292e32;fill-opacity:1;stroke:none"
         d="m 439.04421,489.798 -11.47278,0 -40,52 11.47278,0 z"
         id="rect4158"
         inkscape:connector-curvature="0"
         sodipodi:nodetypes="ccccc" />
    </g>
    <rect
       width="6"
       x="397.57144"
       y="540.79797"
       height="4"
       style="fill:url(#linearGradient4346)"
       id="rect4321" />
    <rect
       width="12"
       x="394.57144"
       y="544.79797"
       height="1"
       style="fill:#99a1a7"
       id="rect4323" />
    <path
       inkscape:connector-curvature="0"
       style="fill:url(#linearGradient4173);opacity:0.2;fill-rule:evenodd"
       id="path4165"
       d="m 385.57143,536.79801 4,4 27,0 0,-21 -1,-1 0,18 z" />
    <path
       inkscape:connector-curvature="0"
       style="fill:url(#linearGradient4338)"
       id="rect4319"
       d="m 384.57143,517.79801 0,23 32,0 0,-23 -32,0 z m 1,1 30,0 0,18 -30,0 0,-18 z" />
    <flowRoot
       line-height="125%"
       style="font-size:10;font-family:sans-serif"
       id="flowRoot4170"
       transform="matrix(1 0 0 1 389.57142 520.79806)">
      <flowRegion
         id="flowRegion4172">
        <rect
           width="27"
           x="22"
           y="3"
           height="15"
           id="rect4174" />
      </flowRegion>
      <flowPara
         id="flowPara4176">Plasm</flowPara>
    </flowRoot>
    <path
       style="fill:url(#linearGradient4279);opacity:0.2;fill-rule:evenodd"
       id="path4268"
       d="M 16 5 L 16 6 L 15 6 L 14 7 L 13 8 L 13 9 L 16 12 L 13 12 L 12 12 L 11 12 L 11 19 L 17 25 L 27 25 L 32 25 L 32 20 L 18 6 L 16 5 z "
       transform="matrix(1 0 0 1 384.57143 515.798)" />
    <path
       style="fill:url(#linearGradient4479)"
       id="rect4136-1"
       d="M 16 5 C 14.338 5 13 6.338 13 8 L 13 9 L 14 9 L 14 8 C 14 6.5458 14.75351 6 16 6 C 17.2465 6 18 6.5458 18 8 L 18 12 L 16 12 L 14 12 L 13 12 L 12 12 L 11 12 L 11 12.75 L 11 19 L 21 19 L 21 12 L 19 12 L 19 8 C 19 6.338 17.662 5 16 5 z M 12 13 L 20 13 L 20 18 L 12 18 L 12 13 z "
       transform="matrix(1 0 0 1 384.57143 515.798)" />
  </g>
</svg>
