<?xml version="1.0" encoding="UTF-8" standalone="no"?>
<svg
   xmlns:dc="http://purl.org/dc/elements/1.1/"
   xmlns:cc="http://creativecommons.org/ns#"
   xmlns:rdf="http://www.w3.org/1999/02/22-rdf-syntax-ns#"
   xmlns:svg="http://www.w3.org/2000/svg"
   xmlns="http://www.w3.org/2000/svg"
   xmlns:xlink="http://www.w3.org/1999/xlink"
   xmlns:sodipodi="http://sodipodi.sourceforge.net/DTD/sodipodi-0.dtd"
   xmlns:inkscape="http://www.inkscape.org/namespaces/inkscape"
   width="48"
   height="48"
   id="svg2"
   version="1.1"
   inkscape:version="0.91 r13725"
   sodipodi:docname="breeze-settings.svg">
  <metadata
     id="metadata127">
    <rdf:RDF>
      <cc:Work
         rdf:about="">
        <dc:format>image/svg+xml</dc:format>
        <dc:type
           rdf:resource="http://purl.org/dc/dcmitype/StillImage" />
        <dc:title />
      </cc:Work>
    </rdf:RDF>
  </metadata>
  <sodipodi:namedview
     pagecolor="#ffffff"
     bordercolor="#666666"
     borderopacity="1"
     objecttolerance="10"
     gridtolerance="10"
     guidetolerance="10"
     inkscape:pageopacity="0"
     inkscape:pageshadow="2"
     inkscape:window-width="1920"
     inkscape:window-height="1011"
     id="namedview125"
     showgrid="true"
     inkscape:object-nodes="true"
     inkscape:zoom="6.9532167"
     inkscape:cx="11.252473"
     inkscape:cy="15.452256"
     inkscape:window-x="0"
     inkscape:window-y="0"
     inkscape:window-maximized="1"
     inkscape:current-layer="svg2">
    <inkscape:grid
       type="xygrid"
       id="grid4334" />
  </sodipodi:namedview>
  <defs
     id="defs4">
    <linearGradient
       id="a"
       y1="22"
       y2="8"
       x2="0"
       gradientUnits="userSpaceOnUse"
       gradientTransform="translate(342.57,508.8)">
      <stop
         stop-color="#2e3436"
         id="stop7" />
      <stop
         offset="1"
         stop-color="#555753"
         id="stop9" />
    </linearGradient>
    <linearGradient
       id="b"
       y1="15"
       x1="16"
       y2="39"
       x2="40"
       gradientUnits="userSpaceOnUse"
       gradientTransform="translate(-50,0)">
      <stop
         stop-color="#383e51"
         id="stop12" />
      <stop
         offset="1"
         stop-color="#655c6f"
         stop-opacity="0"
         id="stop14" />
    </linearGradient>
    <linearGradient
       id="c"
       y1="543.8"
       y2="502.66"
       x2="0"
       gradientUnits="userSpaceOnUse"
       gradientTransform="matrix(0.66667,0,0,0.63518,136.19,188.52)">
      <stop
         stop-color="#c6cdd1"
         id="stop17" />
      <stop
         offset="1"
         stop-color="#e0e5e7"
         id="stop19" />
    </linearGradient>
    <linearGradient
       id="d"
       y1="525.8"
       y2="540.8"
       x1="391.57"
       gradientUnits="userSpaceOnUse"
       x2="406.57"
       gradientTransform="translate(8,-10)">
      <stop
         id="stop22" />
      <stop
         offset="1"
         stop-opacity="0"
         id="stop24" />
    </linearGradient>
    <linearGradient
       id="e"
       y1="542.22"
       x1="398.09"
       y2="524.9"
       x2="394"
       gradientUnits="userSpaceOnUse"
       gradientTransform="translate(-384.57-499.8)">
      <stop
         stop-color="#334545"
         id="stop27" />
      <stop
         offset="1"
         stop-color="#536161"
         id="stop29" />
    </linearGradient>
    <linearGradient
       xlink:href="#e"
       id="f"
       y1="586.49"
       x1="431.31"
       y2="582.07"
       x2="439.57"
       gradientUnits="userSpaceOnUse"
       gradientTransform="matrix(-1,0,0,1,454.57,-539.8)" />
    <linearGradient
       xlink:href="#e"
       id="g"
       y1="577.36"
       x1="430.57"
       y2="591.33"
       x2="423.75"
       gradientUnits="userSpaceOnUse"
       gradientTransform="matrix(-1,0,0,1,454.57,-539.8)" />
    <linearGradient
       xlink:href="#e"
       id="h"
       y1="577.1"
       x1="431.31"
       y2="571.45"
       x2="440.63"
       gradientUnits="userSpaceOnUse"
       gradientTransform="matrix(-1,0,0,1,839.14,-40)" />
    <linearGradient
       xlink:href="#e"
       id="i"
       y1="572.33"
       x1="423.05"
       y2="566.77"
       x2="431.22"
       gradientUnits="userSpaceOnUse"
       gradientTransform="matrix(-1,0,0,1,839.14,-40)" />
    <linearGradient
       xlink:href="#e"
       id="j"
       y1="581.87"
       x1="406.54"
       y2="572.68"
       x2="423.32"
       gradientUnits="userSpaceOnUse"
       gradientTransform="matrix(-1,0,0,1,454.57,-539.8)" />
    <linearGradient
       xlink:href="#e"
       id="k"
       y1="568.8"
       x1="431.57"
       y2="562.8"
       x2="439.57"
       gradientUnits="userSpaceOnUse"
       gradientTransform="matrix(-1,0,0,1,839.14,-40)" />
    <linearGradient
       id="l"
       y1="521.63"
       x1="404.05"
       y2="528.35"
       x2="430.74"
       gradientUnits="userSpaceOnUse">
      <stop
         stop-color="#ffc169"
         id="stop38" />
      <stop
         offset="1"
         stop-color="#ffa92d"
         id="stop40" />
    </linearGradient>
    <linearGradient
       id="m"
       y1="503.08"
       x1="418.17"
       y2="531.46"
       x2="384.57"
       gradientUnits="userSpaceOnUse"
       gradientTransform="translate(-384.57,-499.8)">
      <stop
         stop-color="#4ce0c6"
         id="stop43" />
      <stop
         offset="1"
         stop-color="#3b85b5"
         id="stop45" />
    </linearGradient>
    <linearGradient
       id="n"
       x1="384.57"
       x2="432.57"
       gradientUnits="userSpaceOnUse">
      <stop
         stop-color="#884d2c"
         id="stop48" />
      <stop
         offset=".125"
         stop-color="#334545"
         id="stop50" />
      <stop
         offset=".729"
         stop-color="#334545"
         id="stop52" />
      <stop
         offset="1"
         stop-color="#ffa92d"
         id="stop54" />
    </linearGradient>
    <path
       id="o"
       d="m384.57 538.8v5h48v-5z" />
    <linearGradient
       inkscape:collect="always"
       xlink:href="#linearGradient17649"
       id="linearGradient17623"
       x1="617.85614"
       y1="1271.7074"
       x2="2337.4136"
       y2="-433.87378"
       gradientUnits="userSpaceOnUse"
       gradientTransform="matrix(0.03020833,0,0,0.04814815,387.57141,489.79798)" />
    <linearGradient
       id="linearGradient17649"
       inkscape:collect="always">
      <stop
         id="stop17651"
         offset="0"
         style="stop-color:#08977f;stop-opacity:1" />
      <stop
         id="stop17653"
         offset="1"
         style="stop-color:#00d7cb;stop-opacity:1" />
    </linearGradient>
    <linearGradient
       gradientTransform="matrix(0.01942125,0,0,0.01942125,408.9213,512.30118)"
       inkscape:collect="always"
       xlink:href="#linearGradient25263"
       id="linearGradient25269"
       x1="-439.2088"
       y1="1588.8325"
       x2="840.95941"
       y2="938.87457"
       gradientUnits="userSpaceOnUse" />
    <linearGradient
       inkscape:collect="always"
       id="linearGradient25263">
      <stop
         style="stop-color:#2568a2;stop-opacity:1"
         offset="0"
         id="stop25265" />
      <stop
         style="stop-color:#52b3d9;stop-opacity:1"
         offset="1"
         id="stop25267" />
    </linearGradient>
    <linearGradient
       gradientTransform="matrix(0.03851846,0,0,0.03851846,407.16085,483.29643)"
       inkscape:collect="always"
       xlink:href="#linearGradient25271"
       id="linearGradient25261"
       x1="-585.14001"
       y1="96.50795"
       x2="308.34354"
       y2="842.29987"
       gradientUnits="userSpaceOnUse" />
    <linearGradient
       inkscape:collect="always"
       id="linearGradient25271">
      <stop
         style="stop-color:#01775c;stop-opacity:1"
         offset="0"
         id="stop25273" />
      <stop
         style="stop-color:#2ecca9;stop-opacity:1"
         offset="1"
         id="stop25275" />
    </linearGradient>
    <linearGradient
       id="c-3"
       y1="543.79999"
       y2="502.66"
       x2="0"
       gradientUnits="userSpaceOnUse"
       gradientTransform="matrix(0.66667,0,0,0.63518,136.19,188.52)">
      <stop
         stop-color="#c6cdd1"
         id="stop17-6" />
      <stop
         offset="1"
         stop-color="#e0e5e7"
         id="stop19-7" />
    </linearGradient>
    <linearGradient
       id="a-2"
       y1="22"
       y2="8"
       x2="0"
       gradientUnits="userSpaceOnUse"
       gradientTransform="translate(-37.5,22)">
      <stop
         stop-color="#2e3436"
         id="stop7-9" />
      <stop
         offset="1"
         stop-color="#555753"
         id="stop9-1" />
    </linearGradient>
    <linearGradient
       inkscape:collect="always"
       xlink:href="#c-3"
       id="linearGradient4262"
       x1="425.57001"
       y1="535.79999"
       x2="425.57001"
       y2="507.79999"
       gradientUnits="userSpaceOnUse" />
  </defs>
  <g
     transform="matrix(0.82758604,0,0,0.76922278,-320.7487,-372.76377)"
     id="g4177">
    <rect
       y="489.79803"
       x="387.57144"
       height="52"
       width="58"
       id="rect17256"
       style="fill:url(#linearGradient17623);fill-opacity:1" />
    <path
       sodipodi:nodetypes="cccc"
       inkscape:connector-curvature="0"
       id="path4152"
       d="m 432.57143,541.798 -18,-20 -15.52722,20 z"
       style="fill:url(#linearGradient25269);fill-opacity:1;fill-rule:evenodd;stroke:none;stroke-width:0.99595213px;stroke-linecap:butt;stroke-linejoin:miter;stroke-opacity:1" />
    <path
       style="fill:url(#linearGradient25261);fill-opacity:1;fill-rule:evenodd;stroke:none;stroke-width:0.99595213px;stroke-linecap:butt;stroke-linejoin:miter;stroke-opacity:1"
       d="m 387.57145,489.79799 39.99998,10e-6 -39.99998,52.00053 z"
       id="rect3349"
       inkscape:connector-curvature="0"
       sodipodi:nodetypes="cccc" />
    <path
       style="fill:#292e32;fill-opacity:1;stroke:none"
       d="m 439.04421,489.798 -11.47278,0 -40,52 11.47278,0 z"
       id="rect4158"
       inkscape:connector-curvature="0"
       sodipodi:nodetypes="ccccc" />
  </g>
  <g
     id="g85"
     transform="translate(-334.57,-499.8)">
    <g
       id="g87"
       transform="translate(-50,0)">
      <rect
         style="fill:url(#linearGradient4262);fill-opacity:1.0"
         id="rect89"
         height="28"
         rx="0"
         y="507.79999"
         x="392.57001"
         width="32" />
      <path
         inkscape:connector-curvature="0"
         style="opacity:0.2;fill:url(#d);fill-rule:evenodd"
         id="path91"
         d="m 393.57,533.8 30,-20 1,1 0,21 -29,0 z" />
      <rect
         style="fill:#292f34;fill-opacity:1"
         id="rect93"
         height="4"
         y="507.79999"
         x="392.57001"
         width="32" />
      <rect
         style="fill:#1abc9c;fill-opacity:1"
         id="rect95"
         height="1"
         y="511.79999"
         x="392.57001"
         width="32" />
      <rect
         style="fill:#ffffff"
         id="rect97"
         height="20"
         y="513.79999"
         x="393.57001"
         width="30" />
      <rect
         style="fill:#ececec;fill-opacity:1"
         id="rect99"
         height="2"
         rx="1"
         y="508.79999"
         x="421.57001"
         width="2" />
    </g>
    <path
       inkscape:connector-curvature="0"
       style="opacity:0.2;fill:url(#b);fill-rule:evenodd"
       id="path101"
       transform="translate(384.57,499.8)"
       d="m -34,19 11,11 -7.088,0 a 1.5,1.5 0 0 0 0.08789,-0.5 1.5,1.5 0 0 0 -1.5,-1.5 1.5,1.5 0 0 0 -1.5,1.5 1.5,1.5 0 0 0 0.08789,0.5 l -1.088,0 6,6 18,0 0,-9 -8,-8 z" />
    <path
       inkscape:connector-curvature="0"
       style="fill:url(#a)"
       id="path103"
       d="m 360.07,515.8 c -1.214,0 -2.219,0.856 -2.449,2 l -7.05,0 0,1 7.05,0 c 0.23,1.144 1.235,2 2.449,2 1.214,0 2.219,-0.856 2.449,-2 l 4.051,0 0,-1 -4.051,0 c -0.23,-1.144 -1.235,-2 -2.449,-2 m -7,11 c -1.385,0 -2.5,1.115 -2.5,2.5 0,1.385 1.115,2.5 2.5,2.5 1.214,0 2.219,-0.856 2.449,-2 l 11.05,0 0,-1 -11.05,0 c -0.23,-1.144 -1.235,-2 -2.449,-2 m 0,1 c 0.831,0 1.5,0.669 1.5,1.5 0,0.831 -0.669,1.5 -1.5,1.5 -0.831,0 -1.5,-0.669 -1.5,-1.5 0,-0.831 0.669,-1.5 1.5,-1.5" />
  </g>
  <use
     height="100%"
     width="100%"
     y="0"
     x="0"
     style="fill:#292f34;fill-opacity:0.92156863"
     id="use107"
     xlink:href="#o"
     transform="matrix(1,0,0,0.8,-384.57,-391.04)" />
  <g
     id="g109"
     transform="matrix(0.6483,0,0,0.6483,-240.94,-307.63954)"
     style="fill:#ffffff">
    <path
       inkscape:connector-curvature="0"
       id="path111"
       d="m 434.24,537.83 c -0.159,0.11 -0.367,0.224 -0.542,0.302 l 0.073,0.289 c 0.143,-0.045 0.273,-0.122 0.432,-0.224 l 0,2.608 0.355,0 0,-2.975 z"
       style="fill:#ffffff" />
    <path
       inkscape:connector-curvature="0"
       id="path113"
       d="m 435.2,538.03 0.118,0.297 c 0.167,-0.171 0.416,-0.245 0.664,-0.245 0.338,0 0.526,0.187 0.526,0.518 l 0,0.02 c -0.004,0.232 -0.155,0.461 -0.387,0.717 l -1.027,1.141 0.045,0.326 1.74,0 0.024,-0.306 -1.382,0 0.84,-0.897 c 0.326,-0.35 0.526,-0.636 0.53,-1.01 l 0,-0.012 c 0,-0.489 -0.342,-0.811 -0.884,-0.811 -0.387,0 -0.64,0.106 -0.807,0.261"
       style="fill:#ffffff" />
    <path
       inkscape:connector-curvature="0"
       id="path115"
       d="m 437.43,540.86 0.412,0 0,-0.465 -0.412,0 z m 0,-1.826 0.412,0 0,-0.461 -0.412,0 z"
       style="fill:#ffffff" />
    <path
       inkscape:connector-curvature="0"
       id="path117"
       d="m 439.75,539.99 c 0,0.363 -0.265,0.562 -0.656,0.562 -0.302,0 -0.509,-0.098 -0.66,-0.216 l -0.114,0.289 c 0.11,0.106 0.391,0.228 0.778,0.228 0.579,0 1,-0.33 1,-0.86 0,-0.42 -0.232,-0.689 -0.595,-0.77 0.322,-0.098 0.522,-0.33 0.522,-0.713 0,-0.477 -0.412,-0.738 -0.852,-0.738 -0.412,0 -0.676,0.09 -0.856,0.228 l 0.114,0.289 c 0.159,-0.126 0.391,-0.212 0.664,-0.212 0.35,0 0.546,0.147 0.546,0.477 0,0.469 -0.432,0.522 -0.888,0.522 l 0,0.293 c 0.554,0 0.994,0.086 0.994,0.619"
       style="fill:#ffffff" />
    <path
       inkscape:connector-curvature="0"
       id="path119"
       d="m 441.87,538.28 0,1.5 -0.994,0 z m 0.672,1.789 0.029,-0.289 -0.367,0 0,-1.948 -0.371,0 -1.308,1.932 0,0.306 1.345,0 0,0.738 0.334,0 0,-0.738 z"
       style="fill:#ffffff" />
  </g>
  <path
     style="color:#000000;fill:#ffffff"
     inkscape:connector-curvature="0"
     id="path121"
     d="M 2.50143,41 A 0.166667,0.166667 0 0 0 2.33476,41.16667 0.166667,0.166667 0 0 0 2.50143,41.33334 0.166667,0.166667 0 0 0 2.66809,41.16667 0.166667,0.166667 0 0 0 2.50143,41 m 0.833,0 -0.323,0.26 0.432,0.536 -0.406,0.406 0.297,0.297 0.667,-0.667 z M 2.2511,41.66667 a 0.25,0.25 0 0 0 -0.25,0.25 0.25,0.25 0 0 0 0.25,0.25 0.25,0.25 0 0 0 0.25,-0.25 0.25,0.25 0 0 0 -0.25,-0.25 m 0.5,0.83333 a 0.25,0.25 0 0 0 -0.25,0.25 0.25,0.25 0 0 0 0.25,0.25 0.25,0.25 0 0 0 0.25,-0.25 0.25,0.25 0 0 0 -0.25,-0.25" />
</svg>
