<?xml version="1.0" encoding="UTF-8" standalone="no"?>
<svg
   xmlns:dc="http://purl.org/dc/elements/1.1/"
   xmlns:cc="http://creativecommons.org/ns#"
   xmlns:rdf="http://www.w3.org/1999/02/22-rdf-syntax-ns#"
   xmlns:svg="http://www.w3.org/2000/svg"
   xmlns="http://www.w3.org/2000/svg"
   xmlns:xlink="http://www.w3.org/1999/xlink"
   xmlns:sodipodi="http://sodipodi.sourceforge.net/DTD/sodipodi-0.dtd"
   xmlns:inkscape="http://www.inkscape.org/namespaces/inkscape"
   width="48"
   height="48"
   id="svg2"
   version="1.1"
   inkscape:version="0.91 r13725"
   sodipodi:docname="ksnapshot.svg">
  <metadata
     id="metadata72">
    <rdf:RDF>
      <cc:Work
         rdf:about="">
        <dc:format>image/svg+xml</dc:format>
        <dc:type
           rdf:resource="http://purl.org/dc/dcmitype/StillImage" />
      </cc:Work>
    </rdf:RDF>
  </metadata>
  <sodipodi:namedview
     pagecolor="#ffffff"
     bordercolor="#666666"
     borderopacity="1"
     objecttolerance="10"
     gridtolerance="10"
     guidetolerance="10"
     inkscape:pageopacity="0"
     inkscape:pageshadow="2"
     inkscape:window-width="1920"
     inkscape:window-height="1011"
     id="namedview70"
     showgrid="false"
     inkscape:zoom="4.9166667"
     inkscape:cx="24"
     inkscape:cy="24"
     inkscape:window-x="0"
     inkscape:window-y="0"
     inkscape:window-maximized="1"
     inkscape:current-layer="svg2" />
  <defs
     id="defs4">
    <linearGradient
       id="a"
       y1="536.8"
       y2="503.8"
       x2="0"
       gradientUnits="userSpaceOnUse">
      <stop
         stop-color="#2a2c2f"
         id="stop7" />
      <stop
         offset="1"
         stop-color="#424649"
         id="stop9" />
    </linearGradient>
    <linearGradient
       id="b"
       y1="547.8"
       y2="536.8"
       x2="0"
       gradientUnits="userSpaceOnUse"
       gradientTransform="matrix(1,0,0,0.54545,0,244)">
      <stop
         stop-color="#c6cdd1"
         id="stop12" />
      <stop
         offset="1"
         stop-color="#e0e5e7"
         id="stop14" />
    </linearGradient>
    <linearGradient
       id="c"
       y1="5.342"
       x1="42.799"
       y2="31.357"
       x2="11.999"
       gradientUnits="userSpaceOnUse">
      <stop
         stop-color="#4ce0c6"
         id="stop17" />
      <stop
         offset="1"
         stop-color="#3b85b5"
         id="stop19" />
    </linearGradient>
    <linearGradient
       id="d"
       y1="22.346"
       x1="29.855"
       y2="28.506"
       x2="54.32"
       gradientUnits="userSpaceOnUse">
      <stop
         stop-color="#ffc169"
         id="stop22" />
      <stop
         offset="1"
         stop-color="#ffa92d"
         id="stop24" />
    </linearGradient>
    <linearGradient
       id="e"
       y1="41.22"
       x1="24.392"
       y2="25.343"
       x2="20.643"
       gradientUnits="userSpaceOnUse">
      <stop
         stop-color="#334545"
         id="stop27" />
      <stop
         offset="1"
         stop-color="#536161"
         id="stop29" />
    </linearGradient>
    <linearGradient
       xlink:href="#e"
       id="f"
       y1="568.8"
       x1="431.57"
       y2="562.8"
       x2="439.57"
       gradientUnits="userSpaceOnUse"
       gradientTransform="matrix(-1,0,0,1,839.14,-40)" />
    <linearGradient
       xlink:href="#e"
       id="g"
       y1="40.899"
       x1="56.03"
       y2="32.475"
       x2="40.647"
       gradientUnits="userSpaceOnUse" />
    <linearGradient
       xlink:href="#e"
       id="h"
       y1="32.15"
       x1="60.895"
       y2="27.06"
       x2="53.41"
       gradientUnits="userSpaceOnUse" />
    <linearGradient
       xlink:href="#e"
       id="i"
       y1="36.527"
       x1="33.32"
       y2="31.348"
       x2="24.78"
       gradientUnits="userSpaceOnUse" />
    <linearGradient
       xlink:href="#e"
       id="j"
       y1="36.765"
       x1="34"
       y2="49.571"
       x2="40.25"
       gradientUnits="userSpaceOnUse" />
    <linearGradient
       inkscape:collect="always"
       xlink:href="#linearGradient17649"
       id="linearGradient17623"
       x1="617.85614"
       y1="1271.7074"
       x2="2337.4136"
       y2="-433.87378"
       gradientUnits="userSpaceOnUse"
       gradientTransform="matrix(0.03020833,0,0,0.04814815,387.57141,489.79798)" />
    <linearGradient
       id="linearGradient17649"
       inkscape:collect="always">
      <stop
         id="stop17651"
         offset="0"
         style="stop-color:#08977f;stop-opacity:1" />
      <stop
         id="stop17653"
         offset="1"
         style="stop-color:#00d7cb;stop-opacity:1" />
    </linearGradient>
    <linearGradient
       gradientTransform="matrix(0.01942125,0,0,0.01942125,408.9213,512.30118)"
       inkscape:collect="always"
       xlink:href="#linearGradient25263"
       id="linearGradient25269"
       x1="-439.2088"
       y1="1588.8325"
       x2="840.95941"
       y2="938.87457"
       gradientUnits="userSpaceOnUse" />
    <linearGradient
       inkscape:collect="always"
       id="linearGradient25263">
      <stop
         style="stop-color:#2568a2;stop-opacity:1"
         offset="0"
         id="stop25265" />
      <stop
         style="stop-color:#52b3d9;stop-opacity:1"
         offset="1"
         id="stop25267" />
    </linearGradient>
    <linearGradient
       gradientTransform="matrix(0.03851846,0,0,0.03851846,407.16085,483.29643)"
       inkscape:collect="always"
       xlink:href="#linearGradient25271"
       id="linearGradient25261"
       x1="-585.14001"
       y1="96.50795"
       x2="308.34354"
       y2="842.29987"
       gradientUnits="userSpaceOnUse" />
    <linearGradient
       inkscape:collect="always"
       id="linearGradient25271">
      <stop
         style="stop-color:#01775c;stop-opacity:1"
         offset="0"
         id="stop25273" />
      <stop
         style="stop-color:#2ecca9;stop-opacity:1"
         offset="1"
         id="stop25275" />
    </linearGradient>
  </defs>
  <g
     style="stroke-width:2.79999995;stroke-opacity:0.55"
     id="g38"
     transform="translate(-384.57,-499.8)">
    <path
       inkscape:connector-curvature="0"
       style="fill:url(#b)"
       id="path40"
       d="m 402.57,536.8 0,6 12,0 0,-6 z" />
    <rect
       style="fill:url(#a)"
       id="rect42"
       height="36"
       y="503.79999"
       x="384.57001"
       width="48" />
  </g>
  <g
     transform="matrix(0.75862054,0,0,0.57691709,-292.01965,-276.57283)"
     id="g4177">
    <rect
       y="489.79803"
       x="387.57144"
       height="52"
       width="58"
       id="rect17256"
       style="fill:url(#linearGradient17623);fill-opacity:1" />
    <path
       sodipodi:nodetypes="cccc"
       inkscape:connector-curvature="0"
       id="path4152"
       d="m 432.57143,541.798 -18,-20 -15.52722,20 z"
       style="fill:url(#linearGradient25269);fill-opacity:1;fill-rule:evenodd;stroke:none;stroke-width:0.99595213px;stroke-linecap:butt;stroke-linejoin:miter;stroke-opacity:1" />
    <path
       style="fill:url(#linearGradient25261);fill-opacity:1;fill-rule:evenodd;stroke:none;stroke-width:0.99595213px;stroke-linecap:butt;stroke-linejoin:miter;stroke-opacity:1"
       d="m 387.57145,489.79799 39.99998,10e-6 -39.99998,52.00053 z"
       id="rect3349"
       inkscape:connector-curvature="0"
       sodipodi:nodetypes="cccc" />
    <path
       style="fill:#292e32;fill-opacity:1;stroke:none"
       d="m 439.04421,489.798 -11.47278,0 -40,52 11.47278,0 z"
       id="rect4158"
       inkscape:connector-curvature="0"
       sodipodi:nodetypes="ccccc" />
  </g>
  <rect
     style="fill:#99a1a7;stroke-width:2.79999995;stroke-opacity:0.55"
     id="rect66"
     height="2"
     y="41.999989"
     x="13.000008"
     width="22" />
  <path
     style="fill:#ffffff;stroke-width:0.1"
     inkscape:connector-curvature="0"
     id="path68"
     d="m 3,7 0,5 1,0 0,-4 4,0 0,-1 z m 37,0 0,1 4,0 0,4 1,0 0,-5 z m -18,7 0,3 -2,0 0,11 13,0 0,-11 -2,0 0,-3 z m 1,1 7,0 0,2 -7,0 z m -8,2 0,11 4,0 0,-11 z m 11.5,1 C 28.993,18 31,20.01 31,22.5 31,24.993 28.99,27 26.5,27 24.007,27 22,24.99 22,22.5 22,20.007 24.01,18 26.5,18 m 0,1 C 24.561,19 23,20.561 23,22.5 23,24.439 24.561,26 26.5,26 28.439,26 30,24.439 30,22.5 30,20.561 28.439,19 26.5,19 M 3,30 l 0,5 5,0 0,-1 -4,0 0,-4 z m 41,0 0,4 -4,0 0,1 5,0 0,-5 z" />
</svg>
