<?xml version="1.0" encoding="UTF-8" standalone="no"?>
<svg
   xmlns:dc="http://purl.org/dc/elements/1.1/"
   xmlns:cc="http://creativecommons.org/ns#"
   xmlns:rdf="http://www.w3.org/1999/02/22-rdf-syntax-ns#"
   xmlns:svg="http://www.w3.org/2000/svg"
   xmlns="http://www.w3.org/2000/svg"
   xmlns:sodipodi="http://sodipodi.sourceforge.net/DTD/sodipodi-0.dtd"
   xmlns:inkscape="http://www.inkscape.org/namespaces/inkscape"
   width="16"
   height="16"
   version="1.1"
   id="svg4"
   sodipodi:docname="manjaro-settings-manager-alternate.svg"
   inkscape:version="0.92.4 5da689c313, 2019-01-14">
  <metadata
     id="metadata10">
    <rdf:RDF>
      <cc:Work
         rdf:about="">
        <dc:format>image/svg+xml</dc:format>
        <dc:type
           rdf:resource="http://purl.org/dc/dcmitype/StillImage" />
        <dc:title></dc:title>
      </cc:Work>
    </rdf:RDF>
  </metadata>
  <defs
     id="defs8" />
  <sodipodi:namedview
     pagecolor="#ffffff"
     bordercolor="#666666"
     borderopacity="1"
     objecttolerance="10"
     gridtolerance="10"
     guidetolerance="10"
     inkscape:pageopacity="0"
     inkscape:pageshadow="2"
     inkscape:window-width="1920"
     inkscape:window-height="1053"
     id="namedview6"
     showgrid="false"
     showguides="true"
     inkscape:guide-bbox="true"
     inkscape:zoom="32.000001"
     inkscape:cx="7.8910815"
     inkscape:cy="7.8297994"
     inkscape:window-x="1920"
     inkscape:window-y="0"
     inkscape:window-maximized="1"
     inkscape:current-layer="svg4" />
  <path
     style="fill:#dfdfdf;stroke-width:1.10802352"
     d="M 6.0605469,0 5.8828125,2.0390625 C 5.2384619,2.2797314 4.6395045,2.6277475 4.1113281,3.0683594 L 2.25,2.1933594 0.31054688,5.5507812 1.9941406,6.7265625 c -0.058377,0.339993 -0.087779,0.6843287 -0.087891,1.0292969 9e-7,0.3456204 0.029404,0.6906142 0.087891,1.03125 L 0.31054688,9.9492188 2.25,13.306641 4,12.478516 V 7.7558594 c 0,-2.209139 1.790861,-4 4,-4 2.209139,0 4,1.790861 4,4 v 4.7285156 l 1.75,0.822266 1.939453,-3.3574222 -1.695312,-1.1738282 c 0.06176,-0.3364459 0.09508,-0.6774942 0.09961,-1.0195312 5.55e-4,-0.3488813 -0.02885,-0.697166 -0.08789,-1.0410156 L 15.689453,5.5507812 13.75,2.1933594 l -1.861328,0.875 C 11.356952,2.6266055 10.753947,2.27854 10.105469,2.0390625 L 9.9394531,0 Z M 8,4.3964844 c -1.8551887,3.45e-4 -3.35903,1.5041863 -3.359375,3.359375 0.00155,0.1694621 0.015909,0.3385645 0.042969,0.5058594 H 5.84375 C 5.8041875,8.0959874 5.783871,7.9262461 5.7832031,7.7558594 5.7838674,6.5321474 6.7762879,5.5406013 8,5.5410156 c 1.2237121,-4.144e-4 2.216133,0.9911318 2.216797,2.2148438 -0.0013,0.1704624 -0.02228,0.3402047 -0.0625,0.5058594 h 1.164062 c 0.02641,-0.1673446 0.04012,-0.3364467 0.04102,-0.5058594 C 11.35903,5.9006707 9.8551887,4.3968294 8,4.3964844 Z"
     id="path853"
     inkscape:connector-curvature="0"
     sodipodi:nodetypes="ccccccccccccscccccccccccccccccccccccc" />
  <path
     inkscape:connector-curvature="0"
     id="path1002"
     d="M 4.6400837,8.9026753 V 15.622509 H 6.6001686 V 10.869404 H 8.9833323 V 8.9026753 Z m 4.753108,0 V 15.622509 H 11.359916 V 8.9026753 Z M 7.0166072,11.2792 v 4.343312 H 8.9833323 V 11.2792 Z"
     style="display:inline;opacity:1;fill:#16a085;fill-opacity:1;fill-rule:evenodd;stroke:none;stroke-width:0.35414532;stroke-linecap:round;stroke-linejoin:miter;stroke-miterlimit:4;stroke-dasharray:none;stroke-dashoffset:0;stroke-opacity:1" />
</svg>
