<?xml version="1.0" encoding="UTF-8" standalone="no"?>
<svg
   xmlns:dc="http://purl.org/dc/elements/1.1/"
   xmlns:cc="http://creativecommons.org/ns#"
   xmlns:rdf="http://www.w3.org/1999/02/22-rdf-syntax-ns#"
   xmlns:svg="http://www.w3.org/2000/svg"
   xmlns="http://www.w3.org/2000/svg"
   xmlns:sodipodi="http://sodipodi.sourceforge.net/DTD/sodipodi-0.dtd"
   xmlns:inkscape="http://www.inkscape.org/namespaces/inkscape"
   viewBox="0 0 22 22"
   version="1.1"
   id="svg6"
   sodipodi:docname="media-playback-paused.svg"
   inkscape:version="0.92.4 5da689c313, 2019-01-14">
  <metadata
     id="metadata10">
    <rdf:RDF>
      <cc:Work
         rdf:about="">
        <dc:format>image/svg+xml</dc:format>
        <dc:type
           rdf:resource="http://purl.org/dc/dcmitype/StillImage" />
      </cc:Work>
    </rdf:RDF>
  </metadata>
  <sodipodi:namedview
     pagecolor="#ffffff"
     bordercolor="#666666"
     borderopacity="1"
     objecttolerance="10"
     gridtolerance="10"
     guidetolerance="10"
     inkscape:pageopacity="0"
     inkscape:pageshadow="2"
     inkscape:window-width="806"
     inkscape:window-height="717"
     id="namedview8"
     showgrid="false"
     inkscape:zoom="10.727273"
     inkscape:cx="13.75"
     inkscape:cy="11"
     inkscape:window-x="128"
     inkscape:window-y="82"
     inkscape:window-maximized="0"
     inkscape:current-layer="svg6" />
  <defs
     id="defs3051">
    <style
       type="text/css"
       id="current-color-scheme">
      .ColorScheme-Text {
        color:#4d4d4d;
      }
      </style>
  </defs>
  <path
     inkscape:connector-curvature="0"
     class="ColorScheme-Text"
     d="M 12.124999,7.6249615 H 14.375 v 6.7500765 h -2.250001 z m -4.4999989,0 h 2.25 v 6.7500765 h -2.25 z m 3.3749989,-5.624896 c -4.9859988,0 -8.9999991,4.013901 -8.9999991,8.9999335 0,4.986034 4.0140003,8.999935 8.9999991,8.999935 C 15.986001,19.999934 20,15.986033 20,10.999999 20,6.0139665 15.986001,2.0000655 10.999999,2.0000655 Z m 0,1.125013 c 4.36275,0 7.875001,3.512059 7.875001,7.8749205 0,4.362863 -3.512251,7.874921 -7.875001,7.874921 -4.3627499,0 -7.8749991,-3.512058 -7.8749991,-7.874921 0,-4.3628615 3.5122492,-7.8749205 7.8749991,-7.8749205 z"
     style="color:#31363b;fill:#4d4d4d;fill-opacity:1;stroke:none;stroke-width:1.68743491"
     id="path3804" />
</svg>
