<?xml version="1.0" encoding="UTF-8" standalone="no"?>
<svg
   xmlns:dc="http://purl.org/dc/elements/1.1/"
   xmlns:cc="http://creativecommons.org/ns#"
   xmlns:rdf="http://www.w3.org/1999/02/22-rdf-syntax-ns#"
   xmlns:svg="http://www.w3.org/2000/svg"
   xmlns="http://www.w3.org/2000/svg"
   xmlns:sodipodi="http://sodipodi.sourceforge.net/DTD/sodipodi-0.dtd"
   xmlns:inkscape="http://www.inkscape.org/namespaces/inkscape"
   width="24"
   height="24"
   version="1.1"
   id="svg11"
   sodipodi:docname="pamac-tray-update.svg"
   inkscape:version="0.92.4 5da689c313, 2019-01-14">
  <metadata
     id="metadata15">
    <rdf:RDF>
      <cc:Work
         rdf:about="">
        <dc:format>image/svg+xml</dc:format>
        <dc:type
           rdf:resource="http://purl.org/dc/dcmitype/StillImage" />
        <dc:title />
      </cc:Work>
    </rdf:RDF>
  </metadata>
  <sodipodi:namedview
     pagecolor="#ffffff"
     bordercolor="#666666"
     borderopacity="1"
     objecttolerance="10"
     gridtolerance="10"
     guidetolerance="10"
     inkscape:pageopacity="0"
     inkscape:pageshadow="2"
     inkscape:window-width="1920"
     inkscape:window-height="1053"
     id="namedview13"
     showgrid="false"
     inkscape:zoom="13.906434"
     inkscape:cx="13.809742"
     inkscape:cy="8.6937528"
     inkscape:window-x="1920"
     inkscape:window-y="0"
     inkscape:window-maximized="1"
     inkscape:current-layer="svg11" />
  <defs
     id="defs3">
    <style
       id="current-color-scheme"
       type="text/css">
   .ColorScheme-Text { color:#dfdfdf; } .ColorScheme-Highlight { color:#4285f4; }
  </style>
  </defs>
  <path
     inkscape:connector-curvature="0"
     style="color:#4285f4;fill:#ef2929;stroke-width:1.11145091;fill-opacity:1"
     class="ColorScheme-Highlight"
     d="m 17.546613,7.4646013 v 6.1151507 l 0.277862,2.222902 h 1.667177 l 0.277862,-2.222902 V 7.4646013 Z m 0,9.4495037 v 2.222901 h 2.222901 v -2.222901 z"
     id="path820"
     sodipodi:nodetypes="cccccccccccc" />
  <path
     style="opacity:1;fill:#16a085;fill-opacity:1;stroke-width:0.88915986"
     d="M 12.457447,4 4.9985692,7.4646008 v 5.8090672 l 0.7966845,0.366866 v 0.987715 l 1.0636932,0.490601 v -0.987715 l 0.9312743,0.427648 0.9312744,0.427649 v -0.987715 l 1.0636931,0.48843 v 0.987715 0.989886 0.516652 l 0.7966843,0.371206 V 16.831614 16.2824 l 1.063693,0.488431 v 0.549213 l 0.798856,0.366866 v 0.455869 l 0.273521,-0.125907 0.796685,-0.366866 v 0.720707 l 1.063693,-0.492773 v -0.718535 l 0.798855,-0.366865 v -0.883517 l 1.057181,-0.48626 v -0.633875 l -3.97691,1.847354 v -5.70487 L 7.1281264,8.7041291 12.457447,6.2272434 l 3.97691,1.847353 v -2.227565 z"
     id="path10"
     inkscape:connector-curvature="0"
     sodipodi:nodetypes="ccccccccccccccccccccccccccccccccccccc" />
  <path
     inkscape:connector-curvature="0"
     style="fill:#ef2929;fill-opacity:1;stroke-width:0.88915986"
     d="m 4,14.235334 v 2.524643 c 3.56e-5,0.235291 0.1425238,0.450539 0.3690364,0.555726 l 7.7888396,3.618727 c 0.188195,0.08743 0.408773,0.08743 0.596971,0 l 3.67951,-1.708421 v -2.466032 l -0.929104,0.425477 v 1.031132 l -0.831417,0.384232 v 0.748927 l -1.111451,0.51448 v -0.753269 l -0.833588,0.384232 -0.286546,0.130249 V 19.150031 L 11.610834,18.76797 v -0.59263 l -1.111451,-0.510138 v 0.590458 0.573092 L 9.6657946,18.44235 v -0.568751 -1.031131 -1.033302 l -1.10928,-0.510138 v 1.03113 L 7.583995,15.882973 6.6114755,15.435788 V 16.46909 L 5.5021954,15.956781 V 14.925649 L 4.6686072,14.541417 Z"
     id="path12" />
</svg>
