<?xml version="1.0" encoding="UTF-8" standalone="no"?>
<svg
   xmlns:dc="http://purl.org/dc/elements/1.1/"
   xmlns:cc="http://creativecommons.org/ns#"
   xmlns:rdf="http://www.w3.org/1999/02/22-rdf-syntax-ns#"
   xmlns:svg="http://www.w3.org/2000/svg"
   xmlns="http://www.w3.org/2000/svg"
   xmlns:sodipodi="http://sodipodi.sourceforge.net/DTD/sodipodi-0.dtd"
   xmlns:inkscape="http://www.inkscape.org/namespaces/inkscape"
   viewBox="0 0 24 24"
   version="1.1"
   id="svg8"
   sodipodi:docname="update-high.svg"
   width="24"
   height="24"
   inkscape:version="0.92.4 5da689c313, 2019-01-14">
  <metadata
     id="metadata12">
    <rdf:RDF>
      <cc:Work
         rdf:about="">
        <dc:format>image/svg+xml</dc:format>
        <dc:type
           rdf:resource="http://purl.org/dc/dcmitype/StillImage" />
        <dc:title></dc:title>
      </cc:Work>
    </rdf:RDF>
  </metadata>
  <sodipodi:namedview
     pagecolor="#ffffff"
     bordercolor="#666666"
     borderopacity="1"
     objecttolerance="10"
     gridtolerance="10"
     guidetolerance="10"
     inkscape:pageopacity="0"
     inkscape:pageshadow="2"
     inkscape:window-width="1914"
     inkscape:window-height="1047"
     id="namedview10"
     showgrid="false"
     inkscape:zoom="10.727273"
     inkscape:cx="9.4618644"
     inkscape:cy="9.8813559"
     inkscape:window-x="3"
     inkscape:window-y="3"
     inkscape:window-maximized="0"
     inkscape:current-layer="svg8" />
  <defs
     id="defs3051">
    <style
       type="text/css"
       id="current-color-scheme">
      .ColorScheme-Text {
        color:#4d4d4d;
      }
      .ColorScheme-NegativeText {
        color:#da4453;
      }
      </style>
  </defs>
  <g
     id="g826"
     transform="matrix(1.2499454,0,0,1.2499454,-1.7489626,-4.2498466)">
    <path
       inkscape:connector-curvature="0"
       id="path4"
       class="ColorScheme-Text"
       d="M 11.126953,5.0019531 C 9.2851776,4.9719906 7.4335432,5.5755063 5.921875,6.8164062 2.8985906,9.2983061 2.1145626,13.6125 4.0703125,17 L 3.2050781,17.5 5.5039062,18.482422 5.8027344,16 4.9375,16.5 C 3.2230001,13.5304 3.9082004,9.7655435 6.5585938,7.5898438 9.2089874,5.4141439 13.034664,5.4761283 15.613281,7.7363281 L 16.271484,6.984375 C 14.800746,5.6952251 12.968729,5.0319156 11.126953,5.0019531 Z M 16.494141,7.5195312 16.195312,10 17.0625,9.5 c 0.896607,1.552969 1.131185,3.323632 0.777344,4.970703 0.320602,0.168764 0.618291,0.373397 0.880859,0.619141 C 19.259064,13.093388 19.024658,10.89995 17.927734,9 L 18.792969,8.5 Z M 11,8 7,12 h 2 v 5 h 3.144531 C 12.303295,16.394491 12.599063,15.848255 13,15.388672 V 12 h 2 z M 6.3847656,18.265625 5.7265625,19.017578 c 2.0663121,1.81119 4.8448035,2.380136 7.3632815,1.701172 -0.245353,-0.262183 -0.448572,-0.558857 -0.617188,-0.878906 -2.106154,0.453549 -4.372671,-0.0708 -6.0878904,-1.574219 z"
       style="color:#4d4d4d;fill:currentColor;fill-opacity:1;stroke:none" />
    <path
       inkscape:connector-curvature="0"
       id="path6"
       class="ColorScheme-NegativeText"
       d="m 16,15 a 2.9999907,2.9999907 0 0 0 -3,3 2.9999907,2.9999907 0 0 0 3,3 2.9999907,2.9999907 0 0 0 3,-3 2.9999907,2.9999907 0 0 0 -3,-3 z"
       style="color:#da4453;fill:currentColor;fill-opacity:1;stroke:none" />
  </g>
</svg>
