<?xml version="1.0" encoding="UTF-8" standalone="no"?>
<svg
   xmlns:dc="http://purl.org/dc/elements/1.1/"
   xmlns:cc="http://creativecommons.org/ns#"
   xmlns:rdf="http://www.w3.org/1999/02/22-rdf-syntax-ns#"
   xmlns:svg="http://www.w3.org/2000/svg"
   xmlns="http://www.w3.org/2000/svg"
   xmlns:xlink="http://www.w3.org/1999/xlink"
   xmlns:sodipodi="http://sodipodi.sourceforge.net/DTD/sodipodi-0.dtd"
   xmlns:inkscape="http://www.inkscape.org/namespaces/inkscape"
   viewBox="0 0 48 48"
   version="1.1"
   id="svg77"
   sodipodi:docname="kate.svg"
   inkscape:version="0.92.4 5da689c313, 2019-01-14">
  <metadata
     id="metadata83">
    <rdf:RDF>
      <cc:Work
         rdf:about="">
        <dc:format>image/svg+xml</dc:format>
        <dc:type
           rdf:resource="http://purl.org/dc/dcmitype/StillImage" />
      </cc:Work>
    </rdf:RDF>
  </metadata>
  <defs
     id="defs81">
    <linearGradient
       id="linearGradient1115">
      <stop
         id="stop1111"
         offset="0"
         stop-color="#cfffff"
         style="stop-color:#cfffff;stop-opacity:1" />
      <stop
         id="stop1113"
         offset="1"
         stop-color="#7eb3b3"
         style="stop-color:#7eb3b3;stop-opacity:1" />
    </linearGradient>
    <linearGradient
       id="a">
      <stop
         id="stop1105"
         offset="0"
         stop-color="#168d71"
         style="stop-color:#168d71;stop-opacity:1" />
      <stop
         id="stop1107"
         offset="1"
         stop-color="#3bdbb5"
         style="stop-color:#3bdbb5;stop-opacity:1" />
    </linearGradient>
  </defs>
  <sodipodi:namedview
     pagecolor="#cffffffff"
     bordercolor="#666666"
     borderopacity="1"
     objecttolerance="10"
     gridtolerance="10"
     guidetolerance="10"
     inkscape:pageopacity="0"
     inkscape:pageshadow="2"
     inkscape:window-width="859"
     inkscape:window-height="1047"
     id="namedview79"
     showgrid="false"
     inkscape:zoom="9.8333334"
     inkscape:cx="28.527319"
     inkscape:cy="15.146857"
     inkscape:window-x="2977"
     inkscape:window-y="3"
     inkscape:window-maximized="0"
     inkscape:current-layer="g75" />
  <linearGradient
     id="a4">
    <stop
       stop-color="#168d71"
       offset="0"
       id="stop2" />
    <stop
       stop-color="#3bdbb5"
       offset="1"
       id="stop4" />
  </linearGradient>
  <linearGradient
     id="b"
     x1="80.7233"
     x2="141.40515"
     y1="192.15626"
     y2="252.83811"
     gradientUnits="userSpaceOnUse">
    <stop
       stop-color="#116a55"
       offset="0"
       id="stop7"
       style="stop-color:#116a55;stop-opacity:1" />
    <stop
       stop-color="#168d71"
       stop-opacity="0"
       offset="1"
       id="stop9"
       style="stop-color:#168d71;stop-opacity:0" />
  </linearGradient>
  <linearGradient
     id="c"
     x1="61.163261"
     x2="64.927658"
     y1="105.1096"
     y2="109.0449"
     gradientUnits="userSpaceOnUse">
    <stop
       stop-color="#7eb3b3"
       offset="0"
       id="stop12"
       style="stop-color:#7fb3b3;stop-opacity:1" />
    <stop
       stop-color="#7eb3b3"
       offset="1"
       id="stop14"
       style="stop-color:#7fb3b3;stop-opacity:1" />
  </linearGradient>
  <linearGradient
     id="d"
     x1="77.166962"
     x2="64.371704"
     y1="115.71481"
     y2="112.00438"
     gradientUnits="userSpaceOnUse">
    <stop
       stop-color="#3bdbb5"
       offset="0"
       id="stop17" />
    <stop
       stop-color="#168d71"
       offset="1"
       id="stop19" />
  </linearGradient>
  <linearGradient
     id="e"
     x1="68.7071"
     x2="75.81916"
     y1="113.06454"
     y2="117.91264"
     gradientUnits="userSpaceOnUse"
     xlink:href="#a4" />
  <linearGradient
     id="f">
    <stop
       stop-color="#cfffff"
       offset="0"
       id="stop23"
       style="stop-color:#cfffff;stop-opacity:1" />
    <stop
       stop-color="#7eb3b3"
       offset="1"
       id="stop25"
       style="stop-color:#7fb3b3;stop-opacity:1" />
  </linearGradient>
  <linearGradient
     id="g"
     x1="77.401382"
     x2="68.670082"
     y1="106.36805"
     y2="120.35797"
     gradientUnits="userSpaceOnUse"
     xlink:href="#linearGradient1115" />
  <linearGradient
     id="h"
     x1="68.228661"
     x2="68.16433"
     y1="112.73174"
     y2="118.55463"
     gradientUnits="userSpaceOnUse">
    <stop
       stop-color="#7eb3b3"
       offset="0"
       id="stop29"
       style="stop-color:#7eb3b3;stop-opacity:1" />
    <stop
       stop-color="#cfffff"
       offset="1"
       id="stop31"
       style="stop-color:#cfffff;stop-opacity:1" />
  </linearGradient>
  <linearGradient
     id="i"
     x1="63.36673"
     x2="71.135635"
     y1="106.86487"
     y2="104.88973"
     gradientUnits="userSpaceOnUse"
     xlink:href="#f" />
  <linearGradient
     id="j"
     x1="66.951469"
     x2="66.335762"
     y1="104.46095"
     y2="109.66759"
     gradientUnits="userSpaceOnUse">
    <stop
       stop-color="#a5cccc"
       offset="0"
       id="stop35"
       style="stop-color:#a5cccc;stop-opacity:1" />
    <stop
       stop-color="#7eb3b3"
       offset="1"
       id="stop37"
       style="stop-color:#7eb3b3;stop-opacity:1" />
  </linearGradient>
  <linearGradient
     id="k"
     x1="62.960659"
     x2="77.488457"
     y1="115.88342"
     y2="107.31376"
     gradientUnits="userSpaceOnUse">
    <stop
       stop-color="#d2ffff"
       offset="0"
       id="stop40"
       style="stop-color:#d2ffff;stop-opacity:1" />
    <stop
       stop-color="#cfffff"
       offset="1"
       id="stop42"
       style="stop-color:#cfffff;stop-opacity:1" />
  </linearGradient>
  <linearGradient
     id="l"
     x1="220.30621"
     x2="54.439178"
     y1="207.9187"
     y2="42.051666"
     gradientTransform="matrix(0.44648217,0,0,0.43479451,59.664951,148.26025)"
     gradientUnits="userSpaceOnUse"
     xlink:href="#a" />
  <linearGradient
     id="m"
     x1="68.210472"
     x2="148.52051"
     y1="177.75131"
     y2="258.06134"
     gradientUnits="userSpaceOnUse">
    <stop
       stop-color="#21bd98"
       offset="0"
       id="stop46"
       style="stop-color:#21bd98;stop-opacity:1" />
    <stop
       stop-color="#116a55"
       offset="1"
       id="stop48"
       style="stop-color:#116a55;stop-opacity:1" />
  </linearGradient>
  <g
     transform="matrix(.35834457 0 0 .35834465 -14.588903 -53.834451)"
     id="g75">
    <circle
       cx="107.68657"
       cy="217.20557"
       r="55.812187"
       fill="url(#m)"
       stroke-width=".046091"
       id="circle51" />
    <ellipse
       cx="107.68657"
       cy="215.74455"
       rx="55.812187"
       ry="54.351181"
       fill="url(#l)"
       stroke-width=".045484"
       id="ellipse53"
       style="fill-opacity:1.0" />
    <path
       d="m104.42761 173.43884c-3.17498 21.38886-11.196398 24.89739-26.927573 45.50887l4.506763 10.66624 38.2124 38.21262a55.812184 55.812184 0 0 0 43.27959-50.62107l-42.76116-42.76116z"
       fill="url(#b)"
       stroke-width=".046091"
       id="path55" />
    <g
       transform="matrix(4.5475751 0 0 4.6489837 -203.94378 -313.78768)"
       stroke-width=".264583"
       id="g73">
      <path
         d="m65.428762 109.91943c-.79474-2.58086-5.285936-1.9546-6.036655-2.01063.842596-.40914 1.604061-.74639 3.341118-1.97728 3.346321-2.37122 6.889189-1.85409 8.663362-.91242-4.85033.18036-3.926305 2.76518-3.211896 4.12714-.908518.25814-2.342683.64782-2.755929.77319z"
         fill="url(#c)"
         id="path57" />
      <path
         d="m77.401381 106.36805c-1.746608 2.25673-4.650524 5.30573-7.828693 5.70736-3.17817.40163-6.208039-.0433-6.909882 2.27202-.64633 2.1322 1.626883 4.12293 3.984589 3.64314 2.518769-.51257 1.974803-3.30514.597137-5.20681 1.046467-.0587.851808-.0435 2.626388-.131 2.645109 2.20549 3.521857 2.8343 8.143023 6.05209-3.561162-.36484-4.857257-.69982-7.41144-2.19429.661668 1.62462 2.075907 5.31186 2.382248 8.17285-1.47315-2.07065-2.031632-2.83161-4.314667-4.32544-2.924418-1.9135-5.29286-1.97828-6.663677-4.79745-1.367857-2.81308.442686-4.83945 3.682518-5.71701 4.629957-1.2541 8.619281-2.4431 11.712456-3.47546z"
         fill="url(#d)"
         id="path59" />
      <path
         d="m67.244532 112.78376c1.046467-.0587.851808-.0435 2.626388-.131 2.645109 2.20549 3.521857 2.8343 8.143023 6.05209-4.644893-.32503-8.159344-1.66506-10.769411-5.92109z"
         fill="url(#e)"
         id="path61" />
      <path
         d="m77.401381 106.36805c-1.746608 2.25673-4.650524 5.30573-7.828693 5.70736-3.17817.40163-6.208039-.0433-6.909882 2.27202-.64633 2.1322 1.626883 4.12293 3.984589 3.64314 2.518769-.51257 1.974803-3.30514.597137-5.20681 1.046467-.0587.851808-.0435 2.626388-.131 2.645109 2.20549 3.521857 2.8343 8.143023 6.05209-3.561162-.36484-4.857257-.69982-7.41144-2.19429.661668 1.62462 2.075907 5.31186 2.382248 8.17285-1.47315-2.07065-2.031632-2.83161-4.314667-4.32544-2.924418-1.9135-5.29286-1.97828-6.663677-4.79745-1.367857-2.81308.442686-4.83945 3.682518-5.71701 4.629957-1.2541 8.619281-2.4431 11.712456-3.47546z"
         fill="url(#g)"
         id="path63" />
      <path
         d="m67.244532 112.78376c1.046467-.0587.851808-.0435 2.626388-.131 2.645109 2.20549 3.521857 2.8343 8.143023 6.05209-4.644893-.32503-8.159344-1.66506-10.769411-5.92109z"
         fill="url(#h)"
         id="path65" />
      <path
         d="m59.392107 107.9088c.842596-.40914 1.604061-.74639 3.341118-1.97728 3.346321-2.37122 6.889189-1.85409 8.663362-.91242-4.85033.18036-4.225378 1.1257-4.243278 1.86679-3.222572-.66446-4.163494.2396-7.761202 1.02291z"
         fill="url(#i)"
         id="path67" />
      <path
         d="m71.396587 105.0191c-4.85033.18036-3.926305 2.76518-3.211896 4.12714-.566006.16082-1.179475.34403-1.936109.53991-3.052938-5.32116 2.656266-6.01341 5.148005-4.66705z"
         fill="url(#j)"
         id="path69" />
      <path
         d="m62.879799 116.88614c-2.373486-2.98949-1.93525-5.72962 2.712379-7.1533 4.586439-1.40494 8.716028-2.33243 11.809203-3.36479-8.347338 3.11114-18.799839 5.18999-14.521582 10.51809z"
         fill="url(#k)"
         id="path71" />
    </g>
  </g>
</svg>
