<?xml version="1.0" encoding="UTF-8" standalone="no"?>
<svg
   xmlns:dc="http://purl.org/dc/elements/1.1/"
   xmlns:cc="http://creativecommons.org/ns#"
   xmlns:rdf="http://www.w3.org/1999/02/22-rdf-syntax-ns#"
   xmlns:svg="http://www.w3.org/2000/svg"
   xmlns="http://www.w3.org/2000/svg"
   xmlns:xlink="http://www.w3.org/1999/xlink"
   xmlns:sodipodi="http://sodipodi.sourceforge.net/DTD/sodipodi-0.dtd"
   xmlns:inkscape="http://www.inkscape.org/namespaces/inkscape"
   width="48"
   height="48"
   id="svg2"
   version="1.1"
   inkscape:version="0.91 r13725"
   sodipodi:docname="kwin.svg">
  <metadata
     id="metadata60">
    <rdf:RDF>
      <cc:Work
         rdf:about="">
        <dc:format>image/svg+xml</dc:format>
        <dc:type
           rdf:resource="http://purl.org/dc/dcmitype/StillImage" />
      </cc:Work>
    </rdf:RDF>
  </metadata>
  <sodipodi:namedview
     pagecolor="#ffffff"
     bordercolor="#666666"
     borderopacity="1"
     objecttolerance="10"
     gridtolerance="10"
     guidetolerance="10"
     inkscape:pageopacity="0"
     inkscape:pageshadow="2"
     inkscape:window-width="1920"
     inkscape:window-height="1011"
     id="namedview58"
     showgrid="false"
     inkscape:zoom="4.9166667"
     inkscape:cx="-43.512255"
     inkscape:cy="18.960642"
     inkscape:window-x="0"
     inkscape:window-y="0"
     inkscape:window-maximized="1"
     inkscape:current-layer="svg2" />
  <defs
     id="defs4">
    <linearGradient
       id="a"
       y1="15"
       x1="16"
       y2="39"
       x2="40"
       gradientUnits="userSpaceOnUse"
       gradientTransform="translate(388.57 505.8)">
      <stop
         stop-color="#383e51"
         id="stop7" />
      <stop
         offset="1"
         stop-color="#655c6f"
         stop-opacity="0"
         id="stop9" />
    </linearGradient>
    <linearGradient
       id="b"
       y1="543.8"
       y2="502.66"
       x2="0"
       gradientUnits="userSpaceOnUse"
       gradientTransform="matrix(.66667 0 0 .63518 140.19 194.52)">
      <stop
         stop-color="#c6cdd1"
         id="stop12" />
      <stop
         offset="1"
         stop-color="#e0e5e7"
         id="stop14" />
    </linearGradient>
    <linearGradient
       id="c"
       y1="525.8"
       y2="540.8"
       x1="391.57"
       gradientUnits="userSpaceOnUse"
       x2="406.57"
       gradientTransform="translate(12-4)">
      <stop
         id="stop17" />
      <stop
         offset="1"
         stop-opacity="0"
         id="stop19" />
    </linearGradient>
    <linearGradient
       id="d"
       xlink:href="#b"
       y1="543.8"
       y2="502.66"
       x2="0"
       gradientUnits="userSpaceOnUse"
       gradientTransform="matrix(.66667 0 0 .63518 132.19 186.52)" />
    <linearGradient
       xlink:href="#c"
       id="e"
       y1="525.8"
       x1="391.57"
       y2="540.8"
       gradientUnits="userSpaceOnUse"
       x2="406.57"
       gradientTransform="translate(4-12)" />
    <linearGradient
       id="f"
       y1="537.8"
       y2="521.8"
       x2="0"
       gradientUnits="userSpaceOnUse">
      <stop
         stop-color="#21c9fb"
         id="stop24" />
      <stop
         offset="1"
         stop-color="#1a86f2"
         id="stop26" />
    </linearGradient>
  </defs>
  <g
     transform="translate(-384.57-499.8)"
     id="g28">
    <rect
       width="32"
       x="388.57"
       y="505.8"
       fill="url(#d)"
       rx="0"
       height="28"
       id="rect30"
       style="fill:#ececec;fill-opacity:1" />
    <path
       opacity=".2"
       fill="url(#e)"
       fill-rule="evenodd"
       d="m389.57 531.8l30-20 1 1v21h-29z"
       id="path32" />
    <rect
       width="32"
       x="388.57"
       y="505.8"
       fill="#566069"
       height="4"
       id="rect34"
       style="fill:#292f34;fill-opacity:1" />
    <rect
       width="32"
       x="388.57"
       y="509.8"
       fill="#3daee9"
       height="1"
       id="rect36"
       style="fill:#1abc9c;fill-opacity:1" />
    <rect
       width="30"
       x="389.57"
       y="511.8"
       fill="#ffffff"
       height="20"
       id="rect38" />
    <rect
       width="2"
       x="417.57"
       y="506.8"
       fill="#eff0f1"
       rx="1"
       height="2"
       id="rect40" />
    <rect
       width="32"
       x="396.57"
       y="513.8"
       fill="url(#b)"
       rx="0"
       height="28"
       id="rect42"
       style="fill:#ececec;fill-opacity:1" />
    <path
       opacity=".2"
       fill="url(#c)"
       fill-rule="evenodd"
       d="m397.57 539.8l30-20 1 1v21h-29z"
       id="path44" />
    <rect
       width="32"
       x="396.57"
       y="513.8"
       fill="#566069"
       height="4"
       id="rect46"
       style="fill:#292f34;fill-opacity:1" />
    <rect
       width="32"
       x="396.57"
       y="517.8"
       fill="#3daee9"
       height="1"
       id="rect48"
       style="fill:#1abc9c;fill-opacity:1" />
    <rect
       width="30"
       x="397.57"
       y="519.8"
       fill="#ffffff"
       height="20"
       id="rect50" />
    <rect
       width="2"
       x="425.57"
       y="514.8"
       fill="#eff0f1"
       rx="1"
       height="2"
       id="rect52" />
    <path
       opacity=".2"
       fill="url(#a)"
       fill-rule="evenodd"
       d="m417.61 533.12c-4.04 1.677-9.04 1.677-10.04 3.037l6.56 5.64h14.44v-12.413l-8-6.822-3.86 4.705z"
       id="path54" />
    <path
       fill="url(#f)"
       color-rendering="auto"
       color-interpolation-filters="linearRGB"
       shape-rendering="auto"
       image-rendering="auto"
       text-rendering="auto"
       color-interpolation="sRGB"
       color="#000000"
       d="m413.91 521.8l-2.833.265v10.94l2.802-.382v-4.676l3.735 5.176 2.926-.882-3.829-4.97 3.86-4.705-2.988-.647-3.704 4.705zm-6.381 2.676c-.032 0-.07.017-.093.03l-1.089 1.059c-.046.046-.065.123-.031.177l1.276 2c-.229.364-.398.762-.529 1.176l-2.366.471c-.066.017-.124.054-.124.118v1.471c0 .062.061.131.124.146l2.303.529c.123.48.309.935.56 1.353l-1.339 1.912c-.037.054-.018.131.031.177l1.09 1.029c.046.042.13.064.187.03l2.086-1.206c.41.224.84.41 1.307.529l.498 2.206c.014.064.057.118.124.118h1.556c.066 0 .14-.057.156-.118l.56-2.206c.482-.123.95-.325 1.37-.559l2.054 1.294c.057.034.139.017.187-.03l1.089-1.029c.047-.046.065-.123.031-.176l-.747-1.176-.249.088c-.036.017-.073 0-.093-.03 0 0-.471-.674-1.089-1.529-.74 1.368-2.247 2.294-3.984 2.294-2.469 0-4.482-1.873-4.482-4.206 0-1.716 1.091-3.192 2.646-3.853v-1.088c-.283.094-.549.19-.809.324 0 0-.03 0-.031 0l-2.086-1.294c-.028-.017-.062-.032-.093-.029"
       id="path56" />
  </g>
</svg>
