<?xml version="1.0" encoding="UTF-8" standalone="no"?>
<!-- Created with Inkscape (http://www.inkscape.org/) -->

<svg
   xmlns:dc="http://purl.org/dc/elements/1.1/"
   xmlns:cc="http://creativecommons.org/ns#"
   xmlns:rdf="http://www.w3.org/1999/02/22-rdf-syntax-ns#"
   xmlns:svg="http://www.w3.org/2000/svg"
   xmlns="http://www.w3.org/2000/svg"
   xmlns:xlink="http://www.w3.org/1999/xlink"
   xmlns:sodipodi="http://sodipodi.sourceforge.net/DTD/sodipodi-0.dtd"
   xmlns:inkscape="http://www.inkscape.org/namespaces/inkscape"
   width="64"
   version="1.1"
   height="64"
   id="svg2"
   inkscape:version="0.92.0 r"
   sodipodi:docname="bookmarks.svg">
  <sodipodi:namedview
     pagecolor="#ffffff"
     bordercolor="#666666"
     borderopacity="1"
     objecttolerance="10"
     gridtolerance="10"
     guidetolerance="10"
     inkscape:pageopacity="0"
     inkscape:pageshadow="2"
     inkscape:window-width="1920"
     inkscape:window-height="1011"
     id="namedview19"
     showgrid="false"
     inkscape:zoom="7.375"
     inkscape:cx="36.543804"
     inkscape:cy="52.293881"
     inkscape:window-x="0"
     inkscape:window-y="0"
     inkscape:window-maximized="1"
     inkscape:current-layer="layer1" />
  <defs
     id="defs5455">
    <linearGradient
       inkscape:collect="always"
       xlink:href="#linearGradient4501"
       id="linearGradient4503"
       x1="420.57144"
       y1="501.798"
       x2="420.57144"
       y2="489.798"
       gradientUnits="userSpaceOnUse" />
    <linearGradient
       inkscape:collect="always"
       id="linearGradient4501">
      <stop
         style="stop-color:#179577;stop-opacity:1;"
         offset="0"
         id="stop4497" />
      <stop
         style="stop-color:#1ec29a;stop-opacity:1"
         offset="1"
         id="stop4499" />
    </linearGradient>
    <linearGradient
       gradientTransform="translate(-9e-6,-9.94e-5)"
       inkscape:collect="always"
       xlink:href="#linearGradient4176"
       id="linearGradient4182"
       x1="429.57144"
       y1="541.79797"
       x2="429.57144"
       y2="496.798"
       gradientUnits="userSpaceOnUse" />
    <linearGradient
       inkscape:collect="always"
       id="linearGradient4176">
      <stop
         style="stop-color:#1cb893;stop-opacity:1"
         offset="0"
         id="stop4178" />
      <stop
         style="stop-color:#42e2bc;stop-opacity:1"
         offset="1"
         id="stop4180" />
    </linearGradient>
  </defs>
  <metadata
     id="metadata5458">
    <rdf:RDF>
      <cc:Work
         rdf:about="">
        <dc:format>image/svg+xml</dc:format>
        <dc:type
           rdf:resource="http://purl.org/dc/dcmitype/StillImage" />
      </cc:Work>
    </rdf:RDF>
  </metadata>
  <g
     inkscape:label="Capa 1"
     inkscape:groupmode="layer"
     id="layer1"
     transform="matrix(1 0 0 1 -384.57143 -483.798)">
    <g
       transform="translate(-5e-6,5e-5)"
       id="g4515">
      <path
         d="m 387.57144,503.79802 v 1 h 19.99999 l 3,-5 -4,4 z"
         id="path4224-3"
         style="fill:#ffffff;fill-opacity:0.235294;fill-rule:evenodd"
         inkscape:connector-curvature="0" />
      <path
         sodipodi:nodetypes="ccccccc"
         inkscape:connector-curvature="0"
         id="rect4160"
         d="m 387.57144,489.7979 h 23.99999 l 5,6 h 29 l 10e-6,38 h -58 z"
         style="fill:url(#linearGradient4503);fill-opacity:1;fill-rule:evenodd;stroke:none;stroke-width:1px;stroke-linecap:butt;stroke-linejoin:miter;stroke-opacity:1" />
      <path
         sodipodi:nodetypes="cccccccc"
         inkscape:connector-curvature="0"
         style="fill:#ffffff;fill-opacity:0.235294;fill-rule:evenodd"
         id="path4166-3"
         d="m 411.57143,489.7979 5,7 h 2 27 v -1 h -27 -2 z" />
      <path
         sodipodi:nodetypes="ccccccc"
         inkscape:connector-curvature="0"
         id="rect3347"
         d="m 387.57143,502.7979 h 24 l 5,-6 h 29 l 10e-6,45 h -58 z"
         style="fill:url(#linearGradient4182);fill-opacity:1;fill-rule:evenodd;stroke:none;stroke-width:1px;stroke-linecap:butt;stroke-linejoin:miter;stroke-opacity:1" />
      <path
         d="m 416.57143,496.7979 -4,7 h -4 -21 v -1 h 21 3 z"
         id="path4168-6"
         style="fill:#ffffff;fill-opacity:0.235294;fill-rule:evenodd"
         inkscape:connector-curvature="0"
         sodipodi:nodetypes="cccccccc" />
      <path
         sodipodi:nodetypes="cccccc"
         d="m 387.57143,501.7979 v 1 h 24 l 5,-6 -6,5 z"
         id="path4228-6"
         style="fill:#000000;fill-opacity:0.23529412;fill-rule:evenodd"
         inkscape:connector-curvature="0" />
      <path
         d="m 387.57143,540.798 v 1 h 1 56 1 v -1 h -1 -56 z"
         id="path4151-2-7"
         style="fill-opacity:0.235294"
         inkscape:connector-curvature="0" />
      <rect
         y="493.79791"
         x="390.57141"
         height="3.9999897"
         width="17.999998"
         id="rect4184"
         style="fill:#000000;fill-opacity:0.23529412;stroke:none" />
      <rect
         style="fill:#ffffff;fill-opacity:1;stroke:none"
         id="rect4186"
         width="16.000004"
         height="1.9999911"
         x="391.57141"
         y="494.79791" />
      <path
         sodipodi:nodetypes="ccccc"
         inkscape:connector-curvature="0"
         id="rect4190"
         d="m 391.57142,494.7979 h 6.00001 v 2 h -6.00001 z"
         style="fill:#17c4fc;fill-opacity:1;stroke:none" />
    </g>
    <path
       sodipodi:nodetypes="cccccccc"
       inkscape:connector-curvature="0"
       style="fill:#ffffff;fill-opacity:0.235294;fill-rule:evenodd"
       id="path4168"
       d="m 416.57143,496.7979 -4,7 -4,0 -21,0 0,-1 21,0 3,0 z" />
    <path
       inkscape:connector-curvature="0"
       style="fill:#000000;color:#000000;stroke-width:2;fill-opacity:0.23529412"
       id="path3024"
       d="m 416.57143,510.79801 c -3,6.99999 0,0 -3,6.99999 l -6.99998,1 0,0 -2e-5,0 5,5 -1,6.99998 0,2e-5 0,0 6,-4 6,3.99998 0,0 0,0 -1,-6.99998 5.00002,-5 0,0 0,0 -7.00002,-1 c -1.22917,-2.02083 10e-6,0 -3,-6.99999 z m 0,2.53124 2.09375,4.875 0.21875,0.5 0.53125,0.0937 5,0.71875 -3.5625,3.5625 -0.34375,0.375 0.0625,0.5 0.6875,4.75 -4.125,-2.75 -0.5625,-0.34375 -0.5625,0.34375 -4.125,2.75 0.6875,-4.75 0.0625,-0.5 -0.34375,-0.375 -3.5625,-3.5625 5,-0.71875 0.53125,-0.0937 0.21875,-0.5 z" />
  </g>
</svg>
