<?xml version="1.0" encoding="UTF-8" standalone="no"?>
<svg
   xmlns:dc="http://purl.org/dc/elements/1.1/"
   xmlns:cc="http://creativecommons.org/ns#"
   xmlns:rdf="http://www.w3.org/1999/02/22-rdf-syntax-ns#"
   xmlns:svg="http://www.w3.org/2000/svg"
   xmlns="http://www.w3.org/2000/svg"
   xmlns:sodipodi="http://sodipodi.sourceforge.net/DTD/sodipodi-0.dtd"
   xmlns:inkscape="http://www.inkscape.org/namespaces/inkscape"
   width="16"
   height="16"
   version="1.1"
   id="svg4"
   sodipodi:docname="octopi-green-symbolic.svg"
   inkscape:version="0.92.4 5da689c313, 2019-01-14"
   inkscape:export-filename="/run/media/bogdan/WORK/Work2019/Manjaro2019/Custom_icons/package-manager-symbolic-icons/octopi-green.png"
   inkscape:export-xdpi="288"
   inkscape:export-ydpi="288">
  <metadata
     id="metadata10">
    <rdf:RDF>
      <cc:Work
         rdf:about="">
        <dc:format>image/svg+xml</dc:format>
        <dc:type
           rdf:resource="http://purl.org/dc/dcmitype/StillImage" />
        <dc:title />
      </cc:Work>
    </rdf:RDF>
  </metadata>
  <defs
     id="defs8" />
  <sodipodi:namedview
     pagecolor="#ffffff"
     bordercolor="#666666"
     borderopacity="1"
     objecttolerance="10"
     gridtolerance="10"
     guidetolerance="10"
     inkscape:pageopacity="0"
     inkscape:pageshadow="2"
     inkscape:window-width="1920"
     inkscape:window-height="1053"
     id="namedview6"
     showgrid="false"
     inkscape:zoom="22.627417"
     inkscape:cx="4.9843073"
     inkscape:cy="9.4467132"
     inkscape:window-x="1920"
     inkscape:window-y="0"
     inkscape:window-maximized="1"
     inkscape:current-layer="svg4" />
  <path
     style="opacity:1;fill:#dfdfdf;fill-opacity:1;fill-rule:nonzero;stroke:none;stroke-width:1.23800313;stroke-linecap:square;stroke-linejoin:round;stroke-miterlimit:4;stroke-dasharray:none;stroke-opacity:1;paint-order:stroke markers fill"
     d="M 8 0.16601562 L 2.4570312 2.4589844 L 0.16015625 8.0058594 L 2.53125 13.832031 C 2.603819 13.977846 2.7272787 14.098484 2.890625 14.164062 C 3.2466905 14.307555 3.653014 14.137179 3.796875 13.78125 C 3.7973675 13.78005 3.7963904 13.778544 3.796875 13.777344 C 3.9000742 13.528031 4.1848187 13.406619 4.4355469 13.507812 C 4.6870405 13.609307 4.8094105 13.896774 4.7089844 14.148438 C 4.7089844 14.148438 4.7089844 14.150391 4.7089844 14.150391 C 4.5668185 14.506012 4.7384468 14.909119 5.09375 15.052734 C 5.4498155 15.196225 5.8522318 15.025851 5.9960938 14.669922 C 6.0978411 14.417821 6.3865701 14.294736 6.6386719 14.396484 C 6.8882262 14.497199 7.0083593 14.781014 6.9121094 15.03125 C 6.9111808 15.03355 6.9090931 15.032956 6.9082031 15.035156 C 6.76471 15.391223 6.9370525 15.797545 7.2929688 15.941406 C 7.452297 16.005606 7.6198899 16.002329 7.7695312 15.949219 L 8.8828125 15.486328 A 4.6949148 4.6949148 0 0 1 7.9726562 13.736328 L 6.3554688 9.8359375 L 2.1621094 8.0976562 L 3.8964844 3.9023438 L 8.09375 2.1660156 L 12.287109 3.9023438 L 14.011719 8.0605469 A 4.6949148 4.6949148 0 0 1 15.480469 8.875 L 15.839844 8.0058594 L 13.544922 2.4589844 L 8 0.16601562 z "
     id="path1004" />
  <path
     style="fill:#dddddd;fill-opacity:0.29803922;stroke-width:0.46653053"
     d="m 6.2017273,4.8065685 c -0.7753736,0 -1.3984414,0.6249987 -1.3984414,1.4003724 1e-6,0.7753737 0.6230678,1.3984409 1.3984414,1.3984409 0.7753735,0 1.4003728,-0.6230672 1.4003728,-1.3984409 0,-0.052736 -0.00983,-0.1033354 -0.015452,-0.1545238 -0.038716,0.2188686 -0.2197374,0.3863096 -0.4500506,0.3863096 -0.2584588,0 -0.4674354,-0.2070453 -0.4674354,-0.4655031 0,-0.2584579 0.2089766,-0.4674347 0.4674354,-0.4674347 0.1552675,0 0.2842131,0.08102 0.3689248,0.197018 C 7.3038389,5.1782816 6.7989775,4.8065685 6.2017273,4.8065685 Z"
     id="rect1006"
     inkscape:connector-curvature="0" />
  <path
     style="fill:#dddddd;fill-opacity:0.29803922;stroke-width:0.46653053"
     d="m 11.33385,4.8065685 c -0.775373,0 -1.3984397,0.6249987 -1.3984397,1.4003724 0,0.7753737 0.6230667,1.3984409 1.3984397,1.3984409 0.775374,0 1.400373,-0.6230672 1.400373,-1.3984409 0,-0.052736 -0.0098,-0.1033354 -0.01546,-0.1545238 -0.03872,0.2188686 -0.221669,0.3863096 -0.451982,0.3863096 -0.258459,0 -0.465504,-0.2070453 -0.465504,-0.4655031 0,-0.2584579 0.207045,-0.4674347 0.465504,-0.4674347 0.155267,0 0.286144,0.08102 0.370857,0.197018 -0.20168,-0.5245253 -0.706542,-0.8962384 -1.303793,-0.8962384 z"
     id="rect1016"
     inkscape:connector-curvature="0" />
  <path
     id="path898"
     d="M 12.5,9 A 3.4999999,3.4999999 0 0 0 9,12.5 3.4999999,3.4999999 0 0 0 12.5,16 3.4999999,3.4999999 0 0 0 16,12.5 3.4999999,3.4999999 0 0 0 15.7235,11.1455 L 12.13965,15.25 10.25,13.375 c -0.19,-0.19 -0.19,-0.52975 0,-0.71975 0.19,-0.19 0.52975,-0.19 0.71975,0 l 1.125,1.12525 3.08275,-3.52855 A 3.4999999,3.4999999 0 0 0 12.5,9 Z"
     style="fill:#16a085;fill-opacity:1;stroke-width:0.5"
     inkscape:connector-curvature="0" />
</svg>
