<?xml version="1.0" encoding="UTF-8" standalone="no"?>
<svg
   xmlns:dc="http://purl.org/dc/elements/1.1/"
   xmlns:cc="http://creativecommons.org/ns#"
   xmlns:rdf="http://www.w3.org/1999/02/22-rdf-syntax-ns#"
   xmlns:svg="http://www.w3.org/2000/svg"
   xmlns="http://www.w3.org/2000/svg"
   xmlns:xlink="http://www.w3.org/1999/xlink"
   xmlns:sodipodi="http://sodipodi.sourceforge.net/DTD/sodipodi-0.dtd"
   xmlns:inkscape="http://www.inkscape.org/namespaces/inkscape"
   width="64"
   height="64"
   version="1.1"
   id="svg37"
   sodipodi:docname="pamac@64x64.svg"
   inkscape:version="0.92.4 5da689c313, 2019-01-14">
  <metadata
     id="metadata41">
    <rdf:RDF>
      <cc:Work
         rdf:about="">
        <dc:format>image/svg+xml</dc:format>
        <dc:type
           rdf:resource="http://purl.org/dc/dcmitype/StillImage" />
      </cc:Work>
    </rdf:RDF>
  </metadata>
  <sodipodi:namedview
     pagecolor="#ffffff"
     bordercolor="#666666"
     borderopacity="1"
     objecttolerance="10"
     gridtolerance="10"
     guidetolerance="10"
     inkscape:pageopacity="0"
     inkscape:pageshadow="2"
     inkscape:window-width="1920"
     inkscape:window-height="1053"
     id="namedview39"
     showgrid="false"
     inkscape:zoom="7.375"
     inkscape:cx="48.859218"
     inkscape:cy="34.279588"
     inkscape:window-x="0"
     inkscape:window-y="0"
     inkscape:window-maximized="1"
     inkscape:current-layer="svg37" />
  <defs
     id="defs11">
    <linearGradient
       id="linearGradient2450">
      <stop
         style="stop-color:#35bf5c;stop-opacity:0.89887643"
         offset="0"
         id="stop2" />
      <stop
         style="stop-color:#35bf5c;stop-opacity:0"
         offset="1"
         id="stop4" />
    </linearGradient>
    <radialGradient
       id="radialGradient3438"
       cx="-174.61"
       cy="1608.253"
       r="57.831"
       fx="-174.61"
       fy="1608.253"
       gradientTransform="matrix(2.827672,-2.8518669,3.1382469,3.1116204,-4651.8885,-3868.6472)"
       gradientUnits="userSpaceOnUse"
       xlink:href="#linearGradient2450" />
    <radialGradient
       id="radialGradient3438-7"
       cx="-174.61"
       cy="1608.253"
       r="57.831"
       fx="-174.61"
       fy="1608.253"
       gradientTransform="matrix(2.827672,-2.8518669,3.1382469,3.1116204,-4651.8885,-3868.6472)"
       gradientUnits="userSpaceOnUse"
       xlink:href="#linearGradient2450" />
    <radialGradient
       id="radialGradient3438-5"
       cx="-174.61"
       cy="1608.253"
       r="57.831"
       fx="-174.61"
       fy="1608.253"
       gradientTransform="matrix(2.827672,-2.8518669,3.1382469,3.1116204,-4651.8885,-3868.6472)"
       gradientUnits="userSpaceOnUse"
       xlink:href="#linearGradient2450" />
    <radialGradient
       id="radialGradient3438-7-3"
       cx="-174.61"
       cy="1608.253"
       r="57.831"
       fx="-174.61"
       fy="1608.253"
       gradientTransform="matrix(2.827672,-2.8518669,3.1382469,3.1116204,-4651.8885,-3868.6472)"
       gradientUnits="userSpaceOnUse"
       xlink:href="#linearGradient2450" />
  </defs>
  <g
     id="g929"
     transform="translate(69.926582)">
    <path
       sodipodi:nodetypes="cccccccccccccccccccccccccccccccccccccccc"
       inkscape:connector-curvature="0"
       id="path852"
       d="m -37.925426,5.954009 -24.527342,11.395095 v 22.316537 l 2.623046,1.206836 v 3.250296 l 3.498047,1.607909 v -3.248483 l 3.060546,1.408279 3.06055,1.406466 v -3.248483 l 3.496091,1.607909 v 3.250295 3.2503 l 7e-6,1.790353 2.623046,1.217725 -3e-6,-1.803055 1.4e-5,-1.864232 3.498047,1.607909 -1.8e-5,1.866044 2.62305,1.20684 v 1.495391 l 0.900386,-0.413774 2.623053,-1.206837 v 2.373748 l 3.49804,-1.624239 v -2.357417 l 2.621101,-1.206836 v -3.2503 l 3.49804,-1.607908 v 3.248483 l 3.49805,-1.607909 1.8e-5,-2.369408 2.623049,-1.20684 -1.7e-5,2.369408 2.8e-5,1.48501 2.623042,-1.219542 -2.8e-5,-1.472304 2.687503,-1.237692 V 17.349104 Z"
       style="fill:#4f4f4f;stroke-width:2.80000019" />
    <path
       sodipodi:nodetypes="ccccc"
       style="fill:#848484;stroke-width:2.80000019"
       d="m -37.925804,13.483819 16.778569,7.795113 -16.778569,7.015597 -16.778573,-7.015597 z"
       id="path4"
       inkscape:connector-curvature="0" />
    <path
       inkscape:connector-curvature="0"
       id="path894"
       d="M -37.925426,7.4674877 -61.416694,18.381237 v 18.289094 l 2.512243,1.155862 v 3.113001 l 3.350284,1.539988 V 39.36792 l 2.931264,1.348793 2.931267,1.347057 v -3.111265 l 3.348414,1.539987 v 3.112998 3.113001 1.629675 l 2.512243,1.166285 v -1.641837 -1.72701 l 3.350281,1.539987 v 1.728746 l 2.51225,1.155859 v 1.432226 l 0.862362,-0.396295 2.51224,-1.155859 v 2.27348 l 3.35028,-1.555629 v -2.257842 l 2.510378,-1.155858 v -2.784484 l 3.350284,-1.539991 v 2.782751 l 3.350287,-1.539991 v -1.903596 l 2.512239,-1.155859 v 1.9036 1.387727 l 2.512247,-1.168028 V 42.36099 l 2.573983,-1.185409 V 18.381237 Z m 0,7.0168493 16.779479,7.793797 v 17.183642 l -16.779479,7.795537 V 29.294987 l -16.779479,-7.016853 z"
       style="opacity:0.2;fill:#000000;stroke-width:2.80000019"
       sodipodi:nodetypes="ccccccccccccccccccccccccccccccccccccccccccccccc" />
    <path
       inkscape:connector-curvature="0"
       id="path896"
       d="m -38.003546,5.0012907 c -0.300861,0.01015 -0.595925,0.08001 -0.865236,0.205065 L -63.394175,16.599638 c -0.713297,0.33124 -1.163954,1.008519 -1.164066,1.749459 V 47.64896 c 1.12e-4,0.74094 0.450769,1.418226 1.164066,1.749463 l 24.525393,11.395094 c 0.592635,0.275311 1.290175,0.275311 1.882816,0 L -12.45863,49.398423 c 0.7133,-0.331241 1.16395,-1.008523 1.164059,-1.749463 V 18.349097 c -1.09e-4,-0.74094 -0.450759,-1.418222 -1.164059,-1.749459 L -36.985966,5.2063557 c -0.31535,-0.14644 -0.665259,-0.216965 -1.01758,-0.205065 z m 0.07816,1.952718 24.527346,11.3950953 v 27.020479 l -2.687503,1.237692 v 1.472301 l -2.623042,1.219545 v -1.48501 -2.369408 l -2.62306,1.20684 v 2.369408 l -3.49804,1.607909 v -3.248483 l -3.498051,1.607908 v 3.2503 l -2.62109,1.206836 v 2.357417 l -3.49805,1.624239 v -2.373748 l -2.623053,1.206837 -0.900383,0.413774 v -1.495391 l -2.623053,-1.20684 v -1.866044 l -3.498058,-1.607909 v 1.864232 1.803055 l -2.623046,-1.217725 v -1.790353 -3.2503 -3.250295 l -3.496094,-1.607909 v 3.248483 l -3.060547,-1.406463 -3.06055,-1.408282 v 3.248483 l -3.49805,-1.607909 v -3.250296 l -2.623046,-1.206836 V 18.349104 Z"
       style="opacity:0.2;fill:#000000;stroke-width:2.80000019"
       sodipodi:nodetypes="cccccccccccccccccccccccccccccccccccccccccccccccccccccc" />
    <path
       sodipodi:nodetypes="ccccc"
       style="fill:#4f4f4f;fill-opacity:1;stroke-width:2.80000019"
       d="m -21.147235,21.278932 3.78e-4,17.183264 -16.778569,7.795117 -3.78e-4,-17.962784 z"
       id="path8"
       inkscape:connector-curvature="0" />
    <path
       inkscape:connector-curvature="0"
       id="path898"
       d="m -27.885487,25.020205 -1.316919,0.589233 v 2.040572 1.633843 1.633851 l -1.758391,0.783896 v -1.633847 l -1.53765,0.686564 -0.389088,0.17381 v 2.447735 h -2.956548 l 6.301039,6.689969 6.299538,-6.689969 h -2.956562 v -5.432114 l -1.685419,0.752612 v -1.633847 z"
       style="opacity:0.2;fill:#000000;stroke-width:2.80000019"
       sodipodi:nodetypes="cccccccccccccccccc" />
    <path
       sodipodi:nodetypes="cccccccccccccccccc"
       style="fill:#848484;stroke-width:2.80000019"
       d="m -27.885487,24.020205 -1.316919,0.589233 v 2.040572 1.633843 1.633851 l -1.758391,0.783896 v -1.633847 l -1.53765,0.686564 -0.389088,0.17381 v 2.447735 h -2.956548 l 6.301039,6.689969 6.299538,-6.689969 h -2.956562 v -5.432114 l -1.685419,0.752612 v -1.633847 z"
       id="path16"
       inkscape:connector-curvature="0" />
    <path
       sodipodi:nodetypes="ccccccccccccccccccccccccccccccccccccccccccccccc"
       style="fill:#fabd7f;stroke-width:2.80000019"
       d="m -37.925426,6.467488 -23.491268,10.913749 v 18.289094 l 2.512243,1.155862 v 3.113001 l 3.350284,1.539988 V 38.36792 l 2.931264,1.348793 2.931267,1.347057 v -3.111265 l 3.348414,1.539987 v 3.112998 3.113001 1.629675 l 2.512243,1.166285 v -1.641837 -1.72701 l 3.350281,1.539987 v 1.728746 l 2.51225,1.155859 v 1.432226 l 0.862362,-0.396295 2.51224,-1.155859 v 2.27348 l 3.35028,-1.555629 v -2.257842 l 2.510378,-1.155858 v -2.784484 l 3.350284,-1.539991 v 2.782751 l 3.350287,-1.539991 v -1.903596 l 2.512239,-1.155859 v 1.9036 1.387727 l 2.512247,-1.168028 V 41.36099 l 2.573983,-1.185409 V 17.381237 Z m 0,7.016849 16.779479,7.793797 v 17.183642 l -16.779479,7.795537 V 28.294987 l -16.779479,-7.016853 z"
       id="path10"
       inkscape:connector-curvature="0" />
    <path
       sodipodi:nodetypes="cccccccccccccccccccccccccccccccccccccccccccccccccccccc"
       style="fill:#16a085;stroke-width:2.80000019"
       d="m -38.003546,4.001291 c -0.300861,0.01015 -0.595925,0.08001 -0.865236,0.205065 l -24.525393,11.393282 c -0.713297,0.33124 -1.163954,1.008519 -1.164066,1.749459 V 46.64896 c 1.12e-4,0.74094 0.450769,1.418226 1.164066,1.749463 l 24.525393,11.395094 c 0.592635,0.275311 1.290175,0.275311 1.882816,0 L -12.45863,48.398423 c 0.7133,-0.331241 1.16395,-1.008523 1.164059,-1.749463 V 17.349097 c -1.09e-4,-0.74094 -0.450759,-1.418222 -1.164059,-1.749459 L -36.985966,4.206356 c -0.31535,-0.14644 -0.665259,-0.216965 -1.01758,-0.205065 z m 0.07816,1.952718 24.527346,11.395095 v 27.020479 l -2.687503,1.237692 v 1.472301 l -2.623042,1.219545 v -1.48501 -2.369408 l -2.62306,1.20684 v 2.369408 l -3.49804,1.607909 v -3.248483 l -3.498051,1.607908 v 3.2503 l -2.62109,1.206836 v 2.357417 l -3.49805,1.624239 v -2.373748 l -2.623053,1.206837 -0.900383,0.413774 v -1.495391 l -2.623053,-1.20684 v -1.866044 l -3.498058,-1.607909 v 1.864232 1.803055 l -2.623046,-1.217725 v -1.790353 -3.2503 -3.250295 l -3.496094,-1.607909 v 3.248483 l -3.060547,-1.406463 -3.06055,-1.408282 v 3.248483 l -3.49805,-1.607909 v -3.250296 l -2.623046,-1.206836 V 17.349104 Z"
       id="path12"
       inkscape:connector-curvature="0" />
    <path
       id="path912"
       d="M -37.925781,6.4667969 -61.416016,17.380859 v 1 L -37.925781,7.4667969 -14.433594,18.380859 v -1 z m -15.646485,15.2851561 -1.132812,0.525391 16.779297,7.017578 v -1 z m 32.425782,16.708985 -16.779297,7.796874 v 1 l 16.779297,-7.796874 z"
       style="opacity:0.2;fill:#ffffff;stroke-width:2.80000019"
       inkscape:connector-curvature="0" />
    <path
       id="path914"
       d="m -38.003906,4.0019531 c -0.300861,0.01015 -0.595924,0.080023 -0.865235,0.2050781 l -24.52539,11.3925778 c -0.713297,0.33124 -1.163951,1.00906 -1.164063,1.75 v 1 c 1.12e-4,-0.74094 0.450766,-1.41876 1.164063,-1.75 l 24.52539,-11.3925778 c 0.269311,-0.1250549 0.564374,-0.1949281 0.865235,-0.2050781 0.352321,-0.0119 0.702228,0.058638 1.017578,0.2050781 l 24.527344,11.3925778 c 0.7133,0.331237 1.163953,1.00906 1.164062,1.75 v -1 c -1.09e-4,-0.74094 -0.450762,-1.418763 -1.164062,-1.75 L -36.986328,4.2070312 c -0.31535,-0.14644 -0.665257,-0.2169781 -1.017578,-0.2050781 z M -62.453125,39.666016 v 1 l 2.623047,1.207031 v -1 z m 12.242187,2.382812 v 1 l 3.496094,1.607422 v -1 z m -6.121093,0.433594 v 1 l 3.060547,1.408203 3.060546,1.40625 v -1 l -3.060546,-1.40625 z m -3.498047,1.640625 v 1 l 3.498047,1.607422 v -1 z m 46.43164,0.246094 -2.6875,1.238281 v 1 l 2.6875,-1.238281 z m -5.310546,0.07617 -2.623047,1.207032 v 1 l 2.623047,-1.207032 z m -6.121094,1.935547 -3.498047,1.607422 v 1 l 3.498047,-1.607422 z m 8.74414,0.699219 -2.623046,1.21875 v 1 l 2.623046,-1.21875 z m -5.246093,0.941406 -3.498047,1.607422 v 1 l 3.498047,-1.607422 z m -22.759766,1.476563 v 1 l 3.498047,1.607422 v -1 z m 15.763672,1.740234 -2.621094,1.207031 v 1 l 2.621094,-1.207031 z m -18.386719,0.708985 v 1 l 2.623047,1.21875 v -1 z m 6.121094,1.02539 v 1 l 2.623047,1.205078 v -1 z m 6.146484,1.080078 -2.623046,1.207032 -0.900391,0.414062 v 1 l 0.900391,-0.414062 2.623046,-1.207032 z m 3.498047,0.75 -3.498047,1.625 v 1 l 3.498047,-1.625 z"
       style="opacity:0.2;fill:#ffffff;stroke-width:2.80000019"
       inkscape:connector-curvature="0" />
  </g>
</svg>
