<svg xmlns="http://www.w3.org/2000/svg" width="22" height="22" version="1.1">
 <defs>
  <style id="current-color-scheme" type="text/css">
   .ColorScheme-Text { color:#dfdfdf; } .ColorScheme-Highlight { color:#4285f4; }
  </style>
 </defs>
 <g transform="matrix(1.1428571,0,0,1.1428571,3,0.71429396)">
  <path style="opacity:0.3;fill:currentColor" class="ColorScheme-Text" d="M 6.9651001,1.999993 0.8215868,4.8541928 v 4.783024 l 0.6570109,0.302284 v 0.8141232 l 0.8761773,0.402742 v -0.813668 l 0.7665936,0.352741 0.7665945,0.352287 v -0.813669 l 0.8756885,0.402744 v 0.814121 0.814122 0.426197 l 0.65701,0.305012 V 12.566874 12.11522 l 0.8761763,0.402743 v 0.452107 l 0.6570109,0.302285 v 0.374559 L 7.1793776,13.543275 7.8363858,13.24099 v 0.594568 l 0.8761769,-0.406833 v -0.590479 l 0.6565225,-0.302284 v -0.728207 l 0.8761768,-0.402743 v 0.727754 l 0.876179,-0.402744 v -0.497834 l 0.657009,-0.302284 v 0.497835 0.362923 l 0.657011,-0.305466 v -0.35974 l 0.673156,-0.310012 V 4.8541928 Z m 0,1.8350697 4.3882249,2.0382597 V 10.367244 L 6.9651001,12.405958 V 7.7083918 L 2.5768767,5.8733224 Z"/>
  <path style="fill:currentColor" class="ColorScheme-Text" d="m 0,10.428743 v 2.079641 c 2.9290637e-5,0.193773 0.11788657,0.370899 0.3044304,0.457526 l 6.4139611,2.980083 c 0.1549877,0.072 0.3374107,0.072 0.4924003,0 L 13.625261,12.96591 c 0.186545,-0.08663 0.3044,-0.263753 0.304428,-0.457526 v -0.849456 0 l -0.550107,0.253345 -0.702844,0.323686 v 0.38504 l -0.685987,0.31894 v -0.388366 -0.619655 l -0.685991,0.315617 v 0.619655 l -0.914819,0.420507 v -0.849554 l -0.9148219,0.420505 v 0.850029 l -0.6854762,0.315616 v 0.616518 l -0.9148214,0.424778 v -0.620791 l -0.6859894,0.315616 -0.235472,0.108211 v -0.39108 L 6.2673715,14.161929 V 13.673916 L 5.3525481,13.253409 v 0.487541 0.47154 L 4.6665586,13.894027 V 13.425808 12.575779 11.725751 L 3.7522477,11.305246 V 12.1548 L 2.9518445,11.786977 2.1514394,11.418678 v 0.849554 L 1.2366177,11.847726 V 10.997699 L 0.5506301,10.682082 0,10.428743"/>
 </g>
</svg>
