<?xml version="1.0" encoding="UTF-8" standalone="no"?>
<svg
   xmlns:dc="http://purl.org/dc/elements/1.1/"
   xmlns:cc="http://creativecommons.org/ns#"
   xmlns:rdf="http://www.w3.org/1999/02/22-rdf-syntax-ns#"
   xmlns:svg="http://www.w3.org/2000/svg"
   xmlns="http://www.w3.org/2000/svg"
   xmlns:sodipodi="http://sodipodi.sourceforge.net/DTD/sodipodi-0.dtd"
   xmlns:inkscape="http://www.inkscape.org/namespaces/inkscape"
   viewBox="0 0 16 16"
   version="1.1"
   id="svg6"
   sodipodi:docname="media-playback-paused.svg"
   inkscape:version="0.92.4 5da689c313, 2019-01-14">
  <metadata
     id="metadata10">
    <rdf:RDF>
      <cc:Work
         rdf:about="">
        <dc:format>image/svg+xml</dc:format>
        <dc:type
           rdf:resource="http://purl.org/dc/dcmitype/StillImage" />
      </cc:Work>
    </rdf:RDF>
  </metadata>
  <sodipodi:namedview
     pagecolor="#ffffff"
     bordercolor="#666666"
     borderopacity="1"
     objecttolerance="10"
     gridtolerance="10"
     guidetolerance="10"
     inkscape:pageopacity="0"
     inkscape:pageshadow="2"
     inkscape:window-width="846"
     inkscape:window-height="728"
     id="namedview8"
     showgrid="false"
     inkscape:zoom="14.75"
     inkscape:cx="10"
     inkscape:cy="8"
     inkscape:window-x="21"
     inkscape:window-y="96"
     inkscape:window-maximized="0"
     inkscape:current-layer="svg6" />
  <defs
     id="defs3051">
    <style
       type="text/css"
       id="current-color-scheme">
      .ColorScheme-Text {
        color:#4d4d4d;
      }
      </style>
  </defs>
  <path
     inkscape:connector-curvature="0"
     class="ColorScheme-Text"
     d="M 8.7499993,5.7499747 H 10.25 V 10.250025 H 8.7499993 Z m -2.9999993,0 h 1.5 V 10.250025 H 5.75 Z M 7.9999993,2.000044 C 4.6760001,2.000044 2,4.675978 2,8 2,11.324022 4.6760001,13.999956 7.9999993,13.999956 11.324001,13.999956 14,11.324022 14,8 14,4.675978 11.324001,2.000044 7.9999993,2.000044 Z m 0,0.7500087 C 10.908499,2.7500527 13.25,5.0914254 13.25,8 c 0,2.908575 -2.341501,5.249947 -5.2500007,5.249947 -2.9084999,0 -5.2499994,-2.341372 -5.2499994,-5.249947 0,-2.9085746 2.3414995,-5.2499473 5.2499994,-5.2499473 z"
     style="color:#31363b;fill:#4d4d4d;fill-opacity:1;stroke:none;stroke-width:1.12495661"
     id="path3804" />
</svg>
