<svg xmlns="http://www.w3.org/2000/svg" width="24" height="24" version="1.1">
 <defs>
  <style id="current-color-scheme" type="text/css">
   .ColorScheme-Text { color:#444444; } .ColorScheme-Highlight { color:#4285f4; }
  </style>
 </defs>
 <g transform="matrix(1.1114509,0,0,1.1114509,4,3.2163403)">
  <path style="fill:currentColor" class="ColorScheme-Highlight" d="m 12.188224,3.822266 v 5.5019527 l 0.25,2.0000003 h 1.5 l 0.25,-2.0000003 V 3.822266 Z m 0,8.501953 v 2 h 2 v -2 z"/>
  <path style="opacity:0.3;fill:currentColor" class="ColorScheme-Text" d="M 7.609375,0.70507812 0.8984375,3.8222656 v 5.2265625 l 0.7167969,0.3300781 v 0.8886718 l 0.9570312,0.441406 V 9.8203125 l 0.8378906,0.3847655 0.8378907,0.384766 V 9.7011719 l 0.9570312,0.4394531 v 0.888672 0.890625 0.464844 L 5.921875,12.71875 V 12.25 11.755859 l 0.9570312,0.439453 v 0.494141 l 0.71875,0.330078 v 0.410157 L 7.84375,13.316406 8.5605469,12.986328 v 0.648438 l 0.9570312,-0.44336 v -0.646484 l 0.7187499,-0.330078 v -0.794922 l 0.951172,-0.4375 v -0.570313 l -3.578125,1.66211 V 6.9414062 L 2.8144531,4.9375 7.609375,2.7089844 11.1875,4.3710938 V 2.3668982 Z"/>
  <path style="fill:currentColor" class="ColorScheme-Highlight" d="m 0,9.9140625 v 2.2714845 c 3.2e-5,0.211697 0.12823225,0.405361 0.33203125,0.5 l 7.00781255,3.255859 c 0.1693239,0.07866 0.3677833,0.07866 0.5371093,0 L 11.1875,14.404297 v -2.21875 l -0.835938,0.382812 v 0.927735 l -0.7480464,0.345703 v 0.673828 l -1,0.462891 v -0.677735 l -0.75,0.345703 -0.2578125,0.117188 v -0.427734 l -0.7480469,-0.34375 v -0.533204 l -1,-0.458984 v 0.53125 0.515625 l -0.75,-0.347656 V 13.1875 12.259766 11.330078 L 4.0996094,10.871094 v 0.927734 l -0.875,-0.402344 -0.875,-0.402343 v 0.929687 L 1.3515625,11.462891 v -0.927735 l -0.75,-0.345703 z"/>
 </g>
</svg>
