<svg xmlns="http://www.w3.org/2000/svg" width="64" height="64" version="1.1">
 <g transform="translate(59.186426)">
  <rect style="opacity:0.2;fill-opacity:0.97044337" width="48.895" height="48.895" x="-48.08" y="5" rx="2.445" ry="2.445"/>
  <rect style="fill:#696969" width="48.895" height="48.895" x="-48.08" y="4" rx="2.445" ry="2.445"/>
  <path style="opacity:0.2;fill-opacity:0.97044337" d="m -30.665944,11.986291 -19.892593,16.618176 2.324222,1.654301 h -1.688478 v 19.646497 h -3.493167 c 0,0 -1.737919,-0.0027 -1.743166,1.743166 L -55.186426,61 h 24.44533 l 0.0273,-9.351569 c 0,0 -0.0042,-1.743166 -1.750001,-1.743166 h -3.493167 V 38.995099 l 0.649415,0.464846 11.94239,-21.355486 z"/>
  <path style="fill:#212529" d="m -30.665944,10.986331 -19.892593,16.618176 2.324222,1.654301 h -1.688478 v 19.646497 h -3.493167 c 0,0 -1.737919,-0.0027 -1.743166,1.743166 l -0.0273,9.351569 h 24.44533 l 0.0273,-9.351569 c 0,0 -0.0042,-1.743166 -1.750001,-1.743166 h -3.493167 V 37.995139 l 0.649415,0.464846 11.94239,-21.355486 z"/>
  <path style="fill:#373a3e" d="m -49.922793,47.162139 c 0,0 -1.743166,-0.0027 -1.743166,1.743166 h -1.750001 c 0,0 -1.743166,-0.0027 -1.743166,1.743166 v 0.881836 c 0,-1.745885 1.743166,-1.750001 1.743166,-1.750001 h 20.952163 c 1.745892,0 1.750001,1.750001 1.750001,1.750001 v -0.881836 c 0,0 -0.0042,-1.743166 -1.750001,-1.743166 h -1.743166 c 0,0 -0.0042,-1.743166 -1.750001,-1.743166 z"/>
  <path style="fill:#16a085" d="m -7.9738387,38.494285 -1.408156,-2.000083 c -0.8102853,0.138285 -1.6381233,0.13832 -2.4484473,3.08e-4 l -1.397726,2.021853 -4.020096,-2.304296 1.033438,-2.225904 c -0.264565,-0.31619 -0.501665,-0.654325 -0.708939,-1.010696 -0.207515,-0.357105 -0.384349,-0.731227 -0.528452,-1.118303 l -2.437415,-0.1897 -0.0126,-4.63366 2.305462,-0.195266 2.836059,4.879588 c 1.326634,2.282552 4.252461,3.05747 6.5349911,1.730825 2.2826036,-1.326637 3.0575077,-4.252454 1.7308702,-6.534998 l -2.8394155,-4.885647 1.3143664,-1.900494 4.0200784,2.304293 -1.0467248,2.230905 c 0.2659652,0.310486 0.5051169,0.642898 0.7151661,0.993599 0.2100701,0.360136 0.3889027,0.737618 0.5343313,1.12839 l 2.4385883,0.191695 0.0126,4.63366 -2.4486298,0.213745 c -0.2839552,0.775738 -0.697946,1.497487 -1.2241538,2.134355 l 1.0529582,2.206513 z"/>
  <path style="opacity:0.2;fill-opacity:0.99507392" d="m -28.088794,8.4931271 a 7.857149,7.857149 0 0 0 -7.854499,7.8544959 7.857149,7.857149 0 0 0 7.854499,7.861334 7.857149,7.857149 0 0 0 7.861335,-7.861334 7.857149,7.857149 0 0 0 -7.861335,-7.8544959 z M -42.936463,22.43845 A 12.22298,12.22298 0 0 0 -55.159126,34.661113 12.22298,12.22298 0 0 0 -42.936463,46.88378 12.22298,12.22298 0 0 0 -30.713796,34.661113 12.22298,12.22298 0 0 0 -42.936463,22.43845 Z m 32.3135,0.0273 a 7.857149,7.857149 0 0 0 -7.861334,7.854495 7.857149,7.857149 0 0 0 7.861334,7.861335 7.857149,7.857149 0 0 0 7.854496,-7.861335 7.857149,7.857149 0 0 0 -7.854496,-7.854495 z"/>
  <path style="fill:#16a085" d="m -28.088794,7.4931671 a 7.857149,7.857149 0 0 0 -7.854499,7.8544959 7.857149,7.857149 0 0 0 7.854499,7.861334 7.857149,7.857149 0 0 0 7.861335,-7.861334 7.857149,7.857149 0 0 0 -7.861335,-7.8544959 z M -42.936463,21.43849 A 12.22298,12.22298 0 0 0 -55.159126,33.661153 12.22298,12.22298 0 0 0 -42.936463,45.88382 12.22298,12.22298 0 0 0 -30.713796,33.661153 12.22298,12.22298 0 0 0 -42.936463,21.43849 Z m 32.3135,0.0273 a 7.857149,7.857149 0 0 0 -7.861334,7.854495 7.857149,7.857149 0 0 0 7.861334,7.861335 7.857149,7.857149 0 0 0 7.854496,-7.861335 7.857149,7.857149 0 0 0 -7.854496,-7.854495 z"/>
  <circle style="opacity:0.2" cx="42.939" cy="34.661" r="6.986" transform="scale(-1,1)"/>
  <circle style="fill:#212529" cx="42.939" cy="33.661" r="6.986" transform="scale(-1,1)"/>
  <circle style="fill-opacity:0.2" cx="42.939" cy="33.661" r="5.143" transform="scale(-1,1)"/>
  <path style="fill:#16a085" d="m -30.068797,5.7180074 -0.181629,2.0838232 c -0.658494,0.2459496 -1.270594,0.6016027 -1.810356,1.0518802 l -1.902191,-0.8942041 -1.982016,3.4311073 1.720541,1.201597 c -0.05974,0.347452 -0.0897,0.699341 -0.08984,1.051883 0,0.353205 0.02994,0.705777 0.08984,1.053884 l -1.720541,1.187615 1.982016,3.431108 1.78841,-0.846297 v -4.82631 c 0,-2.257626 1.830161,-4.0877939 4.087793,-4.0877939 2.257622,0 4.087783,1.8301679 4.087783,4.0877939 v 4.832299 l 1.788406,0.840308 1.98202,-3.431108 -1.732522,-1.199593 c 0.06323,-0.343826 0.09717,-0.69236 0.10178,-1.041906 5.72e-4,-0.356537 -0.02926,-0.712462 -0.08984,-1.063858 l 1.720558,-1.189622 -1.982013,-3.4311073 -1.902187,0.8942041 c -0.543388,-0.4514463 -1.159619,-0.8071535 -1.822334,-1.0518802 l -0.169655,-2.0838232 z"/>
  <path style="opacity:0.2;fill-opacity:0.94581281" d="m -24.680834,39.953346 v 1.746268 h -2.619407 v 1.746262 h 2.619407 v 5.238815 h -2.619407 v 1.746265 h 2.619407 v 1.746274 h 1.746272 v -1.746274 h 3.49254 v 1.746274 h 1.746271 v -1.746274 h 2.619404 v -1.746265 h -2.619404 v -5.238815 h 2.619404 v -1.746262 h -2.619404 v -1.746268 h -1.746271 v 1.746268 h -3.49254 v -1.746268 z m 1.746272,3.49253 h 3.49254 v 5.238815 h -3.49254 z m 10.477623,6.98508 v 1.746274 h 3.4925396 v -1.746274 z"/>
  <path style="fill:#ffffff" d="m -24.680834,38.953386 v 1.746268 h -2.619407 v 1.746262 h 2.619407 v 5.238815 h -2.619407 v 1.746265 h 2.619407 v 1.746274 h 1.746272 v -1.746274 h 3.49254 v 1.746274 h 1.746271 v -1.746274 h 2.619404 v -1.746265 h -2.619404 v -5.238815 h 2.619404 v -1.746262 h -2.619404 v -1.746268 h -1.746271 v 1.746268 h -3.49254 v -1.746268 z m 1.746272,3.49253 h 3.49254 v 5.238815 h -3.49254 z m 10.477623,6.98508 v 1.746274 h 3.4925396 v -1.746274 z"/>
  <path style="opacity:0.2;fill-opacity:0.98522171" d="m -42.939453,28.517578 a 5.1428003,5.1428003 0 0 0 -5.142578,5.144531 5.1428003,5.1428003 0 0 0 0.02734,0.521485 5.1428003,5.1428003 0 0 1 5.115235,-4.666016 5.1428003,5.1428003 0 0 1 5.117187,4.625 5.1428003,5.1428003 0 0 0 0.02539,-0.480469 5.1428003,5.1428003 0 0 0 -5.142578,-5.144531 z"/>
  <path style="opacity:0.2;fill:#ffffff" d="m -28.087891,7.4941406 a 7.857149,7.857149 0 0 0 -7.855468,7.8535154 7.857149,7.857149 0 0 0 0.02148,0.433594 7.857149,7.857149 0 0 1 7.833984,-7.2890625 7.857149,7.857149 0 0 1 7.839844,7.4277345 7.857149,7.857149 0 0 0 0.02148,-0.572266 7.857149,7.857149 0 0 0 -7.861329,-7.8535154 z M -42.935547,21.439453 a 12.22298,12.22298 0 0 0 -12.222656,12.222656 12.22298,12.22298 0 0 0 0.01953,0.404297 12.22298,12.22298 0 0 1 12.203125,-11.628906 12.22298,12.22298 0 0 1 12.201172,11.810547 12.22298,12.22298 0 0 0 0.02148,-0.585938 12.22298,12.22298 0 0 0 -12.222656,-12.222656 z m 32.3125,0.02539 a 7.857149,7.857149 0 0 0 -7.861328,7.855468 7.857149,7.857149 0 0 0 0.02148,0.427735 7.857149,7.857149 0 0 1 7.839844,-7.283203 7.857149,7.857149 0 0 1 7.8339845,7.433594 7.857149,7.857149 0 0 0 0.021484,-0.578126 7.857149,7.857149 0 0 0 -7.8554689,-7.855468 z"/>
  <path style="fill:#212529;stroke:#212529;stroke-width:8.73135281;stroke-linecap:round" d="m -28.086789,15.351922 17.462703,13.970173"/>
  <path style="opacity:0.2;fill-opacity:0.98522171;stroke:#212529;stroke-width:8.73135281;stroke-linecap:round" d="m -28.086789,16.351882 17.462703,13.970173"/>
 </g>
</svg>
