<?xml version="1.0" encoding="UTF-8" standalone="no"?>
<svg
   xmlns:dc="http://purl.org/dc/elements/1.1/"
   xmlns:cc="http://creativecommons.org/ns#"
   xmlns:rdf="http://www.w3.org/1999/02/22-rdf-syntax-ns#"
   xmlns:svg="http://www.w3.org/2000/svg"
   xmlns="http://www.w3.org/2000/svg"
   xmlns:sodipodi="http://sodipodi.sourceforge.net/DTD/sodipodi-0.dtd"
   xmlns:inkscape="http://www.inkscape.org/namespaces/inkscape"
   width="64"
   height="64"
   version="1"
   id="svg8"
   sodipodi:docname="MSM_new2.svg"
   inkscape:version="0.92.4 5da689c313, 2019-01-14">
  <metadata
     id="metadata14">
    <rdf:RDF>
      <cc:Work
         rdf:about="">
        <dc:format>image/svg+xml</dc:format>
        <dc:type
           rdf:resource="http://purl.org/dc/dcmitype/StillImage" />
        <dc:title></dc:title>
      </cc:Work>
    </rdf:RDF>
  </metadata>
  <defs
     id="defs12" />
  <sodipodi:namedview
     pagecolor="#ffffff"
     bordercolor="#666666"
     borderopacity="1"
     objecttolerance="10"
     gridtolerance="10"
     guidetolerance="10"
     inkscape:pageopacity="0"
     inkscape:pageshadow="2"
     inkscape:window-width="1920"
     inkscape:window-height="1053"
     id="namedview10"
     showgrid="false"
     inkscape:zoom="5.2149126"
     inkscape:cx="55.255392"
     inkscape:cy="39.66767"
     inkscape:window-x="1920"
     inkscape:window-y="0"
     inkscape:window-maximized="1"
     inkscape:current-layer="svg8" />
  <path
     style="opacity:0.2"
     d="M 6.8,5 C 5.2488,5 4,6.2488 4,7.8 V 58.2 C 4,59.7512 5.2488,61 6.8,61 H 21 V 22 H 40 V 5 Z M 43,5 V 61 H 57.2 C 58.7512,61 60,59.7512 60,58.2 V 7.8 C 60,6.2488 58.7512,5 57.2,5 Z M 24,25 V 61 H 40 V 25 Z"
     id="path2" />
  <path
     style="fill:#16a085"
     d="M 6.8,4 C 5.2488,4 4,5.2488 4,6.8 V 57.2 C 4,58.7512 5.2488,60 6.8,60 H 21 V 21 H 40 V 4 Z M 43,4 V 60 H 57.2 C 58.7512,60 60,58.7512 60,57.2 V 6.8 C 60,5.2488 58.7512,4 57.2,4 Z M 24,24 V 60 H 40 V 24 Z"
     id="path4" />
  <path
     style="opacity:0.2;fill:#ffffff"
     d="M 6.8007812 4 C 5.2495813 4 4 5.2495813 4 6.8007812 L 4 7.8007812 C 4 6.2495812 5.2495813 5 6.8007812 5 L 40 5 L 40 4 L 6.8007812 4 z M 43 4 L 43 5 L 57.199219 5 C 58.750419 5 60 6.2495813 60 7.8007812 L 60 6.8007812 C 60 5.2495813 58.750419 4 57.199219 4 L 43 4 z M 24 24 L 24 25 L 40 25 L 40 24 L 24 24 z"
     id="path6" />
  <path
     inkscape:connector-curvature="0"
     id="path830"
     d="m 12.4896,26.908854 c -1.43411,0 -2.5886371,1.154533 -2.5886371,2.588638 v 25.886374 c 0,1.4341 1.1545371,2.58864 2.5886371,2.58864 1.43411,0 2.58864,-1.15454 2.58864,-2.58864 V 29.497492 c 0,-1.434105 -1.15453,-2.588638 -2.58864,-2.588638 z"
     style="opacity:0.3;stroke-width:0.86287916" />
  <path
     style="fill:#4f4f4f;stroke-width:0.86287916"
     d="m 9.9009638,38.126283 v 17.257583 c 0,1.4341 1.1545332,2.58864 2.5886382,2.58864 1.434104,0 2.588637,-1.15454 2.588637,-2.58864 V 38.126283 Z"
     id="path896"
     inkscape:connector-curvature="0" />
  <path
     style="opacity:0.2;stroke-width:0.86287916"
     d="m 12.489602,33.811887 c -2.8593302,0 -5.1772749,2.317946 -5.1772749,5.177275 0,2.859334 2.3179447,5.177274 5.1772749,5.177274 2.859329,0 5.177276,-2.31794 5.177276,-5.177274 0,-2.859329 -2.317947,-5.177275 -5.177276,-5.177275 z"
     id="path909"
     inkscape:connector-curvature="0" />
  <path
     style="fill:#ffffff;stroke-width:0.86287916"
     d="m 12.489602,32.949008 c -2.8593302,0 -5.1772749,2.317946 -5.1772749,5.177275 0,2.85933 2.3179447,5.177273 5.1772749,5.177273 2.859329,0 5.177276,-2.317943 5.177276,-5.177273 0,-2.859329 -2.317947,-5.177275 -5.177276,-5.177275 z"
     id="path890"
     inkscape:connector-curvature="0" />
  <path
     style="opacity:0.3;stroke-width:0.86287916"
     d="m 51.318642,8.0158951 c -1.43411,0 -2.58864,1.154533 -2.58864,2.5886379 v 44.779333 c 0,1.4341 1.15453,2.58864 2.58864,2.58864 1.4341,0 2.58864,-1.15454 2.58864,-2.58864 V 10.604533 c 0,-1.4341049 -1.15454,-2.5886379 -2.58864,-2.5886379 z"
     id="path833"
     inkscape:connector-curvature="0"
     sodipodi:nodetypes="sssssss" />
  <path
     style="fill:#4f4f4f;stroke-width:0.86287916"
     d="m 48.730002,39.852041 v 15.531825 c 0,1.4341 1.15453,2.58864 2.58864,2.58864 1.4341,0 2.58864,-1.15454 2.58864,-2.58864 V 39.852041 Z"
     id="path894"
     inkscape:connector-curvature="0" />
  <path
     style="opacity:0.2;stroke-width:0.86287916"
     d="m 51.318642,36.400525 c -2.85933,0 -5.17728,2.317946 -5.17728,5.177271 0,2.85933 2.31795,5.17728 5.17728,5.17728 2.85933,0 5.17727,-2.31795 5.17727,-5.17728 0,-2.859325 -2.31794,-5.177271 -5.17727,-5.177271 z"
     id="path907"
     inkscape:connector-curvature="0" />
  <path
     style="fill:#ffffff;stroke-width:0.86287916"
     d="m 51.318642,35.537646 c -2.85933,0 -5.17728,2.317945 -5.17728,5.177274 0,2.859326 2.31795,5.177276 5.17728,5.177276 2.85933,0 5.17727,-2.31795 5.17727,-5.177276 0,-2.859329 -2.31794,-5.177274 -5.17727,-5.177274 z"
     id="path888"
     inkscape:connector-curvature="0" />
  <path
     style="opacity:0.3;stroke-width:0.86287916"
     d="m 32.000001,26.908854 c -1.43411,0 -2.588637,1.154533 -2.588637,2.588638 v 25.886374 c 0,1.4341 1.154537,2.58864 2.588637,2.58864 1.43411,0 2.58864,-1.15454 2.58864,-2.58864 V 29.497492 c 0,-1.434105 -1.15453,-2.588638 -2.58864,-2.588638 z"
     id="path900"
     inkscape:connector-curvature="0" />
  <path
     style="fill:#4f4f4f;stroke-width:0.86287916"
     d="m 29.411364,48.480836 v 6.90303 c 0,1.4341 1.154537,2.58864 2.588637,2.58864 1.43411,0 2.58864,-1.15454 2.58864,-2.58864 v -6.90303 z"
     id="path837"
     inkscape:connector-curvature="0" />
  <path
     style="opacity:0.2;stroke-width:0.86287916"
     d="m 32.000001,42.440676 c -2.85933,0 -5.177272,2.31795 -5.177272,5.17728 0,2.85933 2.317942,5.17727 5.177272,5.17727 2.85933,0 5.17727,-2.31794 5.17727,-5.17727 0,-2.85933 -2.31794,-5.17728 -5.17727,-5.17728 z"
     id="path839"
     inkscape:connector-curvature="0" />
  <path
     style="fill:#ffffff;stroke-width:0.86287916"
     d="m 32.000001,41.577796 c -2.85933,0 -5.177272,2.31795 -5.177272,5.17728 0,2.85933 2.317942,5.17727 5.177272,5.17727 2.85933,0 5.17727,-2.31794 5.17727,-5.17727 0,-2.85933 -2.31794,-5.17728 -5.17727,-5.17728 z"
     id="path841"
     inkscape:connector-curvature="0" />
</svg>
